<svg width="107" height="32" viewBox="0 0 107 32" fill="none" xmlns="http://www.w3.org/2000/svg">
<g id="Group">
<g id="Group_2">
<path id="Vector" d="M37.8225 15.9669C37.6233 15.9669 37.4242 15.9669 37.225 15.7677C37.0258 15.5686 36.9263 15.3694 36.9263 15.0706C36.9263 14.7719 36.9263 14.8715 36.9263 14.6723L40.3121 5.4109C40.4117 5.11215 40.6109 4.91298 40.9097 4.71381C41.2084 4.51465 41.4076 4.51465 41.7063 4.51465C42.0051 4.51465 42.3038 4.51465 42.503 4.71381C42.8017 4.91298 43.0009 5.11215 43.1005 5.4109L46.6856 14.6723C46.6856 14.7719 46.6856 14.971 46.6856 15.0706C46.6856 15.3694 46.6856 15.5686 46.3868 15.7677C46.1876 15.9669 45.9884 15.9669 45.7893 15.9669C45.5901 15.9669 45.4905 15.9669 45.2913 15.8673C45.0922 15.8673 44.9926 15.6681 44.893 15.469L43.9968 13.0789C43.9968 12.9794 43.9967 12.8798 43.7976 12.8798H39.6151C39.5155 12.8798 39.4159 12.8798 39.4159 13.0789L38.6192 15.469C38.6192 15.6681 38.42 15.7677 38.2209 15.8673C38.0217 15.8673 37.9221 15.9669 37.7229 15.9669H37.8225ZM40.6109 11.2864H43.1005C43.2001 11.2864 43.2997 11.2864 43.3993 11.1868C43.3993 11.1868 43.3993 10.9876 43.3993 10.8881L42.1047 7.10386C42.1047 6.90469 42.0051 6.8051 41.9055 6.8051C41.8059 6.8051 41.7063 6.8051 41.6068 7.10386L40.4117 10.8881C40.4117 10.9876 40.4117 11.0872 40.4117 11.1868C40.4117 11.1868 40.6109 11.2864 40.7105 11.2864H40.6109Z" fill="white"/>
<path id="Vector_2" d="M49.6741 15.9659C49.4749 15.9659 49.1761 15.9659 48.977 15.7668C48.7778 15.5676 48.6782 15.3684 48.6782 15.0697V5.50954C48.6782 5.21078 48.7778 5.01162 48.977 4.81245C49.1761 4.71286 49.3753 4.61328 49.6741 4.61328C49.9728 4.61328 50.172 4.61328 50.3712 4.81245C50.5703 4.91203 50.6699 5.21078 50.6699 5.50954V15.0697C50.6699 15.3684 50.6699 15.5676 50.3712 15.7668C50.172 15.9659 49.9728 15.9659 49.6741 15.9659Z" fill="white"/>
<path id="Vector_3" d="M40.9102 28.3153C40.1135 28.3153 39.4164 28.1162 38.8188 27.8174C38.2213 27.4191 37.7234 26.9211 37.3251 26.3236C37.0263 25.7261 36.8271 24.9294 36.8271 24.1328C36.8271 23.3361 37.0263 22.639 37.3251 22.0415C37.6238 21.444 38.1217 20.9461 38.8188 20.5477C39.4164 20.1494 40.1135 20.0498 40.9102 20.0498C41.7068 20.0498 41.906 20.0498 42.3043 20.3485C42.7026 20.5477 43.0014 20.7469 43.3002 21.0457C43.3002 20.7469 43.3998 20.5477 43.599 20.4481C43.7981 20.3486 43.9973 20.249 44.1964 20.249C44.3956 20.249 44.6943 20.249 44.7939 20.4481C44.8935 20.6473 45.0927 20.8465 45.0927 21.1452V27.5187C45.0927 27.8174 45.0927 28.0166 44.7939 28.1162C44.4952 28.2157 44.3956 28.3153 44.1964 28.3153C43.9973 28.3153 43.6985 28.3153 43.599 28.1162C43.4994 27.917 43.3002 27.7178 43.3002 27.5187C43.0014 27.7178 42.7026 27.917 42.3043 28.1162C41.906 28.3153 41.4081 28.4149 40.9102 28.4149V28.3153ZM41.1093 26.6224C41.8064 26.6224 42.3043 26.4232 42.7027 25.9253C43.101 25.4274 43.3002 24.8299 43.3002 24.1328C43.3002 23.4357 43.101 22.8382 42.7027 22.3402C42.3043 21.9419 41.8064 21.6432 41.1093 21.6432C40.4122 21.6432 39.8147 21.8423 39.4164 22.3402C39.018 22.8382 38.7193 23.3361 38.7193 24.1328C38.7193 24.9294 38.9185 25.527 39.4164 25.9253C39.8147 26.4232 40.4122 26.6224 41.1093 26.6224Z" fill="white"/>
<path id="Vector_4" d="M50.8691 28.3153C49.6741 28.3153 48.6782 27.917 47.8816 27.1203C47.0849 26.3236 46.6865 25.3278 46.6865 24.0332C46.6865 22.7386 46.8857 22.5394 47.1844 21.9419C47.5828 21.3444 48.0807 20.8465 48.6782 20.4481C49.2757 20.0498 49.9728 19.9502 50.7695 19.9502C51.5661 19.9502 52.7612 20.249 53.5579 20.7469C53.8566 20.946 53.9562 21.1452 53.9562 21.444C53.9562 21.7427 53.9562 21.9419 53.6575 22.1411C53.4583 22.3402 53.2591 22.3402 53.06 22.3402C52.8608 22.3402 52.7612 22.3402 52.6616 22.2406C51.9645 21.7427 51.367 21.5435 50.7695 21.6431C50.0724 21.6431 49.4749 21.9419 49.0766 22.3402C48.6782 22.7386 48.479 23.3361 48.479 24.0332C48.479 24.7303 48.6782 25.4273 49.0766 25.8257C49.4749 26.224 50.0724 26.5228 50.8691 26.5228C51.6658 26.5228 52.2633 26.224 52.9603 25.7261C53.0599 25.6265 53.2591 25.5269 53.5579 25.5269C53.8566 25.5269 54.0558 25.6265 54.1554 25.8257C54.255 26.0249 54.3546 26.224 54.3546 26.4232C54.3546 26.6224 54.2549 26.9211 53.9562 27.1203C53.4583 27.5186 52.9603 27.8174 52.4624 27.917C51.9645 28.1161 51.367 28.1161 50.6699 28.1161L50.8691 28.3153Z" fill="white"/>
<path id="Vector_5" d="M59.5327 28.3153C58.736 28.3153 58.0389 28.1162 57.4414 27.8174C56.8439 27.4191 56.346 26.9211 55.9476 26.3236C55.6489 25.7261 55.4497 24.9294 55.4497 24.1328C55.4497 23.3361 55.6489 22.639 55.9476 22.0415C56.2464 21.444 56.7443 20.9461 57.4414 20.5477C58.0389 20.1494 58.736 20.0498 59.5327 20.0498C60.3294 20.0498 60.5285 20.0498 60.9269 20.3485C61.3252 20.5477 61.624 20.7469 61.9227 21.0457C61.9227 20.7469 62.0223 20.5477 62.2215 20.4481C62.4206 20.3486 62.6198 20.249 62.819 20.249C63.0182 20.249 63.3169 20.249 63.4165 20.4481C63.6157 20.6473 63.7152 20.8465 63.7152 21.1452V27.5187C63.7152 27.8174 63.7152 28.0166 63.4165 28.1162C63.2173 28.2157 63.0182 28.3153 62.819 28.3153C62.6198 28.3153 62.321 28.3153 62.2215 28.1162C62.1219 27.917 61.9227 27.7178 61.9227 27.5187C61.624 27.7178 61.3252 27.917 60.9269 28.1162C60.5285 28.3153 60.0306 28.4149 59.5327 28.4149V28.3153ZM59.6323 26.6224C60.3294 26.6224 60.8273 26.4232 61.2256 25.9253C61.6239 25.4274 61.8232 24.8299 61.8232 24.1328C61.8232 23.4357 61.6239 22.8382 61.2256 22.3402C60.8273 21.9419 60.3294 21.6432 59.6323 21.6432C58.9352 21.6432 58.3377 21.8423 57.9393 22.3402C57.541 22.8382 57.2422 23.3361 57.2422 24.1328C57.2422 24.9294 57.4414 25.527 57.9393 25.9253C58.3377 26.4232 58.9352 26.6224 59.6323 26.6224Z" fill="white"/>
<path id="Vector_6" d="M69.2915 28.3154C68.4948 28.3154 67.7977 28.1162 67.2002 27.8174C66.6027 27.4191 66.1048 26.9212 65.7064 26.3237C65.4077 25.7262 65.2085 24.9295 65.2085 24.1328C65.2085 23.3361 65.4077 22.639 65.7064 22.0415C66.0052 21.444 66.5031 20.9461 67.2002 20.5478C67.7977 20.1494 68.4948 20.0498 69.2915 20.0498C70.0882 20.0498 70.2873 20.0498 70.6857 20.249C71.084 20.4482 71.3827 20.6473 71.6815 20.9461V17.1619C71.6815 16.8631 71.6815 16.664 71.9803 16.4648C72.1795 16.2656 72.3786 16.2656 72.5778 16.2656C72.777 16.2656 73.0757 16.2656 73.1753 16.4648C73.3744 16.664 73.4741 16.8631 73.4741 17.1619V27.5187C73.4741 27.8175 73.474 28.0166 73.1753 28.1162C72.8765 28.2158 72.777 28.3154 72.5778 28.3154C72.3786 28.3154 72.0799 28.3154 71.9803 28.1162C71.7811 28.0166 71.6815 27.7179 71.6815 27.5187C71.3827 27.7179 71.084 27.917 70.6857 28.1162C70.2873 28.3154 69.7894 28.415 69.2915 28.415V28.3154ZM69.4907 26.6224C70.1878 26.6224 70.6857 26.4233 71.084 25.9253C71.4824 25.4274 71.6815 24.8299 71.6815 24.1328C71.6815 23.4357 71.4824 22.8382 71.084 22.3403C70.6857 21.8424 70.1878 21.6432 69.4907 21.6432C68.7936 21.6432 68.1961 21.8424 67.7977 22.3403C67.3994 22.8382 67.1006 23.3361 67.1006 24.1328C67.1006 24.9295 67.2998 25.527 67.7977 25.9253C68.1961 26.4233 68.7936 26.6224 69.4907 26.6224Z" fill="white"/>
<path id="Vector_7" d="M79.35 28.3153C77.9558 28.3153 76.96 27.917 76.1633 27.1203C75.3666 26.3236 75.0679 25.3278 75.0679 23.9336C75.0679 22.5394 75.4662 21.8423 76.2629 21.0456C77.0596 20.249 78.0554 19.9502 79.2504 19.9502C80.4455 19.9502 81.3417 20.2489 82.0388 20.946C82.7359 21.6431 83.1342 22.4398 83.1342 23.4357C83.1342 24.4315 83.0346 24.1327 82.8355 24.3319C82.6363 24.5311 82.3376 24.6307 82.0388 24.6307H77.2587C77.0596 24.6307 77.0596 24.7303 77.0596 24.9294C77.1591 25.4274 77.4579 25.8257 77.9559 26.1244C78.3542 26.4232 78.9517 26.5228 79.4496 26.5228C79.9475 26.5228 80.2463 26.5228 80.6446 26.3236C81.0429 26.1244 81.3417 26.0249 81.6404 25.8257C81.6404 25.8257 81.8396 25.7261 82.0388 25.7261C82.238 25.7261 82.4371 25.7261 82.5367 26.0249C82.6363 26.3236 82.7359 26.4232 82.7359 26.6224C82.7359 26.8215 82.7359 26.8215 82.7359 26.9211C82.7359 27.0207 82.6363 27.1203 82.5367 27.2199C82.0388 27.5186 81.5409 27.8174 81.043 27.917C80.545 28.0166 79.9475 28.1161 79.4496 28.1161L79.35 28.3153ZM80.9434 23.3361C81.043 23.3361 81.1425 23.3361 81.1425 23.1369C81.1425 22.7386 80.9434 22.3402 80.545 22.0415C80.1467 21.7427 79.7483 21.5436 79.1508 21.5436C78.5533 21.5436 78.2546 21.6431 77.7567 21.9419C77.3583 22.2406 77.0596 22.5394 76.96 22.9377C76.96 23.0373 76.96 23.1369 76.96 23.1369C76.96 23.1369 76.96 23.1369 77.1591 23.1369H80.8438L80.9434 23.3361Z" fill="white"/>
<path id="Vector_8" d="M85.6233 28.3153C85.4241 28.3153 85.1254 28.3153 85.0258 28.1162C84.9262 27.917 84.7271 27.7178 84.7271 27.5187V21.1452C84.7271 20.8465 84.727 20.6473 85.0258 20.4481C85.3245 20.249 85.4241 20.249 85.6233 20.249C85.8224 20.249 86.0216 20.249 86.1212 20.3485C86.3204 20.3485 86.42 20.5477 86.5196 20.7469C86.5196 20.8465 86.5196 20.9461 86.5196 21.0457C86.8183 20.7469 87.117 20.5477 87.615 20.3485C88.0133 20.1494 88.5113 20.0498 88.9096 20.0498C90.1046 20.0498 91.0009 20.5477 91.4988 21.444C91.698 21.0456 92.0963 20.7469 92.5942 20.4481C93.0921 20.1494 93.6897 20.0498 94.3868 20.0498C95.0839 20.0498 96.1793 20.3486 96.7768 21.0457C97.3743 21.7427 97.6731 22.639 97.6731 23.9336V27.5187C97.6731 27.8174 97.5735 28.0166 97.3743 28.1162C97.1751 28.2157 96.9759 28.3153 96.7768 28.3153C96.5776 28.3153 96.2789 28.3153 96.1793 28.1162C95.9801 28.0166 95.8805 27.7178 95.8805 27.5187V24.1328C95.8805 22.5394 95.283 21.7427 94.088 21.7427C92.893 21.7427 92.9926 21.9419 92.6938 22.2407C92.3951 22.5394 92.1959 23.0373 92.1959 23.4357V27.5187C92.1959 27.8174 92.0963 28.0166 91.8972 28.1162C91.698 28.2157 91.4988 28.3153 91.2996 28.3153C91.1004 28.3153 90.8017 28.3153 90.7021 28.1162C90.503 28.0166 90.4034 27.7178 90.4034 27.5187V24.1328C90.4034 23.3361 90.2042 22.7386 89.9055 22.3402C89.6067 21.9419 89.2083 21.7427 88.6108 21.7427C87.8141 21.7427 87.3162 21.9419 87.0175 22.4398C86.7187 22.9378 86.6191 23.4357 86.6191 24.0332V27.5187C86.6191 27.8174 86.6191 28.0166 86.3204 28.1162C86.1212 28.2157 85.9221 28.3153 85.7229 28.3153H85.6233Z" fill="white"/>
<path id="Vector_9" d="M98.8687 20.9461C98.8687 20.6473 98.8687 20.4481 99.1674 20.249C99.3666 20.0498 99.5658 20.0498 99.8645 20.0498C100.263 20.0498 100.562 20.249 100.661 20.6473L102.752 25.8257C102.752 25.9253 102.952 26.0249 103.051 26.0249C103.151 26.0249 103.25 26.0249 103.35 25.8257L105.142 20.6473C105.242 20.249 105.541 20.0498 105.939 20.0498C106.337 20.0498 106.437 20.0498 106.636 20.249C106.835 20.4481 106.935 20.6473 106.935 20.8465C106.935 21.0456 106.935 21.0456 106.935 21.2448L102.752 31.4025C102.653 31.8008 102.354 32 101.956 32C101.557 32 101.458 32 101.259 31.8008C101.059 31.6016 100.96 31.4025 100.96 31.2033C100.96 31.0041 100.96 30.9045 100.96 30.8049L102.255 28.1162C101.856 28.1162 101.657 27.917 101.458 27.6182L98.769 21.3444C98.769 21.2448 98.769 21.0457 98.769 21.0457L98.8687 20.9461Z" fill="white"/>
</g>
<g id="Group 35626">
<path id="Vector_10" opacity="0.9" d="M25.2769 27.6191C25.2769 27.6191 25.2769 27.6191 25.1773 27.6191C25.1773 27.6191 25.0777 27.6191 24.9781 27.7187C24.9781 27.7187 24.779 27.8183 24.6794 27.9179C22.4885 29.2125 19.7002 28.4158 18.5051 26.2249L18.306 25.8266L17.9076 25.0299L17.5093 24.4324C17.5093 24.4324 17.5093 24.3328 17.4097 24.2333L13.5259 17.4615L12.8288 16.2665L9.64208 10.6897C8.34747 8.49887 9.14416 5.7105 11.335 4.51548C12.0321 4.11714 12.7292 3.91797 13.4263 3.91797C15.0196 3.91797 16.5134 4.71465 17.3101 6.20842L26.2727 21.644C27.3682 23.6357 26.8703 26.1254 25.1773 27.42L25.2769 27.6191Z" fill="white"/>
<path id="Vector_11" d="M30.3541 4.21628C28.7608 4.61461 27.4662 5.90922 27.0678 7.50257C26.6695 9.09593 26.8687 7.60216 26.8687 7.50257C26.4703 5.90922 25.1757 4.61461 23.5824 4.21628C21.989 3.81794 23.4828 4.01711 23.5824 4.01711C25.1757 3.61877 26.4703 2.32417 26.8687 0.730812C27.267 -0.862543 27.0678 0.631227 27.0678 0.730812C27.4662 2.32417 28.7608 3.61877 30.3541 4.01711C31.9475 4.41545 30.4537 4.21628 30.3541 4.21628Z" fill="white"/>
<path id="Vector_12" opacity="0.5" d="M17.708 24.8303C17.708 24.8303 17.6084 24.6311 17.5088 24.6311C16.6125 23.3365 15.1187 22.5398 13.5254 22.5398C11.932 22.5398 10.737 23.2369 9.84075 24.2328C9.84075 24.2328 9.84077 24.2327 9.74119 24.3323C9.74119 24.3323 9.74119 24.3323 9.74119 24.4319C9.6416 24.5315 9.54197 24.7307 9.44238 24.9298L13.625 17.6602L17.8075 24.9298L17.708 24.8303Z" fill="white"/>
<path id="Vector_13" d="M22.4881 28.614C24.9631 28.614 26.9695 26.6076 26.9695 24.1327C26.9695 21.6577 24.9631 19.6514 22.4881 19.6514C20.0132 19.6514 18.0068 21.6577 18.0068 24.1327C18.0068 26.6076 20.0132 28.614 22.4881 28.614Z" fill="white"/>
<path id="Vector_14" d="M17.409 10.888L14.2224 16.4647L13.5253 17.6597L9.54189 24.4315L9.14353 25.1286L8.44643 26.3236C7.15183 28.5144 4.3635 29.2116 2.27222 28.0165C0.0813608 26.7219 -0.615744 23.9336 0.579272 21.8423L9.54189 6.40665C10.3386 5.01246 11.9319 4.11621 13.4257 4.11621C14.1228 4.11621 14.9195 4.31537 15.517 4.71371C17.7078 6.00831 18.4049 8.79668 17.2099 10.888H17.409Z" fill="white"/>
</g>
</g>
</svg>
