<svg width="24" height="24" viewBox="0 0 24 24" fill="none" xmlns="http://www.w3.org/2000/svg">
<g id="4_ins 1" clip-path="url(#clip0_340_104)">
<g id="Layer 2">
<g id="Layer 1">
<path id="Vector" d="M16.8496 0H7.1504C5.25465 0.00211745 3.43714 0.756141 2.09664 2.09664C0.756141 3.43714 0.00211745 5.25465 0 7.1504L0 16.8496C0.00211745 18.7454 0.756141 20.5629 2.09664 21.9034C3.43714 23.2439 5.25465 23.9979 7.1504 24H16.8496C18.7454 23.9979 20.5629 23.2439 21.9034 21.9034C23.2439 20.5629 23.9979 18.7454 24 16.8496V7.1504C23.9979 5.25465 23.2439 3.43714 21.9034 2.09664C20.5629 0.756141 18.7454 0.00211745 16.8496 0ZM21.5856 16.8496C21.5856 18.1057 21.0866 19.3103 20.1985 20.1985C19.3103 21.0866 18.1057 21.5856 16.8496 21.5856H7.1504C5.89433 21.5856 4.68971 21.0866 3.80154 20.1985C2.91337 19.3103 2.4144 18.1057 2.4144 16.8496V7.1504C2.4144 5.89433 2.91337 4.68971 3.80154 3.80154C4.68971 2.91337 5.89433 2.4144 7.1504 2.4144H16.8496C18.1057 2.4144 19.3103 2.91337 20.1985 3.80154C21.0866 4.68971 21.5856 5.89433 21.5856 7.1504V16.8496Z" fill="#F0F0F0"/>
<path id="Vector_2" d="M12 5.79199C10.7722 5.79199 9.57192 6.15608 8.55101 6.83823C7.53011 7.52037 6.73442 8.48993 6.26455 9.62429C5.79468 10.7587 5.67174 12.0069 5.91128 13.2111C6.15082 14.4153 6.74207 15.5215 7.61028 16.3897C8.47848 17.2579 9.58464 17.8492 10.7889 18.0887C11.9931 18.3282 13.2413 18.2053 14.3757 17.7354C15.5101 17.2656 16.4796 16.4699 17.1618 15.449C17.8439 14.4281 18.208 13.2278 18.208 12C18.2059 10.3542 17.5511 8.77638 16.3874 7.61261C15.2236 6.44884 13.6458 5.79411 12 5.79199ZM12 15.7936C11.2497 15.7936 10.5162 15.5711 9.89238 15.1543C9.26853 14.7374 8.78229 14.1449 8.49517 13.4517C8.20804 12.7586 8.13291 11.9958 8.27929 11.2599C8.42567 10.524 8.78697 9.84806 9.31751 9.31751C9.84806 8.78697 10.524 8.42566 11.2599 8.27929C11.9958 8.13291 12.7586 8.20803 13.4517 8.49516C14.1449 8.78229 14.7374 9.26853 15.1543 9.89238C15.5711 10.5162 15.7936 11.2497 15.7936 12C15.7932 13.006 15.3934 13.9707 14.682 14.682C13.9707 15.3933 13.006 15.7932 12 15.7936Z" fill="#F0F0F0"/>
<path id="Vector_3" d="M18.2194 7.32805C19.0412 7.32805 19.7074 6.66185 19.7074 5.84005C19.7074 5.01825 19.0412 4.35205 18.2194 4.35205C17.3976 4.35205 16.7314 5.01825 16.7314 5.84005C16.7314 6.66185 17.3976 7.32805 18.2194 7.32805Z" fill="#F0F0F0"/>
</g>
</g>
</g>
<defs>
<clipPath id="clip0_340_104">
<rect width="24" height="24" fill="white"/>
</clipPath>
</defs>
</svg>
