<svg width="24" height="24" viewBox="0 0 24 24" fill="none" xmlns="http://www.w3.org/2000/svg">
<g id="svgexport-35 1" clip-path="url(#clip0_83_305)">
<path id="Vector" d="M22.223 0H1.772C0.792 0 0 0.773 0 1.73V22.266C0 23.222 0.792 24 1.772 24H22.223C23.203 24 24 23.222 24 22.27V1.73C24 0.773 23.203 0 22.223 0ZM7.12 20.452H3.558V8.995H7.12V20.452ZM5.34 7.434C5.06253 7.44458 4.78578 7.39907 4.52631 7.30019C4.26684 7.20131 4.02999 7.05109 3.82994 6.85852C3.62989 6.66596 3.47075 6.43501 3.36205 6.1795C3.25335 5.92399 3.19732 5.64917 3.19732 5.3715C3.19732 5.09383 3.25335 4.81901 3.36205 4.5635C3.47075 4.30799 3.62989 4.07704 3.82994 3.88448C4.02999 3.69191 4.26684 3.54169 4.52631 3.44281C4.78578 3.34393 5.06253 3.29842 5.34 3.309C5.87915 3.32087 6.39221 3.54339 6.76931 3.92889C7.14642 4.31439 7.35758 4.83222 7.35758 5.3715C7.35758 5.91078 7.14642 6.42861 6.76931 6.81411C6.39221 7.19962 5.87915 7.42213 5.34 7.434ZM20.452 20.452H16.894V14.882C16.894 13.556 16.87 11.845 15.042 11.845C13.191 11.845 12.909 13.294 12.909 14.789V20.452H9.356V8.995H12.769V10.561H12.816C13.289 9.661 14.452 8.709 16.181 8.709C19.786 8.709 20.451 11.081 20.451 14.166L20.452 20.452Z" fill="#F0F0F0"/>
</g>
<defs>
<clipPath id="clip0_83_305">
<rect width="24" height="24" fill="white"/>
</clipPath>
</defs>
</svg>
