<svg width="24" height="24" viewBox="0 0 24 24" fill="none" xmlns="http://www.w3.org/2000/svg">
<g id="svgexport-34 1" clip-path="url(#clip0_83_307)">
<path id="Vector" d="M24.147 12.073C24.147 5.405 18.74 0 12.073 0C5.406 0 0 5.405 0 12.073C0 18.1 4.415 23.094 10.187 24V15.563H7.12V12.073H10.186V9.413C10.186 6.388 11.988 4.716 14.746 4.716C16.066 4.716 17.449 4.952 17.449 4.952V7.923H15.926C14.426 7.923 13.959 8.853 13.959 9.81V12.073H17.307L16.772 15.563H13.96V24C19.732 23.094 24.147 18.1 24.147 12.073Z" fill="#F0F0F0"/>
</g>
<defs>
<clipPath id="clip0_83_307">
<rect width="24" height="24" fill="white"/>
</clipPath>
</defs>
</svg>
