<svg width="55" height="12" viewBox="0 0 55 12" fill="none" xmlns="http://www.w3.org/2000/svg">
<g id="Group">
<path id="Vector" d="M6.01174 7.02692H2.59786L1.77802 9.39064H0.332031L3.56561 0.645508H5.06793L8.30151 9.39064H6.83086L6.01174 7.02692ZM2.95143 5.93619H5.65749L4.32349 2.10006H4.28616L2.95143 5.93619Z" fill="#27262B"/>
<path id="Vector_2" d="M15.2852 6.2032C15.2852 8.18454 14.1991 9.45752 12.5602 9.45752C12.145 9.47872 11.7321 9.38534 11.3687 9.18806C11.0054 8.99078 10.7063 8.69757 10.5056 8.34202H10.4746V11.5001H9.13428V3.01491H10.4317V4.07538H10.4563C10.6662 3.72153 10.9703 3.42984 11.3365 3.23136C11.7026 3.03288 12.117 2.93502 12.5355 2.9482C14.1928 2.9482 15.2852 4.22737 15.2852 6.2032ZM13.9075 6.2032C13.9075 4.91235 13.2243 4.06369 12.1819 4.06369C11.1578 4.06369 10.469 4.93022 10.469 6.2032C10.469 7.48788 11.1578 8.34822 12.1819 8.34822C13.2243 8.34822 13.9075 7.50576 13.9075 6.2032Z" fill="#27262B"/>
<path id="Vector_3" d="M22.4717 6.2032C22.4717 8.18454 21.3857 9.45751 19.7467 9.45751C19.3315 9.47872 18.9186 9.38533 18.5552 9.18805C18.1919 8.99077 17.8928 8.69756 17.6922 8.34201H17.6611V11.5H16.3208V3.0149H17.6182V4.07537H17.6428C17.8527 3.72152 18.1568 3.42984 18.523 3.23136C18.8891 3.03287 19.3035 2.93502 19.722 2.9482C21.3793 2.9482 22.4717 4.22736 22.4717 6.2032ZM21.0941 6.2032C21.0941 4.91234 20.4109 4.06368 19.3684 4.06368C18.3444 4.06368 17.6555 4.93022 17.6555 6.2032C17.6555 7.48787 18.3444 8.34821 19.3684 8.34821C20.4109 8.34821 21.0941 7.50575 21.0941 6.2032H21.0941Z" fill="#27262B"/>
<path id="Vector_4" d="M27.2217 6.95433C27.321 7.82156 28.1838 8.39096 29.3628 8.39096C30.4926 8.39096 31.3054 7.82153 31.3054 7.03958C31.3054 6.36079 30.8151 5.95436 29.6544 5.67582L28.4937 5.40279C26.8491 5.01492 26.0856 4.26392 26.0856 3.04527C26.0856 1.5364 27.4323 0.5 29.3445 0.5C31.237 0.5 32.5344 1.5364 32.5781 3.04527H31.2251C31.1441 2.17255 30.4052 1.64575 29.3255 1.64575C28.2457 1.64575 27.5069 2.17874 27.5069 2.95449C27.5069 3.57276 27.9788 3.93657 29.1332 4.21507L30.12 4.45165C31.9575 4.87597 32.721 5.59672 32.721 6.87587C32.721 8.51197 31.3863 9.53668 29.2635 9.53668C27.2773 9.53668 25.9362 8.53604 25.8496 6.95427L27.2217 6.95433Z" fill="#27262B"/>
<path id="Vector_5" d="M35.614 1.50659V3.01546H36.8557V4.05186H35.614V7.56682C35.614 8.11288 35.8626 8.36734 36.4085 8.36734C36.5559 8.36483 36.7031 8.35472 36.8494 8.33705V9.36727C36.604 9.41204 36.3545 9.43232 36.1049 9.42779C34.7829 9.42779 34.2673 8.94294 34.2673 7.70641V4.05186H33.3179V3.01546H34.2673V1.50659H35.614Z" fill="#27262B"/>
<path id="Vector_6" d="M37.5747 6.2037C37.5747 4.19761 38.7847 2.93701 40.6716 2.93701C42.5649 2.93701 43.7693 4.19758 43.7693 6.2037C43.7693 8.2153 42.5712 9.47039 40.6716 9.47039C38.7727 9.47039 37.5747 8.21529 37.5747 6.2037ZM42.4036 6.2037C42.4036 4.82757 41.7577 4.01536 40.6716 4.01536C39.5856 4.01536 38.9404 4.83376 38.9404 6.2037C38.9404 7.58534 39.5856 8.39136 40.6716 8.39136C41.7577 8.39136 42.4036 7.58534 42.4036 6.2037H42.4036Z" fill="#27262B"/>
<path id="Vector_7" d="M44.8745 3.01485H46.1529V4.10007H46.1839C46.2704 3.76113 46.4737 3.4616 46.7598 3.25182C47.0458 3.04204 47.3971 2.9348 47.7545 2.94813C47.909 2.9476 48.063 2.96398 48.2138 2.99696V4.22111C48.0188 4.16293 47.8153 4.13622 47.6115 4.14203C47.4168 4.13431 47.2227 4.16783 47.0425 4.24029C46.8623 4.31275 46.7003 4.42242 46.5676 4.56178C46.4349 4.70114 46.3347 4.86689 46.2738 5.04764C46.2129 5.2284 46.1928 5.41988 46.2149 5.60894V9.39074H44.8745L44.8745 3.01485Z" fill="#27262B"/>
<path id="Vector_8" d="M54.3937 7.51864C54.2134 8.67607 53.059 9.4704 51.582 9.4704C49.6825 9.4704 48.5034 8.22768 48.5034 6.23396C48.5034 4.23406 49.6888 2.93701 51.5257 2.93701C53.3323 2.93701 54.4684 4.14878 54.4684 6.08198V6.53038H49.8564V6.60946C49.8352 6.84411 49.8652 7.0805 49.9447 7.30292C50.0242 7.52535 50.1512 7.72872 50.3173 7.89953C50.4835 8.07034 50.6849 8.20468 50.9083 8.29362C51.1317 8.38257 51.3719 8.42409 51.613 8.41542C51.9298 8.4444 52.2476 8.37277 52.5193 8.21119C52.791 8.04962 53.002 7.80672 53.121 7.51863L54.3937 7.51864ZM49.8628 5.6157H53.1273C53.1394 5.40471 53.1066 5.19358 53.0311 4.99554C52.9556 4.79751 52.839 4.61685 52.6886 4.4649C52.5382 4.31295 52.3573 4.19299 52.1572 4.11256C51.957 4.03212 51.7421 3.99294 51.5257 3.99748C51.3074 3.99621 51.0911 4.03716 50.8891 4.11796C50.6871 4.19877 50.5035 4.31783 50.3489 4.46828C50.1943 4.61873 50.0718 4.79758 49.9883 4.99452C49.9049 5.19146 49.8622 5.40258 49.8628 5.61571V5.6157Z" fill="#27262B"/>
</g>
</svg>
