<svg width="25" height="24" viewBox="0 0 25 24" fill="none" xmlns="http://www.w3.org/2000/svg">
<g id="brain-02">
<path id="Vector" opacity="0.4" d="M11.8664 1.25C6.5432 1.25 2.22754 5.56426 2.22754 10.8866C2.22754 12.6757 2.7159 14.353 3.56705 15.79C3.89481 16.3434 4.10701 16.7293 4.24515 17.1162C4.37727 17.4863 4.44976 17.8825 4.44976 18.4451V18.4848C4.44974 19.1769 4.44973 19.7544 4.49875 20.2212C4.5501 20.7101 4.66184 21.1628 4.94349 21.567C5.12931 21.8337 5.36092 22.0653 5.62758 22.2511C6.03176 22.5327 6.48436 22.6445 6.97321 22.6958C7.43986 22.7448 8.01722 22.7448 8.70913 22.7448H11.6275C11.9103 22.7448 12.0518 22.7448 12.1396 22.6569C12.2275 22.5691 12.2275 22.4277 12.2275 22.1448V19.7043C12.2275 19.2901 12.5633 18.9543 12.9775 18.9543C13.3917 18.9543 13.5888 19.078 13.7275 19.7043L14.0952 20.8222C14.2674 21.346 14.3536 21.6079 14.4883 21.8193C14.7616 22.2485 15.1883 22.5573 15.6814 22.6829C15.9244 22.7448 16.2001 22.7448 16.7514 22.7448C17.2927 22.7448 17.7441 22.7448 18.1162 22.7142C18.5065 22.682 18.8659 22.6129 19.2122 22.444C19.5858 22.2618 19.9171 22.0032 20.1845 21.685C20.5605 21.2377 20.7893 20.6934 20.9468 20.1765C21.1027 19.6648 21.2048 19.1222 21.2937 18.6505C21.3438 18.4489 21.5381 17.9987 21.9135 17.8111L23.3128 17.1116C23.4922 17.0219 23.6282 16.8641 23.6905 16.6735C23.7527 16.4829 23.736 16.2752 23.6441 16.097L21.8635 12.6436C21.6687 12.2657 21.5571 12.0492 21.5213 11.8084C21.5077 11.7168 21.5053 11.5059 21.5053 10.8866C21.5053 5.56426 17.1896 1.25 11.8664 1.25Z" fill="#E76583"/>
<path id="Vector_2" fill-rule="evenodd" clip-rule="evenodd" d="M12.8572 5.77944C13.5559 5.91314 14.0934 6.43729 14.0596 7.24368C14.0491 7.49295 14.1632 7.7311 14.3641 7.87906C14.565 8.02701 14.8263 8.06539 15.0612 7.98144C15.1556 7.94774 15.2577 7.9291 15.3657 7.9291C15.6892 7.9291 15.882 8.04665 16.0047 8.19017C16.141 8.34959 16.2277 8.588 16.2277 8.85478C16.2277 9.12156 16.141 9.35997 16.0047 9.51939C15.882 9.66291 15.6892 9.78046 15.3657 9.78046C15.1325 9.78046 14.9207 9.69305 14.7581 9.5466C14.4504 9.26933 13.9762 9.29401 13.6989 9.60173C13.4216 9.90945 13.4463 10.3837 13.754 10.661C13.978 10.8628 14.2404 11.0235 14.5289 11.1306C14.4713 11.318 14.3873 11.4826 14.2839 11.6145C14.0953 11.855 13.8244 12.0147 13.4238 12.0147C12.5464 12.0147 11.8463 12.3991 11.3835 12.9893C10.9356 13.5603 10.732 14.291 10.732 14.9989C10.732 15.4131 11.0678 15.7489 11.482 15.7489C11.8962 15.7489 12.232 15.4131 12.232 14.9989C12.232 14.5609 12.3602 14.1745 12.5638 13.9149C12.7524 13.6744 13.0233 13.5147 13.4238 13.5147C14.3013 13.5147 15.0014 13.1303 15.4642 12.5401C15.7737 12.1455 15.9665 11.6748 16.0562 11.1879C16.4967 11.0638 16.8657 10.8206 17.1447 10.4942C17.5457 10.0253 17.7277 9.42584 17.7277 8.85478C17.7277 8.28373 17.5457 7.68429 17.1447 7.21533C16.7501 6.7538 16.1755 6.45853 15.4732 6.43118C15.1778 5.24841 14.1813 4.50561 13.1391 4.30617C12.0856 4.10456 10.868 4.43645 10.1626 5.45134C9.09689 5.1175 8.00367 5.49132 7.27764 6.16831C6.55346 6.84357 6.11003 7.89747 6.36929 8.98821C5.53039 9.47627 5.17411 10.4215 5.23458 11.2628C5.31312 12.3552 6.11145 13.5147 7.59822 13.5147C8.41761 13.5147 9.13987 13.1041 9.57463 12.4826C9.81205 12.1432 9.72936 11.6756 9.38994 11.4381C9.05053 11.2007 8.58291 11.2834 8.34549 11.6228C8.17779 11.8626 7.9047 12.0147 7.59822 12.0147C7.07748 12.0147 6.76669 11.6554 6.73072 11.1552C6.69455 10.6521 6.95397 10.2496 7.46216 10.1734C7.7085 10.1365 7.92043 9.97965 8.02777 9.75487C8.1351 9.53008 8.12382 9.26668 7.99767 9.05188C7.62249 8.41305 7.803 7.72936 8.3006 7.26537C8.80471 6.79531 9.50171 6.67223 10.0774 7.06077C10.4724 7.3274 10.732 7.78047 10.732 8.29622C10.732 8.71044 11.0678 9.04622 11.482 9.04622C11.8962 9.04622 12.232 8.71044 12.232 8.29622C12.232 7.50956 11.9286 6.79327 11.4333 6.26007C11.7683 5.82955 12.3094 5.67462 12.8572 5.77944Z" fill="#E76583"/>
</g>
</svg>
