<svg width="1033" height="224" viewBox="0 0 1033 224" fill="none" xmlns="http://www.w3.org/2000/svg">
<g opacity="0.8">
<g filter="url(#filter0_f_4007_595)">
<path d="M221.374 16.912L132.133 17.1311L-28.3466 210.026L59.3005 209.81L221.374 16.912Z" fill="#E66482"/>
</g>
<g filter="url(#filter1_f_4007_595)">
<path d="M384.087 16.5126L294.846 16.7317L134.366 209.626L222.013 209.411L384.087 16.5126Z" fill="#F9DD41"/>
</g>
<g filter="url(#filter2_f_4007_595)">
<path d="M546.799 16.1131L457.559 16.3323L297.079 209.227L384.726 209.012L546.799 16.1131Z" fill="#FDA759"/>
</g>
<g filter="url(#filter3_f_4007_595)">
<path d="M709.512 15.7137L620.271 15.9329L459.792 208.827L547.439 208.612L709.512 15.7137Z" fill="#A0DC93"/>
</g>
<g filter="url(#filter4_f_4007_595)">
<path d="M872.225 15.3138L782.984 15.533L622.505 208.427L710.152 208.212L872.225 15.3138Z" fill="#3BC9E8"/>
</g>
</g>
<defs>
<filter id="filter0_f_4007_595" x="-188.347" y="-143.088" width="569.72" height="513.113" filterUnits="userSpaceOnUse" color-interpolation-filters="sRGB">
<feFlood flood-opacity="0" result="BackgroundImageFix"/>
<feBlend mode="normal" in="SourceGraphic" in2="BackgroundImageFix" result="shape"/>
<feGaussianBlur stdDeviation="80" result="effect1_foregroundBlur_4007_595"/>
</filter>
<filter id="filter1_f_4007_595" x="-25.6338" y="-143.487" width="569.72" height="513.113" filterUnits="userSpaceOnUse" color-interpolation-filters="sRGB">
<feFlood flood-opacity="0" result="BackgroundImageFix"/>
<feBlend mode="normal" in="SourceGraphic" in2="BackgroundImageFix" result="shape"/>
<feGaussianBlur stdDeviation="80" result="effect1_foregroundBlur_4007_595"/>
</filter>
<filter id="filter2_f_4007_595" x="137.079" y="-143.887" width="569.72" height="513.113" filterUnits="userSpaceOnUse" color-interpolation-filters="sRGB">
<feFlood flood-opacity="0" result="BackgroundImageFix"/>
<feBlend mode="normal" in="SourceGraphic" in2="BackgroundImageFix" result="shape"/>
<feGaussianBlur stdDeviation="80" result="effect1_foregroundBlur_4007_595"/>
</filter>
<filter id="filter3_f_4007_595" x="299.792" y="-144.286" width="569.72" height="513.113" filterUnits="userSpaceOnUse" color-interpolation-filters="sRGB">
<feFlood flood-opacity="0" result="BackgroundImageFix"/>
<feBlend mode="normal" in="SourceGraphic" in2="BackgroundImageFix" result="shape"/>
<feGaussianBlur stdDeviation="80" result="effect1_foregroundBlur_4007_595"/>
</filter>
<filter id="filter4_f_4007_595" x="462.505" y="-144.686" width="569.72" height="513.113" filterUnits="userSpaceOnUse" color-interpolation-filters="sRGB">
<feFlood flood-opacity="0" result="BackgroundImageFix"/>
<feBlend mode="normal" in="SourceGraphic" in2="BackgroundImageFix" result="shape"/>
<feGaussianBlur stdDeviation="80" result="effect1_foregroundBlur_4007_595"/>
</filter>
</defs>
</svg>
