<svg width="25" height="24" viewBox="0 0 25 24" fill="none" xmlns="http://www.w3.org/2000/svg">
<g id="code-circle">
<path id="Vector" opacity="0.4" d="M2.22754 12C2.22754 6.06294 7.04048 1.25 12.9775 1.25C18.9146 1.25 23.7275 6.06294 23.7275 12C23.7275 17.9371 18.9146 22.75 12.9775 22.75C7.04048 22.75 2.22754 17.9371 2.22754 12Z" fill="#3BC9E8"/>
<path id="Vector_2" fill-rule="evenodd" clip-rule="evenodd" d="M16.2275 8C16.2275 7.58579 16.5633 7.25 16.9775 7.25C18.0248 7.25 18.843 8.11469 18.843 9.14286V10.3838C18.843 10.4937 18.8858 10.5956 18.9565 10.668L19.3508 11.0721C19.8531 11.5866 19.853 12.4134 19.3508 12.9279L18.9565 13.332C18.8858 13.4044 18.843 13.5063 18.843 13.6162V14.8571C18.843 15.8853 18.0248 16.75 16.9775 16.75C16.5633 16.75 16.2275 16.4142 16.2275 16C16.2275 15.5858 16.5633 15.25 16.9775 15.25C17.1624 15.25 17.343 15.0913 17.343 14.8571V13.6162C17.343 13.12 17.5353 12.6405 17.883 12.2843L18.1605 12L17.883 11.7157C17.5353 11.3595 17.343 10.88 17.343 10.3838V9.14286C17.343 8.90866 17.1624 8.75 16.9775 8.75C16.5633 8.75 16.2275 8.41421 16.2275 8Z" fill="#3BC9E8"/>
<path id="Vector_3" fill-rule="evenodd" clip-rule="evenodd" d="M9.72754 8C9.72754 7.58579 9.39175 7.25 8.97754 7.25C7.93023 7.25 7.11202 8.11469 7.11202 9.14286V10.3838C7.11202 10.4937 7.06921 10.5956 6.99859 10.668L6.60419 11.0721C6.10199 11.5866 6.10199 12.4134 6.60419 12.9279L6.99859 13.332C7.06921 13.4044 7.11202 13.5063 7.11202 13.6162V14.8571C7.11202 15.8853 7.93023 16.75 8.97754 16.75C9.39175 16.75 9.72754 16.4142 9.72754 16C9.72754 15.5858 9.39175 15.25 8.97754 15.25C8.79269 15.25 8.61202 15.0913 8.61202 14.8571V13.6162C8.61202 13.12 8.41978 12.6405 8.07201 12.2843L7.79456 12L8.07201 11.7157C8.41978 11.3595 8.61202 10.88 8.61202 10.3838V9.14286C8.61202 8.90866 8.79269 8.75 8.97754 8.75C9.39175 8.75 9.72754 8.41421 9.72754 8Z" fill="#3BC9E8"/>
<path id="Vector_4" fill-rule="evenodd" clip-rule="evenodd" d="M9.97754 12C9.97754 11.4477 10.4253 11 10.9775 11H10.9865C11.5387 11 11.9865 11.4477 11.9865 12C11.9865 12.5523 11.5387 13 10.9865 13H10.9775C10.4253 13 9.97754 12.5523 9.97754 12ZM13.9685 12C13.9685 11.4477 14.4163 11 14.9685 11H14.9775C15.5298 11 15.9775 11.4477 15.9775 12C15.9775 12.5523 15.5298 13 14.9775 13H14.9685C14.4163 13 13.9685 12.5523 13.9685 12Z" fill="#3BC9E8"/>
</g>
</svg>
