<svg width="65" height="48" viewBox="0 0 65 48" fill="none" xmlns="http://www.w3.org/2000/svg">
<path d="M57.8225 20.6193C57.3039 20.2395 56.674 19.9952 56.0046 19.9143C55.3353 19.8334 54.6536 19.9193 54.0372 20.1619L42.5678 24.636L35.9038 14.0971C35.5853 13.605 35.1238 13.1959 34.5664 12.9112C34.0089 12.6265 33.3755 12.4766 32.7305 12.4766C32.0855 12.4766 31.452 12.6265 30.8946 12.9112C30.3371 13.1959 29.8756 13.605 29.5571 14.0971L22.8931 24.636L11.4237 20.1619C10.8061 19.9196 10.1235 19.8337 9.45307 19.9139C8.78266 19.9941 8.15119 20.2372 7.63006 20.6158C7.10892 20.9944 6.71889 21.4933 6.50406 22.0561C6.28923 22.619 6.25818 23.2233 6.4144 23.8009L12.1717 45.3361C12.2818 45.7531 12.4873 46.146 12.7756 46.4913C13.0639 46.8365 13.4291 47.1267 13.8491 47.3445C14.4177 47.6431 15.0678 47.8011 15.7304 47.8018C16.0526 47.8013 16.373 47.7612 16.6824 47.6825C27.1767 45.1372 38.2616 45.1372 48.7558 47.6825C49.714 47.9035 50.7331 47.782 51.5892 47.3445C52.0117 47.1295 52.3789 46.8401 52.6676 46.4944C52.9563 46.1488 53.1602 45.7544 53.2665 45.3361L59.0465 23.8009C59.201 23.2232 59.1682 22.6191 58.9519 22.0569C58.7357 21.4947 58.3444 20.9967 57.8225 20.6193Z" fill="#FFAA00"/>
<ellipse cx="32.7302" cy="7.12963" rx="7.54657" ry="7.12963" fill="#FFAA00"/>
<ellipse cx="32.7283" cy="32.0835" rx="5.65993" ry="5.34722" fill="#BE9502"/>
<ellipse cx="60.0857" cy="18.7158" rx="4.7166" ry="4.45602" fill="#FFAA00"/>
<ellipse cx="5.37285" cy="18.7158" rx="4.7166" ry="4.45602" fill="#FFAA00"/>
<ellipse cx="18.579" cy="34.7576" rx="2.82996" ry="2.67361" fill="#BE9502"/>
<ellipse cx="46.8788" cy="34.7576" rx="2.82996" ry="2.67361" fill="#BE9502"/>
</svg>
