<svg width="20" height="20" viewBox="0 0 20 20" fill="none" xmlns="http://www.w3.org/2000/svg">
<g id="diploma">
<path id="Vector" d="M11.6667 12.0833C11.6667 13.2339 10.7339 14.1667 9.58333 14.1667C8.43275 14.1667 7.5 13.2339 7.5 12.0833C7.5 10.9327 8.43275 10 9.58333 10C10.7339 10 11.6667 10.9327 11.6667 12.0833Z" stroke="#27262B" stroke-width="1.25"/>
<path id="Vector_2" d="M7.5 12.0833C7.5 15.4166 8.93517 17.3921 9.58333 18.3333L10.8333 15.8333L13.75 17.4999C13.1377 16.9073 12.5048 15.0392 12.5048 15.0392" stroke="#27262B" stroke-width="1.25" stroke-linecap="round" stroke-linejoin="round"/>
<path id="Vector_3" d="M15.8334 15.8237C17.2142 15.8237 18.3334 14.7044 18.3334 13.3237V5C18.3334 3.61928 17.2142 2.5 15.8334 2.5H4.16675C2.78604 2.5 1.66675 3.61929 1.66675 5V13.3301C1.66675 14.7083 2.78212 15.8266 4.16031 15.8301L5.41675 15.8333" stroke="#27262B" stroke-width="1.25" stroke-linecap="round" stroke-linejoin="round"/>
<path id="Vector_4" d="M13.75 6.66675H6.25" stroke="#27262B" stroke-width="1.25" stroke-linecap="round" stroke-linejoin="round"/>
</g>
</svg>
