<svg width="340" height="163" viewBox="0 0 340 163" fill="none" xmlns="http://www.w3.org/2000/svg">
<mask id="mask0_2199_3100" style="mask-type:alpha" maskUnits="userSpaceOnUse" x="0" y="0" width="340" height="163">
<rect width="340" height="163" rx="24" fill="url(#paint0_linear_2199_3100)"/>
</mask>
<g mask="url(#mask0_2199_3100)">
<rect x="58.5" y="108.5" width="221" height="29" rx="14.5" fill="#334155"/>
<rect x="58.5" y="108.5" width="221" height="29" rx="14.5" stroke="url(#paint1_linear_2199_3100)"/>
<circle cx="73" cy="123" r="3" fill="#06B6D4"/>
<path d="M86.0824 128L83.2983 117.818H84.5511L86.679 126.111H86.7784L88.946 117.818H90.3381L92.5057 126.111H92.6051L94.733 117.818H95.9858L93.2017 128H91.929L89.6818 119.886H89.6023L87.3551 128H86.0824ZM96.8844 128V120.364H98.0179V121.517H98.0975C98.2367 121.139 98.4886 120.833 98.8532 120.597C99.2177 120.362 99.6287 120.244 100.086 120.244C100.172 120.244 100.28 120.246 100.409 120.249C100.539 120.253 100.636 120.258 100.703 120.264V121.457C100.663 121.447 100.572 121.433 100.429 121.413C100.29 121.389 100.142 121.378 99.9867 121.378C99.6155 121.378 99.284 121.456 98.9924 121.612C98.704 121.764 98.4753 121.976 98.3063 122.248C98.1406 122.516 98.0577 122.823 98.0577 123.168V128H96.8844ZM102.093 128V120.364H103.267V128H102.093ZM102.69 119.091C102.461 119.091 102.264 119.013 102.098 118.857C101.936 118.701 101.855 118.514 101.855 118.295C101.855 118.077 101.936 117.889 102.098 117.734C102.264 117.578 102.461 117.5 102.69 117.5C102.919 117.5 103.114 117.578 103.277 117.734C103.442 117.889 103.525 118.077 103.525 118.295C103.525 118.514 103.442 118.701 103.277 118.857C103.114 119.013 102.919 119.091 102.69 119.091ZM108.737 120.364V121.358H104.779V120.364H108.737ZM105.933 118.534H107.106V125.812C107.106 126.144 107.154 126.393 107.25 126.558C107.35 126.721 107.476 126.83 107.628 126.886C107.784 126.939 107.948 126.966 108.12 126.966C108.249 126.966 108.356 126.959 108.438 126.946C108.521 126.929 108.588 126.916 108.637 126.906L108.876 127.96C108.796 127.99 108.685 128.02 108.543 128.05C108.4 128.083 108.22 128.099 108.001 128.099C107.669 128.099 107.345 128.028 107.026 127.886C106.712 127.743 106.45 127.526 106.241 127.234C106.035 126.943 105.933 126.575 105.933 126.131V118.534ZM110.502 128V120.364H111.675V128H110.502ZM111.098 119.091C110.869 119.091 110.672 119.013 110.507 118.857C110.344 118.701 110.263 118.514 110.263 118.295C110.263 118.077 110.344 117.889 110.507 117.734C110.672 117.578 110.869 117.5 111.098 117.5C111.327 117.5 111.522 117.578 111.685 117.734C111.851 117.889 111.933 118.077 111.933 118.295C111.933 118.514 111.851 118.701 111.685 118.857C111.522 119.013 111.327 119.091 111.098 119.091ZM114.997 123.406V128H113.824V120.364H114.957V121.557H115.057C115.236 121.169 115.508 120.857 115.872 120.622C116.237 120.384 116.707 120.264 117.284 120.264C117.801 120.264 118.254 120.37 118.641 120.582C119.029 120.791 119.331 121.109 119.546 121.537C119.762 121.961 119.869 122.498 119.869 123.148V128H118.696V123.227C118.696 122.627 118.54 122.16 118.229 121.825C117.917 121.487 117.49 121.318 116.946 121.318C116.571 121.318 116.237 121.399 115.942 121.562C115.65 121.724 115.42 121.961 115.251 122.273C115.082 122.584 114.997 122.962 114.997 123.406ZM125.096 131.023C124.529 131.023 124.042 130.95 123.634 130.804C123.226 130.661 122.887 130.473 122.615 130.237C122.346 130.005 122.133 129.757 121.974 129.491L122.908 128.835C123.014 128.974 123.148 129.134 123.311 129.312C123.473 129.495 123.695 129.652 123.977 129.785C124.262 129.921 124.635 129.989 125.096 129.989C125.712 129.989 126.221 129.839 126.622 129.541C127.023 129.243 127.224 128.776 127.224 128.139V126.588H127.124C127.038 126.727 126.915 126.9 126.756 127.105C126.6 127.307 126.375 127.488 126.08 127.647C125.788 127.803 125.394 127.881 124.897 127.881C124.28 127.881 123.727 127.735 123.236 127.443C122.749 127.152 122.363 126.727 122.078 126.17C121.796 125.614 121.655 124.937 121.655 124.142C121.655 123.36 121.793 122.679 122.068 122.099C122.343 121.515 122.726 121.065 123.216 120.746C123.707 120.425 124.274 120.264 124.917 120.264C125.414 120.264 125.808 120.347 126.1 120.513C126.395 120.675 126.62 120.861 126.776 121.07C126.935 121.275 127.058 121.444 127.144 121.577H127.263V120.364H128.397V128.219C128.397 128.875 128.248 129.409 127.949 129.82C127.654 130.234 127.257 130.537 126.756 130.729C126.259 130.925 125.706 131.023 125.096 131.023ZM125.056 126.827C125.527 126.827 125.924 126.719 126.249 126.504C126.574 126.288 126.821 125.978 126.99 125.574C127.159 125.17 127.243 124.686 127.243 124.122C127.243 123.572 127.161 123.086 126.995 122.665C126.829 122.245 126.584 121.915 126.259 121.676C125.934 121.437 125.533 121.318 125.056 121.318C124.559 121.318 124.144 121.444 123.813 121.696C123.485 121.948 123.238 122.286 123.072 122.71C122.91 123.134 122.829 123.605 122.829 124.122C122.829 124.652 122.912 125.121 123.077 125.529C123.246 125.933 123.495 126.252 123.823 126.484C124.154 126.712 124.565 126.827 125.056 126.827ZM139.891 122.074L138.837 122.372C138.771 122.196 138.673 122.026 138.544 121.86C138.418 121.691 138.246 121.552 138.027 121.442C137.808 121.333 137.528 121.278 137.187 121.278C136.719 121.278 136.33 121.386 136.018 121.602C135.71 121.814 135.556 122.084 135.556 122.412C135.556 122.704 135.662 122.934 135.874 123.103C136.086 123.272 136.418 123.413 136.868 123.526L138.002 123.804C138.685 123.97 139.193 124.223 139.528 124.565C139.863 124.903 140.03 125.339 140.03 125.872C140.03 126.31 139.904 126.701 139.653 127.045C139.404 127.39 139.056 127.662 138.608 127.861C138.161 128.06 137.641 128.159 137.047 128.159C136.269 128.159 135.624 127.99 135.113 127.652C134.603 127.314 134.28 126.82 134.144 126.17L135.258 125.892C135.364 126.303 135.564 126.611 135.859 126.817C136.157 127.022 136.547 127.125 137.028 127.125C137.574 127.125 138.009 127.009 138.33 126.777C138.655 126.542 138.817 126.26 138.817 125.932C138.817 125.667 138.724 125.445 138.539 125.266C138.353 125.083 138.068 124.947 137.684 124.858L136.411 124.56C135.712 124.394 135.198 124.137 134.87 123.789C134.545 123.438 134.383 122.999 134.383 122.472C134.383 122.041 134.504 121.66 134.746 121.328C134.991 120.997 135.324 120.737 135.745 120.548C136.169 120.359 136.65 120.264 137.187 120.264C137.942 120.264 138.536 120.43 138.966 120.761C139.401 121.093 139.709 121.53 139.891 122.074ZM144.899 128.159C144.183 128.159 143.566 127.99 143.049 127.652C142.532 127.314 142.135 126.848 141.856 126.255C141.578 125.662 141.439 124.984 141.439 124.222C141.439 123.446 141.581 122.762 141.866 122.168C142.154 121.572 142.556 121.106 143.069 120.771C143.586 120.433 144.19 120.264 144.879 120.264C145.416 120.264 145.9 120.364 146.331 120.562C146.761 120.761 147.114 121.04 147.39 121.398C147.665 121.756 147.835 122.173 147.902 122.651H146.728C146.639 122.303 146.44 121.994 146.132 121.726C145.827 121.454 145.416 121.318 144.899 121.318C144.441 121.318 144.04 121.437 143.696 121.676C143.354 121.911 143.087 122.245 142.895 122.675C142.706 123.103 142.612 123.605 142.612 124.182C142.612 124.772 142.705 125.286 142.89 125.723C143.079 126.161 143.344 126.5 143.686 126.742C144.03 126.984 144.435 127.105 144.899 127.105C145.204 127.105 145.48 127.052 145.729 126.946C145.978 126.84 146.188 126.688 146.36 126.489C146.533 126.29 146.655 126.051 146.728 125.773H147.902C147.835 126.223 147.671 126.629 147.409 126.991C147.151 127.349 146.808 127.634 146.38 127.846C145.956 128.055 145.462 128.159 144.899 128.159ZM149.617 128V120.364H150.75V121.517H150.83C150.969 121.139 151.221 120.833 151.586 120.597C151.95 120.362 152.361 120.244 152.819 120.244C152.905 120.244 153.012 120.246 153.142 120.249C153.271 120.253 153.369 120.258 153.435 120.264V121.457C153.395 121.447 153.304 121.433 153.162 121.413C153.022 121.389 152.875 121.378 152.719 121.378C152.348 121.378 152.016 121.456 151.725 121.612C151.436 121.764 151.208 121.976 151.039 122.248C150.873 122.516 150.79 122.823 150.79 123.168V128H149.617ZM154.826 128V120.364H155.999V128H154.826ZM155.422 119.091C155.194 119.091 154.997 119.013 154.831 118.857C154.668 118.701 154.587 118.514 154.587 118.295C154.587 118.077 154.668 117.889 154.831 117.734C154.997 117.578 155.194 117.5 155.422 117.5C155.651 117.5 155.847 117.578 156.009 117.734C156.175 117.889 156.258 118.077 156.258 118.295C156.258 118.514 156.175 118.701 156.009 118.857C155.847 119.013 155.651 119.091 155.422 119.091ZM158.148 130.864V120.364H159.282V121.577H159.421C159.507 121.444 159.626 121.275 159.779 121.07C159.935 120.861 160.157 120.675 160.445 120.513C160.737 120.347 161.131 120.264 161.628 120.264C162.271 120.264 162.838 120.425 163.328 120.746C163.819 121.068 164.202 121.524 164.477 122.114C164.752 122.704 164.89 123.4 164.89 124.202C164.89 125.01 164.752 125.711 164.477 126.305C164.202 126.895 163.821 127.352 163.333 127.677C162.846 127.998 162.284 128.159 161.648 128.159C161.158 128.159 160.765 128.078 160.47 127.915C160.175 127.75 159.948 127.562 159.789 127.354C159.63 127.142 159.507 126.966 159.421 126.827H159.321V130.864H158.148ZM159.301 124.182C159.301 124.759 159.386 125.267 159.555 125.708C159.724 126.146 159.971 126.489 160.296 126.737C160.621 126.982 161.018 127.105 161.489 127.105C161.98 127.105 162.389 126.976 162.717 126.717C163.048 126.455 163.297 126.104 163.463 125.663C163.632 125.219 163.716 124.725 163.716 124.182C163.716 123.645 163.633 123.161 163.468 122.73C163.305 122.296 163.058 121.953 162.727 121.701C162.399 121.446 161.986 121.318 161.489 121.318C161.012 121.318 160.611 121.439 160.286 121.681C159.961 121.92 159.716 122.254 159.55 122.685C159.384 123.113 159.301 123.612 159.301 124.182ZM170 120.364V121.358H166.043V120.364H170ZM167.196 118.534H168.37V125.812C168.37 126.144 168.418 126.393 168.514 126.558C168.613 126.721 168.739 126.83 168.892 126.886C169.047 126.939 169.212 126.966 169.384 126.966C169.513 126.966 169.619 126.959 169.702 126.946C169.785 126.929 169.851 126.916 169.901 126.906L170.14 127.96C170.06 127.99 169.949 128.02 169.806 128.05C169.664 128.083 169.483 128.099 169.265 128.099C168.933 128.099 168.608 128.028 168.29 127.886C167.975 127.743 167.713 127.526 167.505 127.234C167.299 126.943 167.196 126.575 167.196 126.131V118.534ZM177.433 128L175.106 120.364H176.339L177.99 126.21H178.069L179.7 120.364H180.953L182.564 126.19H182.643L184.294 120.364H185.527L183.2 128H182.047L180.376 122.134H180.257L178.586 128H177.433ZM187.078 128V120.364H188.251V128H187.078ZM187.674 119.091C187.446 119.091 187.248 119.013 187.083 118.857C186.92 118.701 186.839 118.514 186.839 118.295C186.839 118.077 186.92 117.889 187.083 117.734C187.248 117.578 187.446 117.5 187.674 117.5C187.903 117.5 188.099 117.578 188.261 117.734C188.427 117.889 188.51 118.077 188.51 118.295C188.51 118.514 188.427 118.701 188.261 118.857C188.099 119.013 187.903 119.091 187.674 119.091ZM193.721 120.364V121.358H189.764V120.364H193.721ZM190.917 118.534H192.09V125.812C192.09 126.144 192.138 126.393 192.235 126.558C192.334 126.721 192.46 126.83 192.612 126.886C192.768 126.939 192.932 126.966 193.105 126.966C193.234 126.966 193.34 126.959 193.423 126.946C193.506 126.929 193.572 126.916 193.622 126.906L193.86 127.96C193.781 127.99 193.67 128.02 193.527 128.05C193.385 128.083 193.204 128.099 192.985 128.099C192.654 128.099 192.329 128.028 192.011 127.886C191.696 127.743 191.434 127.526 191.225 127.234C191.02 126.943 190.917 126.575 190.917 126.131V118.534ZM196.823 123.406V128H195.65V117.818H196.823V121.557H196.923C197.102 121.162 197.37 120.849 197.728 120.617C198.089 120.382 198.57 120.264 199.17 120.264C199.69 120.264 200.146 120.369 200.537 120.577C200.928 120.783 201.231 121.099 201.447 121.527C201.666 121.951 201.775 122.491 201.775 123.148V128H200.602V123.227C200.602 122.621 200.444 122.152 200.129 121.82C199.818 121.486 199.385 121.318 198.832 121.318C198.447 121.318 198.103 121.399 197.798 121.562C197.496 121.724 197.258 121.961 197.082 122.273C196.91 122.584 196.823 122.962 196.823 123.406ZM216.092 117.818V128H214.899L209.35 120.006H209.251V128H208.018V117.818H209.211L214.779 125.832H214.879V117.818H216.092ZM221.502 128.159C220.813 128.159 220.208 127.995 219.688 127.667C219.171 127.339 218.766 126.88 218.475 126.29C218.186 125.7 218.042 125.01 218.042 124.222C218.042 123.426 218.186 122.732 218.475 122.138C218.766 121.545 219.171 121.085 219.688 120.756C220.208 120.428 220.813 120.264 221.502 120.264C222.192 120.264 222.795 120.428 223.312 120.756C223.832 121.085 224.237 121.545 224.525 122.138C224.817 122.732 224.963 123.426 224.963 124.222C224.963 125.01 224.817 125.7 224.525 126.29C224.237 126.88 223.832 127.339 223.312 127.667C222.795 127.995 222.192 128.159 221.502 128.159ZM221.502 127.105C222.026 127.105 222.457 126.971 222.795 126.702C223.133 126.434 223.383 126.081 223.546 125.643C223.708 125.206 223.789 124.732 223.789 124.222C223.789 123.711 223.708 123.236 223.546 122.795C223.383 122.354 223.133 121.998 222.795 121.726C222.457 121.454 222.026 121.318 221.502 121.318C220.979 121.318 220.548 121.454 220.21 121.726C219.872 121.998 219.621 122.354 219.459 122.795C219.297 123.236 219.215 123.711 219.215 124.222C219.215 124.732 219.297 125.206 219.459 125.643C219.621 126.081 219.872 126.434 220.21 126.702C220.548 126.971 220.979 127.105 221.502 127.105ZM230.075 120.364V121.358H226.117V120.364H230.075ZM227.271 118.534H228.444V125.812C228.444 126.144 228.492 126.393 228.588 126.558C228.688 126.721 228.813 126.83 228.966 126.886C229.122 126.939 229.286 126.966 229.458 126.966C229.587 126.966 229.693 126.959 229.776 126.946C229.859 126.929 229.925 126.916 229.975 126.906L230.214 127.96C230.134 127.99 230.023 128.02 229.881 128.05C229.738 128.083 229.558 128.099 229.339 128.099C229.007 128.099 228.683 128.028 228.364 127.886C228.049 127.743 227.788 127.526 227.579 127.234C227.373 126.943 227.271 126.575 227.271 126.131V118.534ZM231.839 128V120.364H233.013V128H231.839ZM232.436 119.091C232.207 119.091 232.01 119.013 231.844 118.857C231.682 118.701 231.601 118.514 231.601 118.295C231.601 118.077 231.682 117.889 231.844 117.734C232.01 117.578 232.207 117.5 232.436 117.5C232.665 117.5 232.86 117.578 233.023 117.734C233.188 117.889 233.271 118.077 233.271 118.295C233.271 118.514 233.188 118.701 233.023 118.857C232.86 119.013 232.665 119.091 232.436 119.091ZM238.264 128.159C237.575 128.159 236.97 127.995 236.449 127.667C235.932 127.339 235.528 126.88 235.236 126.29C234.948 125.7 234.804 125.01 234.804 124.222C234.804 123.426 234.948 122.732 235.236 122.138C235.528 121.545 235.932 121.085 236.449 120.756C236.97 120.428 237.575 120.264 238.264 120.264C238.953 120.264 239.557 120.428 240.074 120.756C240.594 121.085 240.998 121.545 241.287 122.138C241.578 122.732 241.724 123.426 241.724 124.222C241.724 125.01 241.578 125.7 241.287 126.29C240.998 126.88 240.594 127.339 240.074 127.667C239.557 127.995 238.953 128.159 238.264 128.159ZM238.264 127.105C238.788 127.105 239.219 126.971 239.557 126.702C239.895 126.434 240.145 126.081 240.307 125.643C240.47 125.206 240.551 124.732 240.551 124.222C240.551 123.711 240.47 123.236 240.307 122.795C240.145 122.354 239.895 121.998 239.557 121.726C239.219 121.454 238.788 121.318 238.264 121.318C237.74 121.318 237.309 121.454 236.971 121.726C236.633 121.998 236.383 122.354 236.221 122.795C236.058 123.236 235.977 123.711 235.977 124.222C235.977 124.732 236.058 125.206 236.221 125.643C236.383 126.081 236.633 126.434 236.971 126.702C237.309 126.971 237.74 127.105 238.264 127.105ZM244.689 123.406V128H243.515V120.364H244.649V121.557H244.748C244.927 121.169 245.199 120.857 245.564 120.622C245.928 120.384 246.399 120.264 246.975 120.264C247.493 120.264 247.945 120.37 248.333 120.582C248.721 120.791 249.022 121.109 249.238 121.537C249.453 121.961 249.561 122.498 249.561 123.148V128H248.387V123.227C248.387 122.627 248.232 122.16 247.92 121.825C247.609 121.487 247.181 121.318 246.637 121.318C246.263 121.318 245.928 121.399 245.633 121.562C245.342 121.724 245.111 121.961 244.942 122.273C244.773 122.584 244.689 122.962 244.689 123.406ZM256.219 128H254.926L258.665 117.818H259.938L263.676 128H262.384L259.341 119.429H259.262L256.219 128ZM256.696 124.023H261.906V125.116H256.696V124.023ZM266.495 117.818V128H265.262V117.818H266.495Z" fill="white"/>
<rect x="59.5" y="67.5" width="224" height="29" rx="14.5" fill="#334155"/>
<rect x="59.5" y="67.5" width="224" height="29" rx="14.5" stroke="url(#paint2_linear_2199_3100)"/>
<circle cx="74" cy="82" r="3" fill="#F97316"/>
<path d="M85.233 87V76.8182H88.7926C89.5019 76.8182 90.0869 76.9408 90.5476 77.1861C91.0083 77.428 91.3513 77.7545 91.5767 78.1655C91.8021 78.5732 91.9148 79.0256 91.9148 79.5227C91.9148 79.9602 91.8369 80.3215 91.6811 80.6065C91.5286 80.8916 91.3265 81.117 91.0746 81.2827C90.826 81.4484 90.5559 81.571 90.2642 81.6506V81.75C90.5758 81.7699 90.889 81.8793 91.2038 82.0781C91.5187 82.277 91.7822 82.562 91.9943 82.9332C92.2064 83.3045 92.3125 83.7585 92.3125 84.2955C92.3125 84.8059 92.1965 85.2649 91.9645 85.6726C91.7325 86.0803 91.3662 86.4034 90.8658 86.642C90.3653 86.8807 89.714 87 88.9119 87H85.233ZM86.4659 85.9062H88.9119C89.7173 85.9062 90.2891 85.7505 90.6271 85.4389C90.9685 85.1241 91.1392 84.7429 91.1392 84.2955C91.1392 83.9508 91.0514 83.6326 90.8757 83.3409C90.7 83.0459 90.4498 82.8106 90.125 82.6349C89.8002 82.456 89.4157 82.3665 88.9716 82.3665H86.4659V85.9062ZM86.4659 81.2926H88.7528C89.1241 81.2926 89.4588 81.2197 89.7571 81.0739C90.0587 80.928 90.2973 80.7225 90.473 80.4574C90.652 80.1922 90.7415 79.8807 90.7415 79.5227C90.7415 79.0753 90.5857 78.6958 90.2741 78.3842C89.9626 78.0694 89.4688 77.9119 88.7926 77.9119H86.4659V81.2926ZM94.1793 87V79.3636H95.3129V80.517H95.3924C95.5316 80.1392 95.7835 79.8326 96.1481 79.5973C96.5127 79.362 96.9237 79.2443 97.381 79.2443C97.4672 79.2443 97.5749 79.246 97.7042 79.2493C97.8335 79.2526 97.9312 79.2576 97.9975 79.2642V80.4574C97.9577 80.4474 97.8666 80.4325 97.7241 80.4126C97.5849 80.3894 97.4374 80.3778 97.2816 80.3778C96.9104 80.3778 96.579 80.4557 96.2873 80.6115C95.9989 80.764 95.7702 80.9761 95.6012 81.2479C95.4355 81.5163 95.3526 81.8229 95.3526 82.1676V87H94.1793ZM101.635 87.179C101.152 87.179 100.712 87.0878 100.318 86.9055C99.9236 86.7199 99.6104 86.4531 99.3784 86.1051C99.1464 85.7538 99.0304 85.3295 99.0304 84.8324C99.0304 84.3949 99.1165 84.0402 99.2889 83.7685C99.4612 83.4934 99.6916 83.2779 99.9799 83.1222C100.268 82.9664 100.586 82.8504 100.934 82.7741C101.286 82.6946 101.639 82.6316 101.993 82.5852C102.457 82.5256 102.834 82.4808 103.122 82.451C103.414 82.4179 103.626 82.3632 103.758 82.2869C103.894 82.2107 103.962 82.0781 103.962 81.8892V81.8494C103.962 81.3589 103.828 80.9777 103.559 80.706C103.294 80.4342 102.892 80.2983 102.351 80.2983C101.791 80.2983 101.352 80.4209 101.034 80.6662C100.716 80.9115 100.492 81.1733 100.363 81.4517L99.2491 81.054C99.448 80.59 99.7131 80.2287 100.045 79.9702C100.379 79.7083 100.744 79.526 101.138 79.4233C101.536 79.3172 101.927 79.2642 102.312 79.2642C102.557 79.2642 102.839 79.294 103.157 79.3537C103.478 79.41 103.788 79.5277 104.086 79.7067C104.388 79.8857 104.638 80.1558 104.837 80.517C105.036 80.8783 105.135 81.3622 105.135 81.9688V87H103.962V85.9659H103.903C103.823 86.1316 103.69 86.3089 103.505 86.4979C103.319 86.6868 103.072 86.8475 102.764 86.9801C102.456 87.1127 102.08 87.179 101.635 87.179ZM101.814 86.125C102.278 86.125 102.67 86.0339 102.988 85.8516C103.309 85.6693 103.551 85.4339 103.714 85.1456C103.879 84.8572 103.962 84.554 103.962 84.2358V83.1619C103.912 83.2216 103.803 83.2763 103.634 83.326C103.468 83.3724 103.276 83.4138 103.057 83.4503C102.842 83.4834 102.631 83.5133 102.426 83.5398C102.224 83.563 102.06 83.5829 101.934 83.5994C101.629 83.6392 101.344 83.7038 101.079 83.7933C100.817 83.8795 100.605 84.0104 100.442 84.1861C100.283 84.3584 100.204 84.5937 100.204 84.892C100.204 85.2997 100.354 85.608 100.656 85.8168C100.961 86.0223 101.347 86.125 101.814 86.125ZM107.277 87V79.3636H108.45V87H107.277ZM107.874 78.0909C107.645 78.0909 107.448 78.013 107.282 77.8572C107.12 77.7015 107.038 77.5142 107.038 77.2955C107.038 77.0767 107.12 76.8894 107.282 76.7337C107.448 76.5779 107.645 76.5 107.874 76.5C108.102 76.5 108.298 76.5779 108.46 76.7337C108.626 76.8894 108.709 77.0767 108.709 77.2955C108.709 77.5142 108.626 77.7015 108.46 77.8572C108.298 78.013 108.102 78.0909 107.874 78.0909ZM111.773 82.4062V87H110.599V79.3636H111.733V80.5568H111.832C112.011 80.169 112.283 79.8575 112.648 79.6222C113.012 79.3835 113.483 79.2642 114.059 79.2642C114.577 79.2642 115.029 79.3703 115.417 79.5824C115.805 79.7912 116.106 80.1094 116.322 80.5369C116.537 80.9612 116.645 81.4981 116.645 82.1477V87H115.471V82.2273C115.471 81.6274 115.316 81.16 115.004 80.8253C114.693 80.4872 114.265 80.3182 113.721 80.3182C113.347 80.3182 113.012 80.3994 112.717 80.5618C112.425 80.7242 112.195 80.9612 112.026 81.2727C111.857 81.5843 111.773 81.9621 111.773 82.4062ZM124.198 81.0739L123.144 81.3722C123.078 81.1965 122.98 81.0258 122.85 80.8601C122.725 80.6911 122.552 80.5518 122.333 80.4425C122.115 80.3331 121.835 80.2784 121.493 80.2784C121.026 80.2784 120.636 80.3861 120.325 80.6016C120.017 80.8137 119.863 81.0838 119.863 81.4119C119.863 81.7036 119.969 81.9339 120.181 82.103C120.393 82.272 120.724 82.4129 121.175 82.5256L122.309 82.804C122.991 82.9697 123.5 83.2232 123.835 83.5646C124.17 83.9027 124.337 84.3385 124.337 84.8722C124.337 85.3097 124.211 85.7008 123.959 86.0455C123.711 86.3902 123.363 86.6619 122.915 86.8608C122.468 87.0597 121.947 87.1591 121.354 87.1591C120.575 87.1591 119.931 86.9901 119.42 86.652C118.91 86.3139 118.587 85.8201 118.451 85.1705L119.564 84.892C119.67 85.303 119.871 85.6113 120.166 85.8168C120.464 86.0223 120.854 86.125 121.334 86.125C121.881 86.125 122.315 86.009 122.637 85.777C122.962 85.5417 123.124 85.2599 123.124 84.9318C123.124 84.6667 123.031 84.4446 122.846 84.2656C122.66 84.0833 122.375 83.9474 121.99 83.858L120.718 83.5597C120.018 83.3939 119.505 83.1371 119.176 82.7891C118.852 82.4377 118.689 81.9986 118.689 81.4716C118.689 81.0407 118.81 80.6596 119.052 80.3281C119.297 79.9967 119.631 79.7365 120.051 79.5476C120.476 79.3587 120.956 79.2642 121.493 79.2642C122.249 79.2642 122.842 79.4299 123.273 79.7614C123.707 80.0928 124.016 80.5303 124.198 81.0739ZM129.424 79.3636V80.358H125.467V79.3636H129.424ZM126.62 77.5341H127.794V84.8125C127.794 85.1439 127.842 85.3925 127.938 85.5582C128.037 85.7206 128.163 85.83 128.316 85.8864C128.471 85.9394 128.635 85.9659 128.808 85.9659C128.937 85.9659 129.043 85.9593 129.126 85.946C129.209 85.9295 129.275 85.9162 129.325 85.9062L129.563 86.9602C129.484 86.9901 129.373 87.0199 129.23 87.0497C129.088 87.0829 128.907 87.0994 128.688 87.0994C128.357 87.0994 128.032 87.0282 127.714 86.8857C127.399 86.7431 127.137 86.526 126.928 86.2344C126.723 85.9427 126.62 85.5748 126.62 85.1307V77.5341ZM134.209 87.1591C133.52 87.1591 132.915 86.995 132.395 86.6669C131.878 86.3388 131.473 85.8797 131.182 85.2898C130.893 84.6998 130.749 84.0104 130.749 83.2216C130.749 82.4261 130.893 81.7318 131.182 81.1385C131.473 80.5452 131.878 80.0845 132.395 79.7564C132.915 79.4283 133.52 79.2642 134.209 79.2642C134.899 79.2642 135.502 79.4283 136.019 79.7564C136.539 80.0845 136.944 80.5452 137.232 81.1385C137.524 81.7318 137.67 82.4261 137.67 83.2216C137.67 84.0104 137.524 84.6998 137.232 85.2898C136.944 85.8797 136.539 86.3388 136.019 86.6669C135.502 86.995 134.899 87.1591 134.209 87.1591ZM134.209 86.1051C134.733 86.1051 135.164 85.9709 135.502 85.7024C135.84 85.4339 136.09 85.081 136.253 84.6435C136.415 84.206 136.496 83.732 136.496 83.2216C136.496 82.7112 136.415 82.2356 136.253 81.7947C136.09 81.3539 135.84 80.9976 135.502 80.7259C135.164 80.4541 134.733 80.3182 134.209 80.3182C133.686 80.3182 133.255 80.4541 132.917 80.7259C132.579 80.9976 132.328 81.3539 132.166 81.7947C132.004 82.2356 131.922 82.7112 131.922 83.2216C131.922 83.732 132.004 84.206 132.166 84.6435C132.328 85.081 132.579 85.4339 132.917 85.7024C133.255 85.9709 133.686 86.1051 134.209 86.1051ZM139.461 87V79.3636H140.594V80.517H140.674C140.813 80.1392 141.065 79.8326 141.429 79.5973C141.794 79.362 142.205 79.2443 142.662 79.2443C142.748 79.2443 142.856 79.246 142.985 79.2493C143.115 79.2526 143.212 79.2576 143.279 79.2642V80.4574C143.239 80.4474 143.148 80.4325 143.005 80.4126C142.866 80.3894 142.719 80.3778 142.563 80.3778C142.192 80.3778 141.86 80.4557 141.569 80.6115C141.28 80.764 141.051 80.9761 140.882 81.2479C140.717 81.5163 140.634 81.8229 140.634 82.1676V87H139.461ZM144.67 87V79.3636H145.803V80.5568H145.903C146.062 80.1491 146.318 79.8326 146.673 79.6072C147.028 79.3786 147.454 79.2642 147.951 79.2642C148.455 79.2642 148.874 79.3786 149.209 79.6072C149.547 79.8326 149.81 80.1491 149.999 80.5568H150.079C150.274 80.1624 150.568 79.8492 150.959 79.6172C151.35 79.3819 151.819 79.2642 152.366 79.2642C153.048 79.2642 153.607 79.478 154.041 79.9055C154.475 80.3298 154.692 80.991 154.692 81.8892V87H153.519V81.8892C153.519 81.3258 153.365 80.9231 153.057 80.6811C152.748 80.4392 152.385 80.3182 151.968 80.3182C151.431 80.3182 151.015 80.4806 150.72 80.8054C150.425 81.1269 150.278 81.5346 150.278 82.0284V87H149.084V81.7699C149.084 81.3357 148.943 80.986 148.662 80.7209C148.38 80.4524 148.017 80.3182 147.573 80.3182C147.268 80.3182 146.983 80.3994 146.718 80.5618C146.456 80.7242 146.244 80.9496 146.081 81.2379C145.922 81.523 145.843 81.8527 145.843 82.2273V87H144.67ZM156.838 87V79.3636H158.011V87H156.838ZM157.434 78.0909C157.205 78.0909 157.008 78.013 156.843 77.8572C156.68 77.7015 156.599 77.5142 156.599 77.2955C156.599 77.0767 156.68 76.8894 156.843 76.7337C157.008 76.5779 157.205 76.5 157.434 76.5C157.663 76.5 157.858 76.5779 158.021 76.7337C158.186 76.8894 158.269 77.0767 158.269 77.2955C158.269 77.5142 158.186 77.7015 158.021 77.8572C157.858 78.013 157.663 78.0909 157.434 78.0909ZM161.333 82.4062V87H160.16V79.3636H161.293V80.5568H161.393C161.572 80.169 161.844 79.8575 162.208 79.6222C162.573 79.3835 163.043 79.2642 163.62 79.2642C164.137 79.2642 164.589 79.3703 164.977 79.5824C165.365 79.7912 165.667 80.1094 165.882 80.5369C166.098 80.9612 166.205 81.4981 166.205 82.1477V87H165.032V82.2273C165.032 81.6274 164.876 81.16 164.565 80.8253C164.253 80.4872 163.826 80.3182 163.282 80.3182C162.907 80.3182 162.573 80.3994 162.278 80.5618C161.986 80.7242 161.756 80.9612 161.587 81.2727C161.418 81.5843 161.333 81.9621 161.333 82.4062ZM171.432 90.0227C170.865 90.0227 170.378 89.9498 169.97 89.804C169.562 89.6615 169.223 89.4725 168.951 89.2372C168.682 89.0052 168.469 88.7566 168.309 88.4915L169.244 87.8352C169.35 87.9744 169.484 88.1335 169.647 88.3125C169.809 88.4948 170.031 88.6522 170.313 88.7848C170.598 88.9207 170.971 88.9886 171.432 88.9886C172.048 88.9886 172.557 88.8395 172.958 88.5412C173.359 88.2429 173.559 87.7756 173.559 87.1392V85.5881H173.46C173.374 85.7273 173.251 85.8996 173.092 86.1051C172.936 86.3073 172.711 86.4879 172.416 86.647C172.124 86.8028 171.73 86.8807 171.233 86.8807C170.616 86.8807 170.063 86.7348 169.572 86.4432C169.085 86.1515 168.699 85.7273 168.414 85.1705C168.132 84.6136 167.991 83.9375 167.991 83.142C167.991 82.3598 168.129 81.6787 168.404 81.0987C168.679 80.5154 169.062 80.0646 169.552 79.7464C170.043 79.425 170.61 79.2642 171.253 79.2642C171.75 79.2642 172.144 79.3471 172.436 79.5128C172.731 79.6752 172.956 79.8608 173.112 80.0696C173.271 80.2751 173.394 80.4441 173.48 80.5767H173.599V79.3636H174.733V87.2188C174.733 87.875 174.584 88.4086 174.285 88.8196C173.99 89.2339 173.593 89.5372 173.092 89.7294C172.595 89.925 172.041 90.0227 171.432 90.0227ZM171.392 85.8267C171.863 85.8267 172.26 85.719 172.585 85.5036C172.91 85.2881 173.157 84.9782 173.326 84.5739C173.495 84.1695 173.579 83.6856 173.579 83.1222C173.579 82.572 173.497 82.0864 173.331 81.6655C173.165 81.2446 172.92 80.9148 172.595 80.6761C172.27 80.4375 171.869 80.3182 171.392 80.3182C170.895 80.3182 170.48 80.4441 170.149 80.696C169.821 80.9479 169.574 81.286 169.408 81.7102C169.246 82.1345 169.165 82.6051 169.165 83.1222C169.165 83.6525 169.247 84.1214 169.413 84.5291C169.582 84.9335 169.831 85.2517 170.159 85.4837C170.49 85.7124 170.901 85.8267 171.392 85.8267ZM182.548 87L180.221 79.3636H181.454L183.105 85.2102H183.184L184.815 79.3636H186.068L187.679 85.1903H187.758L189.409 79.3636H190.642L188.315 87H187.162L185.491 81.1335H185.372L183.702 87H182.548ZM192.193 87V79.3636H193.366V87H192.193ZM192.79 78.0909C192.561 78.0909 192.364 78.013 192.198 77.8572C192.036 77.7015 191.954 77.5142 191.954 77.2955C191.954 77.0767 192.036 76.8894 192.198 76.7337C192.364 76.5779 192.561 76.5 192.79 76.5C193.018 76.5 193.214 76.5779 193.376 76.7337C193.542 76.8894 193.625 77.0767 193.625 77.2955C193.625 77.5142 193.542 77.7015 193.376 77.8572C193.214 78.013 193.018 78.0909 192.79 78.0909ZM198.836 79.3636V80.358H194.879V79.3636H198.836ZM196.032 77.5341H197.206V84.8125C197.206 85.1439 197.254 85.3925 197.35 85.5582C197.449 85.7206 197.575 85.83 197.728 85.8864C197.883 85.9394 198.047 85.9659 198.22 85.9659C198.349 85.9659 198.455 85.9593 198.538 85.946C198.621 85.9295 198.687 85.9162 198.737 85.9062L198.975 86.9602C198.896 86.9901 198.785 87.0199 198.642 87.0497C198.5 87.0829 198.319 87.0994 198.1 87.0994C197.769 87.0994 197.444 87.0282 197.126 86.8857C196.811 86.7431 196.549 86.526 196.341 86.2344C196.135 85.9427 196.032 85.5748 196.032 85.1307V77.5341ZM201.939 82.4062V87H200.765V76.8182H201.939V80.5568H202.038C202.217 80.1624 202.485 79.8492 202.843 79.6172C203.205 79.3819 203.685 79.2642 204.285 79.2642C204.806 79.2642 205.261 79.3686 205.652 79.5774C206.043 79.7829 206.347 80.0994 206.562 80.527C206.781 80.9512 206.89 81.4915 206.89 82.1477V87H205.717V82.2273C205.717 81.6207 205.56 81.1518 205.245 80.8203C204.933 80.4856 204.501 80.3182 203.947 80.3182C203.563 80.3182 203.218 80.3994 202.913 80.5618C202.611 80.7242 202.373 80.9612 202.197 81.2727C202.025 81.5843 201.939 81.9621 201.939 82.4062ZM221.327 80H220.094C220.021 79.6454 219.893 79.3338 219.711 79.0653C219.532 78.7969 219.313 78.5715 219.055 78.3892C218.799 78.2036 218.516 78.0644 218.204 77.9716C217.893 77.8788 217.568 77.8324 217.23 77.8324C216.613 77.8324 216.055 77.9882 215.555 78.2997C215.057 78.6113 214.661 79.0703 214.366 79.6768C214.075 80.2834 213.929 81.0275 213.929 81.9091C213.929 82.7907 214.075 83.5348 214.366 84.1413C214.661 84.7479 215.057 85.2069 215.555 85.5185C216.055 85.83 216.613 85.9858 217.23 85.9858C217.568 85.9858 217.893 85.9394 218.204 85.8466C218.516 85.7538 218.799 85.6162 219.055 85.4339C219.313 85.2483 219.532 85.0213 219.711 84.7528C219.893 84.4811 220.021 84.1695 220.094 83.8182H221.327C221.234 84.3385 221.065 84.8042 220.819 85.2152C220.574 85.6262 220.269 85.9759 219.905 86.2642C219.54 86.5492 219.131 86.7663 218.677 86.9155C218.226 87.0646 217.744 87.1392 217.23 87.1392C216.362 87.1392 215.589 86.9271 214.913 86.5028C214.237 86.0786 213.705 85.4754 213.317 84.6932C212.93 83.911 212.736 82.983 212.736 81.9091C212.736 80.8352 212.93 79.9072 213.317 79.125C213.705 78.3428 214.237 77.7396 214.913 77.3153C215.589 76.8911 216.362 76.679 217.23 76.679C217.744 76.679 218.226 76.7536 218.677 76.9027C219.131 77.0518 219.54 77.2706 219.905 77.5589C220.269 77.844 220.574 78.192 220.819 78.603C221.065 79.0107 221.234 79.4763 221.327 80ZM224.333 82.4062V87H223.16V76.8182H224.333V80.5568H224.433C224.612 80.1624 224.88 79.8492 225.238 79.6172C225.599 79.3819 226.08 79.2642 226.68 79.2642C227.2 79.2642 227.656 79.3686 228.047 79.5774C228.438 79.7829 228.741 80.0994 228.957 80.527C229.175 80.9512 229.285 81.4915 229.285 82.1477V87H228.112V82.2273C228.112 81.6207 227.954 81.1518 227.639 80.8203C227.328 80.4856 226.895 80.3182 226.342 80.3182C225.957 80.3182 225.612 80.3994 225.308 80.5618C225.006 80.7242 224.767 80.9612 224.592 81.2727C224.419 81.5843 224.333 81.9621 224.333 82.4062ZM233.678 87.179C233.195 87.179 232.755 87.0878 232.361 86.9055C231.967 86.7199 231.653 86.4531 231.421 86.1051C231.189 85.7538 231.073 85.3295 231.073 84.8324C231.073 84.3949 231.16 84.0402 231.332 83.7685C231.504 83.4934 231.735 83.2779 232.023 83.1222C232.311 82.9664 232.629 82.8504 232.977 82.7741C233.329 82.6946 233.682 82.6316 234.036 82.5852C234.5 82.5256 234.877 82.4808 235.165 82.451C235.457 82.4179 235.669 82.3632 235.801 82.2869C235.937 82.2107 236.005 82.0781 236.005 81.8892V81.8494C236.005 81.3589 235.871 80.9777 235.602 80.706C235.337 80.4342 234.935 80.2983 234.394 80.2983C233.834 80.2983 233.395 80.4209 233.077 80.6662C232.759 80.9115 232.535 81.1733 232.406 81.4517L231.292 81.054C231.491 80.59 231.756 80.2287 232.088 79.9702C232.422 79.7083 232.787 79.526 233.181 79.4233C233.579 79.3172 233.97 79.2642 234.355 79.2642C234.6 79.2642 234.882 79.294 235.2 79.3537C235.521 79.41 235.831 79.5277 236.129 79.7067C236.431 79.8857 236.681 80.1558 236.88 80.517C237.079 80.8783 237.178 81.3622 237.178 81.9688V87H236.005V85.9659H235.945C235.866 86.1316 235.733 86.3089 235.548 86.4979C235.362 86.6868 235.115 86.8475 234.807 86.9801C234.499 87.1127 234.123 87.179 233.678 87.179ZM233.857 86.125C234.321 86.125 234.713 86.0339 235.031 85.8516C235.352 85.6693 235.594 85.4339 235.757 85.1456C235.922 84.8572 236.005 84.554 236.005 84.2358V83.1619C235.955 83.2216 235.846 83.2763 235.677 83.326C235.511 83.3724 235.319 83.4138 235.1 83.4503C234.885 83.4834 234.674 83.5133 234.469 83.5398C234.267 83.563 234.103 83.5829 233.977 83.5994C233.672 83.6392 233.387 83.7038 233.122 83.7933C232.86 83.8795 232.648 84.0104 232.485 84.1861C232.326 84.3584 232.247 84.5937 232.247 84.892C232.247 85.2997 232.397 85.608 232.699 85.8168C233.004 86.0223 233.39 86.125 233.857 86.125ZM242.641 79.3636V80.358H238.684V79.3636H242.641ZM239.837 77.5341H241.01V84.8125C241.01 85.1439 241.058 85.3925 241.154 85.5582C241.254 85.7206 241.38 85.83 241.532 85.8864C241.688 85.9394 241.852 85.9659 242.025 85.9659C242.154 85.9659 242.26 85.9593 242.343 85.946C242.426 85.9295 242.492 85.9162 242.542 85.9062L242.78 86.9602C242.701 86.9901 242.59 87.0199 242.447 87.0497C242.305 87.0829 242.124 87.0994 241.905 87.0994C241.574 87.0994 241.249 87.0282 240.931 86.8857C240.616 86.7431 240.354 86.526 240.145 86.2344C239.94 85.9427 239.837 85.5748 239.837 85.1307V77.5341ZM251.525 80C251.416 79.6652 251.272 79.3653 251.093 79.1001C250.917 78.8317 250.707 78.603 250.461 78.4141C250.219 78.2251 249.944 78.081 249.636 77.9815C249.328 77.8821 248.99 77.8324 248.622 77.8324C248.019 77.8324 247.47 77.9882 246.976 78.2997C246.482 78.6113 246.09 79.0703 245.798 79.6768C245.506 80.2834 245.36 81.0275 245.36 81.9091C245.36 82.7907 245.508 83.5348 245.803 84.1413C246.098 84.7479 246.497 85.2069 247.001 85.5185C247.505 85.83 248.072 85.9858 248.701 85.9858C249.285 85.9858 249.798 85.8615 250.243 85.6129C250.69 85.361 251.038 85.0064 251.287 84.549C251.538 84.0883 251.664 83.5464 251.664 82.9233L252.042 83.0028H248.98V81.9091H252.858V83.0028C252.858 83.8414 252.679 84.5705 252.321 85.1903C251.966 85.8101 251.475 86.2907 250.849 86.6321C250.226 86.9702 249.51 87.1392 248.701 87.1392C247.8 87.1392 247.008 86.9271 246.325 86.5028C245.645 86.0786 245.115 85.4754 244.734 84.6932C244.356 83.911 244.167 82.983 244.167 81.9091C244.167 81.1037 244.275 80.3795 244.49 79.7365C244.709 79.0902 245.017 78.54 245.415 78.0859C245.813 77.6319 246.283 77.2839 246.827 77.0419C247.371 76.8 247.969 76.679 248.622 76.679C249.159 76.679 249.659 76.7602 250.123 76.9226C250.591 77.0817 251.007 77.3087 251.371 77.6037C251.739 77.8954 252.046 78.245 252.291 78.6527C252.536 79.0571 252.705 79.5062 252.798 80H251.525ZM254.969 87V76.8182H258.41C259.208 76.8182 259.861 76.9624 260.368 77.2507C260.879 77.5357 261.257 77.9219 261.502 78.4091C261.747 78.8963 261.87 79.4399 261.87 80.0398C261.87 80.6397 261.747 81.1849 261.502 81.6754C261.26 82.166 260.885 82.5571 260.378 82.8487C259.871 83.1371 259.222 83.2812 258.43 83.2812H255.964V82.1875H258.39C258.937 82.1875 259.376 82.093 259.707 81.9041C260.039 81.7152 260.279 81.46 260.428 81.1385C260.581 80.8137 260.657 80.4474 260.657 80.0398C260.657 79.6321 260.581 79.2675 260.428 78.946C260.279 78.6245 260.037 78.3726 259.702 78.1903C259.367 78.0047 258.923 77.9119 258.37 77.9119H256.202V87H254.969ZM263.299 77.9119V76.8182H270.936V77.9119H267.734V87H266.501V77.9119H263.299Z" fill="white"/>
<rect x="59.5" y="25.5" width="151" height="29" rx="14.5" fill="#334155"/>
<rect x="59.5" y="25.5" width="151" height="29" rx="14.5" stroke="url(#paint3_linear_2199_3100)"/>
<circle cx="74" cy="40" r="3" fill="#4ADE80"/>
<path d="M86.4659 34.8182V45H85.233V34.8182H86.4659ZM89.9522 40.4062V45H88.7789V37.3636H89.9125V38.5568H90.0119C90.1909 38.169 90.4627 37.8575 90.8272 37.6222C91.1918 37.3835 91.6625 37.2642 92.2392 37.2642C92.7562 37.2642 93.2086 37.3703 93.5964 37.5824C93.9842 37.7912 94.2858 38.1094 94.5012 38.5369C94.7167 38.9612 94.8244 39.4981 94.8244 40.1477V45H93.6511V40.2273C93.6511 39.6274 93.4953 39.16 93.1838 38.8253C92.8722 38.4872 92.4447 38.3182 91.9011 38.3182C91.5266 38.3182 91.1918 38.3994 90.8968 38.5618C90.6052 38.7242 90.3748 38.9612 90.2058 39.2727C90.0368 39.5843 89.9522 39.9621 89.9522 40.4062ZM100.289 37.3636V38.358H96.332V37.3636H100.289ZM97.4854 35.5341H98.6587V42.8125C98.6587 43.1439 98.7068 43.3925 98.8029 43.5582C98.9023 43.7206 99.0283 43.83 99.1808 43.8864C99.3365 43.9394 99.5006 43.9659 99.6729 43.9659C99.8022 43.9659 99.9083 43.9593 99.9911 43.946C100.074 43.9295 100.14 43.9162 100.19 43.9062L100.429 44.9602C100.349 44.9901 100.238 45.0199 100.096 45.0497C99.953 45.0829 99.7724 45.0994 99.5536 45.0994C99.2222 45.0994 98.8974 45.0282 98.5792 44.8857C98.2643 44.7431 98.0025 44.526 97.7937 44.2344C97.5882 43.9427 97.4854 43.5748 97.4854 43.1307V35.5341ZM102.054 45V37.3636H103.188V38.517H103.267C103.407 38.1392 103.658 37.8326 104.023 37.5973C104.388 37.362 104.799 37.2443 105.256 37.2443C105.342 37.2443 105.45 37.246 105.579 37.2493C105.708 37.2526 105.806 37.2576 105.873 37.2642V38.4574C105.833 38.4474 105.742 38.4325 105.599 38.4126C105.46 38.3894 105.312 38.3778 105.157 38.3778C104.785 38.3778 104.454 38.4557 104.162 38.6115C103.874 38.764 103.645 38.9761 103.476 39.2479C103.31 39.5163 103.228 39.8229 103.228 40.1676V45H102.054ZM110.133 45.1591C109.444 45.1591 108.839 44.995 108.319 44.6669C107.801 44.3388 107.397 43.8797 107.105 43.2898C106.817 42.6998 106.673 42.0104 106.673 41.2216C106.673 40.4261 106.817 39.7318 107.105 39.1385C107.397 38.5452 107.801 38.0845 108.319 37.7564C108.839 37.4283 109.444 37.2642 110.133 37.2642C110.823 37.2642 111.426 37.4283 111.943 37.7564C112.463 38.0845 112.868 38.5452 113.156 39.1385C113.448 39.7318 113.593 40.4261 113.593 41.2216C113.593 42.0104 113.448 42.6998 113.156 43.2898C112.868 43.8797 112.463 44.3388 111.943 44.6669C111.426 44.995 110.823 45.1591 110.133 45.1591ZM110.133 44.1051C110.657 44.1051 111.088 43.9709 111.426 43.7024C111.764 43.4339 112.014 43.081 112.176 42.6435C112.339 42.206 112.42 41.732 112.42 41.2216C112.42 40.7112 112.339 40.2356 112.176 39.7947C112.014 39.3539 111.764 38.9976 111.426 38.7259C111.088 38.4541 110.657 38.3182 110.133 38.3182C109.609 38.3182 109.179 38.4541 108.841 38.7259C108.502 38.9976 108.252 39.3539 108.09 39.7947C107.927 40.2356 107.846 40.7112 107.846 41.2216C107.846 41.732 107.927 42.206 108.09 42.6435C108.252 43.081 108.502 43.4339 108.841 43.7024C109.179 43.9709 109.609 44.1051 110.133 44.1051ZM118.268 45.1591C117.632 45.1591 117.07 44.9983 116.583 44.6768C116.095 44.352 115.714 43.8946 115.439 43.3047C115.164 42.7114 115.026 42.0104 115.026 41.2017C115.026 40.3996 115.164 39.7036 115.439 39.1136C115.714 38.5237 116.097 38.0679 116.588 37.7464C117.078 37.425 117.645 37.2642 118.288 37.2642C118.785 37.2642 119.178 37.3471 119.466 37.5128C119.758 37.6752 119.98 37.8608 120.132 38.0696C120.288 38.2751 120.409 38.4441 120.495 38.5767H120.595V34.8182H121.768V45H120.634V43.8267H120.495C120.409 43.9659 120.286 44.1416 120.127 44.3537C119.968 44.5625 119.741 44.7498 119.446 44.9155C119.151 45.0779 118.758 45.1591 118.268 45.1591ZM118.427 44.1051C118.898 44.1051 119.295 43.9825 119.62 43.7372C119.945 43.4886 120.192 43.1456 120.361 42.7081C120.53 42.2673 120.615 41.7585 120.615 41.1818C120.615 40.6117 120.532 40.1129 120.366 39.6854C120.2 39.2545 119.955 38.9197 119.63 38.6811C119.305 38.4392 118.904 38.3182 118.427 38.3182C117.93 38.3182 117.516 38.4458 117.184 38.701C116.856 38.9529 116.609 39.2959 116.443 39.7301C116.281 40.161 116.2 40.6449 116.2 41.1818C116.2 41.7254 116.283 42.2192 116.448 42.6634C116.617 43.1042 116.866 43.4555 117.194 43.7173C117.526 43.9759 117.936 44.1051 118.427 44.1051ZM128.892 41.8778V37.3636H130.066V45H128.892V43.7074H128.813C128.634 44.0952 128.355 44.425 127.977 44.6967C127.6 44.9652 127.122 45.0994 126.546 45.0994C126.068 45.0994 125.644 44.995 125.273 44.7862C124.902 44.5741 124.61 44.2559 124.398 43.8317C124.186 43.4041 124.08 42.8655 124.08 42.2159V37.3636H125.253V42.1364C125.253 42.6932 125.409 43.1373 125.72 43.4688C126.035 43.8002 126.436 43.9659 126.923 43.9659C127.215 43.9659 127.512 43.8913 127.813 43.7422C128.118 43.593 128.374 43.3643 128.579 43.0561C128.788 42.7479 128.892 42.3551 128.892 41.8778ZM135.317 45.1591C134.601 45.1591 133.984 44.9901 133.467 44.652C132.95 44.3139 132.553 43.8482 132.274 43.255C131.996 42.6617 131.857 41.9839 131.857 41.2216C131.857 40.446 131.999 39.7616 132.284 39.1683C132.572 38.5717 132.973 38.1061 133.487 37.7713C134.004 37.4332 134.607 37.2642 135.297 37.2642C135.834 37.2642 136.318 37.3636 136.749 37.5625C137.179 37.7614 137.532 38.0398 137.808 38.3977C138.083 38.7557 138.253 39.1733 138.32 39.6506H137.146C137.057 39.3026 136.858 38.9943 136.55 38.7259C136.245 38.4541 135.834 38.3182 135.317 38.3182C134.859 38.3182 134.458 38.4375 134.114 38.6761C133.772 38.9115 133.505 39.2446 133.313 39.6754C133.124 40.103 133.03 40.6051 133.03 41.1818C133.03 41.7718 133.123 42.2855 133.308 42.723C133.497 43.1605 133.762 43.5002 134.104 43.7422C134.448 43.9841 134.853 44.1051 135.317 44.1051C135.622 44.1051 135.898 44.0521 136.147 43.946C136.396 43.84 136.606 43.6875 136.778 43.4886C136.951 43.2898 137.073 43.0511 137.146 42.7727H138.32C138.253 43.2235 138.089 43.6295 137.827 43.9908C137.569 44.3487 137.226 44.6338 136.798 44.8459C136.374 45.0547 135.88 45.1591 135.317 45.1591ZM143.356 37.3636V38.358H139.398V37.3636H143.356ZM140.552 35.5341H141.725V42.8125C141.725 43.1439 141.773 43.3925 141.869 43.5582C141.969 43.7206 142.095 43.83 142.247 43.8864C142.403 43.9394 142.567 43.9659 142.739 43.9659C142.869 43.9659 142.975 43.9593 143.058 43.946C143.14 43.9295 143.207 43.9162 143.256 43.9062L143.495 44.9602C143.415 44.9901 143.304 45.0199 143.162 45.0497C143.019 45.0829 142.839 45.0994 142.62 45.0994C142.289 45.0994 141.964 45.0282 141.646 44.8857C141.331 44.7431 141.069 44.526 140.86 44.2344C140.655 43.9427 140.552 43.5748 140.552 43.1307V35.5341ZM145.121 45V37.3636H146.294V45H145.121ZM145.717 36.0909C145.489 36.0909 145.291 36.013 145.126 35.8572C144.963 35.7015 144.882 35.5142 144.882 35.2955C144.882 35.0767 144.963 34.8894 145.126 34.7337C145.291 34.5779 145.489 34.5 145.717 34.5C145.946 34.5 146.142 34.5779 146.304 34.7337C146.47 34.8894 146.553 35.0767 146.553 35.2955C146.553 35.5142 146.47 35.7015 146.304 35.8572C146.142 36.013 145.946 36.0909 145.717 36.0909ZM151.545 45.1591C150.856 45.1591 150.251 44.995 149.731 44.6669C149.214 44.3388 148.809 43.8797 148.518 43.2898C148.229 42.6998 148.085 42.0104 148.085 41.2216C148.085 40.4261 148.229 39.7318 148.518 39.1385C148.809 38.5452 149.214 38.0845 149.731 37.7564C150.251 37.4283 150.856 37.2642 151.545 37.2642C152.235 37.2642 152.838 37.4283 153.355 37.7564C153.875 38.0845 154.28 38.5452 154.568 39.1385C154.86 39.7318 155.006 40.4261 155.006 41.2216C155.006 42.0104 154.86 42.6998 154.568 43.2898C154.28 43.8797 153.875 44.3388 153.355 44.6669C152.838 44.995 152.235 45.1591 151.545 45.1591ZM151.545 44.1051C152.069 44.1051 152.5 43.9709 152.838 43.7024C153.176 43.4339 153.426 43.081 153.589 42.6435C153.751 42.206 153.832 41.732 153.832 41.2216C153.832 40.7112 153.751 40.2356 153.589 39.7947C153.426 39.3539 153.176 38.9976 152.838 38.7259C152.5 38.4541 152.069 38.3182 151.545 38.3182C151.022 38.3182 150.591 38.4541 150.253 38.7259C149.915 38.9976 149.664 39.3539 149.502 39.7947C149.34 40.2356 149.258 40.7112 149.258 41.2216C149.258 41.732 149.34 42.206 149.502 42.6435C149.664 43.081 149.915 43.4339 150.253 43.7024C150.591 43.9709 151.022 44.1051 151.545 44.1051ZM157.97 40.4062V45H156.797V37.3636H157.93V38.5568H158.029C158.208 38.169 158.48 37.8575 158.845 37.6222C159.209 37.3835 159.68 37.2642 160.257 37.2642C160.774 37.2642 161.226 37.3703 161.614 37.5824C162.002 37.7912 162.303 38.1094 162.519 38.5369C162.734 38.9612 162.842 39.4981 162.842 40.1477V45H161.669V40.2273C161.669 39.6274 161.513 39.16 161.201 38.8253C160.89 38.4872 160.462 38.3182 159.919 38.3182C159.544 38.3182 159.209 38.3994 158.914 38.5618C158.623 38.7242 158.392 38.9612 158.223 39.2727C158.054 39.5843 157.97 39.9621 157.97 40.4062ZM172.244 37.3636V38.358H168.287V37.3636H172.244ZM169.441 35.5341H170.614V42.8125C170.614 43.1439 170.662 43.3925 170.758 43.5582C170.857 43.7206 170.983 43.83 171.136 43.8864C171.292 43.9394 171.456 43.9659 171.628 43.9659C171.757 43.9659 171.863 43.9593 171.946 43.946C172.029 43.9295 172.095 43.9162 172.145 43.9062L172.384 44.9602C172.304 44.9901 172.193 45.0199 172.051 45.0497C171.908 45.0829 171.727 45.0994 171.509 45.0994C171.177 45.0994 170.852 45.0282 170.534 44.8857C170.219 44.7431 169.958 44.526 169.749 44.2344C169.543 43.9427 169.441 43.5748 169.441 43.1307V35.5341ZM177.03 45.1591C176.34 45.1591 175.735 44.995 175.215 44.6669C174.698 44.3388 174.294 43.8797 174.002 43.2898C173.714 42.6998 173.569 42.0104 173.569 41.2216C173.569 40.4261 173.714 39.7318 174.002 39.1385C174.294 38.5452 174.698 38.0845 175.215 37.7564C175.735 37.4283 176.34 37.2642 177.03 37.2642C177.719 37.2642 178.322 37.4283 178.839 37.7564C179.36 38.0845 179.764 38.5452 180.052 39.1385C180.344 39.7318 180.49 40.4261 180.49 41.2216C180.49 42.0104 180.344 42.6998 180.052 43.2898C179.764 43.8797 179.36 44.3388 178.839 44.6669C178.322 44.995 177.719 45.1591 177.03 45.1591ZM177.03 44.1051C177.553 44.1051 177.984 43.9709 178.322 43.7024C178.66 43.4339 178.911 43.081 179.073 42.6435C179.235 42.206 179.317 41.732 179.317 41.2216C179.317 40.7112 179.235 40.2356 179.073 39.7947C178.911 39.3539 178.66 38.9976 178.322 38.7259C177.984 38.4541 177.553 38.3182 177.03 38.3182C176.506 38.3182 176.075 38.4541 175.737 38.7259C175.399 38.9976 175.149 39.3539 174.986 39.7947C174.824 40.2356 174.743 40.7112 174.743 41.2216C174.743 41.732 174.824 42.206 174.986 42.6435C175.149 43.081 175.399 43.4339 175.737 43.7024C176.075 43.9709 176.506 44.1051 177.03 44.1051ZM186.795 45H185.502L189.241 34.8182H190.514L194.252 45H192.96L189.917 36.429H189.838L186.795 45ZM187.272 41.0227H192.483V42.1165H187.272V41.0227ZM197.071 34.8182V45H195.838V34.8182H197.071Z" fill="white"/>
<rect x="59.5" y="-15.5" width="298" height="29" rx="14.5" fill="#334155"/>
<rect x="59.5" y="-15.5" width="298" height="29" rx="14.5" stroke="url(#paint4_linear_2199_3100)"/>
<circle cx="74" cy="-1" r="3" fill="#71717A"/>
<path d="M87.0824 4L84.2983 -6.18182H85.5511L87.679 2.1108H87.7784L89.946 -6.18182H91.3381L93.5057 2.1108H93.6051L95.733 -6.18182H96.9858L94.2017 4H92.929L90.6818 -4.11364H90.6023L88.3551 4H87.0824ZM99.8991 4.17898C99.4152 4.17898 98.9761 4.08783 98.5817 3.90554C98.1873 3.71993 97.8741 3.45312 97.642 3.10511C97.41 2.75379 97.294 2.32955 97.294 1.83239C97.294 1.39489 97.3802 1.04025 97.5526 0.768466C97.7249 0.493371 97.9553 0.277935 98.2436 0.122159C98.532 -0.0336177 98.8501 -0.149621 99.1982 -0.225852C99.5495 -0.305398 99.9025 -0.368371 100.257 -0.414773C100.721 -0.474432 101.097 -0.519176 101.386 -0.549006C101.677 -0.58215 101.889 -0.636837 102.022 -0.713068C102.158 -0.789299 102.226 -0.921875 102.226 -1.1108V-1.15057C102.226 -1.6411 102.092 -2.02225 101.823 -2.29403C101.558 -2.56581 101.155 -2.7017 100.615 -2.7017C100.055 -2.7017 99.6158 -2.57907 99.2976 -2.33381C98.9794 -2.08854 98.7557 -1.8267 98.6264 -1.5483L97.5128 -1.94602C97.7116 -2.41004 97.9768 -2.77131 98.3082 -3.02983C98.643 -3.29167 99.0076 -3.47396 99.402 -3.5767C99.7997 -3.68277 100.191 -3.7358 100.575 -3.7358C100.821 -3.7358 101.102 -3.70597 101.42 -3.64631C101.742 -3.58996 102.052 -3.4723 102.35 -3.29332C102.652 -3.11435 102.902 -2.84422 103.101 -2.48295C103.3 -2.12169 103.399 -1.63778 103.399 -1.03125V4H102.226V2.96591H102.166C102.087 3.13163 101.954 3.30895 101.768 3.49787C101.583 3.68679 101.336 3.84754 101.028 3.98011C100.719 4.11269 100.343 4.17898 99.8991 4.17898ZM100.078 3.125C100.542 3.125 100.933 3.03385 101.251 2.85156C101.573 2.66927 101.815 2.43395 101.977 2.1456C102.143 1.85724 102.226 1.55398 102.226 1.2358V0.161932C102.176 0.221591 102.067 0.276278 101.898 0.325994C101.732 0.372396 101.54 0.413825 101.321 0.450284C101.106 0.483428 100.895 0.513258 100.69 0.539773C100.487 0.562973 100.323 0.58286 100.197 0.599432C99.8925 0.639204 99.6075 0.703835 99.3423 0.793324C99.0805 0.879498 98.8684 1.01042 98.706 1.18608C98.5469 1.35843 98.4673 1.59375 98.4673 1.89205C98.4673 2.29972 98.6181 2.60795 98.9197 2.81676C99.2247 3.02225 99.6108 3.125 100.078 3.125ZM106.634 1.21591L106.615 -0.235795H106.853L110.194 -3.63636H111.646L108.086 -0.0369319H107.987L106.634 1.21591ZM105.541 4V-6.18182H106.714V4H105.541ZM110.393 4L107.41 0.221591L108.245 -0.59375L111.884 4H110.393ZM116.043 4.15909C115.307 4.15909 114.673 3.99669 114.139 3.67188C113.609 3.34375 113.199 2.88636 112.911 2.29972C112.626 1.70975 112.483 1.02367 112.483 0.241477C112.483 -0.54072 112.626 -1.23011 112.911 -1.8267C113.199 -2.42661 113.6 -2.89394 114.114 -3.22869C114.631 -3.56676 115.234 -3.7358 115.924 -3.7358C116.322 -3.7358 116.714 -3.66951 117.102 -3.53693C117.49 -3.40436 117.843 -3.18892 118.161 -2.89062C118.479 -2.59564 118.733 -2.20455 118.922 -1.71733C119.111 -1.23011 119.205 -0.630209 119.205 0.0823861V0.579545H113.319V-0.434659H118.012C118.012 -0.865531 117.926 -1.25 117.753 -1.58807C117.584 -1.92614 117.342 -2.19295 117.028 -2.38849C116.716 -2.58404 116.348 -2.68182 115.924 -2.68182C115.456 -2.68182 115.052 -2.56581 114.711 -2.33381C114.373 -2.10511 114.113 -1.80682 113.93 -1.43892C113.748 -1.07102 113.657 -0.67661 113.657 -0.255682V0.420455C113.657 0.997159 113.756 1.48603 113.955 1.88707C114.157 2.2848 114.437 2.58807 114.795 2.79688C115.153 3.00237 115.569 3.10511 116.043 3.10511C116.351 3.10511 116.63 3.06203 116.878 2.97585C117.13 2.88636 117.347 2.75379 117.53 2.57812C117.712 2.39915 117.853 2.17708 117.952 1.91193L119.086 2.23011C118.966 2.61458 118.766 2.95265 118.484 3.24432C118.202 3.53267 117.854 3.75805 117.44 3.92045C117.026 4.07955 116.56 4.15909 116.043 4.15909ZM129.74 0.877841V-3.63636H130.913V4H129.74V2.70739H129.66C129.481 3.09517 129.203 3.42495 128.825 3.69673C128.447 3.9652 127.97 4.09943 127.393 4.09943C126.916 4.09943 126.492 3.99503 126.121 3.78622C125.749 3.5741 125.458 3.25592 125.246 2.83168C125.033 2.40412 124.927 1.86553 124.927 1.21591V-3.63636H126.101V1.13636C126.101 1.69318 126.256 2.13731 126.568 2.46875C126.883 2.80019 127.284 2.96591 127.771 2.96591C128.063 2.96591 128.359 2.89134 128.661 2.74219C128.966 2.59304 129.221 2.36435 129.427 2.05611C129.635 1.74787 129.74 1.35511 129.74 0.877841ZM133.062 6.86364V-3.63636H134.196V-2.4233H134.335C134.421 -2.55587 134.54 -2.72491 134.693 -2.9304C134.849 -3.1392 135.071 -3.32481 135.359 -3.48722C135.651 -3.65294 136.045 -3.7358 136.542 -3.7358C137.185 -3.7358 137.752 -3.57505 138.243 -3.25355C138.733 -2.93206 139.116 -2.47633 139.391 -1.88636C139.666 -1.2964 139.804 -0.600379 139.804 0.201705C139.804 1.01042 139.666 1.71141 139.391 2.30469C139.116 2.89465 138.735 3.35204 138.248 3.67685C137.76 3.99834 137.199 4.15909 136.562 4.15909C136.072 4.15909 135.679 4.07789 135.384 3.91548C135.089 3.74976 134.862 3.5625 134.703 3.35369C134.544 3.14157 134.421 2.96591 134.335 2.8267H134.235V6.86364H133.062ZM134.216 0.181818C134.216 0.758523 134.3 1.26728 134.469 1.7081C134.638 2.1456 134.885 2.48864 135.21 2.73722C135.535 2.98248 135.932 3.10511 136.403 3.10511C136.894 3.10511 137.303 2.97585 137.631 2.71733C137.962 2.45549 138.211 2.10417 138.377 1.66335C138.546 1.21922 138.63 0.725379 138.63 0.181818C138.63 -0.355114 138.547 -0.839015 138.382 -1.26989C138.219 -1.70407 137.972 -2.04711 137.641 -2.29901C137.313 -2.55421 136.9 -2.68182 136.403 -2.68182C135.926 -2.68182 135.525 -2.56084 135.2 -2.31889C134.875 -2.08026 134.63 -1.7455 134.464 -1.31463C134.298 -0.887074 134.216 -0.388258 134.216 0.181818ZM143.343 2.60795L143.264 3.14489C143.208 3.52273 143.121 3.92708 143.005 4.35795C142.893 4.78883 142.775 5.19484 142.652 5.57599C142.53 5.95715 142.429 6.26042 142.349 6.4858H141.454C141.497 6.27367 141.554 5.99361 141.623 5.6456C141.693 5.29759 141.762 4.90814 141.832 4.47727C141.905 4.04972 141.965 3.61222 142.011 3.16477L142.071 2.60795H143.343ZM152.537 7.02273C151.97 7.02273 151.483 6.94981 151.075 6.80398C150.668 6.66146 150.328 6.47254 150.056 6.23722C149.788 6.00521 149.574 5.75663 149.415 5.49148L150.35 4.83523C150.456 4.97443 150.59 5.13352 150.752 5.3125C150.915 5.49479 151.137 5.65223 151.419 5.7848C151.704 5.92069 152.076 5.98864 152.537 5.98864C153.154 5.98864 153.662 5.83949 154.063 5.54119C154.464 5.2429 154.665 4.77557 154.665 4.1392V2.58807H154.566C154.479 2.72727 154.357 2.89962 154.198 3.10511C154.042 3.30729 153.816 3.48793 153.521 3.64702C153.23 3.80279 152.835 3.88068 152.338 3.88068C151.722 3.88068 151.168 3.73485 150.678 3.44318C150.191 3.15152 149.804 2.72727 149.519 2.17045C149.238 1.61364 149.097 0.9375 149.097 0.142045C149.097 -0.640152 149.234 -1.32126 149.509 -1.90128C149.785 -2.48461 150.167 -2.93537 150.658 -3.25355C151.148 -3.57505 151.715 -3.7358 152.358 -3.7358C152.855 -3.7358 153.25 -3.65294 153.541 -3.48722C153.836 -3.32481 154.062 -3.1392 154.218 -2.9304C154.377 -2.72491 154.499 -2.55587 154.585 -2.4233H154.705V-3.63636H155.838V4.21875C155.838 4.875 155.689 5.40862 155.391 5.8196C155.096 6.2339 154.698 6.53717 154.198 6.7294C153.7 6.92495 153.147 7.02273 152.537 7.02273ZM152.497 2.8267C152.968 2.8267 153.366 2.71899 153.691 2.50355C154.015 2.28812 154.262 1.97822 154.431 1.57386C154.6 1.16951 154.685 0.685606 154.685 0.122159C154.685 -0.42803 154.602 -0.913589 154.436 -1.33452C154.271 -1.75545 154.025 -2.08523 153.7 -2.32386C153.376 -2.5625 152.975 -2.68182 152.497 -2.68182C152 -2.68182 151.586 -2.55587 151.254 -2.30398C150.926 -2.05208 150.679 -1.71402 150.514 -1.28977C150.351 -0.86553 150.27 -0.394887 150.27 0.122159C150.27 0.652462 150.353 1.12145 150.519 1.52912C150.688 1.93348 150.936 2.25166 151.264 2.48366C151.596 2.71236 152.007 2.8267 152.497 2.8267ZM161.188 4.15909C160.452 4.15909 159.817 3.99669 159.284 3.67188C158.753 3.34375 158.344 2.88636 158.056 2.29972C157.771 1.70975 157.628 1.02367 157.628 0.241477C157.628 -0.54072 157.771 -1.23011 158.056 -1.8267C158.344 -2.42661 158.745 -2.89394 159.259 -3.22869C159.776 -3.56676 160.379 -3.7358 161.068 -3.7358C161.466 -3.7358 161.859 -3.66951 162.247 -3.53693C162.634 -3.40436 162.987 -3.18892 163.306 -2.89062C163.624 -2.59564 163.877 -2.20455 164.066 -1.71733C164.255 -1.23011 164.35 -0.630209 164.35 0.0823861V0.579545H158.463V-0.434659H163.156C163.156 -0.865531 163.07 -1.25 162.898 -1.58807C162.729 -1.92614 162.487 -2.19295 162.172 -2.38849C161.86 -2.58404 161.493 -2.68182 161.068 -2.68182C160.601 -2.68182 160.197 -2.56581 159.855 -2.33381C159.517 -2.10511 159.257 -1.80682 159.075 -1.43892C158.892 -1.07102 158.801 -0.67661 158.801 -0.255682V0.420455C158.801 0.997159 158.901 1.48603 159.1 1.88707C159.302 2.2848 159.582 2.58807 159.94 2.79688C160.298 3.00237 160.714 3.10511 161.188 3.10511C161.496 3.10511 161.774 3.06203 162.023 2.97585C162.275 2.88636 162.492 2.75379 162.674 2.57812C162.856 2.39915 162.997 2.17708 163.097 1.91193L164.23 2.23011C164.111 2.61458 163.91 2.95265 163.629 3.24432C163.347 3.53267 162.999 3.75805 162.585 3.92045C162.17 4.07955 161.705 4.15909 161.188 4.15909ZM169.455 -3.63636V-2.64205H165.498V-3.63636H169.455ZM166.651 -5.46591H167.825V1.8125C167.825 2.14394 167.873 2.39252 167.969 2.55824C168.068 2.72064 168.194 2.83002 168.347 2.88636C168.503 2.93939 168.667 2.96591 168.839 2.96591C168.968 2.96591 169.074 2.95928 169.157 2.94602C169.24 2.92945 169.306 2.91619 169.356 2.90625L169.595 3.96023C169.515 3.99006 169.404 4.01989 169.262 4.04972C169.119 4.08286 168.938 4.09943 168.72 4.09943C168.388 4.09943 168.063 4.02817 167.745 3.88565C167.43 3.74313 167.169 3.52604 166.96 3.23438C166.754 2.94271 166.651 2.57481 166.651 2.13068V-5.46591ZM178.041 4.15909C177.405 4.15909 176.843 3.99834 176.356 3.67685C175.869 3.35204 175.488 2.89465 175.213 2.30469C174.937 1.71141 174.8 1.01042 174.8 0.201705C174.8 -0.600379 174.937 -1.2964 175.213 -1.88636C175.488 -2.47633 175.87 -2.93206 176.361 -3.25355C176.852 -3.57505 177.418 -3.7358 178.061 -3.7358C178.558 -3.7358 178.951 -3.65294 179.24 -3.48722C179.531 -3.32481 179.753 -3.1392 179.906 -2.9304C180.061 -2.72491 180.182 -2.55587 180.269 -2.4233H180.368V-6.18182H181.541V4H180.408V2.8267H180.269C180.182 2.96591 180.06 3.14157 179.901 3.35369C179.742 3.5625 179.515 3.74976 179.22 3.91548C178.925 4.07789 178.532 4.15909 178.041 4.15909ZM178.2 3.10511C178.671 3.10511 179.069 2.98248 179.394 2.73722C179.718 2.48864 179.965 2.1456 180.134 1.7081C180.303 1.26728 180.388 0.758523 180.388 0.181818C180.388 -0.388258 180.305 -0.887074 180.139 -1.31463C179.974 -1.7455 179.728 -2.08026 179.404 -2.31889C179.079 -2.56084 178.678 -2.68182 178.2 -2.68182C177.703 -2.68182 177.289 -2.55421 176.958 -2.29901C176.629 -2.04711 176.383 -1.70407 176.217 -1.26989C176.054 -0.839015 175.973 -0.355114 175.973 0.181818C175.973 0.725379 176.056 1.21922 176.222 1.66335C176.391 2.10417 176.639 2.45549 176.968 2.71733C177.299 2.97585 177.71 3.10511 178.2 3.10511ZM183.853 4V-3.63636H184.987V-2.48295H185.066C185.205 -2.8608 185.457 -3.16738 185.822 -3.4027C186.186 -3.63802 186.597 -3.75568 187.055 -3.75568C187.141 -3.75568 187.249 -3.75403 187.378 -3.75071C187.507 -3.7474 187.605 -3.74242 187.671 -3.7358V-2.54261C187.632 -2.55256 187.54 -2.56747 187.398 -2.58736C187.259 -2.61056 187.111 -2.62216 186.955 -2.62216C186.584 -2.62216 186.253 -2.54427 185.961 -2.38849C185.673 -2.23603 185.444 -2.02391 185.275 -1.75213C185.109 -1.48366 185.026 -1.17708 185.026 -0.832387V4H183.853ZM192.031 4.15909C191.296 4.15909 190.661 3.99669 190.127 3.67188C189.597 3.34375 189.188 2.88636 188.899 2.29972C188.614 1.70975 188.472 1.02367 188.472 0.241477C188.472 -0.54072 188.614 -1.23011 188.899 -1.8267C189.188 -2.42661 189.589 -2.89394 190.102 -3.22869C190.619 -3.56676 191.223 -3.7358 191.912 -3.7358C192.31 -3.7358 192.703 -3.66951 193.09 -3.53693C193.478 -3.40436 193.831 -3.18892 194.149 -2.89062C194.468 -2.59564 194.721 -2.20455 194.91 -1.71733C195.099 -1.23011 195.193 -0.630209 195.193 0.0823861V0.579545H189.307V-0.434659H194C194 -0.865531 193.914 -1.25 193.742 -1.58807C193.573 -1.92614 193.331 -2.19295 193.016 -2.38849C192.704 -2.58404 192.336 -2.68182 191.912 -2.68182C191.445 -2.68182 191.04 -2.56581 190.699 -2.33381C190.361 -2.10511 190.101 -1.80682 189.919 -1.43892C189.736 -1.07102 189.645 -0.67661 189.645 -0.255682V0.420455C189.645 0.997159 189.744 1.48603 189.943 1.88707C190.146 2.2848 190.426 2.58807 190.784 2.79688C191.142 3.00237 191.557 3.10511 192.031 3.10511C192.34 3.10511 192.618 3.06203 192.867 2.97585C193.119 2.88636 193.336 2.75379 193.518 2.57812C193.7 2.39915 193.841 2.17708 193.941 1.91193L195.074 2.23011C194.955 2.61458 194.754 2.95265 194.472 3.24432C194.191 3.53267 193.843 3.75805 193.428 3.92045C193.014 4.07955 192.548 4.15909 192.031 4.15909ZM202.387 -1.92614L201.333 -1.62784C201.267 -1.8035 201.169 -1.9742 201.04 -2.13991C200.914 -2.30895 200.742 -2.44815 200.523 -2.55753C200.304 -2.6669 200.024 -2.72159 199.683 -2.72159C199.215 -2.72159 198.826 -2.61387 198.514 -2.39844C198.206 -2.18632 198.052 -1.91619 198.052 -1.58807C198.052 -1.2964 198.158 -1.06605 198.37 -0.897017C198.582 -0.727983 198.914 -0.587121 199.365 -0.474432L200.498 -0.196023C201.181 -0.0303032 201.69 0.223248 202.024 0.564631C202.359 0.902699 202.526 1.33854 202.526 1.87216C202.526 2.30966 202.401 2.70076 202.149 3.04545C201.9 3.39015 201.552 3.66193 201.105 3.8608C200.657 4.05966 200.137 4.15909 199.544 4.15909C198.765 4.15909 198.12 3.99006 197.61 3.65199C197.099 3.31392 196.776 2.82008 196.64 2.17045L197.754 1.89205C197.86 2.30303 198.06 2.61127 198.355 2.81676C198.654 3.02225 199.043 3.125 199.524 3.125C200.07 3.125 200.505 3.009 200.826 2.77699C201.151 2.54167 201.313 2.25994 201.313 1.93182C201.313 1.66667 201.221 1.4446 201.035 1.26562C200.849 1.08333 200.564 0.947443 200.18 0.857954L198.907 0.559659C198.208 0.393939 197.694 0.137074 197.366 -0.210938C197.041 -0.562263 196.879 -1.00142 196.879 -1.52841C196.879 -1.95928 197 -2.34044 197.242 -2.67188C197.487 -3.00331 197.82 -3.26349 198.241 -3.45242C198.665 -3.64134 199.146 -3.7358 199.683 -3.7358C200.438 -3.7358 201.032 -3.57008 201.463 -3.23864C201.897 -2.9072 202.205 -2.4697 202.387 -1.92614ZM209.702 -1.92614L208.648 -1.62784C208.581 -1.8035 208.484 -1.9742 208.354 -2.13991C208.228 -2.30895 208.056 -2.44815 207.837 -2.55753C207.619 -2.6669 207.339 -2.72159 206.997 -2.72159C206.53 -2.72159 206.14 -2.61387 205.829 -2.39844C205.521 -2.18632 205.366 -1.91619 205.366 -1.58807C205.366 -1.2964 205.473 -1.06605 205.685 -0.897017C205.897 -0.727983 206.228 -0.587121 206.679 -0.474432L207.812 -0.196023C208.495 -0.0303032 209.004 0.223248 209.339 0.564631C209.674 0.902699 209.841 1.33854 209.841 1.87216C209.841 2.30966 209.715 2.70076 209.463 3.04545C209.214 3.39015 208.866 3.66193 208.419 3.8608C207.972 4.05966 207.451 4.15909 206.858 4.15909C206.079 4.15909 205.434 3.99006 204.924 3.65199C204.414 3.31392 204.09 2.82008 203.955 2.17045L205.068 1.89205C205.174 2.30303 205.375 2.61127 205.67 2.81676C205.968 3.02225 206.357 3.125 206.838 3.125C207.385 3.125 207.819 3.009 208.141 2.77699C208.465 2.54167 208.628 2.25994 208.628 1.93182C208.628 1.66667 208.535 1.4446 208.349 1.26562C208.164 1.08333 207.879 0.947443 207.494 0.857954L206.222 0.559659C205.522 0.393939 205.009 0.137074 204.68 -0.210938C204.356 -0.562263 204.193 -1.00142 204.193 -1.52841C204.193 -1.95928 204.314 -2.34044 204.556 -2.67188C204.801 -3.00331 205.134 -3.26349 205.555 -3.45242C205.98 -3.64134 206.46 -3.7358 206.997 -3.7358C207.753 -3.7358 208.346 -3.57008 208.777 -3.23864C209.211 -2.9072 209.519 -2.4697 209.702 -1.92614ZM214.809 4.15909C214.073 4.15909 213.438 3.99669 212.905 3.67188C212.374 3.34375 211.965 2.88636 211.677 2.29972C211.392 1.70975 211.249 1.02367 211.249 0.241477C211.249 -0.54072 211.392 -1.23011 211.677 -1.8267C211.965 -2.42661 212.366 -2.89394 212.88 -3.22869C213.397 -3.56676 214 -3.7358 214.689 -3.7358C215.087 -3.7358 215.48 -3.66951 215.868 -3.53693C216.256 -3.40436 216.608 -3.18892 216.927 -2.89062C217.245 -2.59564 217.498 -2.20455 217.687 -1.71733C217.876 -1.23011 217.971 -0.630209 217.971 0.0823861V0.579545H212.084V-0.434659H216.778C216.778 -0.865531 216.691 -1.25 216.519 -1.58807C216.35 -1.92614 216.108 -2.19295 215.793 -2.38849C215.482 -2.58404 215.114 -2.68182 214.689 -2.68182C214.222 -2.68182 213.818 -2.56581 213.476 -2.33381C213.138 -2.10511 212.878 -1.80682 212.696 -1.43892C212.514 -1.07102 212.422 -0.67661 212.422 -0.255682V0.420455C212.422 0.997159 212.522 1.48603 212.721 1.88707C212.923 2.2848 213.203 2.58807 213.561 2.79688C213.919 3.00237 214.335 3.10511 214.809 3.10511C215.117 3.10511 215.395 3.06203 215.644 2.97585C215.896 2.88636 216.113 2.75379 216.295 2.57812C216.478 2.39915 216.618 2.17708 216.718 1.91193L217.851 2.23011C217.732 2.61458 217.532 2.95265 217.25 3.24432C216.968 3.53267 216.62 3.75805 216.206 3.92045C215.791 4.07955 215.326 4.15909 214.809 4.15909ZM222.639 4.15909C222.003 4.15909 221.441 3.99834 220.954 3.67685C220.466 3.35204 220.085 2.89465 219.81 2.30469C219.535 1.71141 219.398 1.01042 219.398 0.201705C219.398 -0.600379 219.535 -1.2964 219.81 -1.88636C220.085 -2.47633 220.468 -2.93206 220.959 -3.25355C221.449 -3.57505 222.016 -3.7358 222.659 -3.7358C223.156 -3.7358 223.549 -3.65294 223.837 -3.48722C224.129 -3.32481 224.351 -3.1392 224.503 -2.9304C224.659 -2.72491 224.78 -2.55587 224.866 -2.4233H224.966V-6.18182H226.139V4H225.006V2.8267H224.866C224.78 2.96591 224.657 3.14157 224.498 3.35369C224.339 3.5625 224.112 3.74976 223.817 3.91548C223.522 4.07789 223.13 4.15909 222.639 4.15909ZM222.798 3.10511C223.269 3.10511 223.666 2.98248 223.991 2.73722C224.316 2.48864 224.563 2.1456 224.732 1.7081C224.901 1.26728 224.986 0.758523 224.986 0.181818C224.986 -0.388258 224.903 -0.887074 224.737 -1.31463C224.571 -1.7455 224.326 -2.08026 224.001 -2.31889C223.676 -2.56084 223.275 -2.68182 222.798 -2.68182C222.301 -2.68182 221.887 -2.55421 221.555 -2.29901C221.227 -2.04711 220.98 -1.70407 220.814 -1.26989C220.652 -0.839015 220.571 -0.355114 220.571 0.181818C220.571 0.725379 220.654 1.21922 220.819 1.66335C220.988 2.10417 221.237 2.45549 221.565 2.71733C221.897 2.97585 222.308 3.10511 222.798 3.10511ZM234.635 4.17898C234.152 4.17898 233.712 4.08783 233.318 3.90554C232.924 3.71993 232.61 3.45312 232.378 3.10511C232.146 2.75379 232.03 2.32955 232.03 1.83239C232.03 1.39489 232.117 1.04025 232.289 0.768466C232.461 0.493371 232.692 0.277935 232.98 0.122159C233.268 -0.0336177 233.586 -0.149621 233.934 -0.225852C234.286 -0.305398 234.639 -0.368371 234.993 -0.414773C235.457 -0.474432 235.834 -0.519176 236.122 -0.549006C236.414 -0.58215 236.626 -0.636837 236.758 -0.713068C236.894 -0.789299 236.962 -0.921875 236.962 -1.1108V-1.15057C236.962 -1.6411 236.828 -2.02225 236.559 -2.29403C236.294 -2.56581 235.892 -2.7017 235.351 -2.7017C234.791 -2.7017 234.352 -2.57907 234.034 -2.33381C233.716 -2.08854 233.492 -1.8267 233.363 -1.5483L232.249 -1.94602C232.448 -2.41004 232.713 -2.77131 233.045 -3.02983C233.379 -3.29167 233.744 -3.47396 234.138 -3.5767C234.536 -3.68277 234.927 -3.7358 235.312 -3.7358C235.557 -3.7358 235.839 -3.70597 236.157 -3.64631C236.478 -3.58996 236.788 -3.4723 237.086 -3.29332C237.388 -3.11435 237.638 -2.84422 237.837 -2.48295C238.036 -2.12169 238.135 -1.63778 238.135 -1.03125V4H236.962V2.96591H236.903C236.823 3.13163 236.69 3.30895 236.505 3.49787C236.319 3.68679 236.072 3.84754 235.764 3.98011C235.456 4.11269 235.08 4.17898 234.635 4.17898ZM234.814 3.125C235.278 3.125 235.67 3.03385 235.988 2.85156C236.309 2.66927 236.551 2.43395 236.714 2.1456C236.879 1.85724 236.962 1.55398 236.962 1.2358V0.161932C236.912 0.221591 236.803 0.276278 236.634 0.325994C236.468 0.372396 236.276 0.413825 236.057 0.450284C235.842 0.483428 235.631 0.513258 235.426 0.539773C235.224 0.562973 235.06 0.58286 234.934 0.599432C234.629 0.639204 234.344 0.703835 234.079 0.793324C233.817 0.879498 233.605 1.01042 233.442 1.18608C233.283 1.35843 233.204 1.59375 233.204 1.89205C233.204 2.29972 233.354 2.60795 233.656 2.81676C233.961 3.02225 234.347 3.125 234.814 3.125ZM241.45 -0.59375V4H240.277V-3.63636H241.411V-2.44318H241.51C241.689 -2.83097 241.961 -3.14252 242.325 -3.37784C242.69 -3.61648 243.161 -3.7358 243.737 -3.7358C244.254 -3.7358 244.707 -3.62973 245.094 -3.41761C245.482 -3.20881 245.784 -2.89062 245.999 -2.46307C246.215 -2.03883 246.322 -1.50189 246.322 -0.852273V4H245.149V-0.772727C245.149 -1.37263 244.993 -1.83996 244.682 -2.17472C244.37 -2.51278 243.943 -2.68182 243.399 -2.68182C243.025 -2.68182 242.69 -2.60062 242.395 -2.43821C242.103 -2.27581 241.873 -2.03883 241.704 -1.72727C241.535 -1.41572 241.45 -1.03788 241.45 -0.59375ZM251.35 4.15909C250.714 4.15909 250.152 3.99834 249.665 3.67685C249.177 3.35204 248.796 2.89465 248.521 2.30469C248.246 1.71141 248.108 1.01042 248.108 0.201705C248.108 -0.600379 248.246 -1.2964 248.521 -1.88636C248.796 -2.47633 249.179 -2.93206 249.67 -3.25355C250.16 -3.57505 250.727 -3.7358 251.37 -3.7358C251.867 -3.7358 252.26 -3.65294 252.548 -3.48722C252.84 -3.32481 253.062 -3.1392 253.214 -2.9304C253.37 -2.72491 253.491 -2.55587 253.577 -2.4233H253.677V-6.18182H254.85V4H253.716V2.8267H253.577C253.491 2.96591 253.368 3.14157 253.209 3.35369C253.05 3.5625 252.823 3.74976 252.528 3.91548C252.233 4.07789 251.84 4.15909 251.35 4.15909ZM251.509 3.10511C251.98 3.10511 252.377 2.98248 252.702 2.73722C253.027 2.48864 253.274 2.1456 253.443 1.7081C253.612 1.26728 253.697 0.758523 253.697 0.181818C253.697 -0.388258 253.614 -0.887074 253.448 -1.31463C253.282 -1.7455 253.037 -2.08026 252.712 -2.31889C252.387 -2.56084 251.986 -2.68182 251.509 -2.68182C251.012 -2.68182 250.598 -2.55421 250.266 -2.29901C249.938 -2.04711 249.691 -1.70407 249.525 -1.26989C249.363 -0.839015 249.282 -0.355114 249.282 0.181818C249.282 0.725379 249.365 1.21922 249.53 1.66335C249.699 2.10417 249.948 2.45549 250.276 2.71733C250.608 2.97585 251.019 3.10511 251.509 3.10511ZM262.273 -0.59375V4H261.099V-6.18182H262.273V-2.44318H262.372C262.551 -2.83759 262.819 -3.15081 263.177 -3.38281C263.539 -3.61813 264.019 -3.7358 264.619 -3.7358C265.14 -3.7358 265.595 -3.63139 265.986 -3.42259C266.377 -3.21709 266.681 -2.90057 266.896 -2.47301C267.115 -2.04877 267.224 -1.50852 267.224 -0.852273V4H266.051V-0.772727C266.051 -1.37926 265.894 -1.84825 265.579 -2.17969C265.267 -2.51444 264.835 -2.68182 264.281 -2.68182C263.897 -2.68182 263.552 -2.60062 263.247 -2.43821C262.945 -2.27581 262.707 -2.03883 262.531 -1.72727C262.359 -1.41572 262.273 -1.03788 262.273 -0.59375ZM272.572 4.15909C271.837 4.15909 271.202 3.99669 270.668 3.67188C270.138 3.34375 269.729 2.88636 269.44 2.29972C269.155 1.70975 269.013 1.02367 269.013 0.241477C269.013 -0.54072 269.155 -1.23011 269.44 -1.8267C269.729 -2.42661 270.13 -2.89394 270.643 -3.22869C271.161 -3.56676 271.764 -3.7358 272.453 -3.7358C272.851 -3.7358 273.244 -3.66951 273.631 -3.53693C274.019 -3.40436 274.372 -3.18892 274.69 -2.89062C275.009 -2.59564 275.262 -2.20455 275.451 -1.71733C275.64 -1.23011 275.734 -0.630209 275.734 0.0823861V0.579545H269.848V-0.434659H274.541C274.541 -0.865531 274.455 -1.25 274.283 -1.58807C274.114 -1.92614 273.872 -2.19295 273.557 -2.38849C273.245 -2.58404 272.877 -2.68182 272.453 -2.68182C271.986 -2.68182 271.581 -2.56581 271.24 -2.33381C270.902 -2.10511 270.642 -1.80682 270.46 -1.43892C270.277 -1.07102 270.186 -0.67661 270.186 -0.255682V0.420455C270.186 0.997159 270.286 1.48603 270.484 1.88707C270.687 2.2848 270.967 2.58807 271.325 2.79688C271.683 3.00237 272.098 3.10511 272.572 3.10511C272.881 3.10511 273.159 3.06203 273.408 2.97585C273.66 2.88636 273.877 2.75379 274.059 2.57812C274.241 2.39915 274.382 2.17708 274.482 1.91193L275.615 2.23011C275.496 2.61458 275.295 2.95265 275.013 3.24432C274.732 3.53267 274.384 3.75805 273.969 3.92045C273.555 4.07955 273.089 4.15909 272.572 4.15909ZM279.766 4.17898C279.282 4.17898 278.843 4.08783 278.449 3.90554C278.054 3.71993 277.741 3.45312 277.509 3.10511C277.277 2.75379 277.161 2.32955 277.161 1.83239C277.161 1.39489 277.247 1.04025 277.42 0.768466C277.592 0.493371 277.822 0.277935 278.111 0.122159C278.399 -0.0336177 278.717 -0.149621 279.065 -0.225852C279.417 -0.305398 279.77 -0.368371 280.124 -0.414773C280.588 -0.474432 280.964 -0.519176 281.253 -0.549006C281.545 -0.58215 281.757 -0.636837 281.889 -0.713068C282.025 -0.789299 282.093 -0.921875 282.093 -1.1108V-1.15057C282.093 -1.6411 281.959 -2.02225 281.69 -2.29403C281.425 -2.56581 281.022 -2.7017 280.482 -2.7017C279.922 -2.7017 279.483 -2.57907 279.165 -2.33381C278.847 -2.08854 278.623 -1.8267 278.494 -1.5483L277.38 -1.94602C277.579 -2.41004 277.844 -2.77131 278.175 -3.02983C278.51 -3.29167 278.875 -3.47396 279.269 -3.5767C279.667 -3.68277 280.058 -3.7358 280.442 -3.7358C280.688 -3.7358 280.969 -3.70597 281.288 -3.64631C281.609 -3.58996 281.919 -3.4723 282.217 -3.29332C282.519 -3.11435 282.769 -2.84422 282.968 -2.48295C283.167 -2.12169 283.266 -1.63778 283.266 -1.03125V4H282.093V2.96591H282.033C281.954 3.13163 281.821 3.30895 281.636 3.49787C281.45 3.68679 281.203 3.84754 280.895 3.98011C280.587 4.11269 280.21 4.17898 279.766 4.17898ZM279.945 3.125C280.409 3.125 280.8 3.03385 281.119 2.85156C281.44 2.66927 281.682 2.43395 281.844 2.1456C282.01 1.85724 282.093 1.55398 282.093 1.2358V0.161932C282.043 0.221591 281.934 0.276278 281.765 0.325994C281.599 0.372396 281.407 0.413825 281.188 0.450284C280.973 0.483428 280.762 0.513258 280.557 0.539773C280.355 0.562973 280.191 0.58286 280.065 0.599432C279.76 0.639204 279.475 0.703835 279.21 0.793324C278.948 0.879498 278.736 1.01042 278.573 1.18608C278.414 1.35843 278.335 1.59375 278.335 1.89205C278.335 2.29972 278.485 2.60795 278.787 2.81676C279.092 3.02225 279.478 3.125 279.945 3.125ZM288.291 4.15909C287.655 4.15909 287.093 3.99834 286.606 3.67685C286.119 3.35204 285.738 2.89465 285.463 2.30469C285.187 1.71141 285.05 1.01042 285.05 0.201705C285.05 -0.600379 285.187 -1.2964 285.463 -1.88636C285.738 -2.47633 286.12 -2.93206 286.611 -3.25355C287.102 -3.57505 287.668 -3.7358 288.311 -3.7358C288.808 -3.7358 289.201 -3.65294 289.49 -3.48722C289.781 -3.32481 290.003 -3.1392 290.156 -2.9304C290.311 -2.72491 290.432 -2.55587 290.519 -2.4233H290.618V-6.18182H291.791V4H290.658V2.8267H290.519C290.432 2.96591 290.31 3.14157 290.151 3.35369C289.992 3.5625 289.765 3.74976 289.47 3.91548C289.175 4.07789 288.782 4.15909 288.291 4.15909ZM288.45 3.10511C288.921 3.10511 289.319 2.98248 289.644 2.73722C289.968 2.48864 290.215 2.1456 290.384 1.7081C290.553 1.26728 290.638 0.758523 290.638 0.181818C290.638 -0.388258 290.555 -0.887074 290.389 -1.31463C290.224 -1.7455 289.978 -2.08026 289.654 -2.31889C289.329 -2.56084 288.928 -2.68182 288.45 -2.68182C287.953 -2.68182 287.539 -2.55421 287.208 -2.29901C286.879 -2.04711 286.633 -1.70407 286.467 -1.26989C286.304 -0.839015 286.223 -0.355114 286.223 0.181818C286.223 0.725379 286.306 1.21922 286.472 1.66335C286.641 2.10417 286.889 2.45549 287.218 2.71733C287.549 2.97585 287.96 3.10511 288.45 3.10511ZM301.143 4.15909C300.454 4.15909 299.849 3.99503 299.328 3.6669C298.811 3.33878 298.407 2.87973 298.115 2.28977C297.827 1.69981 297.683 1.01042 297.683 0.221591C297.683 -0.573864 297.827 -1.26823 298.115 -1.86151C298.407 -2.45478 298.811 -2.91548 299.328 -3.24361C299.849 -3.57173 300.454 -3.7358 301.143 -3.7358C301.832 -3.7358 302.436 -3.57173 302.953 -3.24361C303.473 -2.91548 303.877 -2.45478 304.166 -1.86151C304.457 -1.26823 304.603 -0.573864 304.603 0.221591C304.603 1.01042 304.457 1.69981 304.166 2.28977C303.877 2.87973 303.473 3.33878 302.953 3.6669C302.436 3.99503 301.832 4.15909 301.143 4.15909ZM301.143 3.10511C301.667 3.10511 302.097 2.97088 302.436 2.70241C302.774 2.43395 303.024 2.08097 303.186 1.64347C303.349 1.20597 303.43 0.732007 303.43 0.221591C303.43 -0.288826 303.349 -0.764441 303.186 -1.20526C303.024 -1.64607 302.774 -2.00237 302.436 -2.27415C302.097 -2.54593 301.667 -2.68182 301.143 -2.68182C300.619 -2.68182 300.188 -2.54593 299.85 -2.27415C299.512 -2.00237 299.262 -1.64607 299.1 -1.20526C298.937 -0.764441 298.856 -0.288826 298.856 0.221591C298.856 0.732007 298.937 1.20597 299.1 1.64347C299.262 2.08097 299.512 2.43395 299.85 2.70241C300.188 2.97088 300.619 3.10511 301.143 3.10511ZM311.207 0.877841V-3.63636H312.38V4H311.207V2.70739H311.127C310.948 3.09517 310.67 3.42495 310.292 3.69673C309.914 3.9652 309.437 4.09943 308.86 4.09943C308.383 4.09943 307.959 3.99503 307.587 3.78622C307.216 3.5741 306.924 3.25592 306.712 2.83168C306.5 2.40412 306.394 1.86553 306.394 1.21591V-3.63636H307.567V1.13636C307.567 1.69318 307.723 2.13731 308.035 2.46875C308.35 2.80019 308.751 2.96591 309.238 2.96591C309.53 2.96591 309.826 2.89134 310.128 2.74219C310.433 2.59304 310.688 2.36435 310.893 2.05611C311.102 1.74787 311.207 1.35511 311.207 0.877841ZM317.85 -3.63636V-2.64205H313.893V-3.63636H317.85ZM315.046 -5.46591H316.219V1.8125C316.219 2.14394 316.267 2.39252 316.363 2.55824C316.463 2.72064 316.589 2.83002 316.741 2.88636C316.897 2.93939 317.061 2.96591 317.233 2.96591C317.363 2.96591 317.469 2.95928 317.552 2.94602C317.635 2.92945 317.701 2.91619 317.751 2.90625L317.989 3.96023C317.91 3.99006 317.799 4.01989 317.656 4.04972C317.514 4.08286 317.333 4.09943 317.114 4.09943C316.783 4.09943 316.458 4.02817 316.14 3.88565C315.825 3.74313 315.563 3.52604 315.354 3.23438C315.149 2.94271 315.046 2.57481 315.046 2.13068V-5.46591ZM324.887 -1.92614L323.833 -1.62784C323.767 -1.8035 323.669 -1.9742 323.54 -2.13991C323.414 -2.30895 323.242 -2.44815 323.023 -2.55753C322.804 -2.6669 322.524 -2.72159 322.183 -2.72159C321.715 -2.72159 321.326 -2.61387 321.014 -2.39844C320.706 -2.18632 320.552 -1.91619 320.552 -1.58807C320.552 -1.2964 320.658 -1.06605 320.87 -0.897017C321.082 -0.727983 321.414 -0.587121 321.865 -0.474432L322.998 -0.196023C323.681 -0.0303032 324.19 0.223248 324.524 0.564631C324.859 0.902699 325.026 1.33854 325.026 1.87216C325.026 2.30966 324.901 2.70076 324.649 3.04545C324.4 3.39015 324.052 3.66193 323.605 3.8608C323.157 4.05966 322.637 4.15909 322.044 4.15909C321.265 4.15909 320.62 3.99006 320.11 3.65199C319.599 3.31392 319.276 2.82008 319.14 2.17045L320.254 1.89205C320.36 2.30303 320.56 2.61127 320.855 2.81676C321.154 3.02225 321.543 3.125 322.024 3.125C322.57 3.125 323.005 3.009 323.326 2.77699C323.651 2.54167 323.813 2.25994 323.813 1.93182C323.813 1.66667 323.721 1.4446 323.535 1.26562C323.349 1.08333 323.064 0.947443 322.68 0.857954L321.407 0.559659C320.708 0.393939 320.194 0.137074 319.866 -0.210938C319.541 -0.562263 319.379 -1.00142 319.379 -1.52841C319.379 -1.95928 319.5 -2.34044 319.742 -2.67188C319.987 -3.00331 320.32 -3.26349 320.741 -3.45242C321.165 -3.64134 321.646 -3.7358 322.183 -3.7358C322.938 -3.7358 323.532 -3.57008 323.963 -3.23864C324.397 -2.9072 324.705 -2.4697 324.887 -1.92614ZM326.793 4V-3.63636H327.966V4H326.793ZM327.389 -4.90909C327.161 -4.90909 326.963 -4.98698 326.798 -5.14276C326.635 -5.29853 326.554 -5.4858 326.554 -5.70455C326.554 -5.9233 326.635 -6.11056 326.798 -6.26634C326.963 -6.42211 327.161 -6.5 327.389 -6.5C327.618 -6.5 327.813 -6.42211 327.976 -6.26634C328.142 -6.11056 328.224 -5.9233 328.224 -5.70455C328.224 -5.4858 328.142 -5.29853 327.976 -5.14276C327.813 -4.98698 327.618 -4.90909 327.389 -4.90909ZM332.998 4.15909C332.362 4.15909 331.8 3.99834 331.313 3.67685C330.826 3.35204 330.445 2.89465 330.17 2.30469C329.894 1.71141 329.757 1.01042 329.757 0.201705C329.757 -0.600379 329.894 -1.2964 330.17 -1.88636C330.445 -2.47633 330.827 -2.93206 331.318 -3.25355C331.809 -3.57505 332.375 -3.7358 333.018 -3.7358C333.515 -3.7358 333.908 -3.65294 334.197 -3.48722C334.488 -3.32481 334.71 -3.1392 334.863 -2.9304C335.019 -2.72491 335.14 -2.55587 335.226 -2.4233H335.325V-6.18182H336.498V4H335.365V2.8267H335.226C335.14 2.96591 335.017 3.14157 334.858 3.35369C334.699 3.5625 334.472 3.74976 334.177 3.91548C333.882 4.07789 333.489 4.15909 332.998 4.15909ZM333.157 3.10511C333.628 3.10511 334.026 2.98248 334.351 2.73722C334.675 2.48864 334.922 2.1456 335.091 1.7081C335.26 1.26728 335.345 0.758523 335.345 0.181818C335.345 -0.388258 335.262 -0.887074 335.096 -1.31463C334.931 -1.7455 334.685 -2.08026 334.361 -2.31889C334.036 -2.56084 333.635 -2.68182 333.157 -2.68182C332.66 -2.68182 332.246 -2.55421 331.915 -2.29901C331.586 -2.04711 331.34 -1.70407 331.174 -1.26989C331.011 -0.839015 330.93 -0.355114 330.93 0.181818C330.93 0.725379 331.013 1.21922 331.179 1.66335C331.348 2.10417 331.596 2.45549 331.925 2.71733C332.256 2.97585 332.667 3.10511 333.157 3.10511ZM342.012 4.15909C341.276 4.15909 340.641 3.99669 340.108 3.67188C339.577 3.34375 339.168 2.88636 338.88 2.29972C338.595 1.70975 338.452 1.02367 338.452 0.241477C338.452 -0.54072 338.595 -1.23011 338.88 -1.8267C339.168 -2.42661 339.569 -2.89394 340.083 -3.22869C340.6 -3.56676 341.203 -3.7358 341.893 -3.7358C342.29 -3.7358 342.683 -3.66951 343.071 -3.53693C343.459 -3.40436 343.812 -3.18892 344.13 -2.89062C344.448 -2.59564 344.702 -2.20455 344.89 -1.71733C345.079 -1.23011 345.174 -0.630209 345.174 0.0823861V0.579545H339.287V-0.434659H343.981C343.981 -0.865531 343.894 -1.25 343.722 -1.58807C343.553 -1.92614 343.311 -2.19295 342.996 -2.38849C342.685 -2.58404 342.317 -2.68182 341.893 -2.68182C341.425 -2.68182 341.021 -2.56581 340.68 -2.33381C340.341 -2.10511 340.081 -1.80682 339.899 -1.43892C339.717 -1.07102 339.626 -0.67661 339.626 -0.255682V0.420455C339.626 0.997159 339.725 1.48603 339.924 1.88707C340.126 2.2848 340.406 2.58807 340.764 2.79688C341.122 3.00237 341.538 3.10511 342.012 3.10511C342.32 3.10511 342.599 3.06203 342.847 2.97585C343.099 2.88636 343.316 2.75379 343.498 2.57812C343.681 2.39915 343.822 2.17708 343.921 1.91193L345.055 2.23011C344.935 2.61458 344.735 2.95265 344.453 3.24432C344.171 3.53267 343.823 3.75805 343.409 3.92045C342.995 4.07955 342.529 4.15909 342.012 4.15909Z" fill="white"/>
<line opacity="0.1" x1="38.5" y1="126.5" x2="38.5" y2="-69.5" stroke="url(#paint5_linear_2199_3100)" stroke-width="3" stroke-linecap="round"/>
<circle cx="39" cy="124" r="5.5" fill="#1E293B" stroke="#334155"/>
<circle cx="39" cy="82" r="5.5" fill="#1E293B" stroke="#475569"/>
<circle cx="39" cy="40" r="5.5" fill="#1E293B" stroke="#334155"/>
<circle cx="39" cy="-2" r="5.5" fill="#1E293B" stroke="#334155"/>
</g>
<defs>
<linearGradient id="paint0_linear_2199_3100" x1="170" y1="0" x2="170" y2="163" gradientUnits="userSpaceOnUse">
<stop stop-color="#1E293B"/>
<stop offset="1" stop-color="#1E293B" stop-opacity="0"/>
</linearGradient>
<linearGradient id="paint1_linear_2199_3100" x1="84.64" y1="109.216" x2="97.7171" y2="172.629" gradientUnits="userSpaceOnUse">
<stop stop-color="#404047" stop-opacity="0.53"/>
<stop offset="0.470485" stop-color="white" stop-opacity="0.21"/>
<stop offset="1" stop-color="#27272A" stop-opacity="0"/>
</linearGradient>
<linearGradient id="paint2_linear_2199_3100" x1="86" y1="68.2162" x2="98.9167" y2="131.697" gradientUnits="userSpaceOnUse">
<stop stop-color="#404047" stop-opacity="0.53"/>
<stop offset="0.470485" stop-color="white" stop-opacity="0.21"/>
<stop offset="1" stop-color="#27272A" stop-opacity="0"/>
</linearGradient>
<linearGradient id="paint3_linear_2199_3100" x1="77.24" y1="26.2162" x2="95.4957" y2="86.827" gradientUnits="userSpaceOnUse">
<stop stop-color="#404047" stop-opacity="0.53"/>
<stop offset="0.470485" stop-color="white" stop-opacity="0.21"/>
<stop offset="1" stop-color="#27272A" stop-opacity="0"/>
</linearGradient>
<linearGradient id="paint4_linear_2199_3100" x1="94.88" y1="-14.7838" x2="104.77" y2="49.8111" gradientUnits="userSpaceOnUse">
<stop stop-color="#404047" stop-opacity="0.53"/>
<stop offset="0.470485" stop-color="white" stop-opacity="0.21"/>
<stop offset="1" stop-color="#27272A" stop-opacity="0"/>
</linearGradient>
<linearGradient id="paint5_linear_2199_3100" x1="40" y1="113.707" x2="40" y2="-33.0691" gradientUnits="userSpaceOnUse">
<stop stop-color="white"/>
<stop offset="1" stop-color="white" stop-opacity="0"/>
</linearGradient>
</defs>
</svg>
