<svg width="111" height="20" viewBox="0 0 111 20" fill="none" xmlns="http://www.w3.org/2000/svg">
<g id="svgexport-9 (1) 1" style="mix-blend-mode:luminosity" clip-path="url(#clip0_664_968)">
<path id="Vector" fill-rule="evenodd" clip-rule="evenodd" d="M0.428711 0.121826H13.9208V13.6139H0.428711V0.121826ZM109.389 15.9629L109.088 15.6015C109.449 15.3004 109.75 15.1197 110.052 15.1197C110.292 15.1197 110.533 15.2401 110.654 15.4208C110.774 15.6015 110.895 15.8425 110.895 16.1436C110.895 16.4448 110.835 16.7459 110.654 17.1073C110.473 17.4085 110.232 17.6494 109.931 17.8904C109.63 18.0711 109.269 18.1915 108.847 18.1915C108.606 18.1915 108.365 18.1313 108.245 18.0108C108.184 17.9506 108.124 17.8301 108.064 17.7699C107.522 18.0711 107.16 18.2518 106.98 18.2518C106.859 18.2518 106.739 18.1915 106.679 18.1313C106.618 18.0711 106.558 17.9506 106.558 17.8301C106.558 17.7699 106.558 17.6494 106.618 17.5892C106.679 17.4687 106.739 17.288 106.919 16.9869C106.618 16.9869 106.257 17.1073 105.896 17.2278L105.233 18.1915L104.631 18.0108L106.076 15.1197L106.618 15.3606L106.016 16.5653C106.076 16.5653 106.257 16.505 106.498 16.4448C106.739 16.3846 106.919 16.3846 107.04 16.3846L107.522 15.3606L108.064 15.6015L107.401 16.9869C107.401 16.9869 107.401 17.0471 107.341 17.0471C107.341 17.1073 107.341 17.1073 107.281 17.1073C107.221 17.2278 107.221 17.288 107.221 17.3483C107.221 17.4085 107.281 17.4687 107.341 17.4687C107.462 17.4687 107.582 17.4085 107.823 17.288C107.823 17.288 107.883 17.2278 108.004 17.1676L108.606 16.9266C108.546 17.0471 108.546 17.1676 108.546 17.2278C108.546 17.3483 108.546 17.4085 108.606 17.529C108.666 17.5892 108.726 17.6494 108.907 17.6494C109.088 17.6494 109.329 17.5892 109.509 17.4085C109.69 17.2278 109.871 17.0471 110.052 16.7459C109.931 16.7459 109.871 16.6857 109.811 16.6857C109.63 16.6857 109.509 16.7459 109.389 16.8664L109.088 16.4448C109.208 16.3243 109.389 16.2641 109.63 16.2641C109.871 16.2641 110.052 16.3243 110.232 16.3846C110.292 16.2039 110.353 16.0232 110.353 15.9027C110.353 15.7822 110.292 15.6618 110.232 15.6015C110.172 15.5413 110.112 15.5413 110.052 15.5413C109.871 15.6015 109.63 15.722 109.389 15.9629ZM104.269 15.0594L104.811 15.3004L104.329 16.2641C104.269 16.4448 104.149 16.6255 104.089 16.8664C104.028 17.1073 103.968 17.2278 103.968 17.288C103.968 17.3483 104.028 17.4085 104.089 17.4687H104.149C104.209 17.4687 104.269 17.4085 104.45 17.3483C104.57 17.288 104.691 17.2278 104.811 17.1676L104.631 17.6494C104.149 17.9506 103.848 18.1313 103.667 18.1313C103.546 18.1313 103.486 18.0711 103.366 18.0108C103.306 17.9506 103.245 17.8301 103.245 17.7097C103.245 17.4687 103.366 17.2278 103.546 16.8664C103.607 16.8062 103.607 16.7459 103.607 16.7459L103.546 16.6857C103.366 16.9869 103.125 17.2278 103.004 17.4085C102.824 17.5892 102.643 17.7699 102.462 17.8904C102.282 18.0108 102.101 18.0711 101.92 18.0711C101.739 18.0711 101.619 18.0108 101.499 17.9506C101.378 17.8301 101.378 17.7097 101.378 17.5892C101.378 17.4687 101.378 17.3483 101.438 17.288L102.041 16.9869C102.041 17.0471 101.98 17.1676 101.98 17.2278C101.98 17.3483 102.041 17.4687 102.161 17.4687C102.282 17.4687 102.402 17.4085 102.583 17.2278C102.763 17.0471 102.944 16.8664 103.185 16.6255C103.366 16.3846 103.607 16.0834 103.787 15.8425C103.968 15.5413 104.149 15.3004 104.269 15.0594ZM100.113 15.0594L100.655 15.3004L99.9928 16.5653C99.8121 16.9266 99.6916 17.1676 99.6916 17.2278C99.6916 17.288 99.6916 17.3483 99.7518 17.3483H99.8121C99.8723 17.3483 100.053 17.288 100.234 17.1073C100.414 16.9869 100.655 16.7459 100.896 16.4448C101.137 16.1436 101.378 15.7822 101.619 15.3606L102.161 15.6015C101.499 16.7459 101.077 17.6494 100.776 18.2518C100.475 18.9143 100.294 19.3962 100.173 19.7576L99.5711 19.6371C99.6916 19.095 100.053 18.4325 100.595 17.529C100.655 17.4085 100.776 17.2278 100.896 17.1073H100.836C100.173 17.7699 99.6916 18.1313 99.3904 18.1313C99.3302 18.1313 99.2097 18.0711 99.1495 18.0108C99.0893 17.9506 99.029 17.8301 99.029 17.6494C99.029 17.4085 99.1495 17.0471 99.4507 16.505C99.5711 16.0232 99.8723 15.5413 100.113 15.0594ZM97.2221 15.0594L97.7642 15.3004L97.1016 16.5653C96.9209 16.9266 96.8004 17.1676 96.8004 17.2278C96.8004 17.288 96.8004 17.3483 96.8607 17.3483H96.9209C96.9811 17.3483 97.1618 17.288 97.3425 17.1073C97.5232 16.9869 97.7642 16.7459 98.0051 16.4448C98.246 16.1436 98.4869 15.7822 98.7279 15.3606L99.27 15.6015C98.6074 16.7459 98.1858 17.6494 97.8846 18.2518C97.5835 18.9143 97.4028 19.3962 97.2823 19.7576L96.6197 19.6371C96.7402 19.095 97.1016 18.4325 97.6437 17.529C97.7039 17.4085 97.8244 17.2278 97.9448 17.1073H97.8846C97.2221 17.7699 96.7402 18.1313 96.439 18.1313C96.3788 18.1313 96.2583 18.0711 96.1981 18.0108C96.1379 17.9506 96.0777 17.8301 96.0777 17.6494C96.0777 17.4085 96.1981 17.0471 96.4993 16.505C96.68 16.0232 96.9811 15.5413 97.2221 15.0594ZM92.1626 15.8425L91.9216 15.5413C92.1023 15.4208 92.2228 15.3606 92.4637 15.2401C92.6444 15.1799 92.8251 15.1197 92.9456 15.1197C93.307 15.1197 93.4274 15.3004 93.4274 15.6618C93.4274 15.9027 93.307 16.1436 93.1263 16.4448C93.1263 16.505 93.066 16.505 93.066 16.505C93.066 16.505 93.066 16.505 93.0058 16.5653C93.0058 16.5653 93.0058 16.6255 92.9456 16.6255L92.8853 16.6857C93.066 16.5653 93.2467 16.3846 93.5479 16.1436C93.7888 15.9027 94.0297 15.6015 94.2104 15.3606L94.5116 15.5413L94.09 16.3243C93.9695 16.5653 93.9093 16.6857 93.9093 16.7459H93.9695C93.9695 16.7459 94.0297 16.6857 94.09 16.6255C94.5116 16.2641 94.873 16.0232 95.1742 15.8425C95.4753 15.6618 95.7163 15.5413 95.8367 15.4811L96.0777 15.9027C95.5958 16.1436 95.2344 16.4448 95.0537 16.6857C94.8128 16.9266 94.7525 17.1676 94.7525 17.3483C94.7525 17.529 94.8128 17.6494 94.9332 17.6494C94.9935 17.6494 95.1742 17.5892 95.3549 17.4687C95.5958 17.3483 95.7765 17.288 95.8969 17.1676L95.7163 17.6494C95.2344 17.9506 94.873 18.1313 94.5718 18.1313C94.2104 18.1313 94.09 17.9506 94.09 17.5892C94.09 17.4085 94.1502 17.2278 94.3309 16.9869C94.3309 16.9869 94.3309 16.9869 94.3309 16.9266L94.2707 16.9869C94.2707 16.9869 94.2707 16.9869 94.2104 16.9869C94.09 17.0471 94.0297 17.1676 93.9093 17.2278C93.8491 17.288 93.7286 17.4085 93.6081 17.5892C93.4877 17.7699 93.3672 17.9506 93.1865 18.2518L92.7649 18.0711L93.4274 16.7459C93.3672 16.7459 93.3672 16.8062 93.307 16.8062C93.307 16.8062 93.2467 16.8664 93.1865 16.9266C93.1263 16.9869 93.1263 16.9869 93.1263 16.9869C92.8251 17.288 92.5842 17.4687 92.3432 17.6494C92.1023 17.8301 91.9216 17.9506 91.7409 18.0711C91.5602 18.1313 91.3795 18.1915 91.2591 18.1915C91.0784 18.1915 90.9579 18.1313 90.8374 18.0108C90.717 17.8904 90.6567 17.7097 90.6567 17.529C90.6567 17.4085 90.6567 17.3483 90.717 17.2278L91.3193 16.9869C91.2591 17.1073 91.2591 17.2278 91.2591 17.3483C91.2591 17.529 91.3193 17.6494 91.5 17.6494C91.7409 17.6494 92.0421 17.3483 92.4035 16.7459C92.6444 16.2641 92.8251 15.9629 92.8251 15.7822C92.8251 15.6618 92.7649 15.6015 92.6444 15.6015C92.5842 15.6015 92.4637 15.6618 92.283 15.7822C92.283 15.7822 92.2228 15.7822 92.2228 15.8425C92.2228 15.8425 92.2228 15.8425 92.1626 15.8425ZM89.3919 15.0594L89.934 15.3004L89.2714 16.5653C89.0907 16.9266 88.9702 17.1676 88.9702 17.2278C88.9702 17.288 88.9702 17.3483 89.0305 17.3483H89.0907C89.1509 17.3483 89.3316 17.288 89.5123 17.1073C89.693 16.9869 89.934 16.7459 90.1749 16.4448C90.4158 16.1436 90.6567 15.7822 90.8977 15.3606L91.4398 15.6015C90.7772 16.7459 90.3556 17.6494 90.0544 18.2518C89.7533 18.9143 89.5726 19.3962 89.4521 19.7576L88.8498 19.6371C88.9702 19.095 89.3316 18.4325 89.8737 17.529C89.934 17.4085 90.0544 17.2278 90.1146 17.1073H90.0544C89.3919 17.7699 88.91 18.1313 88.6088 18.1313C88.5486 18.1313 88.4281 18.0711 88.3679 18.0108C88.3077 17.9506 88.2475 17.8301 88.2475 17.6494C88.2475 17.4085 88.3679 17.0471 88.6691 16.505C88.8498 16.0232 89.0907 15.5413 89.3919 15.0594ZM86.5007 15.0594L87.0428 15.3004L86.3802 16.5653C86.1995 16.9266 86.0791 17.1676 86.0791 17.2278C86.0791 17.288 86.0791 17.3483 86.1393 17.3483H86.1995C86.2598 17.3483 86.4405 17.288 86.6212 17.1073C86.8019 16.9869 87.0428 16.7459 87.2837 16.4448C87.5247 16.1436 87.7656 15.7822 88.0065 15.3606L88.5486 15.6015C87.8861 16.7459 87.4644 17.6494 87.1633 18.2518C86.8621 18.9143 86.6814 19.3962 86.5609 19.7576L85.8984 19.6371C86.0188 19.095 86.3802 18.4325 86.9223 17.529C86.9826 17.4085 87.103 17.2278 87.2235 17.1073H87.1633C86.5007 17.7699 86.0189 18.1313 85.7177 18.1313C85.6575 18.1313 85.537 18.0711 85.4768 18.0108C85.4165 17.9506 85.3563 17.8301 85.3563 17.6494C85.3563 17.4085 85.4768 17.0471 85.7779 16.505C85.9586 16.0232 86.1995 15.5413 86.5007 15.0594ZM83.4289 14.939L83.9709 15.2401C83.9709 15.6618 83.9709 16.0232 83.9709 16.3243C84.1516 16.1436 84.2721 16.0232 84.3926 15.9629C84.513 15.8425 84.6335 15.7822 84.6937 15.6618C84.8142 15.5413 84.9347 15.4208 85.1154 15.2401L85.5972 15.4811C85.0551 15.8425 84.5733 16.3243 84.0312 16.8062C84.0914 17.288 84.2119 17.4687 84.4528 17.4687C84.513 17.4687 84.6335 17.4085 84.8142 17.3483C84.9949 17.288 85.1154 17.1676 85.1756 17.1073L84.9949 17.6494C84.8744 17.7699 84.754 17.8904 84.5733 17.9506C84.3926 18.0711 84.2721 18.1313 84.1516 18.1313C83.8505 18.1313 83.6096 17.8301 83.4891 17.1676C83.4891 17.2278 83.4289 17.2278 83.4289 17.288C83.4289 17.3483 83.3686 17.3483 83.3084 17.4085C82.8868 17.8904 82.5254 18.1313 82.2242 18.1313C82.1038 18.1313 81.9833 18.0711 81.9231 18.0108C81.8628 17.9506 81.8026 17.8904 81.8026 17.7699C81.381 18.0108 81.0798 18.1313 80.9593 18.1313C80.8389 18.1313 80.7184 18.0711 80.6582 18.0108C80.5979 17.9506 80.5377 17.8301 80.5377 17.7097C80.5377 17.6494 80.5377 17.529 80.5979 17.4687C80.6582 17.3483 80.7184 17.1676 80.8991 16.8664C80.5979 16.8664 80.2365 16.9869 79.8752 17.1073L79.3331 18.1915L78.7307 18.0108L80.1763 15.1197L80.7184 15.3606L80.1161 16.5653C80.1763 16.5653 80.357 16.505 80.5979 16.4448C80.8389 16.3846 81.0196 16.3846 81.14 16.3846L81.6219 15.3606L82.164 15.6015L81.5014 16.9869C81.5014 16.9869 81.5014 17.0471 81.4412 17.0471C81.4412 17.1073 81.4412 17.1073 81.4412 17.1073C81.381 17.2278 81.381 17.288 81.381 17.3483C81.381 17.4085 81.4412 17.4687 81.5014 17.4687C81.6219 17.4687 81.7424 17.4085 81.9833 17.288C81.9833 17.288 82.1038 17.2278 82.3447 17.1073L82.5856 16.9869C82.5856 17.0471 82.5254 17.1676 82.5254 17.2278C82.5254 17.4085 82.5856 17.4687 82.7061 17.4687C82.7663 17.4687 82.8868 17.4085 83.0072 17.288C83.1277 17.1676 83.3084 16.9869 83.6096 16.6255C83.5493 16.1436 83.4891 15.6618 83.4891 15.3004C83.4289 15.2401 83.4289 15.1197 83.4289 14.939ZM78.2489 15.3606L78.791 15.6618L78.1284 16.9266C78.0079 17.1676 77.9477 17.288 77.9477 17.4085C77.9477 17.529 78.0079 17.529 78.0682 17.529C78.1284 17.529 78.2489 17.4687 78.4296 17.4085C78.6103 17.3483 78.7307 17.2278 78.8512 17.1676L78.6705 17.7097C78.4898 17.8301 78.3693 17.9506 78.1284 18.0108C77.9477 18.1313 77.767 18.1313 77.6466 18.1313C77.5261 18.1313 77.4056 18.0711 77.3454 18.0108C77.2852 17.9506 77.2249 17.8301 77.2249 17.7699C77.2249 17.7097 77.2249 17.6494 77.2249 17.5892C77.2249 17.529 77.2852 17.4687 77.2852 17.4687C77.2852 17.4085 77.3454 17.4085 77.3454 17.3483C77.3454 17.288 77.4056 17.288 77.4056 17.2278H77.3454C77.3454 17.2278 77.2852 17.288 77.2852 17.3483C77.1647 17.529 76.9238 17.7097 76.6828 17.8904C76.3817 18.0711 76.1407 18.1915 75.9601 18.1915C75.8396 18.1915 75.6589 18.1313 75.5384 18.0108C75.418 17.8904 75.3577 17.7097 75.3577 17.4085C75.3577 17.1676 75.4782 16.8664 75.7191 16.505C75.9601 16.1436 76.2612 15.9027 76.6226 15.6618C76.984 15.4208 77.2852 15.3004 77.5261 15.3004C77.8273 15.3004 78.008 15.4208 78.1887 15.5413L78.2489 15.3606ZM77.6466 16.505L78.0079 15.7822C77.8875 15.6618 77.8273 15.6015 77.6466 15.6015C77.4659 15.6015 77.2852 15.722 77.0442 15.8425C76.8033 16.0232 76.5624 16.2641 76.3817 16.505C76.201 16.7459 76.0805 16.9869 76.0805 17.1676C76.0805 17.4085 76.1407 17.4687 76.3214 17.4687C76.3817 17.4687 76.5624 17.4085 76.7431 17.288C76.9238 17.1676 77.1045 17.0471 77.2852 16.8664C77.4659 16.8062 77.5863 16.6255 77.6466 16.505ZM75.2373 16.3846L74.7554 16.0834C74.8156 15.9629 74.8759 15.8425 74.8759 15.8425C74.8759 15.8425 74.8759 15.7822 74.8156 15.7822C74.8156 15.7822 74.7554 15.722 74.6952 15.722C74.5747 15.722 74.394 15.8425 74.2133 16.0232C74.0326 16.2039 73.8519 16.4448 73.7315 16.6857C73.611 16.9266 73.5508 17.1676 73.5508 17.3483C73.5508 17.4085 73.5508 17.4687 73.611 17.529C73.6712 17.5892 73.7315 17.6494 73.8519 17.6494C74.0928 17.6494 74.5747 17.4687 75.2975 17.1676L75.1168 17.6494C74.8156 17.7699 74.6349 17.8904 74.4542 17.9506C74.2735 18.0108 74.0928 18.0711 73.9724 18.0711C73.8519 18.1313 73.6712 18.1313 73.5508 18.1313C73.0689 18.1313 72.828 17.8904 72.828 17.4085C72.828 17.1676 72.8882 16.8664 73.0689 16.6255C73.2496 16.3846 73.4303 16.0834 73.6712 15.9027C73.9122 15.6618 74.1531 15.4811 74.4542 15.3606C74.6952 15.2401 74.9361 15.1799 75.177 15.1799C75.3577 15.1799 75.4782 15.2401 75.5384 15.3606C75.5987 15.4811 75.6589 15.6015 75.6589 15.7822C75.6589 15.9027 75.5987 15.9629 75.5384 16.0834C75.3577 16.1436 75.2975 16.2641 75.2373 16.3846ZM68.7322 15.9629L68.5515 15.6618C68.9731 15.4208 69.3947 15.2401 69.6959 15.2401C69.9971 15.2401 70.1175 15.3606 70.1175 15.6015C70.1175 15.7822 70.0573 15.9027 69.9971 16.0232C69.8766 16.1436 69.7561 16.2641 69.5754 16.505C69.0333 16.9869 68.7924 17.3483 68.7924 17.4687C68.7924 17.529 68.7924 17.529 68.8526 17.5892C68.9129 17.6494 68.9129 17.6494 68.9731 17.6494C69.0333 17.6494 69.214 17.5892 69.455 17.529C69.6959 17.4085 69.8766 17.3483 69.9971 17.2278L69.8164 17.7699C69.6357 17.8904 69.455 18.0108 69.214 18.0711C68.9731 18.1915 68.7924 18.1915 68.6117 18.1915C68.431 18.1915 68.2503 18.1313 68.1901 18.0711C68.0696 17.9506 68.0696 17.8904 68.0696 17.7699C68.0696 17.4687 68.3708 16.9869 68.9731 16.3846C69.0333 16.3243 69.0936 16.2641 69.1538 16.2039C69.214 16.1436 69.2743 16.0834 69.3345 16.0232C69.3947 15.9629 69.3947 15.9027 69.3947 15.9027C69.3947 15.9027 69.3947 15.8425 69.3345 15.8425H69.2743C69.1538 15.722 68.9731 15.8425 68.7322 15.9629ZM64.9978 15.1197L65.4796 15.3606C65.1785 15.8425 64.9375 16.3243 64.6364 16.8664C64.5761 17.0471 64.5159 17.1073 64.4557 17.2278C64.4557 17.288 64.3954 17.4085 64.3954 17.4687C64.3954 17.529 64.3954 17.5892 64.4557 17.6494C64.5159 17.7097 64.5159 17.7097 64.5761 17.7097C64.6966 17.7097 64.8171 17.6494 64.9375 17.529C65.058 17.4085 65.1785 17.288 65.2989 17.1073C65.4194 16.9266 65.4194 16.8664 65.4796 16.8062C65.4796 16.8062 65.4796 16.8062 65.4796 16.7459C65.2989 16.7459 65.1785 16.8062 65.1785 16.8062C65.1182 16.8062 65.1182 16.8062 65.1182 16.7459L65.058 16.5653C65.058 16.505 65.1182 16.3846 65.2387 16.3243C65.3592 16.2641 65.4796 16.2039 65.6001 16.2039C65.841 16.2039 66.0217 16.2641 66.0819 16.3243C66.2626 16.3243 66.4433 16.2641 66.624 16.1436C66.8047 16.0834 66.9854 15.9629 67.1059 15.8425C67.2264 15.722 67.3468 15.6015 67.4071 15.4811L67.8889 15.722L67.2264 16.9266C67.1661 16.9869 67.1059 17.1073 67.1059 17.2278C67.0457 17.3483 67.0457 17.4085 67.0457 17.4687C67.0457 17.529 67.1059 17.5892 67.1661 17.5892C67.2866 17.5892 67.5275 17.4687 67.9492 17.2278L67.7685 17.7699C67.5878 17.8904 67.4071 18.0108 67.2264 18.1313C67.0457 18.2518 66.865 18.2518 66.7445 18.2518C66.5036 18.2518 66.3229 18.1313 66.3229 17.8904C66.3229 17.7097 66.3831 17.4687 66.5638 17.1676C66.7445 16.8664 66.865 16.6255 67.0457 16.4448L66.9854 16.3846C66.9252 16.3846 66.865 16.4448 66.8047 16.505C66.6843 16.5653 66.5638 16.6255 66.4433 16.6857C66.3229 16.6857 66.3229 16.7459 66.2626 16.7459L66.2024 16.8062C66.2024 16.9266 66.1422 17.1073 65.9615 17.3483C65.7808 17.5892 65.6001 17.7699 65.3592 17.9506C65.1182 18.1313 64.8773 18.1915 64.5761 18.1915C64.3954 18.1915 64.2147 18.1313 64.034 18.0108C63.8534 17.8904 63.7931 17.7097 63.7931 17.529C63.7931 17.288 63.9136 16.9266 64.0943 16.5653C64.3954 16.0834 64.6966 15.6618 64.9978 15.1197ZM61.7452 15.1197L62.2873 15.3606L61.685 16.5653C61.7452 16.5653 61.9259 16.505 62.1668 16.4448C62.4078 16.3846 62.5885 16.3846 62.7089 16.3846L63.1908 15.3606L63.7329 15.6015L63.0703 16.9869C63.0703 16.9869 63.0703 17.0471 63.0101 17.0471C63.0101 17.1073 63.0101 17.1073 62.9499 17.1073C62.8896 17.2278 62.8896 17.288 62.8896 17.3483C62.8896 17.4085 62.9499 17.4687 63.0101 17.4687C63.1306 17.4687 63.251 17.4085 63.492 17.288C63.492 17.288 63.6124 17.2278 63.8534 17.1073L63.6727 17.6494C63.1306 17.9506 62.7692 18.1313 62.5885 18.1313C62.468 18.1313 62.3475 18.0711 62.2873 18.0108C62.2271 17.9506 62.1668 17.8301 62.1668 17.7097C62.1668 17.6494 62.1668 17.529 62.2271 17.4687C62.2873 17.3483 62.3475 17.1676 62.5282 16.8664C62.2271 16.8664 61.8657 16.9869 61.5043 17.1073L60.9622 18.2518L60.3599 18.0711L61.7452 15.1197ZM58.6131 14.939L59.1552 15.2401C59.1552 15.6618 59.1552 16.0232 59.1552 16.3243C59.3359 16.1436 59.4564 16.0232 59.5769 15.9629C59.6973 15.8425 59.8178 15.7822 59.878 15.6618C59.9985 15.5413 60.1189 15.4208 60.2996 15.2401L60.7815 15.4811C60.2394 15.8425 59.7576 16.3243 59.2155 16.8062C59.2757 17.288 59.3962 17.4687 59.6371 17.4687C59.6973 17.4687 59.8178 17.4085 59.9985 17.3483C60.1792 17.288 60.2996 17.1676 60.3599 17.1073L60.1792 17.6494C60.0587 17.7699 59.9383 17.8904 59.7576 17.9506C59.5769 18.0711 59.4564 18.1313 59.3359 18.1313C59.0348 18.1313 58.7938 17.8301 58.6734 17.1676C58.6734 17.2278 58.6131 17.2278 58.6131 17.288C58.6131 17.3483 58.5529 17.3483 58.4927 17.4085C58.0711 17.8904 57.7097 18.1313 57.4085 18.1313C57.288 18.1313 57.1676 18.0711 57.1073 18.0108C57.0471 17.9506 56.9869 17.8904 56.9869 17.7699C56.8664 17.8301 56.7459 17.8904 56.6255 17.9506C56.3845 18.0711 56.2038 18.1313 56.1436 18.1313C56.0834 18.1313 56.0232 18.1313 55.9027 18.0711C55.8425 18.0108 55.8425 17.9506 55.8425 17.8301V17.7097C55.8425 17.529 56.0231 17.288 56.2641 16.9266V16.8664C56.2641 16.8664 56.1436 16.9869 55.9629 17.1676C55.3004 17.8301 54.8787 18.1313 54.5776 18.1313C54.5173 18.1313 54.3969 18.1313 54.3366 18.0711C54.2764 18.0108 54.2162 17.8904 54.2162 17.7699C54.2162 17.6494 54.2764 17.529 54.3366 17.3483C54.3969 17.1676 54.5173 16.9266 54.698 16.6255C54.8787 16.2641 55.1197 15.7822 55.4811 15.1197L56.0232 15.3606L55.1197 17.0471C55.0594 17.1073 55.0594 17.1676 55.0594 17.2278V17.288C55.0594 17.3483 55.1197 17.3483 55.1197 17.3483C55.1799 17.3483 55.2401 17.288 55.3606 17.2278C55.4208 17.1676 55.6015 17.0471 55.8425 16.8062C56.1436 16.505 56.3845 16.2641 56.5652 16.0834C56.7459 15.9027 56.8664 15.6618 57.0471 15.4208L57.529 15.6618L56.7459 17.1676C56.6857 17.2278 56.6857 17.288 56.6857 17.3483C56.6857 17.4085 56.7459 17.4687 56.8062 17.4687C56.8664 17.4687 56.9869 17.4085 57.1676 17.3483C57.288 17.288 57.4085 17.2278 57.529 17.1676V17.2278L57.7699 17.1073C57.7699 17.1676 57.7097 17.288 57.7097 17.3483C57.7097 17.529 57.7699 17.5892 57.8904 17.5892C57.9506 17.5892 58.0711 17.529 58.1915 17.4085C58.312 17.288 58.4927 17.1073 58.7938 16.7459C58.7336 16.2641 58.6734 15.7822 58.6734 15.4208C58.5529 15.2401 58.6131 15.1197 58.6131 14.939ZM55.9629 13.6741H56.5652C56.5652 14.0355 56.6857 14.2162 56.9869 14.2162C57.2278 14.2162 57.4687 14.0355 57.8301 13.6139L58.1313 13.8548C58.0711 13.915 58.0108 13.9753 57.9506 14.0355C57.5892 14.4571 57.1676 14.6378 56.7459 14.6378C56.2038 14.6378 55.9629 14.3367 55.9629 13.6741ZM53.4934 15.3606L54.0355 15.6618L53.3729 16.9266C53.2525 17.1676 53.1922 17.288 53.1922 17.4085C53.1922 17.529 53.2525 17.529 53.3127 17.529C53.3729 17.529 53.4934 17.4687 53.6741 17.4085C53.8548 17.3483 53.9753 17.2278 54.0957 17.1676L53.915 17.7097C53.7343 17.8301 53.6139 17.9506 53.3729 18.0108C53.1922 18.1313 53.0115 18.1313 52.8911 18.1313C52.7706 18.1313 52.6501 18.0711 52.5899 18.0108C52.5297 17.9506 52.4694 17.8301 52.4694 17.7699C52.4694 17.7097 52.4694 17.6494 52.4694 17.5892C52.4694 17.529 52.5297 17.4687 52.5297 17.4687C52.5297 17.4085 52.5899 17.4085 52.5899 17.3483C52.5899 17.288 52.6501 17.288 52.6501 17.2278H52.5899C52.5899 17.2278 52.5297 17.288 52.5297 17.3483C52.4092 17.529 52.1683 17.7097 51.9274 17.8904C51.6262 18.0711 51.3853 18.1915 51.2046 18.1915C51.0841 18.1915 50.9034 18.1313 50.7829 18.0108C50.6625 17.8904 50.6022 17.7097 50.6022 17.4085C50.6022 17.1676 50.7227 16.8664 50.9636 16.505C51.2046 16.1436 51.5057 15.9027 51.8671 15.6618C52.2285 15.4208 52.5297 15.3004 52.7706 15.3004C53.0718 15.3004 53.2525 15.4208 53.4332 15.5413L53.4934 15.3606ZM52.8911 16.505L53.2525 15.7822C53.132 15.6618 53.0718 15.6015 52.8911 15.6015C52.7104 15.6015 52.5297 15.722 52.2887 15.8425C52.0478 15.9629 51.8069 16.2641 51.6262 16.505C51.4455 16.7459 51.325 16.9869 51.325 17.1676C51.325 17.4085 51.3853 17.4687 51.566 17.4687C51.6262 17.4687 51.8069 17.4085 51.9876 17.288C52.1683 17.1676 52.349 17.0471 52.5297 16.8664C52.7104 16.8062 52.8308 16.6255 52.8911 16.505ZM50.4818 16.3846L49.9999 16.0834C50.0602 15.9629 50.1204 15.8425 50.1204 15.8425C50.1204 15.8425 50.1204 15.7822 50.0602 15.7822C50.0602 15.7822 49.9999 15.722 49.9397 15.722C49.8192 15.722 49.6385 15.8425 49.4578 16.0232C49.2771 16.2039 49.0964 16.4448 48.976 16.6857C48.8555 16.9266 48.7953 17.1676 48.7953 17.3483C48.7953 17.4085 48.7953 17.4687 48.8555 17.529C48.9157 17.5892 48.976 17.6494 49.0964 17.6494C49.3374 17.6494 49.8192 17.4687 50.542 17.1676L50.3613 17.6494C50.0602 17.7699 49.8795 17.8904 49.6988 17.9506C49.5181 18.0108 49.3374 18.0711 49.2169 18.0711C49.0964 18.1313 48.9157 18.1313 48.7953 18.1313C48.3134 18.1313 48.0725 17.8904 48.0725 17.4085C48.0725 17.1676 48.1327 16.8664 48.3134 16.6255C48.4941 16.3846 48.6748 16.0834 48.9157 15.9027C49.1567 15.6618 49.3976 15.4811 49.6988 15.3606C49.9397 15.2401 50.1806 15.1799 50.4215 15.1799C50.6022 15.1799 50.7227 15.2401 50.7829 15.3606C50.8432 15.4811 50.9034 15.6015 50.9034 15.7822C50.9034 15.9027 50.8432 15.9629 50.7829 16.0834C50.6625 16.1436 50.542 16.2641 50.4818 16.3846ZM43.1334 15.1197L43.6755 15.3606L43.0732 16.5653C43.1334 16.5653 43.3141 16.505 43.5551 16.4448C43.796 16.3846 43.9767 16.3846 44.0971 16.3846L44.579 15.3606L45.1211 15.6015L44.3983 16.9869C44.3983 16.9869 44.3983 17.0471 44.3381 17.0471C44.3381 17.1073 44.3381 17.1073 44.2778 17.1073C44.2176 17.2278 44.2176 17.288 44.2176 17.3483C44.2176 17.4085 44.2778 17.4687 44.3381 17.4687C44.4585 17.4687 44.579 17.4085 44.8199 17.288C44.8199 17.288 44.9404 17.2278 45.1813 17.1073L45.0006 17.6494C44.4585 17.9506 44.0971 18.1313 43.9165 18.1313C43.796 18.1313 43.6755 18.0711 43.6153 18.0108C43.5551 17.9506 43.4948 17.8301 43.4948 17.7097C43.4948 17.6494 43.4948 17.529 43.5551 17.4687C43.6153 17.3483 43.6755 17.1676 43.8562 16.8664C43.5551 16.8664 43.1937 16.9869 42.8323 17.1073L42.2902 18.1915L41.6879 18.0108L43.1334 15.1197ZM41.3265 15.4208L41.8083 15.6618L41.0253 17.1676C41.0253 17.2278 40.9651 17.288 40.9651 17.3483C40.9651 17.4085 41.0253 17.4687 41.0855 17.4687C41.1458 17.4687 41.2662 17.4085 41.4469 17.3483C41.5674 17.288 41.6879 17.2278 41.8083 17.1676L41.6276 17.7097C41.4469 17.8301 41.2662 17.8904 41.0253 18.0108C40.7844 18.1313 40.6037 18.1915 40.5434 18.1915C40.4832 18.1915 40.423 18.1915 40.3025 18.1313C40.2423 18.0711 40.182 18.0108 40.182 17.8904V17.7699C40.182 17.5892 40.3627 17.3483 40.6037 16.9869V16.9266C40.6037 16.9266 40.4832 17.0471 40.3025 17.2278C39.64 17.8904 39.2183 18.1915 38.9172 18.1915C38.8569 18.1915 38.7365 18.1915 38.6762 18.1313C38.616 18.0711 38.5558 17.9506 38.5558 17.8301C38.5558 17.7097 38.616 17.5892 38.6762 17.4085C38.7365 17.2278 38.8569 16.9869 39.0376 16.6857C39.2183 16.3243 39.4593 15.8425 39.8207 15.1799L40.3627 15.4208L39.4593 17.1073C39.399 17.1676 39.399 17.2278 39.399 17.288V17.3483C39.399 17.4085 39.4593 17.4085 39.4593 17.4085C39.5195 17.4085 39.5797 17.3483 39.7002 17.288C39.7604 17.2278 39.9411 17.1073 40.182 16.8664C40.4832 16.5653 40.7241 16.3243 40.9048 16.1436C41.0253 15.9027 41.1458 15.722 41.3265 15.4208ZM40.3627 13.6741H40.9651C40.9651 14.0355 41.0855 14.2162 41.3867 14.2162C41.6276 14.2162 41.8686 14.0355 42.2299 13.6139L42.5311 13.8548C42.4709 13.915 42.4106 13.9753 42.3504 14.0355C41.989 14.4571 41.5674 14.6378 41.1458 14.6378C40.6037 14.6378 40.3627 14.3367 40.3627 13.6741ZM37.8932 15.3606L38.4353 15.6618L37.7728 16.9266C37.6523 17.1676 37.5921 17.288 37.5921 17.4085C37.5921 17.529 37.6523 17.529 37.7125 17.529C37.7728 17.529 37.8932 17.4687 38.0739 17.4085C38.2546 17.3483 38.3751 17.2278 38.4955 17.1676L38.3148 17.7097C38.1342 17.8301 38.0137 17.9506 37.7728 18.0108C37.5921 18.1313 37.4114 18.1313 37.2909 18.1313C37.1704 18.1313 37.05 18.0711 36.9897 18.0108C36.9295 17.9506 36.8693 17.8301 36.8693 17.7699C36.8693 17.7097 36.8693 17.6494 36.8693 17.5892C36.8693 17.529 36.9295 17.4687 36.9295 17.4687C36.9295 17.4085 36.9897 17.4085 36.9897 17.3483C36.9897 17.288 37.05 17.288 37.05 17.2278H36.9897C36.9897 17.2278 36.9295 17.288 36.9295 17.3483C36.809 17.529 36.5681 17.7097 36.3272 17.8904C36.026 18.0711 35.7851 18.1915 35.6044 18.1915C35.4839 18.1915 35.3032 18.1313 35.1828 18.0108C35.0623 17.8904 35.0021 17.7097 35.0021 17.4085C35.0021 17.1676 35.1225 16.8664 35.3635 16.505C35.6044 16.1436 35.9056 15.9027 36.2669 15.6618C36.6283 15.4208 36.9295 15.3004 37.1704 15.3004C37.4716 15.3004 37.6523 15.4208 37.833 15.5413L37.8932 15.3606ZM37.2909 16.505L37.6523 15.7822C37.5318 15.6618 37.4716 15.6015 37.2909 15.6015C37.1102 15.6015 36.9295 15.722 36.6886 15.8425C36.4476 16.0232 36.2067 16.2641 36.026 16.505C35.8453 16.7459 35.7249 16.9869 35.7249 17.1676C35.7249 17.4085 35.7851 17.4687 35.9658 17.4687C36.026 17.4687 36.2067 17.4085 36.3874 17.288C36.5681 17.1676 36.7488 17.0471 36.9295 16.8664C37.1102 16.8062 37.2307 16.6255 37.2909 16.505ZM34.5804 17.1676L34.3997 17.7097C34.219 17.8301 33.9781 17.9506 33.677 18.0711C33.436 18.1313 33.1951 18.1915 32.9542 18.1915C32.7132 18.1915 32.4723 18.1313 32.2916 18.0108C32.1109 17.8904 31.9302 17.7097 31.8098 17.4687C31.6893 17.2278 31.6291 16.9869 31.6291 16.6255C31.6291 16.1436 31.7495 15.6618 31.9302 15.2401C32.1109 14.7583 32.4121 14.3969 32.7735 14.0355C33.1349 13.6741 33.4963 13.3729 33.8577 13.1922C34.219 13.0115 34.6407 12.8911 34.9418 12.8911C35.243 12.8911 35.4839 12.9513 35.6646 13.132C35.8453 13.3127 35.9056 13.4934 35.9056 13.7343C35.9056 13.9753 35.8453 14.156 35.6646 14.3969C35.4839 14.6378 35.243 14.8185 34.9418 15.0594L34.3997 14.7583C34.5804 14.6378 34.8214 14.4571 35.0021 14.2764C35.1828 14.0957 35.3032 13.915 35.3032 13.7946C35.3032 13.7343 35.3032 13.6741 35.243 13.5536C35.1828 13.3729 35.0623 13.3729 34.9418 13.3729C34.7009 13.3729 34.46 13.4934 34.1588 13.6741C33.8577 13.8548 33.5565 14.156 33.3156 14.4571C33.0144 14.7583 32.8337 15.1197 32.653 15.5413C32.4723 15.9629 32.4121 16.3243 32.4121 16.6857C32.4121 17.0471 32.4723 17.288 32.653 17.4085C32.7735 17.5892 33.0144 17.6494 33.3156 17.6494C33.4963 17.6494 33.7372 17.5892 33.9781 17.529C34.1588 17.4085 34.3997 17.288 34.5804 17.1676ZM27.6537 9.45784C28.1958 9.45784 28.6174 9.27714 28.9186 8.97598C29.2198 8.61458 29.4005 8.25319 29.5209 7.8918L29.5812 7.3497V7.04854V6.92808C29.5812 6.50645 29.5209 6.08483 29.4005 5.6632C29.28 5.24157 29.0391 4.94041 28.7379 4.69948C28.4367 4.45855 28.1356 4.33809 27.714 4.33809C27.5935 4.33809 27.5333 4.33809 27.4128 4.33809C26.9912 4.33809 26.69 4.45855 26.3888 4.69948C26.0877 4.94041 25.8468 5.30181 25.7263 5.6632C25.6058 6.08483 25.5456 6.50645 25.5456 6.92808V7.04854V7.3497L25.6058 7.8918C25.7263 8.25319 25.907 8.61458 26.2081 8.97598C26.5093 9.27714 26.9309 9.45784 27.473 9.45784H27.6537ZM27.5935 2.29019C27.6537 2.29019 27.714 2.29019 27.7742 2.29019C28.1958 2.29019 28.5572 2.35042 28.9186 2.41065C29.3402 2.53112 29.7016 2.65158 30.063 2.83228C30.7256 3.19367 31.2677 3.73577 31.6893 4.45855C31.7495 4.63925 31.87 4.81995 31.9302 5.00064C31.9905 5.18134 32.0507 5.36204 32.1109 5.60297C32.1711 5.78366 32.1711 6.02459 32.2314 6.26552C32.2314 6.50645 32.2916 6.68715 32.2916 6.86785C32.2916 7.5304 32.1712 8.19296 31.9905 8.73505C31.7495 9.27714 31.4484 9.759 31.0267 10.1806C30.6051 10.542 30.1232 10.9034 29.5209 11.0841C28.9186 11.325 28.3163 11.3853 27.6537 11.3853C26.9912 11.3853 26.3286 11.2648 25.7865 11.0841C25.1842 10.8432 24.7023 10.542 24.2807 10.1806C23.8591 9.759 23.5579 9.27714 23.317 8.73505C23.0761 8.19296 23.0158 7.5304 23.0158 6.86785C23.0158 6.68715 23.0158 6.44622 23.0761 6.26552C23.0761 6.02459 23.1363 5.8439 23.1965 5.60297C23.2568 5.42227 23.317 5.18134 23.3772 5.00064C23.4375 4.81995 23.4977 4.63925 23.6182 4.45855C23.9193 3.796 24.4614 3.25391 25.124 2.89251C25.4854 2.71182 25.8468 2.53112 26.2684 2.47089C26.6298 2.41065 26.9912 2.35042 27.4128 2.35042C27.473 2.29019 27.5333 2.29019 27.5935 2.29019ZM62.9499 2.47089H66.9854H67.0457H71.0812V4.39832H68.2503V11.2046H66.9854H66.9252H65.6603V4.45855H62.8294C62.9499 4.45855 62.9499 2.47089 62.9499 2.47089ZM96.3186 6.92808H95.8367V11.2648H93.307V2.47089H95.8367V4.94041H96.3186H98.0653H98.8483V2.47089H101.378V11.2046H98.8483V6.86785H98.0051H96.3186V6.92808ZM87.103 7.8918H87.5247H88.6088H89.0907C88.91 7.10878 88.4884 5.78366 88.0667 5.06088C87.7054 5.90413 87.344 6.98831 87.103 7.8918ZM86.5609 9.759C86.4405 10.2409 86.32 10.7227 86.2598 11.2046H83.73C83.8505 10.6023 83.9709 10.0602 84.0914 9.5783C84.2119 9.15667 84.3324 8.61458 84.513 8.07249C84.8744 6.92808 85.2358 5.8439 85.5972 4.94041C85.7177 4.69948 85.7779 4.45855 85.8984 4.21762L86.0189 3.97669L86.1995 3.55507C86.3802 3.19367 86.6212 2.83228 86.8621 2.47089H89.2714C89.693 3.13344 90.1146 3.85623 90.4158 4.63925C90.5363 4.94041 90.717 5.30181 90.8374 5.6632C91.0181 6.02459 91.1386 6.44622 91.3193 6.92808L91.6807 8.01226C91.7409 8.19296 91.7409 8.31342 91.8012 8.43389C92.0421 9.3976 92.283 10.3011 92.4637 11.2648H89.934C89.8737 10.8432 89.7533 10.2409 89.6328 9.81923C88.6088 9.759 87.5849 9.759 86.5609 9.759ZM78.0079 5.60297C79.6342 5.36204 82.1038 5.4825 83.0072 6.68715C83.9107 7.95203 83.6698 9.759 82.2844 10.542C81.5014 11.0239 80.4172 11.2046 79.574 11.2046H75.418V2.47089H82.5856V4.39832H78.0079V5.60297ZM78.0079 7.3497V9.3976H79.2728C80.357 9.3976 80.9593 9.03621 80.9593 8.31342C80.9593 7.04854 78.791 7.22924 78.0079 7.3497ZM102.703 2.47089H105.233V4.33809C106.136 4.09716 107.221 3.19367 107.702 2.47089H110.714C110.172 3.4346 108.967 4.69948 107.823 5.36204C108.546 6.14506 109.208 7.04854 109.811 8.07249C110.353 9.09644 110.714 10.1204 110.955 11.2046H108.305C108.004 9.3976 106.739 7.5304 105.655 6.50645L105.233 6.68715V11.2046H102.703V2.47089ZM16.8721 11.2046V2.47089H23.0158V4.39832H19.4621V11.2046H16.8721ZM38.4353 4.63925C37.6523 4.63925 37.05 4.69948 36.5079 5.30181C35.3635 6.44622 35.4237 8.97598 35.5442 11.2046H32.9542C32.7132 7.47017 32.8337 3.31414 37.1704 2.59135C38.4955 2.35042 39.7002 2.47089 40.9651 2.47089V11.2046H38.4353V4.63925ZM46.5064 9.45784C47.0485 9.45784 47.4702 9.27714 47.7713 8.97598C48.0725 8.61458 48.2532 8.25319 48.3736 7.8918L48.4339 7.3497V7.04854V6.92808C48.4339 6.50645 48.3736 6.08483 48.2532 5.6632C48.1327 5.24157 47.8918 4.94041 47.5906 4.69948C47.2895 4.45855 46.9883 4.33809 46.5667 4.33809C46.4462 4.33809 46.386 4.33809 46.2655 4.33809C45.8439 4.33809 45.5427 4.45855 45.2416 4.69948C44.9404 4.94041 44.6995 5.30181 44.579 5.6632C44.4585 6.08483 44.3983 6.50645 44.3983 6.92808V7.04854V7.3497L44.4585 7.8918C44.579 8.25319 44.7597 8.61458 45.0609 8.97598C45.362 9.27714 45.7837 9.45784 46.3257 9.45784H46.5064ZM47.7713 2.41065C48.1929 2.53112 48.5543 2.65158 48.9157 2.83228C49.5783 3.19367 50.1204 3.73577 50.542 4.45855C50.6022 4.63925 50.7227 4.81995 50.7829 5.00064C50.8432 5.18134 50.9034 5.36204 50.9636 5.60297C51.0239 5.78366 51.0239 6.02459 51.0841 6.26552C51.0841 6.50645 51.1443 6.68715 51.1443 6.86785C51.1443 7.5304 51.0239 8.19296 50.8432 8.73505C50.6022 9.27714 50.3011 9.759 49.8795 10.1806C49.4578 10.542 48.976 10.9034 48.3736 11.0841C47.169 11.5057 45.7234 11.5057 44.5188 11.0841C43.9165 10.8432 43.4346 10.542 43.013 10.1806C42.5913 9.759 42.2902 9.27714 42.0492 8.73505C41.8083 8.19296 41.7481 7.5304 41.7481 6.86785C41.7481 6.68715 41.7481 6.44622 41.8083 6.26552C41.8083 6.02459 41.8686 5.8439 41.9288 5.60297C41.989 5.42227 42.0492 5.18134 42.1095 5.00064C42.1697 4.81995 42.2299 4.63925 42.3504 4.45855C42.772 3.73577 43.3141 3.19367 43.9767 2.83228C44.3381 2.65158 44.6995 2.47089 45.1211 2.41065C45.9041 2.22996 46.9883 2.22996 47.7713 2.41065ZM56.9869 9.759H57.8301C58.1313 8.49412 58.7938 6.62692 59.5166 5.78366V11.2046H62.0464V2.47089H59.5166C58.6734 3.25391 57.4687 4.88018 57.0471 6.08483C56.6255 4.88018 55.3606 3.25391 54.5776 2.47089H52.0478V11.2046H54.5776V5.78366C55.2401 6.62692 55.9629 8.49412 56.2641 9.759H56.505H56.9869ZM12.5956 4.33809C12.7763 4.81995 13.0775 5.4825 13.0775 6.02459H11.3308H7.77705L5.90985 9.51807H3.98242L6.75311 4.33809H10.5477C9.82495 3.25391 8.56007 2.65158 7.17473 2.65158C4.82567 2.65158 2.95847 4.51879 2.95847 6.86785C2.95847 9.21691 4.8859 11.0841 7.17473 11.0841C8.49984 11.0841 9.76472 10.4216 10.5477 9.45784H7.77705L8.74077 7.77133H13.0775C13.0173 8.37365 12.8366 8.97598 12.5354 9.45784C11.6922 11.2046 10.0057 12.4695 8.01798 12.7706C4.76544 13.2525 1.75382 10.9636 1.27196 7.77133C0.850337 4.45855 3.07893 1.44694 6.33148 0.965079C8.9817 0.603685 11.5115 2.04926 12.5956 4.33809Z" fill="#868686"/>
</g>
<defs>
<clipPath id="clip0_664_968">
<rect width="110.526" height="20" fill="white" transform="translate(0.428711)"/>
</clipPath>
</defs>
</svg>
