<svg width="62" height="12" viewBox="0 0 62 12" fill="none" xmlns="http://www.w3.org/2000/svg">
<path id="path4074" d="M47.9301 9.12757H49.281V0.318167H47.9301V9.12757ZM60.0978 3.4915L58.5492 7.31082H58.5029L56.8957 3.4915H55.4405L57.8506 8.8297L56.4765 11.799H57.886L61.6 3.4915H60.0978ZM52.4368 8.12698C51.9937 8.12698 51.3769 7.9117 51.3769 7.37882C51.3769 6.69887 52.1457 6.43821 52.8089 6.43821C53.4033 6.43821 53.682 6.56287 54.0433 6.73305C53.9383 7.54893 53.2165 8.12698 52.4368 8.12698ZM52.5997 3.29877C51.6216 3.29877 50.6088 3.71827 50.1896 4.64761L51.3885 5.13482C51.6448 4.64761 52.1219 4.48877 52.6228 4.48877C53.3215 4.48877 54.0317 4.89699 54.0433 5.62232V5.71288C53.7985 5.57687 53.2751 5.37294 52.6344 5.37294C51.3421 5.37294 50.026 6.06409 50.026 7.3562C50.026 8.53493 51.0859 9.29437 52.2732 9.29437C53.1817 9.29437 53.682 8.8977 53.9969 8.4331H54.0433V9.11298H55.3471V5.73543C55.3471 4.17166 54.1482 3.29877 52.5997 3.29877ZM44.2509 4.56389H42.3295V1.54425H44.2509C45.2608 1.54425 45.8342 2.35816 45.8342 3.05403C45.8342 3.73673 45.2608 4.56389 44.2509 4.56389ZM44.2162 0.318167H40.9793V9.12757H42.3295V5.78997H44.2162C45.7133 5.78997 47.1851 4.73485 47.1851 3.05403C47.1851 1.37329 45.7133 0.318167 44.2162 0.318167ZM26.5652 8.12861C25.6319 8.12861 24.8506 7.36804 24.8506 6.32342C24.8506 5.2678 25.6319 4.49568 26.5652 4.49568C27.4866 4.49568 28.2097 5.2678 28.2097 6.32342C28.2097 7.36804 27.4866 8.12861 26.5652 8.12861ZM28.1164 3.98478H28.0697C27.7666 3.63293 27.1831 3.31505 26.4484 3.31505C24.9089 3.31505 23.4977 4.63189 23.4977 6.32342C23.4977 8.00367 24.9089 9.30923 26.4484 9.30923C27.1831 9.30923 27.7666 8.99128 28.0697 8.62823H28.1164V9.05956C28.1164 10.2064 27.4866 10.8194 26.4719 10.8194C25.6438 10.8194 25.1306 10.2402 24.9204 9.75213L23.7426 10.2289C24.0809 11.0236 24.979 12 26.4719 12C28.0581 12 29.3994 11.0916 29.3994 8.8779V3.49671H28.1164V3.98478ZM30.3323 9.12757H31.6853V0.317885H30.3323V9.12757ZM33.6798 6.22131C33.6448 5.06323 34.6012 4.47306 35.2893 4.47306C35.8262 4.47306 36.2808 4.734 36.4321 5.10896L33.6798 6.22131ZM37.8786 5.22235C37.6223 4.55233 36.8404 3.31505 35.2426 3.31505C33.6564 3.31505 32.3385 4.52978 32.3385 6.31214C32.3385 7.99239 33.6448 9.30923 35.3942 9.30923C36.8057 9.30923 37.6223 8.46911 37.9604 7.98104L36.9106 7.29976C36.561 7.79938 36.0824 8.12861 35.3942 8.12861C34.7061 8.12861 34.2163 7.822 33.9013 7.22048L38.0183 5.56285L37.8786 5.22235ZM5.0771 4.23466V5.50612H8.20281C8.10949 6.22131 7.86458 6.74348 7.4913 7.10681C7.03658 7.54971 6.32507 8.03777 5.0771 8.03777C3.15259 8.03777 1.64812 6.52792 1.64812 4.65472C1.64812 2.78153 3.15259 1.27146 5.0771 1.27146C6.11519 1.27146 6.87311 1.66891 7.43302 2.1798L8.35441 1.28302C7.57304 0.556278 6.53487 0 5.0771 0C2.44108 0 0.225098 2.08897 0.225098 4.65472C0.225098 7.22048 2.44108 9.30923 5.0771 9.30923C6.50012 9.30923 7.57304 8.85535 8.41269 8.00366C9.2758 7.16354 9.54417 5.98291 9.54417 5.0294C9.54417 4.734 9.52093 4.46178 9.47402 4.23466H5.0771ZM13.0978 8.12861C12.1646 8.12861 11.3597 7.37931 11.3597 6.31214C11.3597 5.23362 12.1646 4.49568 13.0978 4.49568C14.0307 4.49568 14.8356 5.23362 14.8356 6.31214C14.8356 7.37931 14.0307 8.12861 13.0978 8.12861ZM13.0978 3.31505C11.3948 3.31505 10.0068 4.57516 10.0068 6.31214C10.0068 8.03777 11.3948 9.30923 13.0978 9.30923C14.8005 9.30923 16.1885 8.03777 16.1885 6.31214C16.1885 4.57516 14.8005 3.31505 13.0978 3.31505ZM19.8402 8.12861C18.9073 8.12861 18.1024 7.37931 18.1024 6.31214C18.1024 5.23362 18.9073 4.49568 19.8402 4.49568C20.7732 4.49568 21.578 5.23362 21.578 6.31214C21.578 7.37931 20.7732 8.12861 19.8402 8.12861ZM19.8402 3.31505C18.1373 3.31505 16.7496 4.57516 16.7496 6.31214C16.7496 8.03777 18.1373 9.30923 19.8402 9.30923C21.543 9.30923 22.931 8.03777 22.931 6.31214C22.931 4.57516 21.543 3.31505 19.8402 3.31505Z" fill="#27262B"/>
</svg>
