<svg width="20" height="20" viewBox="0 0 20 20" fill="none" xmlns="http://www.w3.org/2000/svg">
<g id="graduate-male">
<path id="Vector" d="M15.8334 10.8333V12.4999C15.8334 17.2916 10.0001 18.3333 10.0001 18.3333C10.0001 18.3333 4.16675 17.2916 4.16675 12.4999V10.8333" stroke="#27262B" stroke-width="1.25" stroke-linejoin="round"/>
<path id="Vector_2" d="M15.8334 8.33333C14.1626 7.80679 12.1569 7.5 10.0001 7.5C7.84324 7.5 5.83757 7.80679 4.16675 8.33333V11.25C5.83757 10.7235 7.84324 10.4167 10.0001 10.4167C12.1569 10.4167 14.1626 10.7235 15.8334 11.25V8.33333Z" stroke="#27262B" stroke-width="1.25" stroke-linejoin="round"/>
<path id="Vector_3" d="M4.16675 8.33329L2.05767 7.04136C1.51809 6.71259 1.54161 5.93897 2.10021 5.64193L9.2035 1.86464C9.7 1.60062 10.3002 1.60062 10.7967 1.86464L17.8999 5.64193C18.4586 5.93897 18.4821 6.71259 17.9425 7.04136L15.8334 8.33329" stroke="#27262B" stroke-width="1.25" stroke-linecap="round" stroke-linejoin="round"/>
</g>
</svg>
