<svg width="486" height="362" viewBox="0 0 486 362" fill="none" xmlns="http://www.w3.org/2000/svg">
<circle cx="255.203" cy="177.533" r="146.611" stroke="black" stroke-opacity="0.08" stroke-width="0.815385"/>
<circle cx="255.199" cy="177.533" r="123.993" stroke="black" stroke-opacity="0.08" stroke-width="0.815385"/>
<circle cx="255.205" cy="177.533" r="101.375" stroke="black" stroke-opacity="0.08" stroke-width="0.815385"/>
<circle cx="255.201" cy="177.532" r="78.7565" stroke="black" stroke-opacity="0.08" stroke-width="0.815385"/>
<circle cx="254.07" cy="177.532" r="56.1381" stroke="black" stroke-opacity="0.08" stroke-width="0.815385"/>
<path d="M255.203 30.5134V324.552" stroke="black" stroke-opacity="0.12"/>
<path d="M402.222 177.533L108.184 177.533" stroke="black" stroke-opacity="0.12"/>
<path d="M359.161 281.491L151.244 73.5742" stroke="black" stroke-opacity="0.12"/>
<path d="M151.234 281.491L359.151 73.5742" stroke="black" stroke-opacity="0.12"/>
<g filter="url(#filter0_dd_529_2292)">
<rect x="246.881" y="317.617" width="16.6437" height="16.6437" rx="6" fill="white"/>
<rect x="247.381" y="318.117" width="15.6437" height="15.6437" rx="5.5" stroke="black" stroke-opacity="0.08"/>
</g>
<g filter="url(#filter1_dd_529_2292)">
<rect x="246.881" y="22.1917" width="16.6437" height="16.6437" rx="6" fill="white"/>
<rect x="247.381" y="22.6917" width="15.6437" height="15.6437" rx="5.5" stroke="black" stroke-opacity="0.08"/>
</g>
<g filter="url(#filter2_dd_529_2292)">
<rect x="115.812" y="169.904" width="16.6437" height="16.6437" rx="6" transform="rotate(90 115.812 169.904)" fill="white"/>
<rect x="115.312" y="170.404" width="15.6437" height="15.6437" rx="5.5" transform="rotate(90 115.312 170.404)" stroke="black" stroke-opacity="0.08"/>
</g>
<g filter="url(#filter3_dd_529_2292)">
<rect x="411.237" y="169.904" width="16.6437" height="16.6437" rx="6" transform="rotate(90 411.237 169.904)" fill="white"/>
<rect x="410.737" y="170.404" width="15.6437" height="15.6437" rx="5.5" transform="rotate(90 410.737 170.404)" stroke="black" stroke-opacity="0.08"/>
</g>
<g filter="url(#filter4_dd_529_2292)">
<rect x="162.525" y="73.7778" width="16.6437" height="16.6437" rx="6" transform="rotate(135 162.525 73.7778)" fill="white"/>
<rect x="161.818" y="73.7778" width="15.6437" height="15.6437" rx="5.5" transform="rotate(135 161.818 73.7778)" stroke="black" stroke-opacity="0.08"/>
</g>
<g filter="url(#filter5_dd_529_2292)">
<rect x="371.421" y="282.674" width="16.6437" height="16.6437" rx="6" transform="rotate(135 371.421 282.674)" fill="white"/>
<rect x="370.714" y="282.674" width="15.6437" height="15.6437" rx="5.5" transform="rotate(135 370.714 282.674)" stroke="black" stroke-opacity="0.08"/>
</g>
<g filter="url(#filter6_dd_529_2292)">
<rect x="359.648" y="85.5454" width="16.6437" height="16.6437" rx="6" transform="rotate(-135 359.648 85.5454)" fill="white"/>
<rect x="359.648" y="84.8383" width="15.6437" height="15.6437" rx="5.5" transform="rotate(-135 359.648 84.8383)" stroke="black" stroke-opacity="0.08"/>
</g>
<g filter="url(#filter7_dd_529_2292)">
<rect x="150.757" y="294.443" width="16.6437" height="16.6437" rx="6" transform="rotate(-135 150.757 294.443)" fill="white"/>
<rect x="150.757" y="293.736" width="15.6437" height="15.6437" rx="5.5" transform="rotate(-135 150.757 293.736)" stroke="black" stroke-opacity="0.08"/>
</g>
<path d="M416.932 183.598V174.958H418.186V178.99L421.804 174.958H423.364L419.542 179.176L423.646 183.598H422.038L418.186 179.47V183.598H416.932ZM426.824 183.778C426.176 183.778 425.614 183.632 425.138 183.34C424.662 183.048 424.294 182.646 424.034 182.134C423.778 181.618 423.65 181.024 423.65 180.352C423.65 179.676 423.782 179.082 424.046 178.57C424.31 178.054 424.68 177.654 425.156 177.37C425.632 177.082 426.188 176.938 426.824 176.938C427.472 176.938 428.034 177.084 428.51 177.376C428.986 177.668 429.354 178.07 429.614 178.582C429.874 179.094 430.004 179.684 430.004 180.352C430.004 181.028 429.872 181.624 429.608 182.14C429.348 182.652 428.98 183.054 428.504 183.346C428.028 183.634 427.468 183.778 426.824 183.778ZM426.824 182.596C427.444 182.596 427.906 182.388 428.21 181.972C428.518 181.552 428.672 181.012 428.672 180.352C428.672 179.676 428.516 179.136 428.204 178.732C427.896 178.324 427.436 178.12 426.824 178.12C426.404 178.12 426.058 178.216 425.786 178.408C425.514 178.596 425.312 178.858 425.18 179.194C425.048 179.526 424.982 179.912 424.982 180.352C424.982 181.032 425.138 181.576 425.45 181.984C425.762 182.392 426.22 182.596 426.824 182.596ZM430.843 185.038V182.59C431.199 182.59 431.453 182.472 431.605 182.236C431.761 181.996 431.885 181.59 431.977 181.018C432.033 180.67 432.079 180.3 432.115 179.908C432.155 179.516 432.189 179.092 432.217 178.636C432.245 178.176 432.273 177.67 432.301 177.118H436.945V182.59H437.581V185.038H436.393V183.598H432.037V185.038H430.843ZM432.637 182.59H435.685V178.126H433.417C433.401 178.39 433.383 178.662 433.363 178.942C433.347 179.222 433.327 179.5 433.303 179.776C433.283 180.052 433.259 180.316 433.231 180.568C433.203 180.82 433.171 181.048 433.135 181.252C433.087 181.568 433.029 181.832 432.961 182.044C432.897 182.256 432.789 182.438 432.637 182.59ZM442.61 183.598V181.342C442.39 181.454 442.132 181.546 441.836 181.618C441.54 181.686 441.228 181.72 440.9 181.72C440.236 181.72 439.702 181.572 439.298 181.276C438.898 180.976 438.638 180.544 438.518 179.98C438.486 179.812 438.462 179.64 438.446 179.464C438.43 179.284 438.42 179.12 438.416 178.972C438.416 178.824 438.416 178.714 438.416 178.642V177.118H439.688V178.642C439.688 178.746 439.692 178.884 439.7 179.056C439.708 179.224 439.73 179.388 439.766 179.548C439.842 179.908 439.994 180.176 440.222 180.352C440.45 180.524 440.772 180.61 441.188 180.61C441.488 180.61 441.758 180.572 441.998 180.496C442.242 180.416 442.446 180.314 442.61 180.19V177.118H443.876V183.598H442.61ZM444.961 183.598V182.536C445.201 182.58 445.383 182.574 445.507 182.518C445.635 182.458 445.729 182.35 445.789 182.194C445.853 182.038 445.907 181.836 445.951 181.588C446.019 181.224 446.077 180.81 446.125 180.346C446.177 179.878 446.223 179.372 446.263 178.828C446.303 178.284 446.339 177.714 446.371 177.118H451.027V183.598H449.767V178.3H447.499C447.475 178.616 447.447 178.952 447.415 179.308C447.387 179.66 447.355 180.01 447.319 180.358C447.283 180.706 447.245 181.032 447.205 181.336C447.165 181.64 447.123 181.9 447.079 182.116C446.999 182.548 446.881 182.892 446.725 183.148C446.573 183.4 446.357 183.562 446.077 183.634C445.797 183.71 445.425 183.698 444.961 183.598ZM455.523 183.778C454.875 183.778 454.313 183.632 453.837 183.34C453.361 183.048 452.993 182.646 452.733 182.134C452.477 181.618 452.349 181.024 452.349 180.352C452.349 179.676 452.481 179.082 452.745 178.57C453.009 178.054 453.379 177.654 453.855 177.37C454.331 177.082 454.887 176.938 455.523 176.938C456.171 176.938 456.733 177.084 457.209 177.376C457.685 177.668 458.053 178.07 458.313 178.582C458.573 179.094 458.703 179.684 458.703 180.352C458.703 181.028 458.571 181.624 458.307 182.14C458.047 182.652 457.679 183.054 457.203 183.346C456.727 183.634 456.167 183.778 455.523 183.778ZM455.523 182.596C456.143 182.596 456.605 182.388 456.909 181.972C457.217 181.552 457.371 181.012 457.371 180.352C457.371 179.676 457.215 179.136 456.903 178.732C456.595 178.324 456.135 178.12 455.523 178.12C455.103 178.12 454.757 178.216 454.485 178.408C454.213 178.596 454.011 178.858 453.879 179.194C453.747 179.526 453.681 179.912 453.681 180.352C453.681 181.032 453.837 181.576 454.149 181.984C454.461 182.392 454.919 182.596 455.523 182.596ZM459.422 183.598V182.536C459.662 182.58 459.844 182.574 459.968 182.518C460.096 182.458 460.19 182.35 460.25 182.194C460.314 182.038 460.368 181.836 460.412 181.588C460.48 181.224 460.538 180.81 460.586 180.346C460.638 179.878 460.684 179.372 460.724 178.828C460.764 178.284 460.8 177.714 460.832 177.118H465.488V183.598H464.228V178.3H461.96C461.936 178.616 461.908 178.952 461.876 179.308C461.848 179.66 461.816 180.01 461.78 180.358C461.744 180.706 461.706 181.032 461.666 181.336C461.626 181.64 461.584 181.9 461.54 182.116C461.46 182.548 461.342 182.892 461.186 183.148C461.034 183.4 460.818 183.562 460.538 183.634C460.258 183.71 459.886 183.698 459.422 183.598Z" fill="#767676"/>
<path d="M356.84 314V305.36H358.094V309.392L361.712 305.36H363.272L359.45 309.578L363.554 314H361.946L358.094 309.872V314H356.84ZM366.732 314.18C366.084 314.18 365.522 314.034 365.046 313.742C364.57 313.45 364.202 313.048 363.942 312.536C363.686 312.02 363.558 311.426 363.558 310.754C363.558 310.078 363.69 309.484 363.954 308.972C364.218 308.456 364.588 308.056 365.064 307.772C365.54 307.484 366.096 307.34 366.732 307.34C367.38 307.34 367.942 307.486 368.418 307.778C368.894 308.07 369.262 308.472 369.522 308.984C369.782 309.496 369.912 310.086 369.912 310.754C369.912 311.43 369.78 312.026 369.516 312.542C369.256 313.054 368.888 313.456 368.412 313.748C367.936 314.036 367.376 314.18 366.732 314.18ZM366.732 312.998C367.352 312.998 367.814 312.79 368.118 312.374C368.426 311.954 368.58 311.414 368.58 310.754C368.58 310.078 368.424 309.538 368.112 309.134C367.804 308.726 367.344 308.522 366.732 308.522C366.312 308.522 365.966 308.618 365.694 308.81C365.422 308.998 365.22 309.26 365.088 309.596C364.956 309.928 364.89 310.314 364.89 310.754C364.89 311.434 365.046 311.978 365.358 312.386C365.67 312.794 366.128 312.998 366.732 312.998ZM371.225 314V307.52H372.275L374.669 312.272L377.057 307.52H378.113V314H376.901V310.088L374.951 314H374.381L372.431 310.088V314H371.225ZM379.791 314V307.52H385.257V314H384.003V308.702H381.045V314H379.791ZM386.928 314V307.52H388.188V309.77H389.466C389.65 309.77 389.846 309.774 390.054 309.782C390.266 309.79 390.448 309.81 390.6 309.842C390.948 309.914 391.248 310.034 391.5 310.202C391.756 310.37 391.954 310.594 392.094 310.874C392.234 311.15 392.304 311.49 392.304 311.894C392.304 312.458 392.156 312.908 391.86 313.244C391.568 313.576 391.172 313.8 390.672 313.916C390.512 313.952 390.322 313.976 390.102 313.988C389.886 313.996 389.688 314 389.508 314H386.928ZM388.188 312.992H389.58C389.68 312.992 389.794 312.988 389.922 312.98C390.05 312.972 390.168 312.954 390.276 312.926C390.468 312.87 390.64 312.756 390.792 312.584C390.944 312.412 391.02 312.182 391.02 311.894C391.02 311.598 390.944 311.362 390.792 311.186C390.644 311.01 390.456 310.896 390.228 310.844C390.12 310.816 390.01 310.798 389.898 310.79C389.786 310.782 389.68 310.778 389.58 310.778H388.188V312.992ZM398.921 314.18C398.385 314.18 397.907 314.068 397.487 313.844C397.071 313.62 396.731 313.3 396.467 312.884C396.203 312.464 396.035 311.966 395.963 311.39H394.697V314H393.443V307.52H394.697V310.13H395.957C396.029 309.542 396.199 309.04 396.467 308.624C396.735 308.208 397.079 307.89 397.499 307.67C397.923 307.45 398.403 307.34 398.939 307.34C399.583 307.34 400.141 307.486 400.613 307.778C401.085 308.07 401.451 308.474 401.711 308.99C401.971 309.502 402.101 310.088 402.101 310.748C402.101 311.424 401.969 312.02 401.705 312.536C401.445 313.052 401.077 313.456 400.601 313.748C400.125 314.036 399.565 314.18 398.921 314.18ZM398.903 312.998C399.531 312.998 399.999 312.79 400.307 312.374C400.615 311.958 400.769 311.418 400.769 310.754C400.769 310.07 400.613 309.528 400.301 309.128C399.993 308.724 399.529 308.522 398.909 308.522C398.305 308.522 397.849 308.724 397.541 309.128C397.233 309.528 397.079 310.068 397.079 310.748C397.079 311.432 397.233 311.978 397.541 312.386C397.853 312.794 398.307 312.998 398.903 312.998ZM404.955 314V308.648H402.741V307.52H408.423V308.648H406.209V314H404.955ZM412.437 314.18C411.793 314.18 411.227 314.04 410.739 313.76C410.255 313.476 409.877 313.082 409.605 312.578C409.337 312.07 409.203 311.482 409.203 310.814C409.203 310.106 409.335 309.492 409.599 308.972C409.867 308.452 410.239 308.05 410.715 307.766C411.191 307.482 411.745 307.34 412.377 307.34C413.037 307.34 413.599 307.494 414.063 307.802C414.527 308.106 414.873 308.54 415.101 309.104C415.333 309.668 415.425 310.338 415.377 311.114H414.123V310.658C414.115 309.906 413.971 309.35 413.691 308.99C413.415 308.63 412.993 308.45 412.425 308.45C411.797 308.45 411.325 308.648 411.009 309.044C410.693 309.44 410.535 310.012 410.535 310.76C410.535 311.472 410.693 312.024 411.009 312.416C411.325 312.804 411.781 312.998 412.377 312.998C412.769 312.998 413.107 312.91 413.391 312.734C413.679 312.554 413.903 312.298 414.063 311.966L415.293 312.356C415.041 312.936 414.659 313.386 414.147 313.706C413.635 314.022 413.065 314.18 412.437 314.18ZM410.127 311.114V310.136H414.753V311.114H410.127ZM419.765 314.18C419.145 314.18 418.625 314.03 418.205 313.73C417.785 313.426 417.467 313.016 417.251 312.5C417.035 311.984 416.927 311.402 416.927 310.754C416.927 310.106 417.033 309.524 417.245 309.008C417.461 308.492 417.777 308.086 418.193 307.79C418.613 307.49 419.129 307.34 419.741 307.34C420.349 307.34 420.873 307.49 421.313 307.79C421.757 308.086 422.099 308.492 422.339 309.008C422.579 309.52 422.699 310.102 422.699 310.754C422.699 311.402 422.579 311.986 422.339 312.506C422.103 313.022 421.765 313.43 421.325 313.73C420.889 314.03 420.369 314.18 419.765 314.18ZM416.717 316.88V307.52H417.833V312.182H417.977V316.88H416.717ZM419.591 313.046C419.991 313.046 420.321 312.944 420.581 312.74C420.845 312.536 421.041 312.262 421.169 311.918C421.301 311.57 421.367 311.182 421.367 310.754C421.367 310.33 421.301 309.946 421.169 309.602C421.041 309.258 420.843 308.984 420.575 308.78C420.307 308.576 419.965 308.474 419.549 308.474C419.157 308.474 418.833 308.57 418.577 308.762C418.325 308.954 418.137 309.222 418.013 309.566C417.893 309.91 417.833 310.306 417.833 310.754C417.833 311.202 417.893 311.598 418.013 311.942C418.133 312.286 418.323 312.556 418.583 312.752C418.843 312.948 419.179 313.046 419.591 313.046ZM427.302 316.88L428.556 313.466L428.574 314.474L425.748 307.52H427.056L429.168 312.89H428.784L430.8 307.52H432.072L428.496 316.88H427.302ZM436.054 314.18C435.434 314.18 434.914 314.03 434.494 313.73C434.074 313.426 433.756 313.016 433.54 312.5C433.324 311.984 433.216 311.402 433.216 310.754C433.216 310.106 433.322 309.524 433.534 309.008C433.75 308.492 434.066 308.086 434.482 307.79C434.902 307.49 435.418 307.34 436.03 307.34C436.638 307.34 437.162 307.49 437.602 307.79C438.046 308.086 438.388 308.492 438.628 309.008C438.868 309.52 438.988 310.102 438.988 310.754C438.988 311.402 438.868 311.986 438.628 312.506C438.392 313.022 438.054 313.43 437.614 313.73C437.178 314.03 436.658 314.18 436.054 314.18ZM433.006 316.88V307.52H434.122V312.182H434.266V316.88H433.006ZM435.88 313.046C436.28 313.046 436.61 312.944 436.87 312.74C437.134 312.536 437.33 312.262 437.458 311.918C437.59 311.57 437.656 311.182 437.656 310.754C437.656 310.33 437.59 309.946 437.458 309.602C437.33 309.258 437.132 308.984 436.864 308.78C436.596 308.576 436.254 308.474 435.838 308.474C435.446 308.474 435.122 308.57 434.866 308.762C434.614 308.954 434.426 309.222 434.302 309.566C434.182 309.91 434.122 310.306 434.122 310.754C434.122 311.202 434.182 311.598 434.302 311.942C434.422 312.286 434.612 312.556 434.872 312.752C435.132 312.948 435.468 313.046 435.88 313.046ZM446.549 314V311.744C446.329 311.856 446.071 311.948 445.775 312.02C445.479 312.088 445.167 312.122 444.839 312.122C444.175 312.122 443.641 311.974 443.237 311.678C442.837 311.378 442.577 310.946 442.457 310.382C442.425 310.214 442.401 310.042 442.385 309.866C442.369 309.686 442.359 309.522 442.355 309.374C442.355 309.226 442.355 309.116 442.355 309.044V307.52H443.627V309.044C443.627 309.148 443.631 309.286 443.639 309.458C443.647 309.626 443.669 309.79 443.705 309.95C443.781 310.31 443.933 310.578 444.161 310.754C444.389 310.926 444.711 311.012 445.127 311.012C445.427 311.012 445.697 310.974 445.937 310.898C446.181 310.818 446.385 310.716 446.549 310.592V307.52H447.815V314H446.549ZM451.33 314.18C450.85 314.18 450.448 314.092 450.124 313.916C449.8 313.736 449.554 313.5 449.386 313.208C449.222 312.912 449.14 312.588 449.14 312.236C449.14 311.908 449.198 311.62 449.314 311.372C449.43 311.124 449.602 310.914 449.83 310.742C450.058 310.566 450.338 310.424 450.67 310.316C450.958 310.232 451.284 310.158 451.648 310.094C452.012 310.03 452.394 309.97 452.794 309.914C453.198 309.858 453.598 309.802 453.994 309.746L453.538 309.998C453.546 309.49 453.438 309.114 453.214 308.87C452.994 308.622 452.614 308.498 452.074 308.498C451.734 308.498 451.422 308.578 451.138 308.738C450.854 308.894 450.656 309.154 450.544 309.518L449.374 309.158C449.534 308.602 449.838 308.16 450.286 307.832C450.738 307.504 451.338 307.34 452.086 307.34C452.666 307.34 453.17 307.44 453.598 307.64C454.03 307.836 454.346 308.148 454.546 308.576C454.65 308.788 454.714 309.012 454.738 309.248C454.762 309.484 454.774 309.738 454.774 310.01V314H453.664V312.518L453.88 312.71C453.612 313.206 453.27 313.576 452.854 313.82C452.442 314.06 451.934 314.18 451.33 314.18ZM451.552 313.154C451.908 313.154 452.214 313.092 452.47 312.968C452.726 312.84 452.932 312.678 453.088 312.482C453.244 312.286 453.346 312.082 453.394 311.87C453.462 311.678 453.5 311.462 453.508 311.222C453.52 310.982 453.526 310.79 453.526 310.646L453.934 310.796C453.538 310.856 453.178 310.91 452.854 310.958C452.53 311.006 452.236 311.054 451.972 311.102C451.712 311.146 451.48 311.2 451.276 311.264C451.104 311.324 450.95 311.396 450.814 311.48C450.682 311.564 450.576 311.666 450.496 311.786C450.42 311.906 450.382 312.052 450.382 312.224C450.382 312.392 450.424 312.548 450.508 312.692C450.592 312.832 450.72 312.944 450.892 313.028C451.064 313.112 451.284 313.154 451.552 313.154ZM455.852 315.44V312.992C456.208 312.992 456.462 312.874 456.614 312.638C456.77 312.398 456.894 311.992 456.986 311.42C457.042 311.072 457.088 310.702 457.124 310.31C457.164 309.918 457.198 309.494 457.226 309.038C457.254 308.578 457.282 308.072 457.31 307.52H461.954V312.992H462.59V315.44H461.402V314H457.046V315.44H455.852ZM457.646 312.992H460.694V308.528H458.426C458.41 308.792 458.392 309.064 458.372 309.344C458.356 309.624 458.336 309.902 458.312 310.178C458.292 310.454 458.268 310.718 458.24 310.97C458.212 311.222 458.18 311.45 458.144 311.654C458.096 311.97 458.038 312.234 457.97 312.446C457.906 312.658 457.798 312.84 457.646 312.992ZM463.779 314V307.52H466.629C466.817 307.52 467.005 307.532 467.193 307.556C467.381 307.576 467.547 307.606 467.691 307.646C468.019 307.738 468.299 307.922 468.531 308.198C468.763 308.47 468.879 308.834 468.879 309.29C468.879 309.55 468.839 309.77 468.759 309.95C468.679 310.126 468.569 310.278 468.429 310.406C468.365 310.462 468.297 310.512 468.225 310.556C468.153 310.6 468.081 310.634 468.009 310.658C468.157 310.682 468.303 310.734 468.447 310.814C468.667 310.93 468.847 311.098 468.987 311.318C469.131 311.534 469.203 311.824 469.203 312.188C469.203 312.624 469.097 312.99 468.885 313.286C468.673 313.578 468.373 313.778 467.985 313.886C467.833 313.93 467.661 313.96 467.469 313.976C467.281 313.992 467.093 314 466.905 314H463.779ZM465.051 313.01H466.827C466.911 313.01 467.007 313.002 467.115 312.986C467.223 312.97 467.319 312.948 467.403 312.92C467.583 312.864 467.711 312.762 467.787 312.614C467.867 312.466 467.907 312.308 467.907 312.14C467.907 311.912 467.847 311.73 467.727 311.594C467.607 311.454 467.455 311.364 467.271 311.324C467.191 311.296 467.103 311.28 467.007 311.276C466.911 311.272 466.829 311.27 466.761 311.27H465.051V313.01ZM465.051 310.262H466.455C466.571 310.262 466.689 310.256 466.809 310.244C466.929 310.228 467.033 310.202 467.121 310.166C467.277 310.106 467.393 310.006 467.469 309.866C467.545 309.722 467.583 309.566 467.583 309.398C467.583 309.214 467.541 309.05 467.457 308.906C467.373 308.762 467.247 308.662 467.079 308.606C466.963 308.566 466.829 308.544 466.677 308.54C466.529 308.532 466.435 308.528 466.395 308.528H465.051V310.262ZM472.236 314.18C471.756 314.18 471.354 314.092 471.03 313.916C470.706 313.736 470.46 313.5 470.292 313.208C470.128 312.912 470.046 312.588 470.046 312.236C470.046 311.908 470.104 311.62 470.22 311.372C470.336 311.124 470.508 310.914 470.736 310.742C470.964 310.566 471.244 310.424 471.576 310.316C471.864 310.232 472.19 310.158 472.554 310.094C472.918 310.03 473.3 309.97 473.7 309.914C474.104 309.858 474.504 309.802 474.9 309.746L474.444 309.998C474.452 309.49 474.344 309.114 474.12 308.87C473.9 308.622 473.52 308.498 472.98 308.498C472.64 308.498 472.328 308.578 472.044 308.738C471.76 308.894 471.562 309.154 471.45 309.518L470.28 309.158C470.44 308.602 470.744 308.16 471.192 307.832C471.644 307.504 472.244 307.34 472.992 307.34C473.572 307.34 474.076 307.44 474.504 307.64C474.936 307.836 475.252 308.148 475.452 308.576C475.556 308.788 475.62 309.012 475.644 309.248C475.668 309.484 475.68 309.738 475.68 310.01V314H474.57V312.518L474.786 312.71C474.518 313.206 474.176 313.576 473.76 313.82C473.348 314.06 472.84 314.18 472.236 314.18ZM472.458 313.154C472.814 313.154 473.12 313.092 473.376 312.968C473.632 312.84 473.838 312.678 473.994 312.482C474.15 312.286 474.252 312.082 474.3 311.87C474.368 311.678 474.406 311.462 474.414 311.222C474.426 310.982 474.432 310.79 474.432 310.646L474.84 310.796C474.444 310.856 474.084 310.91 473.76 310.958C473.436 311.006 473.142 311.054 472.878 311.102C472.618 311.146 472.386 311.2 472.182 311.264C472.01 311.324 471.856 311.396 471.72 311.48C471.588 311.564 471.482 311.666 471.402 311.786C471.326 311.906 471.288 312.052 471.288 312.224C471.288 312.392 471.33 312.548 471.414 312.692C471.498 312.832 471.626 312.944 471.798 313.028C471.97 313.112 472.19 313.154 472.458 313.154ZM480.28 314.18C479.66 314.18 479.14 314.03 478.72 313.73C478.3 313.426 477.982 313.016 477.766 312.5C477.55 311.984 477.442 311.402 477.442 310.754C477.442 310.106 477.548 309.524 477.76 309.008C477.976 308.492 478.292 308.086 478.708 307.79C479.128 307.49 479.644 307.34 480.256 307.34C480.864 307.34 481.388 307.49 481.828 307.79C482.272 308.086 482.614 308.492 482.854 309.008C483.094 309.52 483.214 310.102 483.214 310.754C483.214 311.402 483.094 311.986 482.854 312.506C482.618 313.022 482.28 313.43 481.84 313.73C481.404 314.03 480.884 314.18 480.28 314.18ZM477.232 316.88V307.52H478.348V312.182H478.492V316.88H477.232ZM480.106 313.046C480.506 313.046 480.836 312.944 481.096 312.74C481.36 312.536 481.556 312.262 481.684 311.918C481.816 311.57 481.882 311.182 481.882 310.754C481.882 310.33 481.816 309.946 481.684 309.602C481.556 309.258 481.358 308.984 481.09 308.78C480.822 308.576 480.48 308.474 480.064 308.474C479.672 308.474 479.348 308.57 479.092 308.762C478.84 308.954 478.652 309.222 478.528 309.566C478.408 309.91 478.348 310.306 478.348 310.754C478.348 311.202 478.408 311.598 478.528 311.942C478.648 312.286 478.838 312.556 479.098 312.752C479.358 312.948 479.694 313.046 480.106 313.046Z" fill="#767676"/>
<path d="M361.453 55.9961V47.3561H367.087V48.5381H362.707V50.6201H364.945C365.025 50.6201 365.127 50.6241 365.251 50.6321C365.379 50.6361 365.499 50.6461 365.611 50.6621C366.079 50.7181 366.473 50.8701 366.793 51.1181C367.117 51.3661 367.361 51.6801 367.525 52.0601C367.693 52.4401 367.777 52.8561 367.777 53.3081C367.777 53.7601 367.695 54.1761 367.531 54.5561C367.367 54.9361 367.123 55.2501 366.799 55.4981C366.479 55.7461 366.083 55.8981 365.611 55.9541C365.499 55.9701 365.381 55.9821 365.257 55.9901C365.133 55.9941 365.029 55.9961 364.945 55.9961H361.453ZM362.707 54.8141H364.897C364.977 54.8141 365.065 54.8101 365.161 54.8021C365.261 54.7941 365.355 54.7821 365.443 54.7661C365.831 54.6861 366.103 54.5021 366.259 54.2141C366.419 53.9261 366.499 53.6241 366.499 53.3081C366.499 52.9881 366.419 52.6861 366.259 52.4021C366.103 52.1141 365.831 51.9301 365.443 51.8501C365.355 51.8301 365.261 51.8181 365.161 51.8141C365.065 51.8061 364.977 51.8021 364.897 51.8021H362.707V54.8141ZM374.436 49.5161V55.9961H373.23V51.4901L369.99 55.9961H368.97V49.5161H370.176V53.9321L373.422 49.5161H374.436ZM379.947 55.9961V53.7401C379.727 53.8521 379.469 53.9441 379.173 54.0161C378.877 54.0841 378.565 54.1181 378.237 54.1181C377.573 54.1181 377.039 53.9701 376.635 53.6741C376.235 53.3741 375.975 52.9421 375.855 52.3781C375.823 52.2101 375.799 52.0381 375.783 51.8621C375.767 51.6821 375.757 51.5181 375.753 51.3701C375.753 51.2221 375.753 51.1121 375.753 51.0401V49.5161H377.025V51.0401C377.025 51.1441 377.029 51.2821 377.037 51.4541C377.045 51.6221 377.067 51.7861 377.103 51.9461C377.179 52.3061 377.331 52.5741 377.559 52.7501C377.787 52.9221 378.109 53.0081 378.525 53.0081C378.825 53.0081 379.095 52.9701 379.335 52.8941C379.579 52.8141 379.783 52.7121 379.947 52.5881V49.5161H381.213V55.9961H379.947ZM388.358 49.5161V55.9961H387.152V51.4901L383.912 55.9961H382.892V49.5161H384.098V53.9321L387.344 49.5161H388.358ZM389.315 55.9961L391.739 52.7201L389.369 49.5161H390.857L392.471 51.7421L394.067 49.5161H395.555L393.185 52.7201L395.615 55.9961H394.121L392.471 53.6981L390.809 55.9961H389.315ZM399.852 58.8761L401.106 55.4621L401.124 56.4701L398.298 49.5161H399.606L401.718 54.8861H401.334L403.35 49.5161H404.622L401.046 58.8761H399.852ZM408.604 56.1761C407.984 56.1761 407.464 56.0261 407.044 55.7261C406.624 55.4221 406.306 55.0121 406.09 54.4961C405.874 53.9801 405.766 53.3981 405.766 52.7501C405.766 52.1021 405.872 51.5201 406.084 51.0041C406.3 50.4881 406.616 50.0821 407.032 49.7861C407.452 49.4861 407.968 49.3361 408.58 49.3361C409.188 49.3361 409.712 49.4861 410.152 49.7861C410.596 50.0821 410.938 50.4881 411.178 51.0041C411.418 51.5161 411.538 52.0981 411.538 52.7501C411.538 53.3981 411.418 53.9821 411.178 54.5021C410.942 55.0181 410.604 55.4261 410.164 55.7261C409.728 56.0261 409.208 56.1761 408.604 56.1761ZM405.556 58.8761V49.5161H406.672V54.1781H406.816V58.8761H405.556ZM408.43 55.0421C408.83 55.0421 409.16 54.9401 409.42 54.7361C409.684 54.5321 409.88 54.2581 410.008 53.9141C410.14 53.5661 410.206 53.1781 410.206 52.7501C410.206 52.3261 410.14 51.9421 410.008 51.5981C409.88 51.2541 409.682 50.9801 409.414 50.7761C409.146 50.5721 408.804 50.4701 408.388 50.4701C407.996 50.4701 407.672 50.5661 407.416 50.7581C407.164 50.9501 406.976 51.2181 406.852 51.5621C406.732 51.9061 406.672 52.3021 406.672 52.7501C406.672 53.1981 406.732 53.5941 406.852 53.9381C406.972 54.2821 407.162 54.5521 407.422 54.7481C407.682 54.9441 408.018 55.0421 408.43 55.0421ZM419.1 55.9961V53.7401C418.88 53.8521 418.622 53.9441 418.326 54.0161C418.03 54.0841 417.718 54.1181 417.39 54.1181C416.726 54.1181 416.192 53.9701 415.788 53.6741C415.388 53.3741 415.128 52.9421 415.008 52.3781C414.976 52.2101 414.952 52.0381 414.936 51.8621C414.92 51.6821 414.91 51.5181 414.906 51.3701C414.906 51.2221 414.906 51.1121 414.906 51.0401V49.5161H416.178V51.0401C416.178 51.1441 416.182 51.2821 416.19 51.4541C416.198 51.6221 416.22 51.7861 416.256 51.9461C416.332 52.3061 416.484 52.5741 416.712 52.7501C416.94 52.9221 417.262 53.0081 417.678 53.0081C417.978 53.0081 418.248 52.9701 418.488 52.8941C418.732 52.8141 418.936 52.7121 419.1 52.5881V49.5161H420.366V55.9961H419.1ZM423.881 56.1761C423.401 56.1761 422.999 56.0881 422.675 55.9121C422.351 55.7321 422.105 55.4961 421.937 55.2041C421.773 54.9081 421.691 54.5841 421.691 54.2321C421.691 53.9041 421.749 53.6161 421.865 53.3681C421.981 53.1201 422.153 52.9101 422.381 52.7381C422.609 52.5621 422.889 52.4201 423.221 52.3121C423.509 52.2281 423.835 52.1541 424.199 52.0901C424.563 52.0261 424.945 51.9661 425.345 51.9101C425.749 51.8541 426.149 51.7981 426.545 51.7421L426.089 51.9941C426.097 51.4861 425.989 51.1101 425.765 50.8661C425.545 50.6181 425.165 50.4941 424.625 50.4941C424.285 50.4941 423.973 50.5741 423.689 50.7341C423.405 50.8901 423.207 51.1501 423.095 51.5141L421.925 51.1541C422.085 50.5981 422.389 50.1561 422.837 49.8281C423.289 49.5001 423.889 49.3361 424.637 49.3361C425.217 49.3361 425.721 49.4361 426.149 49.6361C426.581 49.8321 426.897 50.1441 427.097 50.5721C427.201 50.7841 427.265 51.0081 427.289 51.2441C427.313 51.4801 427.325 51.7341 427.325 52.0061V55.9961H426.215V54.5141L426.431 54.7061C426.163 55.2021 425.821 55.5721 425.405 55.8161C424.993 56.0561 424.485 56.1761 423.881 56.1761ZM424.103 55.1501C424.459 55.1501 424.765 55.0881 425.021 54.9641C425.277 54.8361 425.483 54.6741 425.639 54.4781C425.795 54.2821 425.897 54.0781 425.945 53.8661C426.013 53.6741 426.051 53.4581 426.059 53.2181C426.071 52.9781 426.077 52.7861 426.077 52.6421L426.485 52.7921C426.089 52.8521 425.729 52.9061 425.405 52.9541C425.081 53.0021 424.787 53.0501 424.523 53.0981C424.263 53.1421 424.031 53.1961 423.827 53.2601C423.655 53.3201 423.501 53.3921 423.365 53.4761C423.233 53.5601 423.127 53.6621 423.047 53.7821C422.971 53.9021 422.933 54.0481 422.933 54.2201C422.933 54.3881 422.975 54.5441 423.059 54.6881C423.143 54.8281 423.271 54.9401 423.443 55.0241C423.615 55.1081 423.835 55.1501 424.103 55.1501ZM428.403 57.4361V54.9881C428.759 54.9881 429.013 54.8701 429.165 54.6341C429.321 54.3941 429.445 53.9881 429.537 53.4161C429.593 53.0681 429.639 52.6981 429.675 52.3061C429.715 51.9141 429.749 51.4901 429.777 51.0341C429.805 50.5741 429.833 50.0681 429.861 49.5161H434.505V54.9881H435.141V57.4361H433.953V55.9961H429.597V57.4361H428.403ZM430.197 54.9881H433.245V50.5241H430.977C430.961 50.7881 430.943 51.0601 430.923 51.3401C430.907 51.6201 430.887 51.8981 430.863 52.1741C430.843 52.4501 430.819 52.7141 430.791 52.9661C430.763 53.2181 430.731 53.4461 430.695 53.6501C430.647 53.9661 430.589 54.2301 430.521 54.4421C430.457 54.6541 430.349 54.8361 430.197 54.9881ZM436.33 55.9961V49.5161H439.18C439.368 49.5161 439.556 49.5281 439.744 49.5521C439.932 49.5721 440.098 49.6021 440.242 49.6421C440.57 49.7341 440.85 49.9181 441.082 50.1941C441.314 50.4661 441.43 50.8301 441.43 51.2861C441.43 51.5461 441.39 51.7661 441.31 51.9461C441.23 52.1221 441.12 52.2741 440.98 52.4021C440.916 52.4581 440.848 52.5081 440.776 52.5521C440.704 52.5961 440.632 52.6301 440.56 52.6541C440.708 52.6781 440.854 52.7301 440.998 52.8101C441.218 52.9261 441.398 53.0941 441.538 53.3141C441.682 53.5301 441.754 53.8201 441.754 54.1841C441.754 54.6201 441.648 54.9861 441.436 55.2821C441.224 55.5741 440.924 55.7741 440.536 55.8821C440.384 55.9261 440.212 55.9561 440.02 55.9721C439.832 55.9881 439.644 55.9961 439.456 55.9961H436.33ZM437.602 55.0061H439.378C439.462 55.0061 439.558 54.9981 439.666 54.9821C439.774 54.9661 439.87 54.9441 439.954 54.9161C440.134 54.8601 440.262 54.7581 440.338 54.6101C440.418 54.4621 440.458 54.3041 440.458 54.1361C440.458 53.9081 440.398 53.7261 440.278 53.5901C440.158 53.4501 440.006 53.3601 439.822 53.3201C439.742 53.2921 439.654 53.2761 439.558 53.2721C439.462 53.2681 439.38 53.2661 439.312 53.2661H437.602V55.0061ZM437.602 52.2581H439.006C439.122 52.2581 439.24 52.2521 439.36 52.2401C439.48 52.2241 439.584 52.1981 439.672 52.1621C439.828 52.1021 439.944 52.0021 440.02 51.8621C440.096 51.7181 440.134 51.5621 440.134 51.3941C440.134 51.2101 440.092 51.0461 440.008 50.9021C439.924 50.7581 439.798 50.6581 439.63 50.6021C439.514 50.5621 439.38 50.5401 439.228 50.5361C439.08 50.5281 438.986 50.5241 438.946 50.5241H437.602V52.2581ZM444.787 56.1761C444.307 56.1761 443.905 56.0881 443.581 55.9121C443.257 55.7321 443.011 55.4961 442.843 55.2041C442.679 54.9081 442.597 54.5841 442.597 54.2321C442.597 53.9041 442.655 53.6161 442.771 53.3681C442.887 53.1201 443.059 52.9101 443.287 52.7381C443.515 52.5621 443.795 52.4201 444.127 52.3121C444.415 52.2281 444.741 52.1541 445.105 52.0901C445.469 52.0261 445.851 51.9661 446.251 51.9101C446.655 51.8541 447.055 51.7981 447.451 51.7421L446.995 51.9941C447.003 51.4861 446.895 51.1101 446.671 50.8661C446.451 50.6181 446.071 50.4941 445.531 50.4941C445.191 50.4941 444.879 50.5741 444.595 50.7341C444.311 50.8901 444.113 51.1501 444.001 51.5141L442.831 51.1541C442.991 50.5981 443.295 50.1561 443.743 49.8281C444.195 49.5001 444.795 49.3361 445.543 49.3361C446.123 49.3361 446.627 49.4361 447.055 49.6361C447.487 49.8321 447.803 50.1441 448.003 50.5721C448.107 50.7841 448.171 51.0081 448.195 51.2441C448.219 51.4801 448.231 51.7341 448.231 52.0061V55.9961H447.121V54.5141L447.337 54.7061C447.069 55.2021 446.727 55.5721 446.311 55.8161C445.899 56.0561 445.391 56.1761 444.787 56.1761ZM445.009 55.1501C445.365 55.1501 445.671 55.0881 445.927 54.9641C446.183 54.8361 446.389 54.6741 446.545 54.4781C446.701 54.2821 446.803 54.0781 446.851 53.8661C446.919 53.6741 446.957 53.4581 446.965 53.2181C446.977 52.9781 446.983 52.7861 446.983 52.6421L447.391 52.7921C446.995 52.8521 446.635 52.9061 446.311 52.9541C445.987 53.0021 445.693 53.0501 445.429 53.0981C445.169 53.1421 444.937 53.1961 444.733 53.2601C444.561 53.3201 444.407 53.3921 444.271 53.4761C444.139 53.5601 444.033 53.6621 443.953 53.7821C443.877 53.9021 443.839 54.0481 443.839 54.2201C443.839 54.3881 443.881 54.5441 443.965 54.6881C444.049 54.8281 444.177 54.9401 444.349 55.0241C444.521 55.1081 444.741 55.1501 445.009 55.1501ZM452.831 56.1761C452.211 56.1761 451.691 56.0261 451.271 55.7261C450.851 55.4221 450.533 55.0121 450.317 54.4961C450.101 53.9801 449.993 53.3981 449.993 52.7501C449.993 52.1021 450.099 51.5201 450.311 51.0041C450.527 50.4881 450.843 50.0821 451.259 49.7861C451.679 49.4861 452.195 49.3361 452.807 49.3361C453.415 49.3361 453.939 49.4861 454.379 49.7861C454.823 50.0821 455.165 50.4881 455.405 51.0041C455.645 51.5161 455.765 52.0981 455.765 52.7501C455.765 53.3981 455.645 53.9821 455.405 54.5021C455.169 55.0181 454.831 55.4261 454.391 55.7261C453.955 56.0261 453.435 56.1761 452.831 56.1761ZM449.783 58.8761V49.5161H450.899V54.1781H451.043V58.8761H449.783ZM452.657 55.0421C453.057 55.0421 453.387 54.9401 453.647 54.7361C453.911 54.5321 454.107 54.2581 454.235 53.9141C454.367 53.5661 454.433 53.1781 454.433 52.7501C454.433 52.3261 454.367 51.9421 454.235 51.5981C454.107 51.2541 453.909 50.9801 453.641 50.7761C453.373 50.5721 453.031 50.4701 452.615 50.4701C452.223 50.4701 451.899 50.5661 451.643 50.7581C451.391 50.9501 451.203 51.2181 451.079 51.5621C450.959 51.9061 450.899 52.3021 450.899 52.7501C450.899 53.1981 450.959 53.5941 451.079 53.9381C451.199 54.2821 451.389 54.5521 451.649 54.7481C451.909 54.9441 452.245 55.0421 452.657 55.0421Z" fill="#767676"/>
<path d="M237.242 352.808V351.734C237.446 351.754 237.614 351.744 237.746 351.704C237.882 351.66 237.996 351.576 238.088 351.452C238.18 351.324 238.258 351.14 238.322 350.9C238.39 350.66 238.456 350.35 238.52 349.97C238.608 349.486 238.682 348.988 238.742 348.476C238.802 347.964 238.852 347.456 238.892 346.952C238.936 346.444 238.972 345.954 239 345.482C239.028 345.01 239.05 344.572 239.066 344.168H244.736V352.808H243.482V345.35H240.242C240.222 345.67 240.198 346.028 240.17 346.424C240.142 346.82 240.108 347.24 240.068 347.684C240.028 348.128 239.978 348.586 239.918 349.058C239.862 349.53 239.79 350.004 239.702 350.48C239.63 350.888 239.542 351.256 239.438 351.584C239.334 351.912 239.194 352.186 239.018 352.406C238.842 352.622 238.612 352.766 238.328 352.838C238.044 352.914 237.682 352.904 237.242 352.808ZM249.234 352.988C248.586 352.988 248.024 352.842 247.548 352.55C247.072 352.258 246.704 351.856 246.444 351.344C246.188 350.828 246.06 350.234 246.06 349.562C246.06 348.886 246.192 348.292 246.456 347.78C246.72 347.264 247.09 346.864 247.566 346.58C248.042 346.292 248.598 346.148 249.234 346.148C249.882 346.148 250.444 346.294 250.92 346.586C251.396 346.878 251.764 347.28 252.024 347.792C252.284 348.304 252.414 348.894 252.414 349.562C252.414 350.238 252.282 350.834 252.018 351.35C251.758 351.862 251.39 352.264 250.914 352.556C250.438 352.844 249.878 352.988 249.234 352.988ZM249.234 351.806C249.854 351.806 250.316 351.598 250.62 351.182C250.928 350.762 251.082 350.222 251.082 349.562C251.082 348.886 250.926 348.346 250.614 347.942C250.306 347.534 249.846 347.33 249.234 347.33C248.814 347.33 248.468 347.426 248.196 347.618C247.924 347.806 247.722 348.068 247.59 348.404C247.458 348.736 247.392 349.122 247.392 349.562C247.392 350.242 247.548 350.786 247.86 351.194C248.172 351.602 248.63 351.806 249.234 351.806ZM253.732 352.808V346.328H258.292V347.51H254.986V352.808H253.732ZM264.888 346.328V352.808H263.682V348.302L260.442 352.808H259.422V346.328H260.628V350.744L263.874 346.328H264.888ZM266.558 352.808L266.564 346.328H267.836V349.448L270.38 346.328H271.976L269.288 349.568L272.252 352.808H270.548L267.836 349.688V352.808H266.558Z" fill="#767676"/>
<path d="M202.475 13.18C201.611 13.18 200.875 12.992 200.267 12.616C199.659 12.236 199.193 11.708 198.869 11.032C198.549 10.356 198.389 9.572 198.389 8.68C198.389 7.788 198.549 7.004 198.869 6.328C199.193 5.652 199.659 5.126 200.267 4.75C200.875 4.37 201.611 4.18 202.475 4.18C203.471 4.18 204.295 4.432 204.947 4.936C205.603 5.44 206.059 6.118 206.315 6.97L205.043 7.312C204.875 6.708 204.575 6.234 204.143 5.89C203.715 5.546 203.159 5.374 202.475 5.374C201.863 5.374 201.353 5.512 200.945 5.788C200.537 6.064 200.229 6.45 200.021 6.946C199.817 7.442 199.715 8.02 199.715 8.68C199.711 9.34 199.811 9.918 200.015 10.414C200.223 10.91 200.531 11.296 200.939 11.572C201.351 11.848 201.863 11.986 202.475 11.986C203.159 11.986 203.715 11.814 204.143 11.47C204.575 11.122 204.875 10.648 205.043 10.048L206.315 10.39C206.059 11.242 205.603 11.92 204.947 12.424C204.295 12.928 203.471 13.18 202.475 13.18ZM208.511 15.88L209.765 12.466L209.783 13.474L206.957 6.52H208.265L210.377 11.89H209.993L212.009 6.52H213.281L209.705 15.88H208.511ZM217.263 13.18C216.643 13.18 216.123 13.03 215.703 12.73C215.283 12.426 214.965 12.016 214.749 11.5C214.533 10.984 214.425 10.402 214.425 9.754C214.425 9.106 214.531 8.524 214.743 8.008C214.959 7.492 215.275 7.086 215.691 6.79C216.111 6.49 216.627 6.34 217.239 6.34C217.847 6.34 218.371 6.49 218.811 6.79C219.255 7.086 219.597 7.492 219.837 8.008C220.077 8.52 220.197 9.102 220.197 9.754C220.197 10.402 220.077 10.986 219.837 11.506C219.601 12.022 219.263 12.43 218.823 12.73C218.387 13.03 217.867 13.18 217.263 13.18ZM214.215 15.88V6.52H215.331V11.182H215.475V15.88H214.215ZM217.089 12.046C217.489 12.046 217.819 11.944 218.079 11.74C218.343 11.536 218.539 11.262 218.667 10.918C218.799 10.57 218.865 10.182 218.865 9.754C218.865 9.33 218.799 8.946 218.667 8.602C218.539 8.258 218.341 7.984 218.073 7.78C217.805 7.576 217.463 7.474 217.047 7.474C216.655 7.474 216.331 7.57 216.075 7.762C215.823 7.954 215.635 8.222 215.511 8.566C215.391 8.91 215.331 9.306 215.331 9.754C215.331 10.202 215.391 10.598 215.511 10.942C215.631 11.286 215.821 11.556 216.081 11.752C216.341 11.948 216.677 12.046 217.089 12.046ZM223.352 13.18C222.872 13.18 222.47 13.092 222.146 12.916C221.822 12.736 221.576 12.5 221.408 12.208C221.244 11.912 221.162 11.588 221.162 11.236C221.162 10.908 221.22 10.62 221.336 10.372C221.452 10.124 221.624 9.914 221.852 9.742C222.08 9.566 222.36 9.424 222.692 9.316C222.98 9.232 223.306 9.158 223.67 9.094C224.034 9.03 224.416 8.97 224.816 8.914C225.22 8.858 225.62 8.802 226.016 8.746L225.56 8.998C225.568 8.49 225.46 8.114 225.236 7.87C225.016 7.622 224.636 7.498 224.096 7.498C223.756 7.498 223.444 7.578 223.16 7.738C222.876 7.894 222.678 8.154 222.566 8.518L221.396 8.158C221.556 7.602 221.86 7.16 222.308 6.832C222.76 6.504 223.36 6.34 224.108 6.34C224.688 6.34 225.192 6.44 225.62 6.64C226.052 6.836 226.368 7.148 226.568 7.576C226.672 7.788 226.736 8.012 226.76 8.248C226.784 8.484 226.796 8.738 226.796 9.01V13H225.686V11.518L225.902 11.71C225.634 12.206 225.292 12.576 224.876 12.82C224.464 13.06 223.956 13.18 223.352 13.18ZM223.574 12.154C223.93 12.154 224.236 12.092 224.492 11.968C224.748 11.84 224.954 11.678 225.11 11.482C225.266 11.286 225.368 11.082 225.416 10.87C225.484 10.678 225.522 10.462 225.53 10.222C225.542 9.982 225.548 9.79 225.548 9.646L225.956 9.796C225.56 9.856 225.2 9.91 224.876 9.958C224.552 10.006 224.258 10.054 223.994 10.102C223.734 10.146 223.502 10.2 223.298 10.264C223.126 10.324 222.972 10.396 222.836 10.48C222.704 10.564 222.598 10.666 222.518 10.786C222.442 10.906 222.404 11.052 222.404 11.224C222.404 11.392 222.446 11.548 222.53 11.692C222.614 11.832 222.742 11.944 222.914 12.028C223.086 12.112 223.306 12.154 223.574 12.154ZM227.754 13V11.938C227.994 11.982 228.176 11.976 228.3 11.92C228.428 11.86 228.522 11.752 228.582 11.596C228.646 11.44 228.7 11.238 228.744 10.99C228.812 10.626 228.87 10.212 228.918 9.748C228.97 9.28 229.016 8.774 229.056 8.23C229.096 7.686 229.132 7.116 229.164 6.52H233.82V13H232.56V7.702H230.292C230.268 8.018 230.24 8.354 230.208 8.71C230.18 9.062 230.148 9.412 230.112 9.76C230.076 10.108 230.038 10.434 229.998 10.738C229.958 11.042 229.916 11.302 229.872 11.518C229.792 11.95 229.674 12.294 229.518 12.55C229.366 12.802 229.15 12.964 228.87 13.036C228.59 13.112 228.218 13.1 227.754 13ZM240.974 14.278V13H235.496V6.52H236.75V11.818H239.708V6.52H240.962V11.872H242.228V14.278H240.974ZM245.02 13.18C244.54 13.18 244.138 13.092 243.814 12.916C243.49 12.736 243.244 12.5 243.076 12.208C242.912 11.912 242.83 11.588 242.83 11.236C242.83 10.908 242.888 10.62 243.004 10.372C243.12 10.124 243.292 9.914 243.52 9.742C243.748 9.566 244.028 9.424 244.36 9.316C244.648 9.232 244.974 9.158 245.338 9.094C245.702 9.03 246.084 8.97 246.484 8.914C246.888 8.858 247.288 8.802 247.684 8.746L247.228 8.998C247.236 8.49 247.128 8.114 246.904 7.87C246.684 7.622 246.304 7.498 245.764 7.498C245.424 7.498 245.112 7.578 244.828 7.738C244.544 7.894 244.346 8.154 244.234 8.518L243.064 8.158C243.224 7.602 243.528 7.16 243.976 6.832C244.428 6.504 245.028 6.34 245.776 6.34C246.356 6.34 246.86 6.44 247.288 6.64C247.72 6.836 248.036 7.148 248.236 7.576C248.34 7.788 248.404 8.012 248.428 8.248C248.452 8.484 248.464 8.738 248.464 9.01V13H247.354V11.518L247.57 11.71C247.302 12.206 246.96 12.576 246.544 12.82C246.132 13.06 245.624 13.18 245.02 13.18ZM245.242 12.154C245.598 12.154 245.904 12.092 246.16 11.968C246.416 11.84 246.622 11.678 246.778 11.482C246.934 11.286 247.036 11.082 247.084 10.87C247.152 10.678 247.19 10.462 247.198 10.222C247.21 9.982 247.216 9.79 247.216 9.646L247.624 9.796C247.228 9.856 246.868 9.91 246.544 9.958C246.22 10.006 245.926 10.054 245.662 10.102C245.402 10.146 245.17 10.2 244.966 10.264C244.794 10.324 244.64 10.396 244.504 10.48C244.372 10.564 244.266 10.666 244.186 10.786C244.11 10.906 244.072 11.052 244.072 11.224C244.072 11.392 244.114 11.548 244.198 11.692C244.282 11.832 244.41 11.944 244.582 12.028C244.754 12.112 244.974 12.154 245.242 12.154ZM249.302 13L251.726 9.724L249.356 6.52H250.844L252.458 8.746L254.054 6.52H255.542L253.172 9.724L255.602 13H254.108L252.458 10.702L250.796 13H249.302ZM261.345 13.18C260.649 13.18 260.057 13.012 259.569 12.676C259.081 12.336 258.729 11.85 258.513 11.218L259.785 10.918C259.917 11.266 260.109 11.534 260.361 11.722C260.613 11.906 260.939 11.998 261.339 11.998C261.859 11.998 262.265 11.84 262.557 11.524C262.849 11.208 263.029 10.786 263.097 10.258H260.691V9.25H263.097C263.033 8.746 262.859 8.332 262.575 8.008C262.291 7.684 261.889 7.522 261.369 7.522C260.993 7.522 260.663 7.622 260.379 7.822C260.095 8.018 259.889 8.302 259.761 8.674L258.513 8.314C258.673 7.702 259.005 7.22 259.509 6.868C260.013 6.516 260.623 6.34 261.339 6.34C261.987 6.34 262.545 6.486 263.013 6.778C263.481 7.07 263.841 7.474 264.093 7.99C264.345 8.506 264.471 9.098 264.471 9.766C264.471 10.43 264.347 11.02 264.099 11.536C263.851 12.048 263.493 12.45 263.025 12.742C262.557 13.034 261.997 13.18 261.345 13.18ZM268.837 13.18C268.217 13.18 267.697 13.03 267.277 12.73C266.857 12.426 266.539 12.016 266.323 11.5C266.107 10.984 265.999 10.402 265.999 9.754C265.999 9.106 266.105 8.524 266.317 8.008C266.533 7.492 266.849 7.086 267.265 6.79C267.685 6.49 268.201 6.34 268.813 6.34C269.421 6.34 269.945 6.49 270.385 6.79C270.829 7.086 271.171 7.492 271.411 8.008C271.651 8.52 271.771 9.102 271.771 9.754C271.771 10.402 271.651 10.986 271.411 11.506C271.175 12.022 270.837 12.43 270.397 12.73C269.961 13.03 269.441 13.18 268.837 13.18ZM265.789 15.88V6.52H266.905V11.182H267.049V15.88H265.789ZM268.663 12.046C269.063 12.046 269.393 11.944 269.653 11.74C269.917 11.536 270.113 11.262 270.241 10.918C270.373 10.57 270.439 10.182 270.439 9.754C270.439 9.33 270.373 8.946 270.241 8.602C270.113 8.258 269.915 7.984 269.647 7.78C269.379 7.576 269.037 7.474 268.621 7.474C268.229 7.474 267.905 7.57 267.649 7.762C267.397 7.954 267.209 8.222 267.085 8.566C266.965 8.91 266.905 9.306 266.905 9.754C266.905 10.202 266.965 10.598 267.085 10.942C267.205 11.286 267.395 11.556 267.655 11.752C267.915 11.948 268.251 12.046 268.663 12.046ZM273.09 13V6.52H274.14L276.534 11.272L278.922 6.52H279.978V13H278.766V9.088L276.816 13H276.246L274.296 9.088V13H273.09ZM284.044 13.18C283.348 13.18 282.756 13.012 282.268 12.676C281.78 12.336 281.428 11.85 281.212 11.218L282.484 10.918C282.616 11.266 282.808 11.534 283.06 11.722C283.312 11.906 283.638 11.998 284.038 11.998C284.558 11.998 284.964 11.84 285.256 11.524C285.548 11.208 285.728 10.786 285.796 10.258H283.39V9.25H285.796C285.732 8.746 285.558 8.332 285.274 8.008C284.99 7.684 284.588 7.522 284.068 7.522C283.692 7.522 283.362 7.622 283.078 7.822C282.794 8.018 282.588 8.302 282.46 8.674L281.212 8.314C281.372 7.702 281.704 7.22 282.208 6.868C282.712 6.516 283.322 6.34 284.038 6.34C284.686 6.34 285.244 6.486 285.712 6.778C286.18 7.07 286.54 7.474 286.792 7.99C287.044 8.506 287.17 9.098 287.17 9.766C287.17 10.43 287.046 11.02 286.798 11.536C286.55 12.048 286.192 12.45 285.724 12.742C285.256 13.034 284.696 13.18 284.044 13.18ZM287.894 13V11.938C288.134 11.982 288.316 11.976 288.44 11.92C288.568 11.86 288.662 11.752 288.722 11.596C288.786 11.44 288.84 11.238 288.884 10.99C288.952 10.626 289.01 10.212 289.058 9.748C289.11 9.28 289.156 8.774 289.196 8.23C289.236 7.686 289.272 7.116 289.304 6.52H293.96V13H292.7V7.702H290.432C290.408 8.018 290.38 8.354 290.348 8.71C290.32 9.062 290.288 9.412 290.252 9.76C290.216 10.108 290.178 10.434 290.138 10.738C290.098 11.042 290.056 11.302 290.012 11.518C289.932 11.95 289.814 12.294 289.658 12.55C289.506 12.802 289.29 12.964 289.01 13.036C288.73 13.112 288.358 13.1 287.894 13ZM297.953 13.18C297.325 13.18 296.761 13.046 296.261 12.778C295.765 12.51 295.373 12.14 295.085 11.668L296.081 11.014C296.313 11.326 296.581 11.568 296.885 11.74C297.193 11.912 297.539 11.998 297.923 11.998C298.323 11.998 298.639 11.908 298.871 11.728C299.107 11.544 299.225 11.298 299.225 10.99C299.225 10.746 299.157 10.566 299.021 10.45C298.889 10.33 298.705 10.252 298.469 10.216C298.237 10.18 297.973 10.162 297.677 10.162H297.101V9.154H297.677C298.069 9.154 298.391 9.1 298.643 8.992C298.899 8.88 299.027 8.67 299.027 8.362C299.027 8.062 298.917 7.846 298.697 7.714C298.481 7.582 298.223 7.516 297.923 7.516C297.587 7.516 297.261 7.588 296.945 7.732C296.629 7.872 296.353 8.046 296.117 8.254L295.385 7.396C295.729 7.064 296.121 6.806 296.561 6.622C297.005 6.434 297.481 6.34 297.989 6.34C298.405 6.34 298.789 6.414 299.141 6.562C299.497 6.706 299.781 6.92 299.993 7.204C300.209 7.488 300.317 7.838 300.317 8.254C300.317 8.578 300.245 8.874 300.101 9.142C299.957 9.41 299.737 9.654 299.441 9.874L299.405 9.448C299.649 9.524 299.853 9.646 300.017 9.814C300.181 9.982 300.303 10.18 300.383 10.408C300.467 10.632 300.509 10.87 300.509 11.122C300.509 11.558 300.393 11.93 300.161 12.238C299.933 12.546 299.625 12.78 299.237 12.94C298.849 13.1 298.421 13.18 297.953 13.18ZM304.212 13.18C303.516 13.18 302.924 13.012 302.436 12.676C301.948 12.336 301.596 11.85 301.38 11.218L302.652 10.918C302.784 11.266 302.976 11.534 303.228 11.722C303.48 11.906 303.806 11.998 304.206 11.998C304.726 11.998 305.132 11.84 305.424 11.524C305.716 11.208 305.896 10.786 305.964 10.258H303.558V9.25H305.964C305.9 8.746 305.726 8.332 305.442 8.008C305.158 7.684 304.756 7.522 304.236 7.522C303.86 7.522 303.53 7.622 303.246 7.822C302.962 8.018 302.756 8.302 302.628 8.674L301.38 8.314C301.54 7.702 301.872 7.22 302.376 6.868C302.88 6.516 303.49 6.34 304.206 6.34C304.854 6.34 305.412 6.486 305.88 6.778C306.348 7.07 306.708 7.474 306.96 7.99C307.212 8.506 307.338 9.098 307.338 9.766C307.338 10.43 307.214 11.02 306.966 11.536C306.718 12.048 306.36 12.45 305.892 12.742C305.424 13.034 304.864 13.18 304.212 13.18ZM308.062 13V11.938C308.302 11.982 308.484 11.976 308.608 11.92C308.736 11.86 308.83 11.752 308.89 11.596C308.954 11.44 309.008 11.238 309.052 10.99C309.12 10.626 309.178 10.212 309.226 9.748C309.278 9.28 309.324 8.774 309.364 8.23C309.404 7.686 309.44 7.116 309.472 6.52H314.128V13H312.868V7.702H310.6C310.576 8.018 310.548 8.354 310.516 8.71C310.488 9.062 310.456 9.412 310.42 9.76C310.384 10.108 310.346 10.434 310.306 10.738C310.266 11.042 310.224 11.302 310.18 11.518C310.1 11.95 309.982 12.294 309.826 12.55C309.674 12.802 309.458 12.964 309.178 13.036C308.898 13.112 308.526 13.1 308.062 13Z" fill="#767676"/>
<path d="M63.0799 314V306.542H60.2059V305.36H67.2079V306.542H64.3339V314H63.0799ZM68.2004 316.88L69.4544 313.466L69.4724 314.474L66.6464 307.52H67.9544L70.0664 312.89H69.6824L71.6984 307.52H72.9704L69.3944 316.88H68.2004ZM74.7863 316.88L76.0403 313.466L76.0583 314.474L73.2323 307.52H74.5403L76.6523 312.89H76.2683L78.2843 307.52H79.5563L75.9803 316.88H74.7863ZM80.4903 314V307.52H81.6963V312.872H83.7303V307.52H84.9363V312.872H86.9643V307.52H88.1703V314H80.4903ZM91.5218 314V308.648H89.3078V307.52H94.9898V308.648H92.7758V314H91.5218ZM97.7716 314.18C97.2916 314.18 96.8896 314.092 96.5656 313.916C96.2416 313.736 95.9956 313.5 95.8276 313.208C95.6636 312.912 95.5816 312.588 95.5816 312.236C95.5816 311.908 95.6396 311.62 95.7556 311.372C95.8716 311.124 96.0436 310.914 96.2716 310.742C96.4996 310.566 96.7796 310.424 97.1116 310.316C97.3996 310.232 97.7256 310.158 98.0896 310.094C98.4536 310.03 98.8356 309.97 99.2356 309.914C99.6396 309.858 100.04 309.802 100.436 309.746L99.9796 309.998C99.9876 309.49 99.8796 309.114 99.6556 308.87C99.4356 308.622 99.0556 308.498 98.5156 308.498C98.1756 308.498 97.8636 308.578 97.5796 308.738C97.2956 308.894 97.0976 309.154 96.9856 309.518L95.8156 309.158C95.9756 308.602 96.2796 308.16 96.7276 307.832C97.1796 307.504 97.7796 307.34 98.5276 307.34C99.1076 307.34 99.6116 307.44 100.04 307.64C100.472 307.836 100.788 308.148 100.988 308.576C101.092 308.788 101.156 309.012 101.18 309.248C101.204 309.484 101.216 309.738 101.216 310.01V314H100.106V312.518L100.322 312.71C100.054 313.206 99.7116 313.576 99.2956 313.82C98.8836 314.06 98.3756 314.18 97.7716 314.18ZM97.9936 313.154C98.3496 313.154 98.6556 313.092 98.9116 312.968C99.1676 312.84 99.3736 312.678 99.5296 312.482C99.6856 312.286 99.7876 312.082 99.8356 311.87C99.9036 311.678 99.9416 311.462 99.9496 311.222C99.9616 310.982 99.9676 310.79 99.9676 310.646L100.376 310.796C99.9796 310.856 99.6196 310.91 99.2956 310.958C98.9716 311.006 98.6776 311.054 98.4136 311.102C98.1536 311.146 97.9216 311.2 97.7176 311.264C97.5456 311.324 97.3916 311.396 97.2556 311.48C97.1236 311.564 97.0176 311.666 96.9376 311.786C96.8616 311.906 96.8236 312.052 96.8236 312.224C96.8236 312.392 96.8656 312.548 96.9496 312.692C97.0336 312.832 97.1616 312.944 97.3336 313.028C97.5056 313.112 97.7256 313.154 97.9936 313.154ZM105.666 306.776C105.35 306.776 105.06 306.698 104.796 306.542C104.536 306.386 104.328 306.178 104.172 305.918C104.016 305.658 103.938 305.368 103.938 305.048H104.934C104.934 305.248 105.006 305.42 105.15 305.564C105.294 305.708 105.466 305.78 105.666 305.78C105.87 305.78 106.042 305.708 106.182 305.564C106.326 305.42 106.398 305.248 106.398 305.048H107.394C107.394 305.368 107.316 305.658 107.16 305.918C107.004 306.178 106.794 306.386 106.53 306.542C106.27 306.698 105.982 306.776 105.666 306.776ZM108.234 307.52V314H107.028V309.494L103.788 314H102.768V307.52H103.974V311.936L107.22 307.52H108.234ZM114.977 314.186C114.361 314.182 113.837 314.048 113.405 313.784C112.973 313.52 112.635 313.14 112.391 312.644C112.151 312.144 112.011 311.542 111.971 310.838C111.951 310.498 111.953 310.122 111.977 309.71C112.001 309.294 112.045 308.892 112.109 308.504C112.177 308.116 112.263 307.792 112.367 307.532C112.483 307.244 112.641 306.98 112.841 306.74C113.041 306.496 113.261 306.292 113.501 306.128C113.757 305.952 114.041 305.816 114.353 305.72C114.665 305.62 114.991 305.542 115.331 305.486C115.675 305.43 116.021 305.382 116.369 305.342C116.721 305.298 117.063 305.244 117.395 305.18L117.515 306.302C117.295 306.354 117.035 306.396 116.735 306.428C116.439 306.46 116.131 306.496 115.811 306.536C115.495 306.576 115.193 306.632 114.905 306.704C114.617 306.776 114.367 306.878 114.155 307.01C113.855 307.194 113.625 307.462 113.465 307.814C113.309 308.166 113.215 308.548 113.183 308.96C113.431 308.584 113.747 308.314 114.131 308.15C114.515 307.982 114.913 307.898 115.325 307.898C115.901 307.898 116.397 308.034 116.813 308.306C117.233 308.578 117.555 308.948 117.779 309.416C118.003 309.884 118.115 310.414 118.115 311.006C118.115 311.646 117.983 312.206 117.719 312.686C117.459 313.162 117.093 313.534 116.621 313.802C116.149 314.066 115.601 314.194 114.977 314.186ZM115.043 313.004C115.619 313.004 116.053 312.826 116.345 312.47C116.641 312.114 116.789 311.64 116.789 311.048C116.789 310.44 116.637 309.962 116.333 309.614C116.029 309.266 115.599 309.092 115.043 309.092C114.479 309.092 114.047 309.266 113.747 309.614C113.451 309.962 113.303 310.44 113.303 311.048C113.303 311.664 113.453 312.144 113.753 312.488C114.053 312.832 114.483 313.004 115.043 313.004ZM121.268 314.18C120.788 314.18 120.386 314.092 120.062 313.916C119.738 313.736 119.492 313.5 119.324 313.208C119.16 312.912 119.078 312.588 119.078 312.236C119.078 311.908 119.136 311.62 119.252 311.372C119.368 311.124 119.54 310.914 119.768 310.742C119.996 310.566 120.276 310.424 120.608 310.316C120.896 310.232 121.222 310.158 121.586 310.094C121.95 310.03 122.332 309.97 122.732 309.914C123.136 309.858 123.536 309.802 123.932 309.746L123.476 309.998C123.484 309.49 123.376 309.114 123.152 308.87C122.932 308.622 122.552 308.498 122.012 308.498C121.672 308.498 121.36 308.578 121.076 308.738C120.792 308.894 120.594 309.154 120.482 309.518L119.312 309.158C119.472 308.602 119.776 308.16 120.224 307.832C120.676 307.504 121.276 307.34 122.024 307.34C122.604 307.34 123.108 307.44 123.536 307.64C123.968 307.836 124.284 308.148 124.484 308.576C124.588 308.788 124.652 309.012 124.676 309.248C124.7 309.484 124.712 309.738 124.712 310.01V314H123.602V312.518L123.818 312.71C123.55 313.206 123.208 313.576 122.792 313.82C122.38 314.06 121.872 314.18 121.268 314.18ZM121.49 313.154C121.846 313.154 122.152 313.092 122.408 312.968C122.664 312.84 122.87 312.678 123.026 312.482C123.182 312.286 123.284 312.082 123.332 311.87C123.4 311.678 123.438 311.462 123.446 311.222C123.458 310.982 123.464 310.79 123.464 310.646L123.872 310.796C123.476 310.856 123.116 310.91 122.792 310.958C122.468 311.006 122.174 311.054 121.91 311.102C121.65 311.146 121.418 311.2 121.214 311.264C121.042 311.324 120.888 311.396 120.752 311.48C120.62 311.564 120.514 311.666 120.434 311.786C120.358 311.906 120.32 312.052 120.32 312.224C120.32 312.392 120.362 312.548 120.446 312.692C120.53 312.832 120.658 312.944 120.83 313.028C121.002 313.112 121.222 313.154 121.49 313.154ZM129.162 306.776C128.846 306.776 128.556 306.698 128.292 306.542C128.032 306.386 127.824 306.178 127.668 305.918C127.512 305.658 127.434 305.368 127.434 305.048H128.43C128.43 305.248 128.502 305.42 128.646 305.564C128.79 305.708 128.962 305.78 129.162 305.78C129.366 305.78 129.538 305.708 129.678 305.564C129.822 305.42 129.894 305.248 129.894 305.048H130.89C130.89 305.368 130.812 305.658 130.656 305.918C130.5 306.178 130.29 306.386 130.026 306.542C129.766 306.698 129.478 306.776 129.162 306.776ZM131.73 307.52V314H130.524V309.494L127.284 314H126.264V307.52H127.47V311.936L130.716 307.52H131.73ZM132.926 315.44V312.992C133.282 312.992 133.536 312.874 133.688 312.638C133.844 312.398 133.968 311.992 134.06 311.42C134.116 311.072 134.162 310.702 134.198 310.31C134.238 309.918 134.272 309.494 134.3 309.038C134.328 308.578 134.356 308.072 134.384 307.52H139.028V312.992H139.664V315.44H138.476V314H134.12V315.44H132.926ZM134.72 312.992H137.768V308.528H135.5C135.484 308.792 135.466 309.064 135.446 309.344C135.43 309.624 135.41 309.902 135.386 310.178C135.366 310.454 135.342 310.718 135.314 310.97C135.286 311.222 135.254 311.45 135.218 311.654C135.17 311.97 135.112 312.234 135.044 312.446C134.98 312.658 134.872 312.84 134.72 312.992ZM142.69 314.18C142.21 314.18 141.808 314.092 141.484 313.916C141.16 313.736 140.914 313.5 140.746 313.208C140.582 312.912 140.5 312.588 140.5 312.236C140.5 311.908 140.558 311.62 140.674 311.372C140.79 311.124 140.962 310.914 141.19 310.742C141.418 310.566 141.698 310.424 142.03 310.316C142.318 310.232 142.644 310.158 143.008 310.094C143.372 310.03 143.754 309.97 144.154 309.914C144.558 309.858 144.958 309.802 145.354 309.746L144.898 309.998C144.906 309.49 144.798 309.114 144.574 308.87C144.354 308.622 143.974 308.498 143.434 308.498C143.094 308.498 142.782 308.578 142.498 308.738C142.214 308.894 142.016 309.154 141.904 309.518L140.734 309.158C140.894 308.602 141.198 308.16 141.646 307.832C142.098 307.504 142.698 307.34 143.446 307.34C144.026 307.34 144.53 307.44 144.958 307.64C145.39 307.836 145.706 308.148 145.906 308.576C146.01 308.788 146.074 309.012 146.098 309.248C146.122 309.484 146.134 309.738 146.134 310.01V314H145.024V312.518L145.24 312.71C144.972 313.206 144.63 313.576 144.214 313.82C143.802 314.06 143.294 314.18 142.69 314.18ZM142.912 313.154C143.268 313.154 143.574 313.092 143.83 312.968C144.086 312.84 144.292 312.678 144.448 312.482C144.604 312.286 144.706 312.082 144.754 311.87C144.822 311.678 144.86 311.462 144.868 311.222C144.88 310.982 144.886 310.79 144.886 310.646L145.294 310.796C144.898 310.856 144.538 310.91 144.214 310.958C143.89 311.006 143.596 311.054 143.332 311.102C143.072 311.146 142.84 311.2 142.636 311.264C142.464 311.324 142.31 311.396 142.174 311.48C142.042 311.564 141.936 311.666 141.856 311.786C141.78 311.906 141.742 312.052 141.742 312.224C141.742 312.392 141.784 312.548 141.868 312.692C141.952 312.832 142.08 312.944 142.252 313.028C142.424 313.112 142.644 313.154 142.912 313.154ZM147.092 314V312.938C147.332 312.982 147.514 312.976 147.638 312.92C147.766 312.86 147.86 312.752 147.92 312.596C147.984 312.44 148.038 312.238 148.082 311.99C148.15 311.626 148.208 311.212 148.256 310.748C148.308 310.28 148.354 309.774 148.394 309.23C148.434 308.686 148.47 308.116 148.502 307.52H153.158V314H151.898V308.702H149.63C149.606 309.018 149.578 309.354 149.546 309.71C149.518 310.062 149.486 310.412 149.45 310.76C149.414 311.108 149.376 311.434 149.336 311.738C149.296 312.042 149.254 312.302 149.21 312.518C149.13 312.95 149.012 313.294 148.856 313.55C148.704 313.802 148.488 313.964 148.208 314.036C147.928 314.112 147.556 314.1 147.092 314Z" fill="#767676"/>
<path d="M88.8442 55.9961V47.3561H91.5502C91.6302 47.3561 91.7782 47.3581 91.9942 47.3621C92.2142 47.3661 92.4242 47.3821 92.6242 47.4101C93.3002 47.4941 93.8682 47.7361 94.3282 48.1361C94.7922 48.5361 95.1422 49.0441 95.3782 49.6601C95.6142 50.2721 95.7322 50.9441 95.7322 51.6761C95.7322 52.4121 95.6142 53.0881 95.3782 53.7041C95.1422 54.3161 94.7922 54.8221 94.3282 55.2221C93.8682 55.6181 93.3002 55.8581 92.6242 55.9421C92.4242 55.9701 92.2142 55.9861 91.9942 55.9901C91.7782 55.9941 91.6302 55.9961 91.5502 55.9961H88.8442ZM90.1282 54.8021H91.5502C91.6862 54.8021 91.8482 54.7981 92.0362 54.7901C92.2242 54.7821 92.3902 54.7661 92.5342 54.7421C92.9742 54.6581 93.3302 54.4681 93.6022 54.1721C93.8782 53.8721 94.0802 53.5041 94.2082 53.0681C94.3362 52.6321 94.4002 52.1681 94.4002 51.6761C94.4002 51.1681 94.3342 50.6981 94.2022 50.2661C94.0702 49.8301 93.8662 49.4661 93.5902 49.1741C93.3182 48.8781 92.9662 48.6901 92.5342 48.6101C92.3902 48.5821 92.2222 48.5661 92.0302 48.5621C91.8422 48.5541 91.6822 48.5501 91.5502 48.5501H90.1282V54.8021ZM98.9593 56.1761C98.4793 56.1761 98.0773 56.0881 97.7533 55.9121C97.4293 55.7321 97.1833 55.4961 97.0153 55.2041C96.8513 54.9081 96.7693 54.5841 96.7693 54.2321C96.7693 53.9041 96.8273 53.6161 96.9433 53.3681C97.0593 53.1201 97.2313 52.9101 97.4593 52.7381C97.6873 52.5621 97.9673 52.4201 98.2993 52.3121C98.5873 52.2281 98.9133 52.1541 99.2773 52.0901C99.6413 52.0261 100.023 51.9661 100.423 51.9101C100.827 51.8541 101.227 51.7981 101.623 51.7421L101.167 51.9941C101.175 51.4861 101.067 51.1101 100.843 50.8661C100.623 50.6181 100.243 50.4941 99.7033 50.4941C99.3633 50.4941 99.0513 50.5741 98.7673 50.7341C98.4833 50.8901 98.2853 51.1501 98.1733 51.5141L97.0033 51.1541C97.1633 50.5981 97.4673 50.1561 97.9153 49.8281C98.3673 49.5001 98.9673 49.3361 99.7153 49.3361C100.295 49.3361 100.799 49.4361 101.227 49.6361C101.659 49.8321 101.975 50.1441 102.175 50.5721C102.279 50.7841 102.343 51.0081 102.367 51.2441C102.391 51.4801 102.403 51.7341 102.403 52.0061V55.9961H101.293V54.5141L101.509 54.7061C101.241 55.2021 100.899 55.5721 100.483 55.8161C100.071 56.0561 99.5633 56.1761 98.9593 56.1761ZM99.1813 55.1501C99.5373 55.1501 99.8433 55.0881 100.099 54.9641C100.355 54.8361 100.561 54.6741 100.717 54.4781C100.873 54.2821 100.975 54.0781 101.023 53.8661C101.091 53.6741 101.129 53.4581 101.137 53.2181C101.149 52.9781 101.155 52.7861 101.155 52.6421L101.563 52.7921C101.167 52.8521 100.807 52.9061 100.483 52.9541C100.159 53.0021 99.8653 53.0501 99.6013 53.0981C99.3413 53.1421 99.1093 53.1961 98.9053 53.2601C98.7333 53.3201 98.5793 53.3921 98.4433 53.4761C98.3113 53.5601 98.2053 53.6621 98.1253 53.7821C98.0493 53.9021 98.0113 54.0481 98.0113 54.2201C98.0113 54.3881 98.0533 54.5441 98.1373 54.6881C98.2213 54.8281 98.3493 54.9401 98.5213 55.0241C98.6933 55.1081 98.9133 55.1501 99.1813 55.1501ZM107.669 55.9961C107.261 56.0761 106.861 56.1101 106.469 56.0981C106.077 56.0861 105.727 56.0101 105.419 55.8701C105.111 55.7301 104.879 55.5101 104.723 55.2101C104.583 54.9421 104.507 54.6701 104.495 54.3941C104.487 54.1141 104.483 53.7981 104.483 53.4461V47.7161H105.743V53.3861C105.743 53.6461 105.745 53.8721 105.749 54.0641C105.757 54.2561 105.799 54.4181 105.875 54.5501C106.019 54.7981 106.247 54.9401 106.559 54.9761C106.875 55.0081 107.245 54.9941 107.669 54.9341V55.9961ZM103.241 50.5241V49.5161H107.669V50.5241H103.241ZM110.866 56.1761C110.386 56.1761 109.984 56.0881 109.66 55.9121C109.336 55.7321 109.09 55.4961 108.922 55.2041C108.758 54.9081 108.676 54.5841 108.676 54.2321C108.676 53.9041 108.734 53.6161 108.85 53.3681C108.966 53.1201 109.138 52.9101 109.366 52.7381C109.594 52.5621 109.874 52.4201 110.206 52.3121C110.494 52.2281 110.82 52.1541 111.184 52.0901C111.548 52.0261 111.93 51.9661 112.33 51.9101C112.734 51.8541 113.134 51.7981 113.53 51.7421L113.074 51.9941C113.082 51.4861 112.974 51.1101 112.75 50.8661C112.53 50.6181 112.15 50.4941 111.61 50.4941C111.27 50.4941 110.958 50.5741 110.674 50.7341C110.39 50.8901 110.192 51.1501 110.08 51.5141L108.91 51.1541C109.07 50.5981 109.374 50.1561 109.822 49.8281C110.274 49.5001 110.874 49.3361 111.622 49.3361C112.202 49.3361 112.706 49.4361 113.134 49.6361C113.566 49.8321 113.882 50.1441 114.082 50.5721C114.186 50.7841 114.25 51.0081 114.274 51.2441C114.298 51.4801 114.31 51.7341 114.31 52.0061V55.9961H113.2V54.5141L113.416 54.7061C113.148 55.2021 112.806 55.5721 112.39 55.8161C111.978 56.0561 111.47 56.1761 110.866 56.1761ZM111.088 55.1501C111.444 55.1501 111.75 55.0881 112.006 54.9641C112.262 54.8361 112.468 54.6741 112.624 54.4781C112.78 54.2821 112.882 54.0781 112.93 53.8661C112.998 53.6741 113.036 53.4581 113.044 53.2181C113.056 52.9781 113.062 52.7861 113.062 52.6421L113.47 52.7921C113.074 52.8521 112.714 52.9061 112.39 52.9541C112.066 53.0021 111.772 53.0501 111.508 53.0981C111.248 53.1421 111.016 53.1961 110.812 53.2601C110.64 53.3201 110.486 53.3921 110.35 53.4761C110.218 53.5601 110.112 53.6621 110.032 53.7821C109.956 53.9021 109.918 54.0481 109.918 54.2201C109.918 54.3881 109.96 54.5441 110.044 54.6881C110.128 54.8281 110.256 54.9401 110.428 55.0241C110.6 55.1081 110.82 55.1501 111.088 55.1501ZM121.042 56.1761C120.378 56.1761 119.814 56.0281 119.35 55.7321C118.886 55.4361 118.53 55.0301 118.282 54.5141C118.038 53.9981 117.914 53.4121 117.91 52.7561C117.914 52.0881 118.042 51.4981 118.294 50.9861C118.546 50.4701 118.906 50.0661 119.374 49.7741C119.842 49.4821 120.404 49.3361 121.06 49.3361C121.768 49.3361 122.372 49.5121 122.872 49.8641C123.376 50.2161 123.708 50.6981 123.868 51.3101L122.62 51.6701C122.496 51.3061 122.292 51.0241 122.008 50.8241C121.728 50.6201 121.406 50.5181 121.042 50.5181C120.63 50.5181 120.292 50.6161 120.028 50.8121C119.764 51.0041 119.568 51.2681 119.44 51.6041C119.312 51.9401 119.246 52.3241 119.242 52.7561C119.246 53.4241 119.398 53.9641 119.698 54.3761C120.002 54.7881 120.45 54.9941 121.042 54.9941C121.446 54.9941 121.772 54.9021 122.02 54.7181C122.272 54.5301 122.464 54.2621 122.596 53.9141L123.868 54.2141C123.656 54.8461 123.306 55.3321 122.818 55.6721C122.33 56.0081 121.738 56.1761 121.042 56.1761ZM125.732 58.8761L126.986 55.4621L127.004 56.4701L124.178 49.5161H125.486L127.598 54.8861H127.214L129.23 49.5161H130.502L126.926 58.8761H125.732ZM132.318 58.8761L133.572 55.4621L133.59 56.4701L130.764 49.5161H132.072L134.184 54.8861H133.8L135.816 49.5161H137.088L133.512 58.8761H132.318ZM141.07 56.1761C140.45 56.1761 139.93 56.0261 139.51 55.7261C139.09 55.4221 138.772 55.0121 138.556 54.4961C138.34 53.9801 138.232 53.3981 138.232 52.7501C138.232 52.1021 138.338 51.5201 138.55 51.0041C138.766 50.4881 139.082 50.0821 139.498 49.7861C139.918 49.4861 140.434 49.3361 141.046 49.3361C141.654 49.3361 142.178 49.4861 142.618 49.7861C143.062 50.0821 143.404 50.4881 143.644 51.0041C143.884 51.5161 144.004 52.0981 144.004 52.7501C144.004 53.3981 143.884 53.9821 143.644 54.5021C143.408 55.0181 143.07 55.4261 142.63 55.7261C142.194 56.0261 141.674 56.1761 141.07 56.1761ZM138.022 58.8761V49.5161H139.138V54.1781H139.282V58.8761H138.022ZM140.896 55.0421C141.296 55.0421 141.626 54.9401 141.886 54.7361C142.15 54.5321 142.346 54.2581 142.474 53.9141C142.606 53.5661 142.672 53.1781 142.672 52.7501C142.672 52.3261 142.606 51.9421 142.474 51.5981C142.346 51.2541 142.148 50.9801 141.88 50.7761C141.612 50.5721 141.27 50.4701 140.854 50.4701C140.462 50.4701 140.138 50.5661 139.882 50.7581C139.63 50.9501 139.442 51.2181 139.318 51.5621C139.198 51.9061 139.138 52.3021 139.138 52.7501C139.138 53.1981 139.198 53.5941 139.318 53.9381C139.438 54.2821 139.628 54.5521 139.888 54.7481C140.148 54.9441 140.484 55.0421 140.896 55.0421ZM145.323 55.9961V49.5161H146.583V51.7661H147.861C148.045 51.7661 148.241 51.7701 148.449 51.7781C148.661 51.7861 148.843 51.8061 148.995 51.8381C149.343 51.9101 149.643 52.0301 149.895 52.1981C150.151 52.3661 150.349 52.5901 150.489 52.8701C150.629 53.1461 150.699 53.4861 150.699 53.8901C150.699 54.4541 150.551 54.9041 150.255 55.2401C149.963 55.5721 149.567 55.7961 149.067 55.9121C148.907 55.9481 148.717 55.9721 148.497 55.9841C148.281 55.9921 148.083 55.9961 147.903 55.9961H145.323ZM146.583 54.9881H147.975C148.075 54.9881 148.189 54.9841 148.317 54.9761C148.445 54.9681 148.563 54.9501 148.671 54.9221C148.863 54.8661 149.035 54.7521 149.187 54.5801C149.339 54.4081 149.415 54.1781 149.415 53.8901C149.415 53.5941 149.339 53.3581 149.187 53.1821C149.039 53.0061 148.851 52.8921 148.623 52.8401C148.515 52.8121 148.405 52.7941 148.293 52.7861C148.181 52.7781 148.075 52.7741 147.975 52.7741H146.583V54.9881Z" fill="#767676"/>
<path d="M16.5332 184.876V183.598H9.88515V174.958H11.1392V182.47H15.5912V175.12H16.8452V182.47H17.7872V184.876H16.5332ZM20.5745 183.778C20.0945 183.778 19.6925 183.69 19.3685 183.514C19.0445 183.334 18.7985 183.098 18.6305 182.806C18.4665 182.51 18.3845 182.186 18.3845 181.834C18.3845 181.506 18.4425 181.218 18.5585 180.97C18.6745 180.722 18.8465 180.512 19.0745 180.34C19.3025 180.164 19.5825 180.022 19.9145 179.914C20.2025 179.83 20.5285 179.756 20.8925 179.692C21.2565 179.628 21.6385 179.568 22.0385 179.512C22.4425 179.456 22.8425 179.4 23.2385 179.344L22.7825 179.596C22.7905 179.088 22.6825 178.712 22.4585 178.468C22.2385 178.22 21.8585 178.096 21.3185 178.096C20.9785 178.096 20.6665 178.176 20.3825 178.336C20.0985 178.492 19.9005 178.752 19.7885 179.116L18.6185 178.756C18.7785 178.2 19.0825 177.758 19.5305 177.43C19.9825 177.102 20.5825 176.938 21.3305 176.938C21.9105 176.938 22.4145 177.038 22.8425 177.238C23.2745 177.434 23.5905 177.746 23.7905 178.174C23.8945 178.386 23.9585 178.61 23.9825 178.846C24.0065 179.082 24.0185 179.336 24.0185 179.608V183.598H22.9085V182.116L23.1245 182.308C22.8565 182.804 22.5145 183.174 22.0985 183.418C21.6865 183.658 21.1785 183.778 20.5745 183.778ZM20.7965 182.752C21.1525 182.752 21.4585 182.69 21.7145 182.566C21.9705 182.438 22.1765 182.276 22.3325 182.08C22.4885 181.884 22.5905 181.68 22.6385 181.468C22.7065 181.276 22.7445 181.06 22.7525 180.82C22.7645 180.58 22.7705 180.388 22.7705 180.244L23.1785 180.394C22.7825 180.454 22.4225 180.508 22.0985 180.556C21.7745 180.604 21.4805 180.652 21.2165 180.7C20.9565 180.744 20.7245 180.798 20.5205 180.862C20.3485 180.922 20.1945 180.994 20.0585 181.078C19.9265 181.162 19.8205 181.264 19.7405 181.384C19.6645 181.504 19.6265 181.65 19.6265 181.822C19.6265 181.99 19.6685 182.146 19.7525 182.29C19.8365 182.43 19.9645 182.542 20.1365 182.626C20.3085 182.71 20.5285 182.752 20.7965 182.752ZM25.5766 183.598V177.118H30.1366V178.3H26.8306V183.598H25.5766ZM36.3382 183.784C35.7222 183.78 35.1982 183.646 34.7662 183.382C34.3342 183.118 33.9962 182.738 33.7522 182.242C33.5122 181.742 33.3722 181.14 33.3322 180.436C33.3122 180.096 33.3142 179.72 33.3382 179.308C33.3622 178.892 33.4062 178.49 33.4702 178.102C33.5382 177.714 33.6242 177.39 33.7282 177.13C33.8442 176.842 34.0022 176.578 34.2022 176.338C34.4022 176.094 34.6222 175.89 34.8622 175.726C35.1182 175.55 35.4022 175.414 35.7142 175.318C36.0262 175.218 36.3522 175.14 36.6922 175.084C37.0362 175.028 37.3822 174.98 37.7302 174.94C38.0822 174.896 38.4242 174.842 38.7562 174.778L38.8762 175.9C38.6562 175.952 38.3962 175.994 38.0962 176.026C37.8002 176.058 37.4922 176.094 37.1722 176.134C36.8562 176.174 36.5542 176.23 36.2662 176.302C35.9782 176.374 35.7282 176.476 35.5162 176.608C35.2162 176.792 34.9862 177.06 34.8262 177.412C34.6702 177.764 34.5762 178.146 34.5442 178.558C34.7922 178.182 35.1082 177.912 35.4922 177.748C35.8762 177.58 36.2742 177.496 36.6862 177.496C37.2622 177.496 37.7582 177.632 38.1742 177.904C38.5942 178.176 38.9162 178.546 39.1402 179.014C39.3642 179.482 39.4762 180.012 39.4762 180.604C39.4762 181.244 39.3442 181.804 39.0802 182.284C38.8202 182.76 38.4542 183.132 37.9822 183.4C37.5102 183.664 36.9622 183.792 36.3382 183.784ZM36.4042 182.602C36.9802 182.602 37.4142 182.424 37.7062 182.068C38.0022 181.712 38.1502 181.238 38.1502 180.646C38.1502 180.038 37.9982 179.56 37.6942 179.212C37.3902 178.864 36.9602 178.69 36.4042 178.69C35.8402 178.69 35.4082 178.864 35.1082 179.212C34.8122 179.56 34.6642 180.038 34.6642 180.646C34.6642 181.262 34.8142 181.742 35.1142 182.086C35.4142 182.43 35.8442 182.602 36.4042 182.602ZM42.6292 183.778C42.1492 183.778 41.7472 183.69 41.4232 183.514C41.0992 183.334 40.8532 183.098 40.6852 182.806C40.5212 182.51 40.4392 182.186 40.4392 181.834C40.4392 181.506 40.4972 181.218 40.6132 180.97C40.7292 180.722 40.9012 180.512 41.1292 180.34C41.3572 180.164 41.6372 180.022 41.9692 179.914C42.2572 179.83 42.5832 179.756 42.9472 179.692C43.3112 179.628 43.6932 179.568 44.0932 179.512C44.4972 179.456 44.8972 179.4 45.2932 179.344L44.8372 179.596C44.8452 179.088 44.7372 178.712 44.5132 178.468C44.2932 178.22 43.9132 178.096 43.3732 178.096C43.0332 178.096 42.7212 178.176 42.4372 178.336C42.1532 178.492 41.9552 178.752 41.8432 179.116L40.6732 178.756C40.8332 178.2 41.1372 177.758 41.5852 177.43C42.0372 177.102 42.6372 176.938 43.3852 176.938C43.9652 176.938 44.4692 177.038 44.8972 177.238C45.3292 177.434 45.6452 177.746 45.8452 178.174C45.9492 178.386 46.0132 178.61 46.0372 178.846C46.0612 179.082 46.0732 179.336 46.0732 179.608V183.598H44.9632V182.116L45.1792 182.308C44.9112 182.804 44.5692 183.174 44.1532 183.418C43.7412 183.658 43.2332 183.778 42.6292 183.778ZM42.8512 182.752C43.2072 182.752 43.5132 182.69 43.7692 182.566C44.0252 182.438 44.2312 182.276 44.3872 182.08C44.5432 181.884 44.6452 181.68 44.6932 181.468C44.7612 181.276 44.7992 181.06 44.8072 180.82C44.8192 180.58 44.8252 180.388 44.8252 180.244L45.2332 180.394C44.8372 180.454 44.4772 180.508 44.1532 180.556C43.8292 180.604 43.5352 180.652 43.2712 180.7C43.0112 180.744 42.7792 180.798 42.5752 180.862C42.4032 180.922 42.2492 180.994 42.1132 181.078C41.9812 181.162 41.8752 181.264 41.7952 181.384C41.7192 181.504 41.6812 181.65 41.6812 181.822C41.6812 181.99 41.7232 182.146 41.8072 182.29C41.8912 182.43 42.0192 182.542 42.1912 182.626C42.3632 182.71 42.5832 182.752 42.8512 182.752ZM50.6732 183.778C50.0532 183.778 49.5332 183.628 49.1132 183.328C48.6932 183.024 48.3752 182.614 48.1592 182.098C47.9432 181.582 47.8352 181 47.8352 180.352C47.8352 179.704 47.9412 179.122 48.1532 178.606C48.3692 178.09 48.6852 177.684 49.1012 177.388C49.5212 177.088 50.0372 176.938 50.6492 176.938C51.2572 176.938 51.7812 177.088 52.2212 177.388C52.6652 177.684 53.0072 178.09 53.2472 178.606C53.4872 179.118 53.6072 179.7 53.6072 180.352C53.6072 181 53.4872 181.584 53.2472 182.104C53.0112 182.62 52.6732 183.028 52.2332 183.328C51.7972 183.628 51.2772 183.778 50.6732 183.778ZM47.6252 186.478V177.118H48.7412V181.78H48.8852V186.478H47.6252ZM50.4992 182.644C50.8992 182.644 51.2292 182.542 51.4892 182.338C51.7532 182.134 51.9492 181.86 52.0772 181.516C52.2092 181.168 52.2752 180.78 52.2752 180.352C52.2752 179.928 52.2092 179.544 52.0772 179.2C51.9492 178.856 51.7512 178.582 51.4832 178.378C51.2152 178.174 50.8732 178.072 50.4572 178.072C50.0652 178.072 49.7412 178.168 49.4852 178.36C49.2332 178.552 49.0452 178.82 48.9212 179.164C48.8012 179.508 48.7412 179.904 48.7412 180.352C48.7412 180.8 48.8012 181.196 48.9212 181.54C49.0412 181.884 49.2312 182.154 49.4912 182.35C49.7512 182.546 50.0872 182.644 50.4992 182.644ZM60.392 177.118V183.598H59.186V179.092L55.946 183.598H54.926V177.118H56.132V181.534L59.378 177.118H60.392ZM62.0627 183.598V177.118H63.1127L65.5067 181.87L67.8947 177.118H68.9507V183.598H67.7387V179.686L65.7887 183.598H65.2187L63.2687 179.686V183.598H62.0627ZM72.3092 183.598V178.246H70.0952V177.118H75.7772V178.246H73.5632V183.598H72.3092ZM76.1992 183.598V182.536C76.4392 182.58 76.6212 182.574 76.7452 182.518C76.8732 182.458 76.9672 182.35 77.0272 182.194C77.0912 182.038 77.1452 181.836 77.1892 181.588C77.2572 181.224 77.3152 180.81 77.3632 180.346C77.4152 179.878 77.4612 179.372 77.5012 178.828C77.5412 178.284 77.5772 177.714 77.6092 177.118H82.2652V183.598H81.0052V178.3H78.7372C78.7132 178.616 78.6852 178.952 78.6532 179.308C78.6252 179.66 78.5932 180.01 78.5572 180.358C78.5212 180.706 78.4832 181.032 78.4432 181.336C78.4032 181.64 78.3612 181.9 78.3172 182.116C78.2372 182.548 78.1192 182.892 77.9632 183.148C77.8112 183.4 77.5952 183.562 77.3152 183.634C77.0352 183.71 76.6632 183.698 76.1992 183.598ZM85.7777 183.778C85.2977 183.778 84.8957 183.69 84.5717 183.514C84.2477 183.334 84.0017 183.098 83.8337 182.806C83.6697 182.51 83.5877 182.186 83.5877 181.834C83.5877 181.506 83.6457 181.218 83.7617 180.97C83.8777 180.722 84.0497 180.512 84.2777 180.34C84.5057 180.164 84.7857 180.022 85.1177 179.914C85.4057 179.83 85.7317 179.756 86.0957 179.692C86.4597 179.628 86.8417 179.568 87.2417 179.512C87.6457 179.456 88.0457 179.4 88.4417 179.344L87.9857 179.596C87.9937 179.088 87.8857 178.712 87.6617 178.468C87.4417 178.22 87.0617 178.096 86.5217 178.096C86.1817 178.096 85.8697 178.176 85.5857 178.336C85.3017 178.492 85.1037 178.752 84.9917 179.116L83.8217 178.756C83.9817 178.2 84.2857 177.758 84.7337 177.43C85.1857 177.102 85.7857 176.938 86.5337 176.938C87.1137 176.938 87.6177 177.038 88.0457 177.238C88.4777 177.434 88.7937 177.746 88.9937 178.174C89.0977 178.386 89.1617 178.61 89.1857 178.846C89.2097 179.082 89.2217 179.336 89.2217 179.608V183.598H88.1117V182.116L88.3277 182.308C88.0597 182.804 87.7177 183.174 87.3017 183.418C86.8897 183.658 86.3817 183.778 85.7777 183.778ZM85.9997 182.752C86.3557 182.752 86.6617 182.69 86.9177 182.566C87.1737 182.438 87.3797 182.276 87.5357 182.08C87.6917 181.884 87.7937 181.68 87.8417 181.468C87.9097 181.276 87.9477 181.06 87.9557 180.82C87.9677 180.58 87.9737 180.388 87.9737 180.244L88.3817 180.394C87.9857 180.454 87.6257 180.508 87.3017 180.556C86.9777 180.604 86.6837 180.652 86.4197 180.7C86.1597 180.744 85.9277 180.798 85.7237 180.862C85.5517 180.922 85.3977 180.994 85.2617 181.078C85.1297 181.162 85.0237 181.264 84.9437 181.384C84.8677 181.504 84.8297 181.65 84.8297 181.822C84.8297 181.99 84.8717 182.146 84.9557 182.29C85.0397 182.43 85.1677 182.542 85.3397 182.626C85.5117 182.71 85.7317 182.752 85.9997 182.752ZM90.1797 183.598V182.536C90.4197 182.58 90.6017 182.574 90.7257 182.518C90.8537 182.458 90.9477 182.35 91.0077 182.194C91.0717 182.038 91.1257 181.836 91.1697 181.588C91.2377 181.224 91.2957 180.81 91.3437 180.346C91.3957 179.878 91.4417 179.372 91.4817 178.828C91.5217 178.284 91.5577 177.714 91.5897 177.118H96.2457V183.598H94.9857V178.3H92.7177C92.6937 178.616 92.6657 178.952 92.6337 179.308C92.6057 179.66 92.5737 180.01 92.5377 180.358C92.5017 180.706 92.4637 181.032 92.4237 181.336C92.3837 181.64 92.3417 181.9 92.2977 182.116C92.2177 182.548 92.0997 182.892 91.9437 183.148C91.7917 183.4 91.5757 183.562 91.2957 183.634C91.0157 183.71 90.6437 183.698 90.1797 183.598Z" fill="#767676"/>
<path opacity="0.2" d="M262.209 77.5732C249.532 88.5426 233.043 112.767 226.383 123.508C210.536 152.302 162.999 154.359 169.888 166.699C176.778 179.04 179.534 170.127 202.27 204.407C225.006 238.686 232.584 224.974 266.343 210.577C300.103 196.18 344.196 258.568 355.908 261.996C367.62 265.424 354.53 205.778 348.329 185.21C342.129 164.643 333.01 149.858 313.03 146.43C293.05 143.002 280.811 148.874 277.366 112.538C273.921 76.202 278.055 63.8615 262.209 77.5732Z" fill="#5C5C5C" fill-opacity="0.14" stroke="#5C5C5C"/>
<path d="M257.977 253.122C249.66 281.426 232.122 213.416 213.593 194.87C175.474 162.265 135.314 203.977 156.799 169.292C178.284 134.606 174.126 110.491 174.126 99.9209C174.126 39.5475 262.334 137.972 276.005 147.093C309.273 169.287 439.631 163.862 354.321 177.616C276.471 190.167 268.466 217.417 258.162 252.492L257.977 253.122Z" fill="#2EBD59" fill-opacity="0.17" stroke="#2EBD59" stroke-width="3"/>
<defs>
<filter id="filter0_dd_529_2292" x="236.881" y="313.617" width="36.6438" height="36.6438" filterUnits="userSpaceOnUse" color-interpolation-filters="sRGB">
<feFlood flood-opacity="0" result="BackgroundImageFix"/>
<feColorMatrix in="SourceAlpha" type="matrix" values="0 0 0 0 0 0 0 0 0 0 0 0 0 0 0 0 0 0 127 0" result="hardAlpha"/>
<feOffset dy="6"/>
<feGaussianBlur stdDeviation="5"/>
<feComposite in2="hardAlpha" operator="out"/>
<feColorMatrix type="matrix" values="0 0 0 0 0.694118 0 0 0 0 0.694118 0 0 0 0 0.694118 0 0 0 0.08 0"/>
<feBlend mode="normal" in2="BackgroundImageFix" result="effect1_dropShadow_529_2292"/>
<feColorMatrix in="SourceAlpha" type="matrix" values="0 0 0 0 0 0 0 0 0 0 0 0 0 0 0 0 0 0 127 0" result="hardAlpha"/>
<feOffset dy="1"/>
<feGaussianBlur stdDeviation="1.5"/>
<feComposite in2="hardAlpha" operator="out"/>
<feColorMatrix type="matrix" values="0 0 0 0 0 0 0 0 0 0 0 0 0 0 0 0 0 0 0.02 0"/>
<feBlend mode="normal" in2="effect1_dropShadow_529_2292" result="effect2_dropShadow_529_2292"/>
<feBlend mode="normal" in="SourceGraphic" in2="effect2_dropShadow_529_2292" result="shape"/>
</filter>
<filter id="filter1_dd_529_2292" x="236.881" y="18.1917" width="36.6438" height="36.6438" filterUnits="userSpaceOnUse" color-interpolation-filters="sRGB">
<feFlood flood-opacity="0" result="BackgroundImageFix"/>
<feColorMatrix in="SourceAlpha" type="matrix" values="0 0 0 0 0 0 0 0 0 0 0 0 0 0 0 0 0 0 127 0" result="hardAlpha"/>
<feOffset dy="6"/>
<feGaussianBlur stdDeviation="5"/>
<feComposite in2="hardAlpha" operator="out"/>
<feColorMatrix type="matrix" values="0 0 0 0 0.694118 0 0 0 0 0.694118 0 0 0 0 0.694118 0 0 0 0.08 0"/>
<feBlend mode="normal" in2="BackgroundImageFix" result="effect1_dropShadow_529_2292"/>
<feColorMatrix in="SourceAlpha" type="matrix" values="0 0 0 0 0 0 0 0 0 0 0 0 0 0 0 0 0 0 127 0" result="hardAlpha"/>
<feOffset dy="1"/>
<feGaussianBlur stdDeviation="1.5"/>
<feComposite in2="hardAlpha" operator="out"/>
<feColorMatrix type="matrix" values="0 0 0 0 0 0 0 0 0 0 0 0 0 0 0 0 0 0 0.02 0"/>
<feBlend mode="normal" in2="effect1_dropShadow_529_2292" result="effect2_dropShadow_529_2292"/>
<feBlend mode="normal" in="SourceGraphic" in2="effect2_dropShadow_529_2292" result="shape"/>
</filter>
<filter id="filter2_dd_529_2292" x="89.1685" y="165.904" width="36.6436" height="36.6438" filterUnits="userSpaceOnUse" color-interpolation-filters="sRGB">
<feFlood flood-opacity="0" result="BackgroundImageFix"/>
<feColorMatrix in="SourceAlpha" type="matrix" values="0 0 0 0 0 0 0 0 0 0 0 0 0 0 0 0 0 0 127 0" result="hardAlpha"/>
<feOffset dy="6"/>
<feGaussianBlur stdDeviation="5"/>
<feComposite in2="hardAlpha" operator="out"/>
<feColorMatrix type="matrix" values="0 0 0 0 0.694118 0 0 0 0 0.694118 0 0 0 0 0.694118 0 0 0 0.08 0"/>
<feBlend mode="normal" in2="BackgroundImageFix" result="effect1_dropShadow_529_2292"/>
<feColorMatrix in="SourceAlpha" type="matrix" values="0 0 0 0 0 0 0 0 0 0 0 0 0 0 0 0 0 0 127 0" result="hardAlpha"/>
<feOffset dy="1"/>
<feGaussianBlur stdDeviation="1.5"/>
<feComposite in2="hardAlpha" operator="out"/>
<feColorMatrix type="matrix" values="0 0 0 0 0 0 0 0 0 0 0 0 0 0 0 0 0 0 0.02 0"/>
<feBlend mode="normal" in2="effect1_dropShadow_529_2292" result="effect2_dropShadow_529_2292"/>
<feBlend mode="normal" in="SourceGraphic" in2="effect2_dropShadow_529_2292" result="shape"/>
</filter>
<filter id="filter3_dd_529_2292" x="384.594" y="165.904" width="36.6438" height="36.6438" filterUnits="userSpaceOnUse" color-interpolation-filters="sRGB">
<feFlood flood-opacity="0" result="BackgroundImageFix"/>
<feColorMatrix in="SourceAlpha" type="matrix" values="0 0 0 0 0 0 0 0 0 0 0 0 0 0 0 0 0 0 127 0" result="hardAlpha"/>
<feOffset dy="6"/>
<feGaussianBlur stdDeviation="5"/>
<feComposite in2="hardAlpha" operator="out"/>
<feColorMatrix type="matrix" values="0 0 0 0 0.694118 0 0 0 0 0.694118 0 0 0 0 0.694118 0 0 0 0.08 0"/>
<feBlend mode="normal" in2="BackgroundImageFix" result="effect1_dropShadow_529_2292"/>
<feColorMatrix in="SourceAlpha" type="matrix" values="0 0 0 0 0 0 0 0 0 0 0 0 0 0 0 0 0 0 127 0" result="hardAlpha"/>
<feOffset dy="1"/>
<feGaussianBlur stdDeviation="1.5"/>
<feComposite in2="hardAlpha" operator="out"/>
<feColorMatrix type="matrix" values="0 0 0 0 0 0 0 0 0 0 0 0 0 0 0 0 0 0 0.02 0"/>
<feBlend mode="normal" in2="effect1_dropShadow_529_2292" result="effect2_dropShadow_529_2292"/>
<feBlend mode="normal" in="SourceGraphic" in2="effect2_dropShadow_529_2292" result="shape"/>
</filter>
<filter id="filter4_dd_529_2292" x="131.473" y="60.4941" width="38.5669" height="38.5674" filterUnits="userSpaceOnUse" color-interpolation-filters="sRGB">
<feFlood flood-opacity="0" result="BackgroundImageFix"/>
<feColorMatrix in="SourceAlpha" type="matrix" values="0 0 0 0 0 0 0 0 0 0 0 0 0 0 0 0 0 0 127 0" result="hardAlpha"/>
<feOffset dy="6"/>
<feGaussianBlur stdDeviation="5"/>
<feComposite in2="hardAlpha" operator="out"/>
<feColorMatrix type="matrix" values="0 0 0 0 0.694118 0 0 0 0 0.694118 0 0 0 0 0.694118 0 0 0 0.08 0"/>
<feBlend mode="normal" in2="BackgroundImageFix" result="effect1_dropShadow_529_2292"/>
<feColorMatrix in="SourceAlpha" type="matrix" values="0 0 0 0 0 0 0 0 0 0 0 0 0 0 0 0 0 0 127 0" result="hardAlpha"/>
<feOffset dy="1"/>
<feGaussianBlur stdDeviation="1.5"/>
<feComposite in2="hardAlpha" operator="out"/>
<feColorMatrix type="matrix" values="0 0 0 0 0 0 0 0 0 0 0 0 0 0 0 0 0 0 0.02 0"/>
<feBlend mode="normal" in2="effect1_dropShadow_529_2292" result="effect2_dropShadow_529_2292"/>
<feBlend mode="normal" in="SourceGraphic" in2="effect2_dropShadow_529_2292" result="shape"/>
</filter>
<filter id="filter5_dd_529_2292" x="340.369" y="269.391" width="38.5671" height="38.5674" filterUnits="userSpaceOnUse" color-interpolation-filters="sRGB">
<feFlood flood-opacity="0" result="BackgroundImageFix"/>
<feColorMatrix in="SourceAlpha" type="matrix" values="0 0 0 0 0 0 0 0 0 0 0 0 0 0 0 0 0 0 127 0" result="hardAlpha"/>
<feOffset dy="6"/>
<feGaussianBlur stdDeviation="5"/>
<feComposite in2="hardAlpha" operator="out"/>
<feColorMatrix type="matrix" values="0 0 0 0 0.694118 0 0 0 0 0.694118 0 0 0 0 0.694118 0 0 0 0.08 0"/>
<feBlend mode="normal" in2="BackgroundImageFix" result="effect1_dropShadow_529_2292"/>
<feColorMatrix in="SourceAlpha" type="matrix" values="0 0 0 0 0 0 0 0 0 0 0 0 0 0 0 0 0 0 127 0" result="hardAlpha"/>
<feOffset dy="1"/>
<feGaussianBlur stdDeviation="1.5"/>
<feComposite in2="hardAlpha" operator="out"/>
<feColorMatrix type="matrix" values="0 0 0 0 0 0 0 0 0 0 0 0 0 0 0 0 0 0 0.02 0"/>
<feBlend mode="normal" in2="effect1_dropShadow_529_2292" result="effect2_dropShadow_529_2292"/>
<feBlend mode="normal" in="SourceGraphic" in2="effect2_dropShadow_529_2292" result="shape"/>
</filter>
<filter id="filter6_dd_529_2292" x="340.365" y="60.4929" width="38.5674" height="38.5671" filterUnits="userSpaceOnUse" color-interpolation-filters="sRGB">
<feFlood flood-opacity="0" result="BackgroundImageFix"/>
<feColorMatrix in="SourceAlpha" type="matrix" values="0 0 0 0 0 0 0 0 0 0 0 0 0 0 0 0 0 0 127 0" result="hardAlpha"/>
<feOffset dy="6"/>
<feGaussianBlur stdDeviation="5"/>
<feComposite in2="hardAlpha" operator="out"/>
<feColorMatrix type="matrix" values="0 0 0 0 0.694118 0 0 0 0 0.694118 0 0 0 0 0.694118 0 0 0 0.08 0"/>
<feBlend mode="normal" in2="BackgroundImageFix" result="effect1_dropShadow_529_2292"/>
<feColorMatrix in="SourceAlpha" type="matrix" values="0 0 0 0 0 0 0 0 0 0 0 0 0 0 0 0 0 0 127 0" result="hardAlpha"/>
<feOffset dy="1"/>
<feGaussianBlur stdDeviation="1.5"/>
<feComposite in2="hardAlpha" operator="out"/>
<feColorMatrix type="matrix" values="0 0 0 0 0 0 0 0 0 0 0 0 0 0 0 0 0 0 0.02 0"/>
<feBlend mode="normal" in2="effect1_dropShadow_529_2292" result="effect2_dropShadow_529_2292"/>
<feBlend mode="normal" in="SourceGraphic" in2="effect2_dropShadow_529_2292" result="shape"/>
</filter>
<filter id="filter7_dd_529_2292" x="131.474" y="269.391" width="38.5674" height="38.5671" filterUnits="userSpaceOnUse" color-interpolation-filters="sRGB">
<feFlood flood-opacity="0" result="BackgroundImageFix"/>
<feColorMatrix in="SourceAlpha" type="matrix" values="0 0 0 0 0 0 0 0 0 0 0 0 0 0 0 0 0 0 127 0" result="hardAlpha"/>
<feOffset dy="6"/>
<feGaussianBlur stdDeviation="5"/>
<feComposite in2="hardAlpha" operator="out"/>
<feColorMatrix type="matrix" values="0 0 0 0 0.694118 0 0 0 0 0.694118 0 0 0 0 0.694118 0 0 0 0.08 0"/>
<feBlend mode="normal" in2="BackgroundImageFix" result="effect1_dropShadow_529_2292"/>
<feColorMatrix in="SourceAlpha" type="matrix" values="0 0 0 0 0 0 0 0 0 0 0 0 0 0 0 0 0 0 127 0" result="hardAlpha"/>
<feOffset dy="1"/>
<feGaussianBlur stdDeviation="1.5"/>
<feComposite in2="hardAlpha" operator="out"/>
<feColorMatrix type="matrix" values="0 0 0 0 0 0 0 0 0 0 0 0 0 0 0 0 0 0 0.02 0"/>
<feBlend mode="normal" in2="effect1_dropShadow_529_2292" result="effect2_dropShadow_529_2292"/>
<feBlend mode="normal" in="SourceGraphic" in2="effect2_dropShadow_529_2292" result="shape"/>
</filter>
</defs>
</svg>
