<svg width="32" height="32" viewBox="0 0 32 32" fill="none" xmlns="http://www.w3.org/2000/svg">
<g id="help-circle">
<path id="Vector" opacity="0.4" d="M1.6665 16.0001C1.6665 8.084 8.08376 1.66675 15.9998 1.66675C23.916 1.66675 30.3332 8.084 30.3332 16.0001C30.3332 23.9162 23.916 30.3334 15.9998 30.3334C8.08376 30.3334 1.6665 23.9162 1.6665 16.0001Z" fill="#2EBD59"/>
<path id="Vector_2" fill-rule="evenodd" clip-rule="evenodd" d="M16 11.3334C15.2636 11.3334 14.6667 11.9304 14.6667 12.6667C14.6667 13.4031 14.0697 14.0001 13.3333 14.0001C12.597 14.0001 12 13.4031 12 12.6667C12 10.4576 13.7908 8.66675 16 8.66675C18.2092 8.66675 20 10.4576 20 12.6667C20 13.461 19.7671 14.205 19.3655 14.8293C19.1244 15.2038 18.8449 15.5579 18.5961 15.8673C18.5496 15.925 18.5041 15.9813 18.4599 16.0361C18.2539 16.291 18.0709 16.5175 17.9013 16.7506C17.4799 17.3298 17.3333 17.7027 17.3333 18.0001C17.3333 18.7365 16.7364 19.3334 16 19.3334C15.2636 19.3334 14.6667 18.7365 14.6667 18.0001C14.6667 16.8246 15.2437 15.8707 15.7451 15.1817C15.9583 14.8887 16.1921 14.5993 16.3991 14.3435C16.44 14.2927 16.48 14.2434 16.5185 14.1955C16.7652 13.889 16.9655 13.631 17.1229 13.3863C17.256 13.1795 17.3333 12.9342 17.3333 12.6667C17.3333 11.9304 16.7364 11.3334 16 11.3334Z" fill="#2EBD59"/>
<path id="Vector_3" fill-rule="evenodd" clip-rule="evenodd" d="M14.6665 22.0001C14.6665 21.2637 15.2608 20.6667 15.9938 20.6667H16.0058C16.7389 20.6667 17.3332 21.2637 17.3332 22.0001C17.3332 22.7365 16.7389 23.3334 16.0058 23.3334H15.9938C15.2608 23.3334 14.6665 22.7365 14.6665 22.0001Z" fill="#2EBD59"/>
</g>
</svg>
