<svg width="188" height="193" viewBox="0 0 188 193" fill="none" xmlns="http://www.w3.org/2000/svg">
<g id="Group 35627">
<g id="&#60;Group&#62;">
<g id="&#60;Group&#62;_2">
<path id="&#60;Compound Path&#62;" d="M104.9 192.325C104.142 192.325 103.308 192.174 102.626 191.795L1.13692 133.13C0.378974 132.751 0 132.22 0 131.614C0 131.083 0.303184 130.704 0.833748 130.325L61.3938 95.3838C62.5308 94.7774 64.274 94.8533 65.5626 95.5354L167.052 154.125C167.734 154.58 168.189 155.11 168.189 155.717C168.189 156.171 167.886 156.626 167.355 156.929L106.719 191.946C106.264 192.25 105.582 192.325 104.9 192.325ZM1.44012 132.523L103.005 191.113C103.991 191.719 105.506 191.795 106.416 191.264L166.976 156.323C167.203 156.171 167.431 156.02 167.431 155.717C167.431 155.413 167.128 155.034 166.673 154.807L65.1836 96.1418C64.1982 95.6112 62.6066 95.5354 61.7728 95.9902L1.21272 131.007C0.985338 131.083 0.757949 131.311 0.757949 131.614C0.757949 131.917 0.985352 132.296 1.44012 132.523Z" fill="#78FF57"/>
<path id="&#60;Compound Path&#62;_2" opacity="0.5" d="M104.9 189.353C104.142 189.353 103.308 189.201 102.626 188.822L1.13692 130.157C0.378974 129.778 0 129.247 0 128.641C0 128.111 0.303184 127.732 0.833748 127.353L61.3938 92.4111C62.5308 91.8048 64.274 91.8806 65.5626 92.5627L167.052 151.152C167.734 151.607 168.189 152.138 168.189 152.744C168.189 153.199 167.886 153.653 167.355 153.957L106.719 188.974C106.264 189.277 105.582 189.353 104.9 189.353ZM1.44012 129.551L103.005 188.14C103.991 188.746 105.506 188.822 106.416 188.292L166.976 153.35C167.203 153.199 167.431 153.047 167.431 152.744C167.431 152.441 167.128 152.062 166.673 151.834L65.1836 93.1691C64.1982 92.6385 62.6066 92.5627 61.7728 93.0175L1.21272 128.035C0.985338 128.111 0.757949 128.338 0.757949 128.641C0.757949 128.944 0.985352 129.323 1.44012 129.551Z" fill="#78FF57"/>
<g id="&#60;Group&#62;_3">
<g id="&#60;Group&#62;_4">
<g id="&#60;Group&#62;_5">
<g id="&#60;Group&#62;_6">
<g id="&#60;Group&#62;_7">
<path id="&#60;Path&#62;" d="M65.4853 77.568L78.2947 1.46996L77.3093 1.01519L78.8252 0.105647C79.1284 -0.045943 79.5832 -0.0459384 80.0379 0.181446L182.588 59.453C183.422 59.9078 184.104 61.1205 183.953 62.03L170.992 138.81C170.916 139.189 170.764 139.417 170.461 139.568L168.945 140.402L168.718 139.038H168.794L66.8496 80.145C66.0159 79.6903 65.3337 78.4775 65.4853 77.568Z" fill="url(#paint0_linear_2395_1251)"/>
<path id="&#60;Path&#62;_2" d="M182.058 61.5001L183.726 60.7422C183.877 61.197 184.029 61.6517 183.953 62.0307L170.992 138.811C170.916 139.19 170.765 139.417 170.461 139.569L168.946 140.403L168.718 139.038H168.794L163.64 136.082L182.058 61.5001Z" fill="url(#paint1_linear_2395_1251)"/>
<path id="&#60;Path&#62;_3" d="M65.2579 81.1315L167.808 140.327C168.566 140.782 169.248 140.479 169.4 139.721L182.361 62.9407C182.513 62.107 181.83 60.8184 180.997 60.3637L78.4462 1.0921C77.6124 0.637332 76.9303 0.940512 76.8545 1.77426L63.8936 78.4787C63.742 79.3882 64.3483 80.6009 65.2579 81.1315Z" fill="#24126A"/>
<g id="&#60;Group&#62;_8" opacity="0.5">
<path id="&#60;Path&#62;_4" d="M78.0673 2.53125L181.148 62.0302L168.112 138.962L65.1064 79.5388L78.0673 2.53125Z" fill="#453C9E"/>
</g>
</g>
<g id="&#60;Group&#62;_9">
<path id="&#60;Path&#62;_5" d="M0.756592 117.443L6.36543 120.399L62.4536 87.9583C63.439 87.4278 65.0306 87.5036 66.1676 88.1099L162.958 143.971C163.867 143.516 168.112 141.47 168.112 141.47L166.065 144.804C165.964 145.007 165.762 145.209 165.459 145.411L106.339 179.519C105.429 180.049 103.762 180.049 102.701 179.367L3.63681 122.218C3.18204 121.914 2.87886 121.611 2.80306 121.308L0.756592 117.443Z" fill="url(#paint2_linear_2395_1251)"/>
<path id="&#60;Path&#62;_6" d="M1.5903 118.35L103.155 177.015C104.217 177.621 105.96 177.697 106.869 177.167L167.505 142.149C168.415 141.619 168.339 140.633 167.202 139.951L65.7128 81.3619C64.5758 80.7555 62.9084 80.6797 61.923 81.2103L1.36293 116.228C0.377595 116.758 0.529176 117.743 1.5903 118.35Z" fill="url(#paint3_linear_2395_1251)"/>
<path id="&#60;Path&#62;_7" d="M1.59027 117.895L103.155 176.561C104.217 177.167 105.96 177.243 106.869 176.712L167.505 141.695C167.808 141.493 168.011 141.266 168.112 141.013C168.187 141.392 168.036 141.847 167.505 142.15L106.869 177.167C105.96 177.698 104.217 177.622 103.155 177.015L1.59027 118.35C0.908112 117.971 0.604927 117.365 0.756517 116.91C0.832312 117.289 1.1355 117.592 1.59027 117.895Z" fill="white"/>
</g>
</g>
<g id="&#60;Clip Group&#62;" opacity="0.1">
<g id="&#60;Group&#62;_10">
<g id="&#60;Group&#62;_11" opacity="0.5">
<path id="&#60;Path&#62;_8" d="M119.148 71.4326L115.889 69.5377C115.586 69.3861 115.207 69.4619 114.904 69.6135L111.265 71.7358C110.962 71.8873 110.962 72.1147 111.265 72.2663L114.525 74.1612C114.752 74.3128 115.207 74.3128 115.51 74.1612L119.072 72.0389C119.376 71.8874 119.376 71.5842 119.148 71.4326Z" fill="#24126A"/>
<path id="&#60;Path&#62;_9" d="M124.15 74.3156L120.891 72.4965C120.664 72.3449 120.209 72.3449 119.906 72.4965L116.343 74.6188C116.04 74.7704 116.04 74.9977 116.268 75.1493L119.527 77.0442C119.754 77.1958 120.209 77.1958 120.512 77.0442L124.15 74.9219C124.378 74.7703 124.453 74.4672 124.15 74.3156Z" fill="#24126A"/>
<path id="&#60;Path&#62;_10" d="M129.153 77.2683L125.97 75.3735C125.667 75.2219 125.212 75.2219 124.984 75.3735L121.346 77.4957C121.043 77.6473 121.043 77.9505 121.27 78.1021L124.53 79.9969C124.833 80.1485 125.212 80.0727 125.515 79.9211L129.153 77.7989C129.456 77.6473 129.456 77.4199 129.153 77.2683Z" fill="#24126A"/>
<path id="&#60;Path&#62;_11" d="M125.363 81.1355L122.104 79.2406C121.877 79.0891 121.422 79.0891 121.119 79.2406L118.087 81.0597C117.784 81.2113 117.784 81.4387 118.011 81.5903L121.27 83.4852C121.574 83.6367 122.028 83.6367 122.256 83.4852L125.288 81.6661C125.591 81.5145 125.591 81.2871 125.363 81.1355Z" fill="#24126A"/>
<path id="&#60;Path&#62;_12" d="M130.366 84.0161L127.107 82.1213C126.879 81.9697 126.425 81.9697 126.121 82.1971L123.09 83.9404C122.862 84.0919 122.786 84.3951 123.09 84.5467L126.349 86.3658C126.576 86.5174 127.031 86.5174 127.334 86.3658L130.366 84.6225C130.669 84.3951 130.669 84.1677 130.366 84.0161Z" fill="#24126A"/>
<path id="&#60;Path&#62;_13" d="M135.444 86.8955L132.185 85.0006C131.882 84.849 131.427 84.9248 131.199 85.0764L128.168 86.8197C127.864 86.9713 127.864 87.2744 128.092 87.426L131.351 89.3209C131.578 89.4725 132.033 89.3967 132.336 89.2451L135.368 87.5018C135.671 87.3502 135.671 87.0471 135.444 86.8955Z" fill="#24126A"/>
<path id="&#60;Path&#62;_14" d="M140.447 89.8504L137.187 87.9555C136.96 87.8039 136.505 87.8039 136.202 87.9555L133.17 89.6988C132.867 89.9261 132.867 90.1535 133.094 90.3051L136.354 92.2C136.657 92.3516 137.112 92.3516 137.339 92.1242L140.371 90.3809C140.674 90.2293 140.674 90.002 140.447 89.8504Z" fill="#24126A"/>
<path id="&#60;Path&#62;_15" d="M145.449 92.7312L142.19 90.8363C141.962 90.6848 141.507 90.6848 141.204 90.8363L138.172 92.6554C137.869 92.807 137.869 93.0344 138.172 93.186L141.432 95.0809C141.659 95.2325 142.114 95.2325 142.417 95.0809L145.449 93.2618C145.676 93.1102 145.752 92.8828 145.449 92.7312Z" fill="#24126A"/>
<path id="&#60;Path&#62;_16" d="M150.527 95.6118L147.268 93.717C146.965 93.5654 146.51 93.5654 146.283 93.7928L143.251 95.5361C142.948 95.6876 142.948 95.9908 143.175 96.1424L146.434 97.9615C146.662 98.1131 147.117 98.1131 147.42 97.9615L150.452 96.2182C150.755 95.9908 150.755 95.7634 150.527 95.6118Z" fill="#24126A"/>
<path id="&#60;Path&#62;_17" d="M155.53 98.4894L152.27 96.6703C151.967 96.5187 151.588 96.5187 151.285 96.6703L148.253 98.4136C147.95 98.641 147.95 98.8684 148.177 99.02L151.437 100.915C151.74 101.066 152.119 101.066 152.422 100.839L155.454 99.0958C155.757 98.9442 155.757 98.641 155.53 98.4894Z" fill="#24126A"/>
<path id="&#60;Path&#62;_18" d="M160.532 101.448L157.273 99.5531C157.046 99.4016 156.591 99.4016 156.288 99.5531L153.256 101.372C152.953 101.524 152.953 101.751 153.256 101.903L156.515 103.798C156.743 103.949 157.197 103.949 157.5 103.798L160.532 101.979C160.76 101.827 160.835 101.6 160.532 101.448Z" fill="#24126A"/>
<path id="&#60;Path&#62;_19" d="M165.534 104.327L162.351 102.432C162.048 102.28 161.593 102.28 161.29 102.508L158.258 104.251C158.031 104.402 157.955 104.63 158.258 104.781L161.517 106.676C161.745 106.828 162.199 106.828 162.503 106.676L165.534 104.857C165.838 104.706 165.838 104.478 165.534 104.327Z" fill="#24126A"/>
<path id="&#60;Path&#62;_20" d="M170.613 107.21L167.353 105.315C167.05 105.163 166.671 105.239 166.368 105.391L163.336 107.134C163.033 107.286 163.033 107.589 163.26 107.74L166.52 109.635C166.823 109.787 167.202 109.711 167.505 109.56L170.537 107.816C170.84 107.665 170.84 107.362 170.613 107.21Z" fill="#24126A"/>
<path id="&#60;Path&#62;_21" d="M123.241 85.2257L119.982 83.4067C119.754 83.2551 119.3 83.2551 118.996 83.4067L115.965 85.1499C115.737 85.3015 115.661 85.6047 115.965 85.7563L119.224 87.6512C119.451 87.8028 119.906 87.727 120.209 87.5754L123.241 85.8321C123.544 85.6805 123.544 85.3773 123.241 85.2257Z" fill="#24126A"/>
<path id="&#60;Path&#62;_22" d="M118.162 82.2707L114.903 80.4516C114.676 80.3 114.221 80.3 113.918 80.4516L110.886 82.1949C110.583 82.4223 110.583 82.6496 110.886 82.8012L114.069 84.6961C114.373 84.8477 114.827 84.8477 115.055 84.6203L118.162 82.877C118.39 82.7254 118.466 82.4223 118.162 82.2707Z" fill="#24126A"/>
<path id="&#60;Path&#62;_23" d="M113.085 79.3919L106.036 75.299C105.808 75.1474 105.354 75.1474 105.05 75.3748L102.019 77.1181C101.715 77.2697 101.715 77.5729 102.019 77.6487L108.992 81.7416C109.295 81.8932 109.674 81.8932 109.977 81.7416L113.009 79.9225C113.312 79.7709 113.312 79.5435 113.085 79.3919Z" fill="#24126A"/>
<path id="&#60;Path&#62;_24" d="M107.097 81.2869L101.412 78.0278C101.185 77.8762 100.73 77.8762 100.427 78.0278L97.3948 79.771C97.1674 79.9984 97.0916 80.2258 97.3948 80.3774L103.079 83.6366C103.307 83.7882 103.762 83.7882 104.065 83.6366L107.097 81.8933C107.4 81.6659 107.4 81.4385 107.097 81.2869Z" fill="#24126A"/>
<path id="&#60;Path&#62;_25" d="M128.319 88.1843L125.06 86.2895C124.757 86.1379 124.302 86.1379 124.075 86.2895L121.043 88.1086C120.74 88.2601 120.74 88.4875 120.967 88.6391L124.226 90.534C124.53 90.6856 124.909 90.6856 125.212 90.534L128.244 88.7149C128.547 88.5633 128.547 88.3359 128.319 88.1843Z" fill="#24126A"/>
<path id="&#60;Path&#62;_26" d="M133.322 91.0633L130.062 89.1684C129.835 89.0168 129.38 89.0168 129.077 89.1684L126.045 90.9875C125.742 91.1391 125.742 91.3664 125.969 91.518L129.229 93.4129C129.532 93.5645 129.987 93.5645 130.214 93.4129L133.246 91.5938C133.549 91.4422 133.549 91.2148 133.322 91.0633Z" fill="#24126A"/>
<path id="&#60;Path&#62;_27" d="M138.324 93.9443L135.065 92.0494C134.838 91.8978 134.383 91.9736 134.08 92.1252L131.048 93.8685C130.821 94.0201 130.745 94.3233 131.048 94.4749L134.307 96.3697C134.535 96.4455 134.989 96.4455 135.293 96.2939L138.324 94.5507C138.628 94.3991 138.628 94.0959 138.324 93.9443Z" fill="#24126A"/>
<path id="&#60;Path&#62;_28" d="M143.402 96.8234L140.143 95.0043C139.84 94.8527 139.385 94.8527 139.158 95.0043L136.126 96.7476C135.823 96.975 135.823 97.2024 136.05 97.354L139.309 99.2488C139.537 99.4004 139.992 99.4004 140.295 99.173L143.327 97.4298C143.63 97.2782 143.63 96.975 143.402 96.8234Z" fill="#24126A"/>
<path id="&#60;Path&#62;_29" d="M148.405 99.78L145.145 97.8852C144.918 97.7336 144.463 97.7336 144.16 97.8852L141.128 99.7043C140.825 99.8558 140.825 100.083 141.052 100.235L144.312 102.13C144.615 102.281 145.07 102.281 145.297 102.13L148.329 100.311C148.632 100.159 148.632 99.9316 148.405 99.78Z" fill="#24126A"/>
<path id="&#60;Path&#62;_30" d="M153.408 102.661L150.148 100.766C149.921 100.614 149.466 100.614 149.163 100.842L146.131 102.585C145.828 102.736 145.828 103.04 146.131 103.191L149.39 105.01C149.618 105.162 150.073 105.162 150.376 105.01L153.408 103.267C153.635 103.04 153.711 102.812 153.408 102.661Z" fill="#24126A"/>
<path id="&#60;Path&#62;_31" d="M158.485 105.538L155.226 103.719C154.923 103.568 154.468 103.568 154.241 103.719L151.209 105.462C150.906 105.614 150.906 105.917 151.133 106.069L154.392 107.964C154.62 108.115 155.075 108.039 155.378 107.888L158.41 106.145C158.713 105.993 158.713 105.69 158.485 105.538Z" fill="#24126A"/>
<path id="&#60;Path&#62;_32" d="M163.488 108.499L160.229 106.604C159.925 106.452 159.546 106.452 159.243 106.604L156.212 108.423C155.908 108.575 155.908 108.802 156.136 108.954L159.395 110.848C159.698 111 160.077 111 160.38 110.848L163.412 109.029C163.715 108.878 163.715 108.65 163.488 108.499Z" fill="#24126A"/>
<path id="&#60;Path&#62;_33" d="M168.491 111.376L165.231 109.481C165.004 109.329 164.549 109.329 164.246 109.481L161.214 111.3C160.911 111.452 160.911 111.679 161.214 111.831L164.473 113.725C164.701 113.877 165.156 113.877 165.459 113.725L168.491 111.906C168.718 111.755 168.794 111.527 168.491 111.376Z" fill="#24126A"/>
<path id="&#60;Path&#62;_34" d="M177.434 116.531L170.309 112.438C170.082 112.286 169.627 112.286 169.324 112.438L166.292 114.257C165.989 114.409 165.989 114.636 166.292 114.788L173.341 118.88C173.644 119.032 174.099 119.032 174.327 118.88L177.358 117.061C177.662 116.91 177.662 116.682 177.434 116.531Z" fill="#24126A"/>
<path id="&#60;Path&#62;_35" d="M168.187 121.911L162.2 118.424C161.972 118.272 161.517 118.272 161.214 118.5L158.182 120.243C157.955 120.395 157.879 120.698 158.182 120.849L164.17 124.26C164.398 124.412 164.852 124.412 165.156 124.26L168.187 122.441C168.49 122.29 168.49 122.062 168.187 121.911Z" fill="#24126A"/>
<path id="&#60;Path&#62;_36" d="M127.561 93.1121L124.378 91.2172C124.075 91.0656 123.62 91.0656 123.393 91.2172L120.285 93.0363C120.058 93.1879 119.982 93.4153 120.285 93.5669L123.544 95.4617C123.772 95.6133 124.227 95.6133 124.53 95.4617L127.561 93.6427C127.865 93.4911 127.865 93.2637 127.561 93.1121Z" fill="#24126A"/>
<path id="&#60;Path&#62;_37" d="M122.483 90.1531L119.224 88.2582C118.921 88.1066 118.466 88.1066 118.239 88.2582L115.207 90.0773C114.904 90.2289 114.904 90.4563 115.131 90.6079L118.39 92.5027C118.618 92.6543 119.072 92.6543 119.376 92.5027L122.407 90.6837C122.711 90.5321 122.711 90.3047 122.483 90.1531Z" fill="#24126A"/>
<path id="&#60;Path&#62;_38" d="M117.329 87.1203L114.07 85.3012C113.767 85.1496 113.312 85.1496 113.084 85.3012L110.053 87.0445C109.749 87.2718 109.749 87.4992 109.977 87.6508L113.236 89.5457C113.463 89.6973 113.918 89.6973 114.221 89.4699L117.253 87.7266C117.556 87.575 117.556 87.2719 117.329 87.1203Z" fill="#24126A"/>
<path id="&#60;Path&#62;_39" d="M112.175 84.165L108.916 82.2701C108.612 82.1185 108.158 82.1943 107.93 82.3459L104.899 84.0892C104.595 84.2408 104.595 84.544 104.823 84.6956L108.082 86.5904C108.309 86.742 108.764 86.6662 109.067 86.5146L112.099 84.7714C112.402 84.6198 112.402 84.3166 112.175 84.165Z" fill="#24126A"/>
<path id="&#60;Path&#62;_40" d="M132.639 95.9912L129.38 94.0963C129.077 93.9447 128.698 94.0205 128.395 94.1721L125.363 95.9154C125.06 96.067 125.06 96.3701 125.287 96.5217L128.546 98.4166C128.85 98.4924 129.229 98.4924 129.532 98.3408L132.564 96.5975C132.867 96.4459 132.867 96.1428 132.639 95.9912Z" fill="#24126A"/>
<path id="&#60;Path&#62;_41" d="M137.642 98.8703L134.383 97.0512C134.156 96.8996 133.701 96.8996 133.398 97.0512L130.366 98.7945C130.063 99.0218 130.063 99.2492 130.366 99.4008L133.549 101.296C133.852 101.447 134.307 101.447 134.535 101.22L137.642 99.4766C137.87 99.325 137.945 99.0219 137.642 98.8703Z" fill="#24126A"/>
<path id="&#60;Path&#62;_42" d="M142.644 101.827L139.385 99.9321C139.158 99.7805 138.703 99.7805 138.4 99.9321L135.368 101.751C135.141 101.903 135.065 102.13 135.368 102.282L138.627 104.177C138.855 104.328 139.309 104.328 139.612 104.177L142.644 102.357C142.947 102.206 142.947 101.979 142.644 101.827Z" fill="#24126A"/>
<path id="&#60;Path&#62;_43" d="M147.722 104.708L144.463 102.813C144.16 102.661 143.705 102.661 143.478 102.888L140.446 104.632C140.143 104.783 140.143 105.087 140.37 105.238L143.63 107.057C143.933 107.209 144.312 107.209 144.615 107.057L147.647 105.314C147.95 105.087 147.95 104.859 147.722 104.708Z" fill="#24126A"/>
<path id="&#60;Path&#62;_44" d="M152.725 107.585L149.466 105.766C149.239 105.614 148.784 105.614 148.481 105.766L145.449 107.509C145.146 107.661 145.146 107.964 145.373 108.116L148.632 110.011C148.935 110.162 149.39 110.086 149.618 109.935L152.649 108.191C152.953 108.04 152.952 107.737 152.725 107.585Z" fill="#24126A"/>
<path id="&#60;Path&#62;_45" d="M157.727 110.546L154.468 108.651C154.241 108.499 153.786 108.499 153.483 108.651L150.451 110.47C150.224 110.621 150.148 110.849 150.451 111L153.71 112.895C153.938 113.047 154.393 113.047 154.696 112.895L157.727 111.076C158.031 110.925 158.031 110.697 157.727 110.546Z" fill="#24126A"/>
<path id="&#60;Path&#62;_46" d="M162.806 113.423L159.547 111.528C159.244 111.376 158.789 111.376 158.561 111.528L155.53 113.347C155.226 113.498 155.226 113.726 155.454 113.877L158.713 115.772C158.94 115.924 159.395 115.924 159.698 115.772L162.73 113.953C163.033 113.802 163.033 113.574 162.806 113.423Z" fill="#24126A"/>
<path id="&#60;Path&#62;_47" d="M167.808 116.306L164.549 114.411C164.322 114.259 163.867 114.335 163.564 114.487L160.532 116.23C160.229 116.381 160.229 116.685 160.456 116.836L163.715 118.655C164.019 118.807 164.473 118.807 164.701 118.655L167.733 116.912C168.036 116.76 168.036 116.457 167.808 116.306Z" fill="#24126A"/>
<path id="&#60;Path&#62;_48" d="M172.811 119.181L169.551 117.362C169.324 117.21 168.869 117.21 168.566 117.362L165.534 119.105C165.231 119.332 165.231 119.56 165.534 119.711L168.793 121.606C169.021 121.758 169.476 121.758 169.779 121.53L172.811 119.787C173.038 119.636 173.114 119.332 172.811 119.181Z" fill="#24126A"/>
<path id="&#60;Path&#62;_49" d="M115.434 91.4439L112.175 89.549C111.948 89.3974 111.493 89.3974 111.19 89.6248L108.158 91.3681C107.855 91.5197 107.855 91.8228 108.158 91.9744L111.417 93.7935C111.645 93.9451 112.099 93.9451 112.403 93.7935L115.434 92.0502C115.662 91.8229 115.738 91.5955 115.434 91.4439Z" fill="#24126A"/>
<path id="&#60;Path&#62;_50" d="M110.432 88.5613L107.172 86.6664C106.945 86.5148 106.49 86.5148 106.187 86.6664L103.155 88.4855C102.928 88.6371 102.852 88.8645 103.155 89.0161L106.414 90.9109C106.642 91.0625 107.097 91.0625 107.4 90.9109L110.432 89.0919C110.659 88.9403 110.735 88.7129 110.432 88.5613Z" fill="#24126A"/>
<path id="&#60;Path&#62;_51" d="M105.429 85.6824L102.17 83.7875C101.943 83.6359 101.488 83.6359 101.185 83.7875L98.1531 85.6066C97.9257 85.7582 97.8499 85.9856 98.1531 86.1372L101.412 88.032C101.64 88.1836 102.094 88.1836 102.398 88.032L105.429 86.213C105.733 86.0614 105.733 85.834 105.429 85.6824Z" fill="#24126A"/>
<path id="&#60;Path&#62;_52" d="M100.427 82.8035L97.1675 80.9086C96.9401 80.757 96.4854 80.757 96.1822 80.9086L93.1504 82.7277C92.923 82.8793 92.8472 83.1067 93.1504 83.2582L96.4096 85.1531C96.637 85.3047 97.0917 85.3047 97.3949 85.1531L100.427 83.334C100.73 83.1825 100.73 82.9551 100.427 82.8035Z" fill="#24126A"/>
<path id="&#60;Path&#62;_53" d="M95.5759 85.606L92.3925 83.7111C92.0893 83.5595 91.6345 83.5595 91.3314 83.7869L90.346 84.3175C90.0429 84.5449 90.0429 84.7722 90.346 84.9238L93.6052 86.8187C93.8326 86.9703 94.2874 86.9703 94.5906 86.7429L95.5759 86.2123C95.8791 85.985 95.8791 85.7576 95.5759 85.606Z" fill="#24126A"/>
<path id="&#60;Path&#62;_54" d="M102.17 89.3972L98.911 87.5024C98.6078 87.3508 98.153 87.3508 97.9256 87.5024L96.8645 88.1087C96.6371 88.2603 96.5613 88.5635 96.8645 88.7151L100.124 90.5342C100.351 90.6857 100.806 90.6857 101.109 90.5342L102.094 89.9278C102.398 89.7762 102.398 89.5488 102.17 89.3972Z" fill="#24126A"/>
<path id="&#60;Path&#62;_55" d="M107.097 92.2742L103.837 90.3793C103.61 90.2277 103.155 90.2277 102.852 90.3793L101.867 90.9857C101.564 91.1373 101.564 91.4404 101.791 91.592L105.05 93.4111C105.353 93.5627 105.808 93.5627 106.036 93.4111L107.097 92.8048C107.324 92.6532 107.4 92.4258 107.097 92.2742Z" fill="#24126A"/>
<path id="&#60;Path&#62;_56" d="M112.099 95.159L108.84 93.2641C108.613 93.1125 108.158 93.1125 107.855 93.2641L106.869 93.8704C106.566 94.022 106.566 94.2494 106.794 94.401L110.053 96.2959C110.356 96.4475 110.735 96.4475 111.038 96.2959L112.024 95.6895C112.327 95.5379 112.327 95.3105 112.099 95.159Z" fill="#24126A"/>
<path id="&#60;Path&#62;_57" d="M117.102 98.0359L113.842 96.141C113.539 95.9894 113.084 95.9894 112.857 96.141L111.796 96.7474C111.569 96.899 111.493 97.1264 111.796 97.278L115.055 99.1728C115.282 99.3244 115.737 99.3244 116.04 99.1728L117.026 98.5665C117.329 98.4149 117.329 98.1875 117.102 98.0359Z" fill="#24126A"/>
<path id="&#60;Path&#62;_58" d="M144.842 114.028L141.659 112.209C141.356 112.058 140.901 112.058 140.598 112.209L139.613 112.816C139.309 112.967 139.309 113.195 139.613 113.346L142.872 115.241C143.099 115.393 143.554 115.393 143.857 115.241L144.842 114.635C145.146 114.483 145.146 114.18 144.842 114.028Z" fill="#24126A"/>
<path id="&#60;Path&#62;_59" d="M149.845 116.909L146.586 115.014C146.358 114.863 145.904 114.938 145.6 115.09L144.615 115.696C144.312 115.848 144.312 116.075 144.539 116.227L147.798 118.122C148.102 118.273 148.556 118.273 148.784 118.122L149.845 117.516C150.072 117.364 150.148 117.061 149.845 116.909Z" fill="#24126A"/>
<path id="&#60;Path&#62;_60" d="M154.848 119.79L151.588 117.895C151.285 117.744 150.906 117.819 150.603 117.971L149.618 118.501C149.315 118.729 149.315 118.956 149.542 119.108L152.801 121.003C153.029 121.154 153.483 121.154 153.786 120.927L154.772 120.396C155.075 120.245 155.075 119.942 154.848 119.79Z" fill="#24126A"/>
<path id="&#60;Path&#62;_61" d="M159.85 122.67L156.591 120.776C156.287 120.624 155.833 120.624 155.605 120.851L154.544 121.382C154.317 121.609 154.241 121.837 154.544 121.988L157.803 123.883C158.031 124.035 158.486 124.035 158.789 123.807L159.774 123.277C160.077 123.049 160.077 122.822 159.85 122.67Z" fill="#24126A"/>
<path id="&#60;Path&#62;_62" d="M120.512 94.3232L117.253 92.4283C116.95 92.2767 116.495 92.3525 116.268 92.5041L113.236 94.2474C112.933 94.399 112.933 94.7022 113.16 94.8538L116.42 96.7486C116.647 96.9002 117.102 96.8244 117.405 96.6728L120.437 94.9296C120.74 94.778 120.74 94.4748 120.512 94.3232Z" fill="#24126A"/>
<path id="&#60;Path&#62;_63" d="M125.515 97.2781L122.255 95.3832C121.952 95.2316 121.573 95.2316 121.27 95.3832L118.238 97.2023C117.935 97.3539 117.935 97.5813 118.163 97.7329L121.422 99.6277C121.725 99.7793 122.18 99.7793 122.407 99.6277L125.439 97.8087C125.742 97.6571 125.742 97.4297 125.515 97.2781Z" fill="#24126A"/>
<path id="&#60;Path&#62;_64" d="M130.517 100.159L127.258 98.2641C127.031 98.1125 126.576 98.1125 126.273 98.2641L123.241 100.083C122.938 100.235 122.938 100.462 123.241 100.614L126.5 102.509C126.728 102.66 127.182 102.66 127.486 102.509L130.517 100.69C130.745 100.538 130.821 100.311 130.517 100.159Z" fill="#24126A"/>
<path id="&#60;Path&#62;_65" d="M135.52 103.04L132.336 101.145C132.033 100.993 131.578 100.993 131.351 101.221L128.243 102.964C128.016 103.115 127.94 103.419 128.243 103.57L131.503 105.389C131.73 105.541 132.185 105.541 132.488 105.389L135.52 103.646C135.823 103.419 135.823 103.191 135.52 103.04Z" fill="#24126A"/>
<path id="&#60;Path&#62;_66" d="M140.598 105.919L137.339 104.1C137.036 103.948 136.657 103.948 136.354 104.1L133.322 105.843C133.019 106.071 133.019 106.298 133.246 106.45L136.505 108.345C136.808 108.496 137.187 108.496 137.491 108.269L140.522 106.525C140.826 106.374 140.826 106.071 140.598 105.919Z" fill="#24126A"/>
<path id="&#60;Path&#62;_67" d="M145.601 108.876L142.341 106.981C142.114 106.829 141.659 106.829 141.356 106.981L138.324 108.8C138.021 108.952 138.021 109.179 138.324 109.331L141.508 111.225C141.811 111.377 142.266 111.377 142.493 111.225L145.601 109.406C145.828 109.255 145.904 109.027 145.601 108.876Z" fill="#24126A"/>
<path id="&#60;Path&#62;_68" d="M150.603 111.754L147.344 109.86C147.116 109.708 146.661 109.708 146.358 109.935L143.326 111.679C143.099 111.83 143.023 112.058 143.326 112.209L146.586 114.104C146.813 114.256 147.268 114.256 147.571 114.104L150.603 112.361C150.906 112.133 150.906 111.906 150.603 111.754Z" fill="#24126A"/>
<path id="&#60;Path&#62;_69" d="M155.681 114.636L152.422 112.741C152.118 112.589 151.664 112.665 151.436 112.817L148.404 114.56C148.101 114.711 148.101 115.015 148.329 115.166L151.588 117.061C151.891 117.213 152.27 117.137 152.573 116.985L155.605 115.242C155.908 115.09 155.908 114.787 155.681 114.636Z" fill="#24126A"/>
<path id="&#60;Path&#62;_70" d="M160.683 117.589L157.424 115.694C157.197 115.542 156.742 115.542 156.439 115.694L153.407 117.437C153.104 117.664 153.104 117.892 153.331 118.043L156.59 119.938C156.894 120.09 157.348 120.09 157.576 119.862L160.608 118.119C160.911 117.968 160.911 117.664 160.683 117.589Z" fill="#24126A"/>
<path id="&#60;Path&#62;_71" d="M120.209 78.178L110.659 72.6449C110.431 72.4934 109.977 72.4934 109.673 72.6449L106.642 74.3882C106.339 74.6156 106.339 74.843 106.566 74.9946L116.192 80.5276C116.419 80.6792 116.874 80.6792 117.177 80.5276L120.209 78.7085C120.512 78.5569 120.512 78.3296 120.209 78.178Z" fill="#24126A"/>
<path id="&#60;Path&#62;_72" d="M181.982 113.803L172.432 108.27C172.129 108.118 171.674 108.118 171.446 108.27L168.339 110.089C168.111 110.241 168.036 110.468 168.339 110.62L177.889 116.153C178.192 116.304 178.647 116.304 178.874 116.153L181.906 114.409C182.209 114.182 182.209 113.955 181.982 113.803Z" fill="#24126A"/>
<path id="&#60;Path&#62;_73" d="M172.659 102.358L169.4 100.463C169.173 100.312 168.718 100.312 168.415 100.463L164.777 102.586C164.549 102.813 164.473 103.04 164.777 103.192L168.036 105.087C168.263 105.238 168.718 105.238 169.021 105.011L172.583 102.889C172.887 102.737 172.887 102.51 172.659 102.358Z" fill="#24126A"/>
<path id="&#60;Path&#62;_74" d="M136.202 81.2859L130.972 78.2541C130.669 78.1025 130.29 78.1025 129.987 78.3299L126.348 80.3763C126.045 80.6037 126.045 80.8311 126.348 80.9827L131.503 84.0145C131.806 84.1661 132.26 84.1661 132.488 83.9387L136.126 81.8164C136.429 81.6649 136.429 81.4375 136.202 81.2859Z" fill="#24126A"/>
<path id="&#60;Path&#62;_75" d="M167.809 99.5558L162.579 96.524C162.351 96.3724 161.897 96.4482 161.593 96.5998L158.031 98.7221C157.728 98.8737 157.728 99.1011 157.955 99.2527L163.185 102.284C163.413 102.436 163.867 102.436 164.17 102.209L167.809 100.162C168.036 99.9348 168.112 99.7074 167.809 99.5558Z" fill="#24126A"/>
<path id="&#60;Path&#62;_76" d="M143.402 85.4543L138.248 82.4225C137.945 82.2709 137.49 82.3467 137.187 82.4983L133.625 84.6205C133.322 84.7721 133.322 84.9995 133.549 85.1511L138.779 88.1829C139.006 88.3345 139.461 88.3345 139.764 88.1829L143.402 86.0606C143.63 85.8332 143.706 85.6059 143.402 85.4543Z" fill="#24126A"/>
<path id="&#60;Path&#62;_77" d="M133.625 85.2267L156.212 98.2634C156.515 98.415 156.97 98.415 157.197 98.2634L160.911 96.1411C161.139 95.9895 161.139 95.6864 160.911 95.5348L138.248 82.498L133.625 85.2267Z" fill="#24126A"/>
<path id="&#60;Path&#62;_78" d="M181.906 110.391L185.544 112.514C185.771 112.589 186.15 112.589 186.378 112.438L187.818 111.604C188.045 111.452 188.045 111.225 187.894 111.149L184.256 109.027C184.028 108.875 183.649 108.951 183.422 109.027L181.982 109.937C181.754 110.088 181.678 110.24 181.906 110.391Z" fill="#24126A"/>
<path id="&#60;Path&#62;_79" d="M176.828 107.438L180.466 109.56C180.693 109.711 181.072 109.636 181.3 109.56L182.74 108.65C182.967 108.499 183.043 108.347 182.816 108.195L179.177 106.073C178.95 105.997 178.571 105.997 178.344 106.149L176.904 106.983C176.676 107.134 176.6 107.362 176.828 107.438Z" fill="#24126A"/>
<path id="&#60;Path&#62;_80" d="M171.825 104.556L175.463 106.678C175.691 106.754 175.994 106.754 176.297 106.602L177.737 105.769C177.965 105.617 177.965 105.39 177.737 105.314L174.175 103.192C173.948 103.116 173.569 103.116 173.341 103.192L171.825 104.101C171.598 104.253 171.598 104.404 171.825 104.556Z" fill="#24126A"/>
<path id="&#60;Path&#62;_81" d="M174.251 109.027L177.889 111.073C178.041 111.225 178.42 111.225 178.647 111.073L180.163 110.164C180.39 110.088 180.39 109.861 180.163 109.709L176.525 107.663C176.373 107.511 175.994 107.511 175.767 107.663L174.251 108.496C174.023 108.648 174.023 108.875 174.251 109.027Z" fill="#24126A"/>
</g>
</g>
</g>
</g>
<g id="&#60;Group&#62;_12" opacity="0.8">
<path id="&#60;Path&#62;_82" d="M48.2804 111.901L45.0971 110.006C44.7939 109.854 44.8697 109.627 45.1729 109.4L48.9626 107.202C49.2658 107.05 49.7206 107.05 49.9479 107.202L53.2071 109.021C53.4345 109.172 53.4345 109.475 53.1313 109.627L49.3416 111.825C49.0384 111.977 48.5836 112.052 48.2804 111.901Z" fill="#24126A"/>
<path id="&#60;Path&#62;_83" d="M53.2831 114.706L50.0997 112.887C49.7966 112.735 49.8724 112.432 50.1755 112.28L53.9653 110.082C54.2685 109.931 54.7232 109.931 54.9506 110.082L58.2098 111.902C58.4372 112.053 58.4372 112.356 58.134 112.508L54.2685 114.706C53.9653 114.858 53.5863 114.858 53.2831 114.706Z" fill="#24126A"/>
<path id="&#60;Path&#62;_84" d="M58.2855 117.587L55.0263 115.768C54.799 115.616 54.799 115.313 55.1021 115.161L58.8919 112.963C59.1951 112.812 59.6498 112.812 59.953 112.963L63.1364 114.782C63.4396 114.934 63.3638 115.237 63.0606 115.389L59.2709 117.587C58.9677 117.738 58.5129 117.738 58.2855 117.587Z" fill="#24126A"/>
<path id="&#60;Path&#62;_85" d="M65.183 115.237L61.9238 113.418C61.6964 113.266 61.6964 112.963 61.9996 112.811L65.183 110.916C65.4861 110.765 65.9409 110.765 66.1683 110.916L69.4275 112.736C69.6549 112.887 69.6549 113.19 69.3517 113.342L66.1683 115.237C65.8651 115.388 65.4104 115.388 65.183 115.237Z" fill="#24126A"/>
<path id="&#60;Path&#62;_86" d="M70.1093 118.118L66.9259 116.223C66.6227 116.071 66.6985 115.844 67.0017 115.692L70.1851 113.797C70.4883 113.646 70.943 113.646 71.1704 113.797L74.4296 115.616C74.657 115.768 74.657 116.071 74.3538 116.223L71.1704 118.042C70.8672 118.269 70.4125 118.269 70.1093 118.118Z" fill="#24126A"/>
<path id="&#60;Path&#62;_87" d="M75.1122 120.998L71.853 119.104C71.6256 118.952 71.6256 118.725 71.9288 118.573L75.1122 116.678C75.4153 116.527 75.8701 116.527 76.1733 116.678L79.3567 118.497C79.6599 118.649 79.5841 118.952 79.2809 119.104L76.0975 120.923C75.7943 121.15 75.3396 121.15 75.1122 120.998Z" fill="#24126A"/>
<path id="&#60;Path&#62;_88" d="M80.1144 123.877L76.8552 121.982C76.6278 121.831 76.6278 121.604 76.931 121.452L80.1144 119.557C80.4176 119.405 80.8723 119.405 81.0997 119.557L84.3589 121.376C84.5863 121.528 84.5863 121.831 84.2831 121.982L81.0997 123.802C80.7965 124.029 80.3418 124.029 80.1144 123.877Z" fill="#24126A"/>
<path id="&#60;Path&#62;_89" d="M85.0409 126.758L81.8576 124.863C81.5544 124.712 81.6302 124.484 81.9334 124.257L85.1167 122.438C85.4199 122.286 85.8747 122.286 86.1021 122.438L89.3613 124.257C89.5886 124.409 89.5886 124.712 89.2855 124.863L86.1021 126.682C85.7989 126.834 85.3441 126.91 85.0409 126.758Z" fill="#24126A"/>
<path id="&#60;Path&#62;_90" d="M90.0436 129.635L86.7844 127.74C86.557 127.589 86.557 127.361 86.8602 127.134L90.0436 125.315C90.3468 125.163 90.8015 125.163 91.1047 125.315L94.2881 127.134C94.5913 127.286 94.5155 127.513 94.2123 127.74L91.0289 129.559C90.7257 129.711 90.271 129.787 90.0436 129.635Z" fill="#24126A"/>
<path id="&#60;Path&#62;_91" d="M95.0458 132.518L91.7866 130.623C91.5592 130.471 91.5592 130.244 91.8624 130.017L95.0458 128.197C95.349 128.046 95.8037 127.97 96.0311 128.122L99.2903 130.017C99.5177 130.168 99.5177 130.396 99.2145 130.623L96.0311 132.442C95.7279 132.594 95.2732 132.669 95.0458 132.518Z" fill="#24126A"/>
<path id="&#60;Path&#62;_92" d="M99.9726 135.323L96.7892 133.504C96.486 133.352 96.5618 133.049 96.865 132.897L100.048 131.078C100.352 130.927 100.806 130.851 101.034 131.003L104.293 132.897C104.52 133.049 104.52 133.276 104.217 133.504L101.034 135.323C100.731 135.474 100.276 135.474 99.9726 135.323Z" fill="#24126A"/>
<path id="&#60;Path&#62;_93" d="M104.975 138.204L101.716 136.385C101.489 136.233 101.489 135.93 101.792 135.778L104.975 133.959C105.278 133.808 105.733 133.732 106.036 133.883L109.22 135.778C109.523 135.93 109.447 136.157 109.144 136.309L105.961 138.204C105.657 138.355 105.203 138.355 104.975 138.204Z" fill="#24126A"/>
<path id="&#60;Path&#62;_94" d="M109.978 141.086L106.718 139.267C106.491 139.115 106.491 138.812 106.794 138.661L109.978 136.842C110.281 136.614 110.736 136.614 110.963 136.766L114.222 138.661C114.45 138.812 114.45 139.04 114.146 139.191L110.963 141.086C110.66 141.238 110.205 141.238 109.978 141.086Z" fill="#24126A"/>
<path id="&#60;Path&#62;_95" d="M72.4591 113.871L69.2758 112.052C68.9726 111.901 69.0484 111.597 69.3516 111.446L72.5349 109.627C72.8381 109.399 73.2929 109.399 73.5203 109.551L76.7795 111.446C77.0068 111.597 77.0068 111.825 76.7037 111.976L73.5203 113.871C73.2171 114.023 72.7623 114.023 72.4591 113.871Z" fill="#24126A"/>
<path id="&#60;Path&#62;_96" d="M67.4564 110.993L64.1972 109.098C63.9699 108.946 63.9699 108.719 64.273 108.491L67.4564 106.672C67.7596 106.521 68.2144 106.521 68.5176 106.672L71.7009 108.491C72.0041 108.643 71.9283 108.87 71.6251 109.098L68.4418 110.917C68.1386 111.068 67.6838 111.144 67.4564 110.993Z" fill="#24126A"/>
<path id="&#60;Path&#62;_97" d="M62.3786 108.037L55.4055 104.02C55.1781 103.868 55.1781 103.641 55.4813 103.489L58.6647 101.594C58.9679 101.443 59.4226 101.443 59.7258 101.594L66.6231 105.611C66.9263 105.687 66.8505 105.99 66.5473 106.142L63.364 108.037C63.0608 108.188 62.606 108.188 62.3786 108.037Z" fill="#24126A"/>
<path id="&#60;Path&#62;_98" d="M65.9407 104.474L60.2561 101.215C60.0287 101.063 60.0287 100.836 60.3319 100.684L63.5153 98.7895C63.8184 98.6379 64.2732 98.6379 64.5764 98.7895L70.1852 102.049C70.4126 102.2 70.4126 102.428 70.1094 102.579L66.926 104.474C66.6229 104.626 66.1681 104.626 65.9407 104.474Z" fill="#24126A"/>
<path id="&#60;Path&#62;_99" d="M77.4613 116.752L74.2021 114.857C73.9747 114.782 73.9747 114.479 74.2779 114.327L77.5371 112.432C77.8403 112.28 78.2192 112.28 78.5224 112.432L81.7058 114.251C82.009 114.403 81.9332 114.706 81.63 114.857L78.4466 116.677C78.1434 116.904 77.6887 116.904 77.4613 116.752Z" fill="#24126A"/>
<path id="&#60;Path&#62;_100" d="M82.4642 119.635L79.205 117.74C78.9777 117.589 78.9777 117.361 79.2808 117.21L82.4642 115.315C82.7674 115.163 83.2222 115.163 83.5254 115.315L86.7088 117.134C86.9361 117.286 86.9361 117.589 86.633 117.74L83.4496 119.559C83.1464 119.787 82.6916 119.787 82.4642 119.635Z" fill="#24126A"/>
<path id="&#60;Path&#62;_101" d="M87.391 122.51L84.2077 120.615C83.9045 120.464 83.9803 120.236 84.2834 120.085L87.4668 118.19C87.77 118.038 88.2248 118.038 88.4522 118.19L91.7113 120.009C91.9387 120.161 91.9387 120.464 91.6356 120.615L88.4522 122.434C88.149 122.662 87.6942 122.662 87.391 122.51Z" fill="#24126A"/>
<path id="&#60;Path&#62;_102" d="M92.3932 125.395L89.134 123.5C88.9066 123.348 88.9066 123.121 89.2098 122.97L92.469 121.075C92.7722 120.923 93.1511 120.923 93.4543 121.075L96.6377 122.894C96.9409 123.045 96.8651 123.348 96.5619 123.5L93.3785 125.319C93.0753 125.471 92.6206 125.547 92.3932 125.395Z" fill="#24126A"/>
<path id="&#60;Path&#62;_103" d="M97.3954 128.276L94.1362 126.381C93.9088 126.229 93.9088 126.002 94.212 125.775L97.3954 123.955C97.6986 123.804 98.1533 123.804 98.4565 123.955L101.64 125.775C101.867 125.926 101.867 126.229 101.564 126.381L98.3807 128.2C98.0775 128.352 97.6228 128.427 97.3954 128.276Z" fill="#24126A"/>
<path id="&#60;Path&#62;_104" d="M102.322 131.155L99.139 129.26C98.8359 129.108 98.9117 128.881 99.2148 128.654L102.398 126.835C102.701 126.683 103.156 126.683 103.384 126.759L106.643 128.654C106.87 128.805 106.87 129.033 106.567 129.26L103.384 131.079C103.08 131.231 102.626 131.306 102.322 131.155Z" fill="#24126A"/>
<path id="&#60;Path&#62;_105" d="M107.325 134.035L104.066 132.14C103.838 131.989 103.838 131.762 104.141 131.534L107.401 129.715C107.704 129.563 108.083 129.488 108.386 129.639L111.569 131.534C111.873 131.686 111.797 131.913 111.494 132.14L108.31 133.96C108.007 134.111 107.552 134.111 107.325 134.035Z" fill="#24126A"/>
<path id="&#60;Path&#62;_106" d="M112.327 136.838L109.068 135.019C108.841 134.868 108.841 134.565 109.144 134.413L112.327 132.594C112.63 132.442 113.085 132.367 113.388 132.518L116.572 134.413C116.799 134.565 116.799 134.792 116.496 135.019L113.313 136.838C113.009 136.99 112.555 136.99 112.327 136.838Z" fill="#24126A"/>
<path id="&#60;Path&#62;_107" d="M117.254 139.719L114.07 137.9C113.767 137.748 113.843 137.445 114.146 137.293L117.329 135.474C117.633 135.247 118.087 135.247 118.315 135.399L121.574 137.293C121.801 137.445 121.801 137.672 121.498 137.824L118.315 139.719C118.012 139.871 117.557 139.871 117.254 139.719Z" fill="#24126A"/>
<path id="&#60;Path&#62;_108" d="M126.122 144.874L119.073 140.781C118.846 140.63 118.846 140.402 119.149 140.175L122.332 138.356C122.635 138.204 123.09 138.204 123.393 138.356L130.366 142.373C130.67 142.525 130.594 142.828 130.366 142.979L127.107 144.798C126.804 144.95 126.349 145.026 126.122 144.874Z" fill="#24126A"/>
<path id="&#60;Path&#62;_109" d="M135.824 139.262L129.912 135.851C129.609 135.699 129.684 135.396 129.988 135.245L133.171 133.426C133.474 133.198 133.929 133.198 134.156 133.35L140.068 136.761C140.371 136.912 140.296 137.215 139.992 137.367L136.809 139.186C136.506 139.413 136.051 139.413 135.824 139.262Z" fill="#24126A"/>
<path id="&#60;Path&#62;_110" d="M86.1781 116.223L82.9189 114.328C82.6915 114.177 82.6915 113.949 82.9947 113.722L86.2539 111.903C86.5571 111.751 86.936 111.751 87.2392 111.827L90.4226 113.722C90.7258 113.874 90.65 114.101 90.3468 114.328L87.1634 116.147C86.8602 116.299 86.4055 116.375 86.1781 116.223Z" fill="#24126A"/>
<path id="&#60;Path&#62;_111" d="M81.0995 113.266L77.8403 111.371C77.6129 111.22 77.6129 110.992 77.9161 110.841L81.0995 108.946C81.4027 108.794 81.8574 108.794 82.1606 108.946L85.344 110.765C85.6472 110.916 85.5714 111.22 85.2682 111.371L82.0848 113.19C81.7816 113.342 81.3269 113.418 81.0995 113.266Z" fill="#24126A"/>
<path id="&#60;Path&#62;_112" d="M75.9457 110.313L72.7623 108.418C72.4592 108.266 72.535 108.039 72.8381 107.887L76.0215 105.993C76.3247 105.841 76.7795 105.841 77.0069 105.993L80.266 107.812C80.4934 107.963 80.4934 108.266 80.1902 108.418L77.0069 110.237C76.7037 110.464 76.2489 110.465 75.9457 110.313Z" fill="#24126A"/>
<path id="&#60;Path&#62;_113" d="M70.8676 107.354L67.6842 105.459C67.381 105.383 67.4568 105.08 67.76 104.928L70.9434 103.034C71.2466 102.882 71.7013 102.882 71.9287 103.034L75.1879 104.853C75.4153 105.004 75.3395 105.307 75.1121 105.459L71.8529 107.278C71.5498 107.506 71.1708 107.506 70.8676 107.354Z" fill="#24126A"/>
<path id="&#60;Path&#62;_114" d="M91.1803 119.102L87.9211 117.207C87.6937 117.055 87.6937 116.828 87.9969 116.601L91.1803 114.781C91.4835 114.63 91.9383 114.554 92.2414 114.706L95.4248 116.601C95.6522 116.752 95.6522 116.98 95.349 117.207L92.1656 119.026C91.8625 119.178 91.4077 119.178 91.1803 119.102Z" fill="#24126A"/>
<path id="&#60;Path&#62;_115" d="M96.1069 121.905L92.9235 120.086C92.6203 119.934 92.6961 119.631 92.9993 119.479L96.1827 117.66C96.4858 117.509 96.9406 117.433 97.168 117.585L100.427 119.479C100.655 119.631 100.655 119.858 100.351 120.086L97.168 121.905C96.8648 122.056 96.41 122.056 96.1069 121.905Z" fill="#24126A"/>
<path id="&#60;Path&#62;_116" d="M101.11 124.788L97.8503 122.969C97.6229 122.817 97.6229 122.514 97.9261 122.362L101.185 120.543C101.488 120.392 101.867 120.316 102.171 120.467L105.354 122.362C105.657 122.514 105.581 122.741 105.278 122.893L102.095 124.788C101.792 124.939 101.337 124.939 101.11 124.788Z" fill="#24126A"/>
<path id="&#60;Path&#62;_117" d="M106.112 127.668L102.853 125.849C102.626 125.697 102.626 125.394 102.929 125.243L106.112 123.424C106.415 123.196 106.87 123.196 107.173 123.348L110.357 125.243C110.584 125.394 110.584 125.622 110.281 125.773L107.098 127.668C106.794 127.82 106.34 127.82 106.112 127.668Z" fill="#24126A"/>
<path id="&#60;Path&#62;_118" d="M111.038 130.549L107.855 128.73C107.552 128.578 107.628 128.275 107.931 128.124L111.114 126.304C111.417 126.077 111.872 126.077 112.1 126.229L115.359 128.124C115.586 128.275 115.586 128.503 115.283 128.654L112.1 130.549C111.796 130.701 111.342 130.701 111.038 130.549Z" fill="#24126A"/>
<path id="&#60;Path&#62;_119" d="M116.041 133.43L112.782 131.611C112.555 131.459 112.555 131.156 112.858 131.004L116.117 129.185C116.42 128.958 116.799 128.958 117.102 129.11L120.286 131.004C120.589 131.08 120.513 131.383 120.21 131.535L117.026 133.43C116.723 133.581 116.269 133.581 116.041 133.43Z" fill="#24126A"/>
<path id="&#60;Path&#62;_120" d="M121.044 136.307L117.784 134.412C117.557 134.261 117.557 134.033 117.86 133.882L121.044 131.987C121.347 131.835 121.802 131.835 122.105 131.987L125.288 133.806C125.515 133.957 125.515 134.261 125.212 134.412L122.029 136.231C121.726 136.459 121.271 136.459 121.044 136.307Z" fill="#24126A"/>
<path id="&#60;Path&#62;_121" d="M125.97 139.188L122.787 137.293C122.484 137.141 122.56 136.914 122.863 136.762L126.046 134.868C126.349 134.716 126.804 134.716 127.032 134.868L130.291 136.687C130.518 136.838 130.518 137.141 130.215 137.293L127.032 139.112C126.728 139.339 126.274 139.34 125.97 139.188Z" fill="#24126A"/>
<path id="&#60;Path&#62;_122" d="M130.973 142.069L127.714 140.174C127.486 140.022 127.486 139.795 127.79 139.643L131.049 137.748C131.352 137.597 131.731 137.597 132.034 137.748L135.218 139.568C135.521 139.719 135.445 140.022 135.142 140.174L131.958 141.993C131.655 142.22 131.2 142.22 130.973 142.069Z" fill="#24126A"/>
<path id="&#60;Path&#62;_123" d="M83.5253 109.098L80.3419 107.203C80.0387 107.052 80.1145 106.824 80.4177 106.673L83.6011 104.778C83.9043 104.626 84.3591 104.626 84.5864 104.778L87.8456 106.597C88.073 106.748 88.073 107.052 87.7698 107.203L84.5864 109.022C84.2833 109.25 83.8285 109.25 83.5253 109.098Z" fill="#24126A"/>
<path id="&#60;Path&#62;_124" d="M78.5988 106.213L75.4154 104.394C75.1122 104.242 75.188 103.939 75.4912 103.788L78.6746 101.969C78.9778 101.741 79.4325 101.741 79.6599 101.893L82.8433 103.788C83.1465 103.939 83.0707 104.167 82.8433 104.318L79.5841 106.213C79.281 106.365 78.8262 106.365 78.5988 106.213Z" fill="#24126A"/>
<path id="&#60;Path&#62;_125" d="M73.6717 103.337L70.4126 101.517C70.1852 101.366 70.1852 101.063 70.4884 100.911L73.6717 99.092C73.9749 98.9404 74.4297 98.8646 74.7329 99.0162L77.9163 100.911C78.2194 101.063 78.1436 101.29 77.8405 101.517L74.6571 103.337C74.3539 103.488 73.8991 103.488 73.6717 103.337Z" fill="#24126A"/>
<path id="&#60;Path&#62;_126" d="M68.6694 100.53L65.486 98.6348C65.1828 98.4832 65.2586 98.2559 65.5618 98.0285L68.7451 96.2094C69.0483 96.0578 69.5031 96.0578 69.7305 96.2094L72.9897 98.0285C73.2171 98.1801 73.217 98.4832 72.9139 98.6348L69.7305 100.454C69.4273 100.606 68.9725 100.681 68.6694 100.53Z" fill="#24126A"/>
<path id="&#60;Path&#62;_127" d="M73.8236 97.5765L70.5644 95.6817C70.337 95.5301 70.337 95.3027 70.6402 95.1511L71.7013 94.5447C72.0045 94.3173 72.4593 94.3173 72.6867 94.4689L75.9459 96.3638C76.1732 96.5154 76.1732 96.7428 75.8701 96.8944L74.8089 97.5007C74.5058 97.7281 74.051 97.7281 73.8236 97.5765Z" fill="#24126A"/>
<path id="&#60;Path&#62;_128" d="M80.266 101.29L77.0068 99.4708C76.7794 99.3192 76.7794 99.016 77.0826 98.8644L78.1437 98.258C78.4469 98.1064 78.9017 98.0307 79.2049 98.1822L82.3882 100.077C82.6156 100.229 82.6156 100.456 82.3124 100.683L81.2513 101.29C80.9481 101.441 80.4934 101.441 80.266 101.29Z" fill="#24126A"/>
<path id="&#60;Path&#62;_129" d="M85.1925 104.171L81.9333 102.276C81.7059 102.124 81.7059 101.897 82.0091 101.669L83.0702 101.063C83.3734 100.911 83.8282 100.911 84.1314 101.063L87.3148 102.882C87.6179 103.034 87.5421 103.337 87.239 103.488L86.1778 104.095C85.8747 104.246 85.4199 104.322 85.1925 104.171Z" fill="#24126A"/>
<path id="&#60;Path&#62;_130" d="M90.1193 106.975L86.8601 105.156C86.6327 105.005 86.6327 104.702 86.9359 104.55L87.997 103.944C88.3002 103.792 88.7549 103.716 89.0581 103.868L92.2415 105.763C92.5447 105.914 92.4689 106.142 92.1657 106.369L91.1046 106.975C90.8014 107.127 90.3467 107.127 90.1193 106.975Z" fill="#24126A"/>
<path id="&#60;Path&#62;_131" d="M95.0462 109.856L91.8628 107.961C91.5596 107.809 91.6354 107.582 91.8628 107.43L92.9239 106.824C93.2271 106.597 93.6819 106.597 93.9851 106.748L97.1684 108.643C97.4716 108.719 97.3958 109.022 97.0926 109.174L96.0315 109.78C95.7283 110.007 95.2736 110.007 95.0462 109.856Z" fill="#24126A"/>
<path id="&#60;Path&#62;_132" d="M122.56 125.772L119.376 123.877C119.073 123.726 119.149 123.498 119.452 123.271L120.513 122.664C120.816 122.513 121.271 122.513 121.499 122.664L124.758 124.484C124.985 124.635 124.985 124.938 124.682 125.09L123.621 125.696C123.318 125.848 122.863 125.924 122.56 125.772Z" fill="#24126A"/>
<path id="&#60;Path&#62;_133" d="M127.486 128.579L124.303 126.76C124 126.608 124.075 126.305 124.379 126.153L125.44 125.547C125.743 125.396 126.198 125.32 126.425 125.471L129.684 127.366C129.912 127.518 129.912 127.745 129.609 127.973L128.547 128.579C128.244 128.73 127.789 128.73 127.486 128.579Z" fill="#24126A"/>
<path id="&#60;Path&#62;_134" d="M132.413 131.458L129.23 129.563C129.002 129.411 129.002 129.184 129.306 128.956L130.367 128.35C130.67 128.198 131.125 128.198 131.352 128.35L134.611 130.169C134.839 130.321 134.839 130.624 134.535 130.775L133.474 131.382C133.171 131.533 132.716 131.609 132.413 131.458Z" fill="#24126A"/>
<path id="&#60;Path&#62;_135" d="M137.415 134.261L134.156 132.441C133.929 132.29 133.929 131.987 134.232 131.835L135.293 131.229C135.596 131.077 136.051 131.001 136.278 131.153L139.537 133.048C139.765 133.199 139.765 133.427 139.462 133.654L138.4 134.261C138.097 134.412 137.643 134.412 137.415 134.261Z" fill="#24126A"/>
<path id="&#60;Path&#62;_136" d="M88.5273 111.979L85.3439 110.084C85.0407 109.932 85.1165 109.705 85.4197 109.553L88.6031 107.659C88.9063 107.507 89.361 107.507 89.5884 107.659L92.7718 109.478C93.075 109.629 92.9992 109.932 92.7718 110.084L89.5126 111.903C89.2094 112.055 88.8305 112.131 88.5273 111.979Z" fill="#24126A"/>
<path id="&#60;Path&#62;_137" d="M93.5302 114.856L90.271 112.961C90.0436 112.809 90.0436 112.582 90.3468 112.355L93.5302 110.536C93.8333 110.384 94.2881 110.384 94.5913 110.536L97.7747 112.355C98.0778 112.506 98.0021 112.809 97.6989 112.961L94.5155 114.78C94.2123 114.932 93.7575 115.007 93.5302 114.856Z" fill="#24126A"/>
<path id="&#60;Path&#62;_138" d="M98.457 117.737L95.2736 115.842C94.9704 115.69 95.0462 115.463 95.3494 115.235L98.5327 113.416C98.8359 113.265 99.2907 113.189 99.5181 113.34L102.777 115.235C103.005 115.387 103.005 115.614 102.701 115.842L99.5181 117.661C99.2149 117.812 98.7601 117.888 98.457 117.737Z" fill="#24126A"/>
<path id="&#60;Path&#62;_139" d="M103.459 120.544L100.276 118.724C99.9726 118.573 100.048 118.346 100.352 118.118L103.535 116.299C103.838 116.147 104.293 116.072 104.52 116.223L107.704 118.118C108.007 118.27 107.931 118.497 107.704 118.724L104.444 120.544C104.141 120.695 103.687 120.695 103.459 120.544Z" fill="#24126A"/>
<path id="&#60;Path&#62;_140" d="M108.462 123.422L105.203 121.603C104.975 121.452 104.975 121.149 105.278 120.997L108.462 119.178C108.765 119.026 109.22 118.951 109.523 119.102L112.706 120.997C113.009 121.149 112.934 121.376 112.63 121.603L109.447 123.422C109.144 123.574 108.689 123.574 108.462 123.422Z" fill="#24126A"/>
<path id="&#60;Path&#62;_141" d="M113.388 126.305L110.205 124.486C109.902 124.334 109.978 124.031 110.281 123.879L113.464 122.06C113.767 121.833 114.222 121.833 114.449 121.985L117.709 123.879C117.936 124.031 117.936 124.258 117.633 124.41L114.449 126.305C114.146 126.456 113.692 126.456 113.388 126.305Z" fill="#24126A"/>
<path id="&#60;Path&#62;_142" d="M118.391 129.182L115.207 127.363C114.904 127.211 114.98 126.908 115.283 126.756L118.466 124.937C118.77 124.71 119.224 124.71 119.452 124.862L122.635 126.756C122.938 126.908 122.862 127.135 122.635 127.287L119.376 129.182C119.073 129.333 118.618 129.333 118.391 129.182Z" fill="#24126A"/>
<path id="&#60;Path&#62;_143" d="M123.393 132.067L120.134 130.247C119.907 130.096 119.907 129.793 120.21 129.641L123.393 127.822C123.696 127.595 124.151 127.595 124.454 127.746L127.638 129.641C127.941 129.793 127.865 130.02 127.562 130.172L124.379 132.067C124.075 132.218 123.621 132.218 123.393 132.067Z" fill="#24126A"/>
<path id="&#60;Path&#62;_144" d="M128.32 134.944L125.137 133.049C124.833 132.973 124.909 132.67 125.212 132.518L128.396 130.623C128.699 130.472 129.154 130.472 129.381 130.623L132.64 132.443C132.868 132.594 132.868 132.897 132.565 133.049L129.381 134.868C129.078 135.095 128.623 135.095 128.32 134.944Z" fill="#24126A"/>
<path id="&#60;Path&#62;_145" d="M60.1046 112.28L50.5544 106.822C50.327 106.671 50.327 106.443 50.6302 106.216L53.8894 104.397C54.1168 104.245 54.5716 104.245 54.8747 104.397L64.3491 109.854C64.5765 110.006 64.5765 110.233 64.2733 110.46L61.0899 112.28C60.7867 112.431 60.332 112.431 60.1046 112.28Z" fill="#24126A"/>
<path id="&#60;Path&#62;_146" d="M121.195 147.602L111.721 142.144C111.494 141.993 111.494 141.69 111.797 141.538L114.98 139.719C115.283 139.567 115.738 139.492 116.041 139.643L125.516 145.176C125.743 145.328 125.743 145.555 125.44 145.707L122.256 147.602C121.953 147.753 121.498 147.753 121.195 147.602Z" fill="#24126A"/>
<path id="&#60;Path&#62;_147" d="M101.337 142.448L98.0779 140.629C97.8505 140.477 97.8505 140.174 98.1536 140.023L101.943 137.825C102.247 137.673 102.701 137.673 103.005 137.825L106.188 139.644C106.491 139.795 106.415 140.098 106.112 140.25L102.322 142.448C102.019 142.6 101.564 142.6 101.337 142.448Z" fill="#24126A"/>
<path id="&#60;Path&#62;_148" d="M65.183 121.605L60.0289 118.649C59.7258 118.497 59.8016 118.194 60.1047 118.042L63.8945 115.844C64.1977 115.693 64.6524 115.693 64.8798 115.844L70.0339 118.8C70.337 118.952 70.2612 119.179 69.9581 119.331L66.1683 121.529C65.8651 121.756 65.4104 121.756 65.183 121.605Z" fill="#24126A"/>
<path id="&#60;Path&#62;_149" d="M96.5618 139.72L91.4077 136.764C91.1046 136.612 91.1803 136.309 91.4077 136.157L95.2733 133.959C95.5765 133.808 96.0312 133.732 96.2586 133.883L101.413 136.915C101.64 137.067 101.64 137.294 101.337 137.446L97.5471 139.644C97.2439 139.871 96.7892 139.871 96.5618 139.72Z" fill="#24126A"/>
<path id="&#60;Path&#62;_150" d="M72.3832 125.774L67.2291 122.742C66.926 122.591 67.0018 122.363 67.3049 122.212L71.0947 120.013C71.3979 119.786 71.8526 119.786 72.08 119.938L77.2341 122.894C77.5372 123.045 77.4614 123.348 77.1583 123.5L73.3685 125.698C73.0653 125.85 72.6106 125.925 72.3832 125.774Z" fill="#24126A"/>
<path id="&#60;Path&#62;_151" d="M72.1559 119.938L94.5154 132.898C94.8186 133.05 94.8186 133.353 94.5154 133.505L90.6499 135.703C90.3467 135.93 89.8919 135.93 89.6645 135.703L67.2292 122.818L72.1559 119.938Z" fill="#24126A"/>
<path id="&#60;Path&#62;_152" d="M115.207 147.676L118.846 149.723C118.997 149.874 118.997 150.102 118.77 150.253L117.178 151.163C116.951 151.239 116.572 151.315 116.344 151.163L112.782 149.116C112.555 148.965 112.63 148.738 112.858 148.586L114.374 147.752C114.677 147.601 115.056 147.525 115.207 147.676Z" fill="#24126A"/>
<path id="&#60;Path&#62;_153" d="M110.205 144.795L113.767 146.842C113.995 146.993 113.995 147.221 113.767 147.297L112.176 148.206C111.948 148.358 111.569 148.358 111.342 148.282L107.78 146.16C107.552 146.084 107.552 145.856 107.855 145.705L109.371 144.795C109.599 144.644 109.978 144.644 110.205 144.795Z" fill="#24126A"/>
<path id="&#60;Path&#62;_154" d="M105.203 141.916L108.841 143.962C109.068 144.114 108.992 144.341 108.765 144.493L107.173 145.326C106.946 145.478 106.567 145.478 106.415 145.402L102.777 143.356C102.55 143.204 102.626 142.977 102.853 142.825L104.445 141.916C104.672 141.84 105.051 141.764 105.203 141.916Z" fill="#24126A"/>
<path id="&#60;Path&#62;_155" d="M112.934 143.207L116.572 145.254C116.799 145.406 116.723 145.633 116.496 145.784L114.904 146.618C114.677 146.77 114.298 146.77 114.07 146.694L110.508 144.648C110.281 144.496 110.357 144.269 110.584 144.117L112.1 143.207C112.403 143.056 112.782 143.056 112.934 143.207Z" fill="#24126A"/>
</g>
</g>
<g id="&#60;Group&#62;_13">
<path id="&#60;Compound Path&#62;_3" d="M163.717 65.7423C163.464 65.7423 163.211 65.6665 162.959 65.515C162.201 65.136 161.746 64.0749 161.898 63.3169C162.049 62.9379 162.277 62.6348 162.58 62.4832C162.883 62.3316 163.338 62.4074 163.793 62.6348C164.551 63.0895 165.005 64.0749 164.778 64.8328C164.702 65.2118 164.475 65.515 164.172 65.6665C164.02 65.7171 163.868 65.7423 163.717 65.7423ZM163.035 62.7863C162.934 62.7863 162.833 62.8116 162.731 62.8621C162.479 62.9632 162.327 63.14 162.277 63.3927C162.125 64.0749 162.504 64.9086 163.186 65.2118C163.489 65.4392 163.793 65.4392 164.02 65.3634C164.273 65.2623 164.424 65.0602 164.475 64.757C164.626 64.1507 164.247 63.3169 163.565 62.9379C163.363 62.8369 163.186 62.7863 163.035 62.7863Z" fill="#78FF57"/>
<path id="&#60;Compound Path&#62;_4" d="M167.81 68.0918C167.557 68.0918 167.33 68.0412 167.128 67.9402C166.294 67.4854 165.839 66.5001 166.067 65.6663C166.142 65.2874 166.37 65.06 166.673 64.9084C167.052 64.7568 167.431 64.7568 167.886 64.9842C168.644 65.4389 169.098 66.4243 168.947 67.258C168.795 67.637 168.568 67.8644 168.265 68.016C168.164 68.0665 168.012 68.0918 167.81 68.0918ZM167.128 65.1358C167.027 65.1358 166.926 65.161 166.825 65.2116C166.572 65.3126 166.42 65.4895 166.37 65.7421C166.218 66.4243 166.597 67.258 167.279 67.637C167.583 67.7886 167.886 67.8644 168.113 67.7128C168.366 67.6117 168.517 67.4349 168.568 67.1822C168.719 66.5001 168.34 65.6663 167.658 65.2874C167.507 65.1863 167.33 65.1358 167.128 65.1358Z" fill="#78FF57"/>
<path id="&#60;Path&#62;_156" d="M172.888 69.5326C172.661 70.2906 171.979 70.518 171.297 70.139C170.614 69.76 170.16 68.8505 170.311 68.0925C170.463 67.4104 171.145 67.1072 171.903 67.5619C172.585 67.9409 173.04 68.8505 172.888 69.5326Z" fill="#78FF57"/>
</g>
<path id="&#60;Path&#62;_157" d="M94.1368 24.2856L91.9387 22.9971L92.1661 22.0117L94.3641 23.3002L94.1368 24.2856Z" fill="#78FF57"/>
<path id="&#60;Path&#62;_158" d="M97.3205 26.1039L95.1982 24.8912L95.3498 23.8301L97.5479 25.1186L97.3205 26.1039Z" fill="#78FF57"/>
<path id="&#60;Path&#62;_159" d="M91.0293 22.4675L86.1785 19.6631L86.3301 18.6777L91.1809 21.4821L91.0293 22.4675Z" fill="#78FF57"/>
</g>
<g id="&#60;Group&#62;_14">
<g id="&#60;Group&#62;_15">
<path id="&#60;Path&#62;_160" d="M91.6361 41.6431L87.9221 39.5209L88.0737 38.6113L91.7877 40.7336L91.6361 41.6431Z" fill="#78FF57"/>
<path id="&#60;Path&#62;_161" d="M94.7439 43.3871L92.9248 42.4017L93.0764 41.4922L94.8955 42.5533L94.7439 43.3871Z" fill="#78FF57"/>
<path id="&#60;Path&#62;_162" d="M92.3939 44.2218L90.8022 43.3123L90.9538 42.4785L92.4697 43.3881L92.3939 44.2218Z" fill="#78FF57"/>
<path id="&#60;Path&#62;_163" d="M94.9714 45.7367L93.1523 44.6755L93.3039 43.8418L95.123 44.9029L94.9714 45.7367Z" fill="#78FF57"/>
<path id="&#60;Path&#62;_164" d="M97.6998 49.4517L90.4993 45.283L90.575 44.4492L97.8514 48.6179L97.6998 49.4517Z" fill="#78FF57"/>
<path id="&#60;Path&#62;_165" d="M91.409 66.1255L84.2085 61.9568L84.3601 61.123L91.5606 65.2918L91.409 66.1255Z" fill="#78FF57"/>
<path id="&#60;Path&#62;_166" d="M94.2131 67.791L92.394 66.7299L92.4698 65.8203L94.3647 66.8814L94.2131 67.791Z" fill="#78FF57"/>
<path id="&#60;Path&#62;_167" d="M91.712 48.2394L90.1204 47.3298L90.2719 46.4961L91.8636 47.3298L91.712 48.2394Z" fill="#78FF57"/>
<path id="&#60;Path&#62;_168" d="M94.2891 49.7539L92.47 48.6927L92.6216 47.7832L94.4406 48.8443L94.2891 49.7539Z" fill="#78FF57"/>
<path id="&#60;Path&#62;_169" d="M93.7585 51.5705L89.8171 49.2966L89.9687 48.4629L93.9101 50.7367L93.7585 51.5705Z" fill="#78FF57"/>
<path id="&#60;Path&#62;_170" d="M96.4111 53.0882L94.592 52.0271L94.7436 51.1934L96.5627 52.2545L96.4111 53.0882Z" fill="#78FF57"/>
<path id="&#60;Path&#62;_171" d="M99.0639 54.68L97.2449 53.6189L97.3964 52.7852L99.2155 53.8463L99.0639 54.68Z" fill="#78FF57"/>
<path id="&#60;Path&#62;_172" d="M103.384 57.181L99.8977 55.1345L100.049 54.3008L103.536 56.2715L103.384 57.181Z" fill="#78FF57"/>
<path id="&#60;Path&#62;_173" d="M100.656 59.9105L98.8367 58.8494L98.9882 58.0156L100.807 59.0767L100.656 59.9105Z" fill="#78FF57"/>
<path id="&#60;Path&#62;_174" d="M104.976 62.4114L101.49 60.4408L101.641 59.5312L105.128 61.5777L104.976 62.4114Z" fill="#78FF57"/>
<path id="&#60;Path&#62;_175" d="M90.9543 54.375L89.1353 53.3138L89.2869 52.4043L91.1059 53.4654L90.9543 54.375Z" fill="#78FF57"/>
<path id="&#60;Path&#62;_176" d="M93.6069 55.8929L91.7878 54.8318L91.9394 53.998L93.7585 55.0592L93.6069 55.8929Z" fill="#78FF57"/>
<path id="&#60;Path&#62;_177" d="M97.927 58.3939L94.4404 56.3474L94.592 55.5137L98.0786 57.5601L97.927 58.3939Z" fill="#78FF57"/>
<path id="&#60;Path&#62;_178" d="M103.612 59.4535L101.717 58.3923L101.868 57.5586L103.763 58.6197L103.612 59.4535Z" fill="#78FF57"/>
<path id="&#60;Path&#62;_179" d="M106.265 60.971L104.446 59.9099L104.597 59.0762L106.416 60.1373L106.265 60.971Z" fill="#78FF57"/>
<path id="&#60;Path&#62;_180" d="M110.585 63.472L107.098 61.5013L107.25 60.5918L110.737 62.6383L110.585 63.472Z" fill="#78FF57"/>
<path id="&#60;Path&#62;_181" d="M97.0932 69.3851L95.2742 68.324L95.35 67.4902L97.2448 68.5514L97.0932 69.3851Z" fill="#78FF57"/>
<path id="&#60;Path&#62;_182" d="M101.414 71.8845L97.927 69.9138L98.0786 69.0801L101.489 71.0507L101.414 71.8845Z" fill="#78FF57"/>
<path id="&#60;Path&#62;_183" d="M90.2717 58.3207L88.4526 57.2595L88.6042 56.4258L90.4233 57.4869L90.2717 58.3207Z" fill="#78FF57"/>
<path id="&#60;Path&#62;_184" d="M94.5923 60.8197L91.1057 58.7732L91.2573 57.9395L94.7439 59.9859L94.5923 60.8197Z" fill="#78FF57"/>
<path id="&#60;Path&#62;_185" d="M99.0639 72.7191L97.2449 71.658L97.3964 70.8242L99.2155 71.8853L99.0639 72.7191Z" fill="#78FF57"/>
<path id="&#60;Path&#62;_186" d="M103.384 75.2185L99.8977 73.2478L100.049 72.4141L103.536 74.3847L103.384 75.2185Z" fill="#78FF57"/>
<path id="&#60;Path&#62;_187" d="M103.157 52.6351L101.338 51.574L101.489 50.7402L103.308 51.8014L103.157 52.6351Z" fill="#78FF57"/>
<path id="&#60;Path&#62;_188" d="M100.428 51.0414L98.5334 49.9802L98.685 49.1465L100.504 50.2076L100.428 51.0414Z" fill="#78FF57"/>
<path id="&#60;Path&#62;_189" d="M107.477 55.1341L103.991 53.1634L104.142 52.2539L107.629 54.3004L107.477 55.1341Z" fill="#78FF57"/>
<path id="&#60;Path&#62;_190" d="M91.1057 52.2566L89.4382 51.2712L89.5898 50.4375L91.2573 51.4228L91.1057 52.2566Z" fill="#78FF57"/>
<path id="&#60;Path&#62;_191" d="M96.032 55.0603L92.0149 52.7865L92.1665 51.877L96.1836 54.2266L96.032 55.0603Z" fill="#78FF57"/>
<path id="&#60;Path&#62;_192" d="M100.959 57.9412L96.9419 55.5915L97.0935 54.7578L101.111 57.1074L100.959 57.9412Z" fill="#78FF57"/>
<path id="&#60;Path&#62;_193" d="M110.054 56.6511L108.387 55.6658L108.538 54.832L110.206 55.7416L110.054 56.6511Z" fill="#78FF57"/>
<path id="&#60;Path&#62;_194" d="M114.981 59.4549L110.888 57.1052L111.04 56.2715L115.057 58.6211L114.981 59.4549Z" fill="#78FF57"/>
<path id="&#60;Path&#62;_195" d="M119.832 62.2599L115.815 59.9861L115.966 59.1523L119.983 61.4262L119.832 62.2599Z" fill="#78FF57"/>
<path id="&#60;Path&#62;_196" d="M92.8489 57.6346L88.8318 55.2849L88.9834 54.4512L93.0005 56.8008L92.8489 57.6346Z" fill="#78FF57"/>
<path id="&#60;Path&#62;_197" d="M94.971 58.8495L93.7583 58.1673L93.9099 57.2578L95.1226 58.0158L94.971 58.8495Z" fill="#78FF57"/>
<path id="&#60;Path&#62;_198" d="M97.0936 60.0608L95.8809 59.3787L96.0325 58.5449L97.2452 59.2271L97.0936 60.0608Z" fill="#78FF57"/>
<path id="&#60;Path&#62;_199" d="M101.035 62.3368L98.0029 60.5935L98.1545 59.7598L101.186 61.503L101.035 62.3368Z" fill="#78FF57"/>
<path id="&#60;Path&#62;_200" d="M105.431 58.3186L104.218 57.6365L104.37 56.8027L105.583 57.4849L105.431 58.3186Z" fill="#78FF57"/>
<path id="&#60;Path&#62;_201" d="M109.372 60.5926L106.34 58.8494L106.492 58.0156L109.524 59.7589L109.372 60.5926Z" fill="#78FF57"/>
<path id="&#60;Path&#62;_202" d="M110.206 61.1216L107.174 59.3025L107.326 58.4688L110.358 60.212L110.206 61.1216Z" fill="#78FF57"/>
<path id="&#60;Path&#62;_203" d="M93.9858 72.0369L90.0444 69.6873L90.196 68.8535L94.1374 71.2032L93.9858 72.0369Z" fill="#78FF57"/>
<path id="&#60;Path&#62;_204" d="M96.6384 73.5531L94.8193 72.4919L94.9709 71.6582L96.79 72.7193L96.6384 73.5531Z" fill="#78FF57"/>
<path id="&#60;Path&#62;_205" d="M99.367 75.0687L97.4722 74.0076L97.6238 73.1738L99.5186 74.235L99.367 75.0687Z" fill="#78FF57"/>
<path id="&#60;Path&#62;_206" d="M103.611 77.5696L100.201 75.599L100.276 74.6895L103.763 76.7359L103.611 77.5696Z" fill="#78FF57"/>
<path id="&#60;Path&#62;_207" d="M106.416 79.1605L104.597 78.0994L104.673 77.2656L106.568 78.3267L106.416 79.1605Z" fill="#78FF57"/>
<path id="&#60;Path&#62;_208" d="M110.736 81.6634L107.25 79.617L107.401 78.7832L110.888 80.8297L110.736 81.6634Z" fill="#78FF57"/>
<path id="&#60;Path&#62;_209" d="M97.4724 78.4046L95.6533 77.3435L95.8049 76.5098L97.624 77.5709L97.4724 78.4046Z" fill="#78FF57"/>
<path id="&#60;Path&#62;_210" d="M101.793 80.9056L98.3062 78.8591L98.4578 78.0254L101.944 79.9961L101.793 80.9056Z" fill="#78FF57"/>
<path id="&#60;Path&#62;_211" d="M87.9225 72.8695L86.0276 71.8084L86.1792 70.9746L88.0741 72.0357L87.9225 72.8695Z" fill="#78FF57"/>
<path id="&#60;Path&#62;_212" d="M90.5749 74.3871L88.7559 73.3259L88.9075 72.4922L90.7265 73.5533L90.5749 74.3871Z" fill="#78FF57"/>
<path id="&#60;Path&#62;_213" d="M94.8953 76.888L91.4087 74.8416L91.5603 74.0078L95.0469 76.0543L94.8953 76.888Z" fill="#78FF57"/>
<path id="&#60;Path&#62;_214" d="M91.3329 72.6437L89.7412 71.7341L89.817 70.9004L91.4845 71.8099L91.3329 72.6437Z" fill="#78FF57"/>
<path id="&#60;Path&#62;_215" d="M96.2598 75.5252L92.2427 73.1755L92.3943 72.3418L96.4114 74.6914L96.2598 75.5252Z" fill="#78FF57"/>
<path id="&#60;Path&#62;_216" d="M101.187 78.3299L97.1694 76.056L97.321 75.1465L101.338 77.4961L101.187 78.3299Z" fill="#78FF57"/>
<path id="&#60;Path&#62;_217" d="M86.5576 74.2342L82.5405 71.9603L82.6921 71.0508L86.7092 73.4004L86.5576 74.2342Z" fill="#78FF57"/>
<path id="&#60;Path&#62;_218" d="M88.6802 75.4495L87.4675 74.7673L87.5433 73.9336L88.8318 74.6157L88.6802 75.4495Z" fill="#78FF57"/>
<path id="&#60;Path&#62;_219" d="M90.8026 76.7382L89.5898 75.9802L89.6656 75.1465L90.9541 75.8286L90.8026 76.7382Z" fill="#78FF57"/>
<path id="&#60;Path&#62;_220" d="M94.7437 79.0083L91.7119 77.1892L91.8635 76.3555L94.8953 78.0988L94.7437 79.0083Z" fill="#78FF57"/>
<path id="&#60;Path&#62;_221" d="M95.5772 79.4657L92.5454 77.7224L92.6212 76.8887L95.7288 78.632L95.5772 79.4657Z" fill="#78FF57"/>
<path id="&#60;Path&#62;_222" d="M88.3771 66.5819L87.0886 65.824L87.2402 64.9902L88.5287 65.7482L88.3771 66.5819Z" fill="#78FF57"/>
<path id="&#60;Path&#62;_223" d="M92.3184 68.854L89.2866 67.1107L89.3624 66.2012L92.47 68.0203L92.3184 68.854Z" fill="#78FF57"/>
<path id="&#60;Path&#62;_224" d="M96.3355 71.1278L93.3037 69.3845L93.3795 68.5508L96.4871 70.2941L96.3355 71.1278Z" fill="#78FF57"/>
<path id="&#60;Path&#62;_225" d="M111.798 84.4691L109.979 83.408L110.13 82.5742L111.949 83.6353L111.798 84.4691Z" fill="#78FF57"/>
<path id="&#60;Path&#62;_226" d="M116.118 86.9681L112.631 84.9216L112.783 84.0879L116.27 86.1343L116.118 86.9681Z" fill="#78FF57"/>
<path id="&#60;Path&#62;_227" d="M105.052 80.5263L101.944 78.783L102.096 77.9492L105.127 79.6925L105.052 80.5263Z" fill="#78FF57"/>
<path id="&#60;Path&#62;_228" d="M109.069 82.8758L105.961 81.1326L106.113 80.2988L109.145 82.0421L109.069 82.8758Z" fill="#78FF57"/>
<path id="&#60;Path&#62;_229" d="M86.1788 58.1679L84.9661 57.4099L85.1177 56.5762L86.3304 57.3341L86.1788 58.1679Z" fill="#78FF57"/>
<path id="&#60;Path&#62;_230" d="M90.1204 60.4419L87.0886 58.6986L87.2402 57.7891L90.272 59.6081L90.1204 60.4419Z" fill="#78FF57"/>
<path id="&#60;Path&#62;_231" d="M94.1375 62.7157L91.1057 60.9724L91.2573 60.1387L94.2891 61.882L94.1375 62.7157Z" fill="#78FF57"/>
</g>
<path id="&#60;Compound Path&#62;_5" d="M154.849 93.7156C154.596 93.7156 154.319 93.6146 154.015 93.4124L129.458 79.2388C128.397 78.6325 127.79 77.1923 128.018 75.9796L129.534 66.5811C129.685 65.9747 129.988 65.4441 130.443 65.2168C130.898 65.0652 131.428 65.0652 131.883 65.3683L156.517 79.542C157.502 80.1483 158.108 81.5884 157.957 82.8012L156.365 92.1997C156.289 92.8819 155.91 93.3366 155.455 93.564C155.253 93.6651 155.051 93.7156 154.849 93.7156ZM131.05 65.4441C130.898 65.4441 130.746 65.4694 130.595 65.5199C130.216 65.7473 129.988 66.1263 129.913 66.6569L128.321 76.0554C128.169 77.1165 128.7 78.4051 129.609 78.9356L154.243 93.1093C154.622 93.3366 155.001 93.4124 155.304 93.2609C155.683 93.1093 155.91 92.6545 155.986 92.1239L157.578 82.8012C157.805 81.6642 157.199 80.3757 156.289 79.8452L131.732 65.6715C131.479 65.5199 131.252 65.4441 131.05 65.4441Z" fill="#78FF57"/>
<path id="&#60;Compound Path&#62;_6" d="M152.196 109.784C151.893 109.784 151.615 109.708 151.363 109.556L126.729 95.3828C125.744 94.7764 125.062 93.3363 125.289 92.1236L126.881 82.725C126.957 82.0429 127.26 81.5881 127.79 81.3607C128.169 81.1333 128.7 81.2091 129.155 81.5123L153.788 95.686C154.773 96.2923 155.456 97.7324 155.228 98.9451L153.637 108.344C153.561 108.95 153.182 109.481 152.727 109.708C152.575 109.759 152.399 109.784 152.196 109.784ZM151.514 109.253C151.893 109.481 152.272 109.556 152.575 109.405C152.954 109.177 153.258 108.798 153.333 108.268L154.925 98.8693C155.077 97.8082 154.47 96.5197 153.637 95.9891L129.003 81.8155C128.624 81.5881 128.245 81.5123 127.942 81.6639C127.563 81.8155 127.26 82.2703 127.184 82.8008L125.592 92.1236C125.441 93.2605 126.047 94.549 126.881 95.0796L151.514 109.253Z" fill="#78FF57"/>
<path id="&#60;Path&#62;_232" opacity="0.5" d="M131.656 78.2527C132.111 78.4801 132.49 78.4043 132.641 78.0253L135.446 70.1427C135.825 69.2331 137.113 70.0669 137.416 71.3554L139.16 79.2381C139.311 79.7686 139.69 80.375 140.145 80.6024L140.6 80.9056C140.979 81.1329 141.358 81.0571 141.509 80.6782L142.116 79.4654C142.495 78.7075 143.707 79.3897 144.011 80.6024C144.162 81.1329 144.541 81.6635 144.996 81.8909L145.375 82.1183C145.83 82.4214 146.209 82.2699 146.36 81.8909L146.891 80.2234C147.194 79.3139 148.482 80.0718 148.786 81.3603L150.605 88.6366C150.681 89.243 151.135 89.7735 151.59 90.0767L131.656 78.2527Z" fill="url(#paint4_linear_2395_1251)"/>
<path id="&#60;Path&#62;_233" d="M148.482 106.144C147.952 105.84 147.497 105.234 147.345 104.628L145.602 97.2755C145.45 96.5176 144.768 95.9112 144.389 95.9112C144.187 95.9112 144.061 96.0123 144.01 96.2144L143.48 97.8061C143.379 98.0588 143.227 98.2356 143.025 98.3367C142.798 98.4125 142.494 98.3367 142.267 98.1851L141.888 97.9577C141.433 97.7303 140.978 97.124 140.827 96.5934C140.599 95.8354 140.069 95.3049 139.614 95.2291C139.463 95.2291 139.336 95.3049 139.235 95.4565L138.705 96.6692C138.604 96.8713 138.452 96.9976 138.25 97.0482C137.997 97.1492 137.745 97.124 137.492 96.9724L137.037 96.6692C136.582 96.4418 136.128 95.8355 135.976 95.1533L134.233 87.2706C134.081 86.5127 133.399 85.9063 133.02 85.8305C132.818 85.8305 132.692 85.9316 132.641 86.1337L129.761 93.9406C129.66 94.1932 129.508 94.3448 129.306 94.3954C129.079 94.4711 128.775 94.4711 128.548 94.3196L128.7 94.0164C128.902 94.1174 129.079 94.1427 129.23 94.0922C129.331 94.0416 129.407 93.9658 129.458 93.8648L132.262 85.9821C132.414 85.6789 132.641 85.5273 133.02 85.5273C133.551 85.5273 134.384 86.2095 134.536 87.1948L136.355 95.0775C136.431 95.6081 136.81 96.1386 137.265 96.366L137.643 96.6692C137.846 96.7703 138.022 96.7955 138.174 96.745C138.225 96.6945 138.275 96.6187 138.326 96.5176L138.932 95.3049C139.084 95.0017 139.311 94.8501 139.614 94.9259C140.296 94.9259 140.903 95.6081 141.13 96.4418C141.282 96.9724 141.661 97.4271 142.04 97.6545L142.419 97.8819C142.621 97.983 142.798 98.0082 142.949 97.9577C143.05 97.9577 143.101 97.8819 143.101 97.7303L143.631 96.0628C143.783 95.7597 144.01 95.5323 144.313 95.5323C144.364 95.5323 144.389 95.5323 144.389 95.5323C144.92 95.6081 145.754 96.2902 145.981 97.1998L147.724 104.552C147.876 105.082 148.255 105.613 148.634 105.84L148.482 106.144Z" fill="#78FF57"/>
</g>
<path id="&#60;Compound Path&#62;_7" d="M138.553 57.4856C138.2 57.4856 137.846 57.3845 137.492 57.1824L118.24 46.0405C117.103 45.3584 116.421 43.6909 116.8 42.4024C116.952 41.7202 117.406 41.1897 117.937 40.9623C118.543 40.7349 119.15 40.8107 119.756 41.1139L138.932 52.2557C140.145 52.9379 140.827 54.6054 140.448 55.8939C140.221 56.576 139.842 57.1066 139.235 57.334C139.033 57.435 138.806 57.4856 138.553 57.4856ZM118.619 41.1897C118.468 41.1897 118.291 41.2149 118.089 41.2655C117.634 41.4928 117.255 41.8718 117.103 42.4782C116.8 43.6909 117.406 45.131 118.468 45.7374L137.644 56.8792C138.174 57.1066 138.705 57.1824 139.16 57.0308C139.614 56.8034 139.918 56.4244 140.069 55.8181C140.448 54.6054 139.842 53.1653 138.781 52.5589L119.529 41.4171C119.226 41.2655 118.922 41.1897 118.619 41.1897Z" fill="#78FF57"/>
</g>
</g>
</g>
<defs>
<linearGradient id="paint0_linear_2395_1251" x1="183.963" y1="-0.0141054" x2="65.477" y2="-0.0141054" gradientUnits="userSpaceOnUse">
<stop stop-color="#C0BFF6"/>
<stop offset="1" stop-color="#E9E9FD"/>
</linearGradient>
<linearGradient id="paint1_linear_2395_1251" x1="183.962" y1="60.7589" x2="163.617" y2="60.7589" gradientUnits="userSpaceOnUse">
<stop stop-color="#5761D7"/>
<stop offset="1" stop-color="#BCBEFF"/>
</linearGradient>
<linearGradient id="paint2_linear_2395_1251" x1="168.088" y1="87.5983" x2="0.747495" y2="87.5983" gradientUnits="userSpaceOnUse">
<stop stop-color="#5761D7"/>
<stop offset="1" stop-color="#BCBEFF"/>
</linearGradient>
<linearGradient id="paint3_linear_2395_1251" x1="242.431" y1="80.8434" x2="-4.15114" y2="80.8434" gradientUnits="userSpaceOnUse">
<stop stop-color="#C0BFF6"/>
<stop offset="1" stop-color="#E9E9FD"/>
</linearGradient>
<linearGradient id="paint4_linear_2395_1251" x1="135.477" y1="62.7481" x2="175.938" y2="80.0579" gradientUnits="userSpaceOnUse">
<stop stop-color="#78FF57"/>
<stop offset="1" stop-color="#0F054C"/>
</linearGradient>
</defs>
</svg>
