      <svg
                xmlns="http://www.w3.org/2000/svg"
                width="1438"
                height="929"
                viewBox="0 0 1438 929"
                fill="none"
              >
                <path
                  opacity="0.5"
                  d="M1572.12 878.022C1568.39 879.637 1564.84 881.105 1561.11 882.427C1555.23 884.874 1549.45 886.978 1543.57 889.18C1535.17 892.116 1526.77 894.808 1517.91 897.5C1308.32 961.022 1040.32 923.339 919.385 813.423L897.643 793.603L854.718 754.795L820.845 724.062C817.299 720.734 813.566 717.308 809.833 714.029L433.681 372.243L369.947 314.202L59.769 32.5116C-61.167 -77.3064 10.4988 -217.809 220.084 -281.38C284.938 -300.857 355.017 -310.89 424.537 -311.967C427.523 -311.967 430.602 -312.113 433.681 -312.113H438.627C440.027 -312.113 441.427 -312.113 442.826 -311.967C592.877 -311.33 738.074 -270.222 818.605 -197.255L1678.31 583.608C1788.05 683.541 1738.97 808.529 1572.12 878.022Z"
                  fill="url(#paint0_linear_2028_520)"
                  fill-opacity="0.2"
                  stroke="url(#paint1_linear_2028_520)"
                  stroke-miterlimit="10"
                />
                <defs>
                  <linearGradient
                    id="paint0_linear_2028_520"
                    x1="759.545"
                    y1="-118.352"
                    x2="823.64"
                    y2="789.504"
                    gradientUnits="userSpaceOnUse"
                  >
                    <stop stop-color="#5078EA" />
                    <stop offset="1" stop-opacity="0" />
                  </linearGradient>
                  <linearGradient
                    id="paint1_linear_2028_520"
                    x1="869"
                    y1="-312.113"
                    x2="869"
                    y2="928.364"
                    gradientUnits="userSpaceOnUse"
                  >
                    <stop stop-color="#00FF9D" />
                    <stop offset="1" stop-color="#00995E" stop-opacity="0" />
                  </linearGradient>
                </defs>
              </svg>