<svg width="54" height="48" viewBox="0 0 54 48" fill="none" xmlns="http://www.w3.org/2000/svg">
<path opacity="0.9" d="M43.33 46.331C43.33 46.331 43.33 46.331 43.163 46.331C43.163 46.331 42.9959 46.331 42.8289 46.498C42.8289 46.498 42.4948 46.6651 42.3277 46.8321C38.6526 49.0038 33.975 47.6674 31.9704 43.9922L31.6363 43.324L30.968 41.9876L30.2999 40.9853C30.2999 40.9853 30.2998 40.8182 30.1327 40.6512L23.6177 29.2915L22.4483 27.2869L17.1026 17.9319C14.9309 14.2567 16.2674 9.57924 19.9425 7.5746C21.1119 6.90638 22.2812 6.57227 23.4506 6.57227C26.1235 6.57227 28.6293 7.9087 29.9657 10.4145L45.0005 36.3078C46.8381 39.6488 46.0029 43.8252 43.163 45.9969L43.33 46.331Z" fill="white"/>
<path d="M51.8473 7.07281C49.1744 7.74102 47.0027 9.91272 46.3345 12.5856C45.6663 15.2584 46.0004 12.7526 46.0004 12.5856C45.3322 9.91272 43.1605 7.74102 40.4877 7.07281C37.8148 6.40459 40.3206 6.73871 40.4877 6.73871C43.1605 6.07049 45.3322 3.89879 46.0004 1.22594C46.6686 -1.44692 46.3345 1.05888 46.3345 1.22594C47.0027 3.89879 49.1744 6.07049 51.8473 6.73871C54.5201 7.40692 52.0143 7.07281 51.8473 7.07281Z" fill="white"/>
<path opacity="0.5" d="M30.6331 41.6528C30.6331 41.6528 30.466 41.3187 30.299 41.3187C28.7955 39.147 26.2897 37.8106 23.6168 37.8106C20.944 37.8106 18.9393 38.98 17.4358 40.6505C17.4358 40.6505 17.4359 40.6505 17.2688 40.8176C17.2688 40.8176 17.2688 40.8176 17.2688 40.9846C17.1018 41.1517 16.9346 41.4858 16.7676 41.8199L23.7838 29.625L30.8001 41.8199L30.6331 41.6528Z" fill="white"/>
<path d="M38.6522 47.9997C42.8039 47.9997 46.1696 44.634 46.1696 40.4822C46.1696 36.3305 42.8039 32.9648 38.6522 32.9648C34.5004 32.9648 31.1348 36.3305 31.1348 40.4822C31.1348 44.634 34.5004 47.9997 38.6522 47.9997Z" fill="white"/>
<path d="M30.1314 18.2649L24.7858 27.6199L23.6164 29.6245L16.9343 40.9842L16.266 42.1535L15.0966 44.1582C12.9249 47.8333 8.24751 49.0027 4.73939 46.9981C1.06422 44.8264 -0.105177 40.1489 1.89946 36.6408L16.9343 10.7475C18.2707 8.40873 20.9435 6.90527 23.4493 6.90527C24.6187 6.90527 25.9552 7.23936 26.9575 7.90758C30.6327 10.0793 31.802 14.7568 29.7974 18.2649H30.1314Z" fill="white"/>
</svg>
