<svg width="174" height="56" viewBox="0 0 174 56" fill="none" xmlns="http://www.w3.org/2000/svg">
<g id="Layer 1">
<g id="Group">
<g id="Group_2">
<path id="Vector" d="M75.6322 30.4808H72.4795L79.1171 13.8857H82.2698L88.9074 30.4808H85.7547L84.1155 26.3948H77.2703L75.6312 30.4808H75.6322ZM82.9549 23.511L80.694 17.8274L78.433 23.511H82.9549Z" fill="#EEFBFF"/>
<path id="Vector_2" d="M90.7544 13.8662H93.658V30.5017H90.7544V13.8662Z" fill="#EEFBFF"/>
<path id="Vector_3" d="M78.5371 50.8582C75.1352 50.8582 72.376 48.0366 72.376 44.5527C72.376 41.0689 75.1352 38.2266 78.5371 38.2266C79.9894 38.2266 81.0472 38.7446 81.7936 39.5958V38.538H84.6972V50.5696H81.7936V49.5117C81.0472 50.3619 79.9894 50.8602 78.5371 50.8602V50.8582ZM78.5371 41.1291C76.7121 41.1291 75.2806 42.6852 75.2806 44.5517C75.2806 46.4182 76.7121 47.9743 78.5371 47.9743C80.3621 47.9743 81.669 46.5428 81.7936 44.7801V44.3036C81.669 42.5409 80.279 41.1301 78.5371 41.1301V41.1291Z" fill="#EEFBFF"/>
<path id="Vector_4" d="M95.4426 42.8721C94.8623 41.835 93.7827 41.2121 92.621 41.2121C90.8168 41.2121 89.3645 42.706 89.3645 44.5517C89.3645 46.3974 90.8168 47.8913 92.621 47.8913C93.7827 47.8913 94.8612 47.2487 95.4426 46.2116L97.9527 47.7054C96.8533 49.655 94.8207 50.8582 92.6221 50.8582C89.2202 50.8582 86.4609 48.0366 86.4609 44.5527C86.4609 41.0689 89.2202 38.2266 92.6221 38.2266C94.8207 38.2266 96.8533 39.4297 97.9527 41.3793L95.4426 42.8731V42.8721Z" fill="#EEFBFF"/>
<path id="Vector_5" d="M104.921 50.8582C101.519 50.8582 98.7598 48.0366 98.7598 44.5527C98.7598 41.0689 101.519 38.2266 104.921 38.2266C106.373 38.2266 107.431 38.7446 108.177 39.5958V38.538H111.081V50.5696H108.177V49.5117C107.431 50.3619 106.373 50.8602 104.921 50.8602V50.8582ZM104.921 41.1291C103.096 41.1291 101.664 42.6852 101.664 44.5517C101.664 46.4182 103.096 47.9743 104.921 47.9743C106.746 47.9743 108.053 46.5428 108.177 44.7801V44.3036C108.053 42.5409 106.663 41.1301 104.921 41.1301V41.1291Z" fill="#EEFBFF"/>
<path id="Vector_6" d="M122.159 33.9521H125.063V50.5669H122.159V49.5091C121.413 50.3593 120.355 50.8576 118.923 50.8576C115.521 50.8576 112.762 48.036 112.762 44.5522C112.762 41.0683 115.521 38.2468 118.923 38.2468C120.355 38.2468 121.413 38.7451 122.159 39.5953V33.9532V33.9521ZM118.923 41.1285C117.098 41.1285 115.646 42.6846 115.646 44.5511C115.646 46.4176 117.098 47.9738 118.923 47.9738C120.748 47.9738 122.034 46.5422 122.159 44.7795V44.3238C122.034 42.5611 120.665 41.1296 118.923 41.1296V41.1285Z" fill="#EEFBFF"/>
<path id="Vector_7" d="M128.589 40.0723C129.875 38.7861 131.39 38.2266 132.841 38.2266C133.588 38.2266 134.335 38.3719 135.019 38.6626C136.969 39.492 138.525 41.4623 138.546 44.3254V45.5908H129.834C130.27 46.9601 131.515 47.9349 132.987 47.9349C134.812 47.9349 136.471 47.23 136.471 47.23L137.716 49.6155C137.716 49.6155 136.388 50.8602 132.987 50.8602C129.585 50.8602 126.846 48.0387 126.846 44.5341C126.846 42.8741 127.469 41.2775 128.588 40.0951V40.0744L128.589 40.0723ZM133.879 41.3159C133.568 41.1706 133.216 41.1083 132.863 41.1083C132.095 41.1083 131.307 41.4405 130.623 42.1246C130.249 42.4983 130 42.9748 129.835 43.4731H135.56C135.332 42.4361 134.689 41.6689 133.88 41.3159H133.879Z" fill="#EEFBFF"/>
<path id="Vector_8" d="M143.089 44.532V50.5478H140.186V38.537H143.089V40.1346C143.939 38.9522 145.122 38.2266 146.782 38.2266C148.752 38.2266 150.308 39.2636 151.054 40.8405C151.905 39.2636 153.212 38.2266 155.182 38.2266C157.982 38.2266 159.974 40.3422 159.932 43.1212V50.5478H156.946V43.5157C156.946 42.1257 155.992 41.2132 154.685 41.2132C152.9 41.2132 151.532 42.8513 151.532 44.4697V50.5478H148.545V43.5157C148.545 42.1257 147.591 41.2132 146.284 41.2132C144.562 41.2132 143.09 42.8108 143.09 44.532H143.089Z" fill="#EEFBFF"/>
<path id="Vector_9" d="M163.126 55.4634C161.861 55.4634 160.616 54.9454 159.725 54.0526L161.653 52.1238C162.048 52.5183 162.566 52.7249 163.126 52.7249C163.914 52.7249 164.62 52.2889 164.972 51.6048L165.429 50.5677L160.18 38.5361H163.146L166.901 47.1451L170.677 38.5361H173.642L167.585 52.4342C166.859 54.2592 165.096 55.4623 163.125 55.4623L163.126 55.4634Z" fill="#EEFBFF"/>
</g>
<g id="Group_3">
<path id="Vector_10" d="M50.7863 53.9492C50.7095 54.0115 50.6368 54.0696 50.56 54.1226C50.4396 54.2191 50.3192 54.3011 50.1988 54.3873C50.0254 54.5025 49.852 54.6095 49.6683 54.7153C45.3394 57.2172 39.8053 55.7327 37.3076 51.4038L36.8592 50.6231L35.9726 49.0951L35.274 47.8846C35.2013 47.7549 35.1245 47.6199 35.0477 47.4891L27.2765 34.0291L25.9602 31.7443L19.553 20.6511C17.0554 16.3264 18.5357 10.7923 22.8646 8.2905C24.2048 7.52438 25.6508 7.12887 27.0876 7.08527C27.1498 7.08527 27.2132 7.08008 27.2754 7.08008H27.3772C27.4062 7.08008 27.4353 7.08008 27.4644 7.08527C30.5641 7.10914 33.5632 8.72962 35.2262 11.602L52.9819 42.3547C55.2481 46.288 54.2349 51.2107 50.7884 53.9492H50.7863Z" fill="#D9E4FF"/>
<path id="Vector_11" d="M60.9087 7.29239C57.6408 8.06888 55.0684 10.6423 54.2919 13.9123C54.2327 14.1625 53.8673 14.1625 53.8081 13.9123C53.0306 10.6423 50.4551 8.06889 47.1871 7.29135C46.937 7.23218 46.937 6.86677 47.1871 6.80759C50.4561 6.0311 53.0306 3.45765 53.8081 0.187636C53.8673 -0.0625455 54.2327 -0.0625455 54.2919 0.187636C55.0684 3.45869 57.6408 6.0311 60.9087 6.80759C61.1589 6.86677 61.1589 7.23218 60.9087 7.29135V7.29239Z" fill="#EEFBFF"/>
<path id="Vector_12" opacity="0.5" d="M35.5791 48.408C35.4815 48.243 35.3725 48.0779 35.2646 47.9191C33.5185 45.3799 30.5879 43.7116 27.2764 43.7116C24.3406 43.7116 21.7142 45.0197 19.9422 47.0803L19.937 47.0855C19.855 47.1831 19.772 47.2765 19.6951 47.3741C19.6329 47.4509 19.5768 47.5235 19.5197 47.6004C19.3038 47.8942 19.0972 48.2025 18.9072 48.517L27.2764 34.0293L35.5781 48.409L35.5791 48.408Z" fill="#CFD7FF"/>
<path id="Vector_13" d="M45.0776 55.999C50.0317 55.999 54.0479 51.9829 54.0479 47.0288C54.0479 42.0747 50.0317 38.0586 45.0776 38.0586C40.1235 38.0586 36.1074 42.0747 36.1074 47.0288C36.1074 51.9829 40.1235 55.999 45.0776 55.999Z" fill="#EEFBFF"/>
<path id="Vector_14" opacity="0.95" d="M34.9979 20.6521L28.5907 31.7453L27.2744 34.0301L19.4409 47.5908C19.4316 47.6105 19.4212 47.6292 19.4119 47.6489L18.5783 49.095L17.2433 51.4037C14.7456 55.7326 9.2115 57.2181 4.88263 54.7153C0.553757 52.2176 -0.926572 46.6835 1.57109 42.3546L19.3247 11.603C20.9877 8.72956 23.9868 7.11012 27.0865 7.08625C27.1156 7.08106 27.1447 7.08105 27.1737 7.08105H27.2755C27.3378 7.08105 27.4011 7.08625 27.4634 7.08625C28.9001 7.12985 30.3462 7.52536 31.6863 8.29148C36.0152 10.7933 37.4956 16.3274 34.9979 20.6521Z" fill="#EEFBFF"/>
</g>
</g>
</g>
</svg>
