<svg width="99" height="32" viewBox="0 0 99 32" fill="none" xmlns="http://www.w3.org/2000/svg">
<g id="Layer 3">
<g id="Group">
<g id="Group_2">
<path id="Vector" d="M43.0067 17.4173H41.2056L44.9976 7.93652H46.7988L50.5909 17.4173H48.7897L47.8533 15.083H43.9426L43.0061 17.4173H43.0067ZM47.1896 13.4354L45.8979 10.1884L44.6062 13.4354H47.1896Z" fill="#14053C"/>
<path id="Vector_2" d="M51.6455 7.9248H53.3043V17.4287H51.6455V7.9248Z" fill="#14053C"/>
<path id="Vector_3" d="M44.6659 29.0592C42.7224 29.0592 41.146 27.4473 41.146 25.4569C41.146 23.4666 42.7224 21.8428 44.6659 21.8428C45.4956 21.8428 46.0999 22.1387 46.5263 22.625V22.0207H48.1851V28.8943H46.5263V28.29C46.0999 28.7757 45.4956 29.0604 44.6659 29.0604V29.0592ZM44.6659 23.501C43.6232 23.501 42.8054 24.39 42.8054 25.4563C42.8054 26.5227 43.6232 27.4117 44.6659 27.4117C45.7085 27.4117 46.4551 26.5938 46.5263 25.5868V25.3146C46.4551 24.3076 45.661 23.5016 44.6659 23.5016V23.501Z" fill="#14053C"/>
<path id="Vector_4" d="M54.3241 24.4968C53.9926 23.9043 53.3758 23.5484 52.7121 23.5484C51.6814 23.5484 50.8517 24.4019 50.8517 25.4563C50.8517 26.5108 51.6814 27.3642 52.7121 27.3642C53.3758 27.3642 53.992 26.9971 54.3241 26.4047L55.7581 27.2581C55.1301 28.3719 53.9688 29.0592 52.7127 29.0592C50.7692 29.0592 49.1929 27.4473 49.1929 25.4569C49.1929 23.4666 50.7692 21.8428 52.7127 21.8428C53.9688 21.8428 55.1301 22.5301 55.7581 23.6439L54.3241 24.4973V24.4968Z" fill="#14053C"/>
<path id="Vector_5" d="M59.7396 29.0592C57.7961 29.0592 56.2197 27.4473 56.2197 25.4569C56.2197 23.4666 57.7961 21.8428 59.7396 21.8428C60.5693 21.8428 61.1736 22.1387 61.6 22.625V22.0207H63.2588V28.8943H61.6V28.29C61.1736 28.7757 60.5693 29.0604 59.7396 29.0604V29.0592ZM59.7396 23.501C58.697 23.501 57.8791 24.39 57.8791 25.4563C57.8791 26.5227 58.697 27.4117 59.7396 27.4117C60.7822 27.4117 61.5289 26.5938 61.6 25.5868V25.3146C61.5289 24.3076 60.7347 23.5016 59.7396 23.5016V23.501Z" fill="#14053C"/>
<path id="Vector_6" d="M69.5877 19.4014H71.2465V28.8934H69.5877V28.2891C69.1613 28.7748 68.5569 29.0595 67.7391 29.0595C65.7956 29.0595 64.2192 27.4475 64.2192 25.4572C64.2192 23.4668 65.7956 21.8549 67.7391 21.8549C68.5569 21.8549 69.1613 22.1396 69.5877 22.6253V19.402V19.4014ZM67.7385 23.5012C66.6959 23.5012 65.8662 24.3903 65.8662 25.4566C65.8662 26.5229 66.6959 27.4119 67.7385 27.4119C68.7811 27.4119 69.5159 26.5941 69.5871 25.5871V25.3267C69.5159 24.3197 68.7337 23.5018 67.7385 23.5018V23.5012Z" fill="#14053C"/>
<path id="Vector_7" d="M73.2609 22.8963C73.9957 22.1615 74.861 21.8418 75.6901 21.8418C76.1165 21.8418 76.5435 21.9248 76.9344 22.0909C78.0481 22.5647 78.9371 23.6904 78.949 25.3261V26.049H73.972C74.2211 26.8313 74.9322 27.3882 75.7731 27.3882C76.8157 27.3882 77.7641 26.9855 77.7641 26.9855L78.4751 28.3483C78.4751 28.3483 77.7166 29.0594 75.7731 29.0594C73.8297 29.0594 72.2651 27.4475 72.2651 25.4453C72.2651 24.497 72.621 23.5848 73.2603 22.9093V22.8975L73.2609 22.8963ZM76.2826 23.6074C76.1047 23.5243 75.9036 23.4887 75.702 23.4887C75.2631 23.4887 74.813 23.6785 74.4221 24.0694C74.2086 24.2829 74.0663 24.5551 73.972 24.8398H77.2428C77.1123 24.2473 76.7452 23.809 76.2832 23.6074H76.2826Z" fill="#14053C"/>
<path id="Vector_8" d="M81.5446 25.4441V28.8809H79.8857V22.0191H81.5446V22.9319C82.0303 22.2564 82.7058 21.8418 83.6541 21.8418C84.7797 21.8418 85.6687 22.4343 86.0952 23.3351C86.5809 22.4343 87.3276 21.8418 88.4532 21.8418C90.0527 21.8418 91.1908 23.0505 91.1671 24.6381V28.8809H89.4608V24.8635C89.4608 24.0694 88.9158 23.5481 88.1691 23.5481C87.1496 23.5481 86.368 24.4839 86.368 25.4085V28.8809H84.6617V24.8635C84.6617 24.0694 84.1167 23.5481 83.37 23.5481C82.3861 23.5481 81.5451 24.4608 81.5451 25.4441H81.5446Z" fill="#14053C"/>
<path id="Vector_9" d="M92.9918 31.6901C92.2689 31.6901 91.5578 31.3942 91.0483 30.8841L92.1503 29.7822C92.3756 30.0076 92.6716 30.1256 92.9918 30.1256C93.442 30.1256 93.8452 29.8765 94.0463 29.4857L94.3073 28.8932L91.3087 22.0195H93.0031L95.1482 26.9378L97.3052 22.0195H98.9996L95.5391 29.9595C95.1245 31.0021 94.1169 31.6895 92.9912 31.6895L92.9918 31.6901Z" fill="#14053C"/>
</g>
<g id="Group_3">
<path id="Vector_10" opacity="0.9" d="M28.8176 30.8279C28.7737 30.8634 28.7322 30.8967 28.6883 30.9269C28.6195 30.9821 28.5507 31.0289 28.4819 31.0781C28.3829 31.144 28.2838 31.205 28.1789 31.2655C25.7052 32.6954 22.5424 31.8467 21.1154 29.3731L20.8592 28.9265L20.3522 28.0535L19.9524 27.362C19.9109 27.2878 19.867 27.2107 19.8231 27.136L15.3822 19.4445L14.6302 18.1386L10.9692 11.7999C9.54231 9.32856 10.388 6.16632 12.8617 4.73644C13.6274 4.29816 14.4541 4.0728 15.2749 4.04789C15.3105 4.04789 15.3467 4.04492 15.3822 4.04492H15.4404C15.457 4.04492 15.4736 4.04492 15.4902 4.04789C17.2617 4.06153 18.9751 4.98731 19.9257 6.62892L30.0719 24.2021C31.3666 26.4498 30.7884 29.2627 28.8182 30.8273L28.8176 30.8279Z" fill="#2A6EFF"/>
<path id="Vector_11" d="M34.6021 4.16674C32.7345 4.61095 31.2649 6.08117 30.8207 7.94992C30.7869 8.09285 30.5781 8.09285 30.5443 7.94992C30.1001 6.08117 28.6287 4.61036 26.7605 4.16674C26.6176 4.13294 26.6176 3.92418 26.7605 3.89037C28.6287 3.44617 30.1001 1.97595 30.5443 0.107197C30.5781 -0.0357323 30.7869 -0.0357323 30.8207 0.107197C31.2643 1.97595 32.7345 3.44617 34.6021 3.89037C34.745 3.92418 34.745 4.13294 34.6021 4.16674Z" fill="#0162F7"/>
<path id="Vector_12" opacity="0.5" d="M20.1275 27.6623C20.0718 27.568 20.0095 27.4737 19.9478 27.3829C18.9503 25.9323 17.2755 24.9786 15.383 24.9786C13.7052 24.9786 12.2047 25.7259 11.1924 26.9031L11.1894 26.9061C11.1425 26.9619 11.0951 27.0152 11.0512 27.071C11.0156 27.1149 10.9836 27.1564 10.951 27.2003C10.8276 27.3681 10.7096 27.5448 10.6011 27.7239L15.3836 19.4453L20.1275 27.6623Z" fill="#0E88FF"/>
<path id="Vector_13" d="M25.5561 31.9998C28.387 31.9998 30.6819 29.7049 30.6819 26.8739C30.6819 24.043 28.387 21.748 25.5561 21.748C22.7251 21.748 20.4302 24.043 20.4302 26.8739C20.4302 29.7049 22.7251 31.9998 25.5561 31.9998Z" fill="#0162F7"/>
<path id="Vector_14" opacity="0.95" d="M19.7955 11.8008L16.1345 18.1396L15.3825 19.4455L10.906 27.1951C10.9006 27.2064 10.8947 27.217 10.8894 27.2283L10.4125 28.0551L9.64927 29.3746C8.22235 31.8483 5.05951 32.697 2.58583 31.2671C0.112145 29.8402 -0.733569 26.6774 0.693352 24.2037L10.8396 6.62989C11.7902 4.98828 13.5036 4.0625 15.2751 4.04886C15.2917 4.0459 15.3083 4.0459 15.3249 4.0459H15.383C15.4186 4.0459 15.4548 4.04886 15.4904 4.04886C16.3112 4.07377 17.1379 4.29973 17.9036 4.73742C20.3773 6.1673 21.223 9.32954 19.7961 11.8008H19.7955Z" fill="url(#paint0_linear_2044_21971)"/>
</g>
</g>
</g>
<defs>
<linearGradient id="paint0_linear_2044_21971" x1="6.91641" y1="27.9335" x2="14.8997" y2="4.11114" gradientUnits="userSpaceOnUse">
<stop stop-color="#4317FF"/>
<stop offset="1" stop-color="#2A6EFF"/>
</linearGradient>
</defs>
</svg>
