<svg width="99" height="32" viewBox="0 0 99 32" fill="none" xmlns="http://www.w3.org/2000/svg">
<g id="Layer 3">
<g id="Group">
<g id="Group_2">
<path id="Vector" d="M43.0062 17.4183H41.2051L44.9972 7.9375H46.7983L50.5904 17.4183H48.7892L47.8528 15.084H43.9421L43.0056 17.4183H43.0062ZM47.1891 13.4364L45.8974 10.1894L44.6057 13.4364H47.1891Z" fill="white"/>
<path id="Vector_2" d="M51.6455 7.92578H53.3043V17.4297H51.6455V7.92578Z" fill="white"/>
<path id="Vector_3" d="M44.6654 29.0602C42.7219 29.0602 41.1455 27.4482 41.1455 25.4579C41.1455 23.4676 42.7219 21.8438 44.6654 21.8438C45.4951 21.8438 46.0994 22.1397 46.5258 22.626V22.0217H48.1846V28.8953H46.5258V28.291C46.0994 28.7767 45.4951 29.0614 44.6654 29.0614V29.0602ZM44.6654 23.502C43.6227 23.502 42.8049 24.391 42.8049 25.4573C42.8049 26.5236 43.6227 27.4127 44.6654 27.4127C45.708 27.4127 46.4546 26.5948 46.5258 25.5878V25.3156C46.4546 24.3085 45.6605 23.5026 44.6654 23.5026V23.502Z" fill="white"/>
<path id="Vector_4" d="M54.3236 24.4977C53.9921 23.9053 53.3753 23.5494 52.7116 23.5494C51.6809 23.5494 50.8512 24.4028 50.8512 25.4573C50.8512 26.5118 51.6809 27.3652 52.7116 27.3652C53.3753 27.3652 53.9915 26.9981 54.3236 26.4056L55.7576 27.259C55.1296 28.3728 53.9684 29.0602 52.7122 29.0602C50.7688 29.0602 49.1924 27.4482 49.1924 25.4579C49.1924 23.4676 50.7688 21.8438 52.7122 21.8438C53.9684 21.8438 55.1296 22.5311 55.7576 23.6449L54.3236 24.4983V24.4977Z" fill="white"/>
<path id="Vector_5" d="M59.7396 29.0602C57.7961 29.0602 56.2197 27.4482 56.2197 25.4579C56.2197 23.4676 57.7961 21.8438 59.7396 21.8438C60.5693 21.8438 61.1736 22.1397 61.6 22.626V22.0217H63.2588V28.8953H61.6V28.291C61.1736 28.7767 60.5693 29.0614 59.7396 29.0614V29.0602ZM59.7396 23.502C58.697 23.502 57.8791 24.391 57.8791 25.4573C57.8791 26.5236 58.697 27.4127 59.7396 27.4127C60.7822 27.4127 61.5289 26.5948 61.6 25.5878V25.3156C61.5289 24.3085 60.7347 23.5026 59.7396 23.5026V23.502Z" fill="white"/>
<path id="Vector_6" d="M69.5872 19.4023H71.246V28.8944H69.5872V28.2901C69.1608 28.7758 68.5565 29.0604 67.7386 29.0604C65.7951 29.0604 64.2188 27.4485 64.2188 25.4582C64.2188 23.4678 65.7951 21.8559 67.7386 21.8559C68.5565 21.8559 69.1608 22.1405 69.5872 22.6263V19.4029V19.4023ZM67.738 23.5022C66.6954 23.5022 65.8657 24.3912 65.8657 25.4576C65.8657 26.5239 66.6954 27.4129 67.738 27.4129C68.7806 27.4129 69.5154 26.5951 69.5866 25.588V25.3277C69.5154 24.3207 68.7332 23.5028 67.738 23.5028V23.5022Z" fill="white"/>
<path id="Vector_7" d="M73.2604 22.8982C73.9952 22.1634 74.8605 21.8438 75.6896 21.8438C76.116 21.8438 76.543 21.9268 76.9339 22.0928C78.0476 22.5667 78.9367 23.6923 78.9485 25.328V26.051H73.9715C74.2206 26.8332 74.9317 27.3901 75.7726 27.3901C76.8153 27.3901 77.7636 26.9874 77.7636 26.9874L78.4747 28.3503C78.4747 28.3503 77.7161 29.0614 75.7726 29.0614C73.8292 29.0614 72.2646 27.4494 72.2646 25.4472C72.2646 24.4989 72.6205 23.5868 73.2598 22.9113V22.8994L73.2604 22.8982ZM76.2821 23.6093C76.1042 23.5263 75.9031 23.4907 75.7015 23.4907C75.2626 23.4907 74.8125 23.6805 74.4216 24.0713C74.2081 24.2848 74.0658 24.557 73.9715 24.8417H77.2423C77.1118 24.2492 76.7447 23.811 76.2827 23.6093H76.2821Z" fill="white"/>
<path id="Vector_8" d="M81.5436 25.446V28.8829H79.8848V22.0211H81.5436V22.9338C82.0293 22.2583 82.7048 21.8438 83.6531 21.8438C84.7788 21.8438 85.6678 22.4362 86.0942 23.3371C86.5799 22.4362 87.3266 21.8438 88.4522 21.8438C90.0517 21.8438 91.1898 23.0524 91.1661 24.6401V28.8829H89.4598V24.8654C89.4598 24.0713 88.9148 23.55 88.1681 23.55C87.1487 23.55 86.367 24.4859 86.367 25.4105V28.8829H84.6607V24.8654C84.6607 24.0713 84.1157 23.55 83.369 23.55C82.3851 23.55 81.5442 24.4627 81.5442 25.446H81.5436Z" fill="white"/>
<path id="Vector_9" d="M92.9913 31.6901C92.2684 31.6901 91.5573 31.3942 91.0479 30.8841L92.1498 29.7822C92.3751 30.0076 92.6711 30.1256 92.9913 30.1256C93.4415 30.1256 93.8448 29.8765 94.0458 29.4857L94.3068 28.8932L91.3082 22.0195H93.0026L95.1477 26.9378L97.3047 22.0195H98.9991L95.5386 29.9595C95.124 31.0021 94.1164 31.6895 92.9907 31.6895L92.9913 31.6901Z" fill="white"/>
</g>
<g id="Group_3">
<path id="Vector_10" opacity="0.9" d="M28.8181 30.8279C28.7742 30.8634 28.7327 30.8967 28.6888 30.9269C28.62 30.9821 28.5512 31.0289 28.4824 31.0781C28.3834 31.144 28.2843 31.205 28.1794 31.2655C25.7057 32.6954 22.5428 31.8467 21.1159 29.3731L20.8597 28.9265L20.3526 28.0535L19.9529 27.362C19.9114 27.2878 19.8675 27.2107 19.8236 27.136L15.3827 19.4445L14.6307 18.1386L10.9697 11.7999C9.5428 9.32856 10.3885 6.16632 12.8622 4.73644C13.6278 4.29816 14.4546 4.0728 15.2754 4.04789C15.311 4.04789 15.3472 4.04492 15.3827 4.04492H15.4409C15.4575 4.04492 15.4741 4.04492 15.4907 4.04789C17.2622 4.06153 18.9755 4.98731 19.9262 6.62892L30.0724 24.2021C31.3671 26.4498 30.7889 29.2627 28.8187 30.8273L28.8181 30.8279Z" fill="#2A6EFF"/>
<path id="Vector_11" d="M34.6021 4.16674C32.7345 4.61095 31.2649 6.08117 30.8207 7.94992C30.7869 8.09285 30.5781 8.09285 30.5443 7.94992C30.1001 6.08117 28.6287 4.61036 26.7605 4.16674C26.6176 4.13294 26.6176 3.92418 26.7605 3.89037C28.6287 3.44617 30.1001 1.97595 30.5443 0.107197C30.5781 -0.0357323 30.7869 -0.0357323 30.8207 0.107197C31.2643 1.97595 32.7345 3.44617 34.6021 3.89037C34.745 3.92418 34.745 4.13294 34.6021 4.16674Z" fill="#0162F7"/>
<path id="Vector_12" opacity="0.5" d="M20.128 27.6623C20.0723 27.568 20.01 27.4737 19.9483 27.3829C18.9508 25.9323 17.2759 24.9786 15.3835 24.9786C13.7057 24.9786 12.2052 25.7259 11.1929 26.9031L11.1899 26.9061C11.143 26.9619 11.0956 27.0152 11.0517 27.071C11.0161 27.1149 10.9841 27.1564 10.9515 27.2003C10.8281 27.3681 10.7101 27.5448 10.6016 27.7239L15.3841 19.4453L20.128 27.6623Z" fill="#0E88FF"/>
<path id="Vector_13" d="M25.5556 31.9998C28.3865 31.9998 30.6815 29.7049 30.6815 26.8739C30.6815 24.043 28.3865 21.748 25.5556 21.748C22.7246 21.748 20.4297 24.043 20.4297 26.8739C20.4297 29.7049 22.7246 31.9998 25.5556 31.9998Z" fill="#0162F7"/>
<path id="Vector_14" opacity="0.95" d="M19.7955 11.7999L16.1345 18.1386L15.3825 19.4445L10.906 27.1941C10.9006 27.2054 10.8947 27.2161 10.8894 27.2273L10.4125 28.0541L9.64927 29.3737C8.22235 31.8473 5.05951 32.696 2.58583 31.2661C0.112145 29.8392 -0.733569 26.6764 0.693352 24.2027L10.8396 6.62892C11.7902 4.98731 13.5036 4.06153 15.2751 4.04789C15.2917 4.04492 15.3083 4.04492 15.3249 4.04492H15.383C15.4186 4.04492 15.4548 4.04789 15.4904 4.04789C16.3112 4.0728 17.1379 4.29875 17.9036 4.73644C20.3773 6.16632 21.223 9.32856 19.7961 11.7999H19.7955Z" fill="url(#paint0_linear_2424_3349)"/>
</g>
</g>
</g>
<defs>
<linearGradient id="paint0_linear_2424_3349" x1="6.91641" y1="27.9325" x2="14.8997" y2="4.11016" gradientUnits="userSpaceOnUse">
<stop stop-color="#4317FF"/>
<stop offset="1" stop-color="#2A6EFF"/>
</linearGradient>
</defs>
</svg>
