<svg width="340" height="163" viewBox="0 0 340 163" fill="none" xmlns="http://www.w3.org/2000/svg">
<mask id="mask0_2041_13214" style="mask-type:alpha" maskUnits="userSpaceOnUse" x="0" y="0" width="340" height="163">
<rect width="340" height="163" fill="url(#paint0_linear_2041_13214)"/>
</mask>
<g mask="url(#mask0_2041_13214)">
<path d="M202.854 45.3536C203.049 45.1583 203.049 44.8417 202.854 44.6464L199.672 41.4645C199.476 41.2692 199.16 41.2692 198.964 41.4645C198.769 41.6597 198.769 41.9763 198.964 42.1716L201.793 45L198.964 47.8284C198.769 48.0237 198.769 48.3403 198.964 48.5355C199.16 48.7308 199.476 48.7308 199.672 48.5355L202.854 45.3536ZM-66 45.5H202.5V44.5H-66V45.5Z" fill="url(#paint1_linear_2041_13214)"/>
<g opacity="0.5">
<path d="M205.5 25C205.5 23.067 207.067 21.5 209 21.5H486C489.59 21.5 492.5 24.4101 492.5 28V65C492.5 66.933 490.933 68.5 489 68.5H209C207.067 68.5 205.5 66.933 205.5 65V25Z" fill="#334155"/>
<path d="M205.5 25C205.5 23.067 207.067 21.5 209 21.5H486C489.59 21.5 492.5 24.4101 492.5 28V65C492.5 66.933 490.933 68.5 489 68.5H209C207.067 68.5 205.5 66.933 205.5 65V25Z" stroke="url(#paint2_linear_2041_13214)"/>
</g>
<path d="M213.5 30.5H382C383.933 30.5 385.5 32.067 385.5 34V56C385.5 57.933 383.933 59.5 382 59.5H217C215.067 59.5 213.5 57.933 213.5 56V30.5Z" fill="#334155"/>
<path d="M213.5 30.5H382C383.933 30.5 385.5 32.067 385.5 34V56C385.5 57.933 383.933 59.5 382 59.5H217C215.067 59.5 213.5 57.933 213.5 56V30.5Z" stroke="url(#paint3_linear_2041_13214)"/>
<path d="M234.426 43H233.193C233.12 42.6454 232.993 42.3338 232.81 42.0653C232.631 41.7969 232.413 41.5715 232.154 41.3892C231.899 41.2036 231.616 41.0644 231.304 40.9716C230.992 40.8788 230.668 40.8324 230.33 40.8324C229.713 40.8324 229.155 40.9882 228.654 41.2997C228.157 41.6113 227.761 42.0703 227.466 42.6768C227.174 43.2834 227.028 44.0275 227.028 44.9091C227.028 45.7907 227.174 46.5348 227.466 47.1413C227.761 47.7479 228.157 48.2069 228.654 48.5185C229.155 48.83 229.713 48.9858 230.33 48.9858C230.668 48.9858 230.992 48.9394 231.304 48.8466C231.616 48.7538 231.899 48.6162 232.154 48.4339C232.413 48.2483 232.631 48.0213 232.81 47.7528C232.993 47.4811 233.12 47.1695 233.193 46.8182H234.426C234.333 47.3385 234.164 47.8042 233.919 48.2152C233.674 48.6262 233.369 48.9759 233.004 49.2642C232.64 49.5492 232.23 49.7663 231.776 49.9155C231.326 50.0646 230.843 50.1392 230.33 50.1392C229.461 50.1392 228.689 49.9271 228.013 49.5028C227.337 49.0786 226.805 48.4754 226.417 47.6932C226.029 46.911 225.835 45.983 225.835 44.9091C225.835 43.8352 226.029 42.9072 226.417 42.125C226.805 41.3428 227.337 40.7396 228.013 40.3153C228.689 39.8911 229.461 39.679 230.33 39.679C230.843 39.679 231.326 39.7536 231.776 39.9027C232.23 40.0518 232.64 40.2706 233.004 40.5589C233.369 40.844 233.674 41.192 233.919 41.603C234.164 42.0107 234.333 42.4763 234.426 43ZM239.362 50.1591C238.672 50.1591 238.067 49.995 237.547 49.6669C237.03 49.3388 236.626 48.8797 236.334 48.2898C236.046 47.6998 235.901 47.0104 235.901 46.2216C235.901 45.4261 236.046 44.7318 236.334 44.1385C236.626 43.5452 237.03 43.0845 237.547 42.7564C238.067 42.4283 238.672 42.2642 239.362 42.2642C240.051 42.2642 240.654 42.4283 241.171 42.7564C241.692 43.0845 242.096 43.5452 242.384 44.1385C242.676 44.7318 242.822 45.4261 242.822 46.2216C242.822 47.0104 242.676 47.6998 242.384 48.2898C242.096 48.8797 241.692 49.3388 241.171 49.6669C240.654 49.995 240.051 50.1591 239.362 50.1591ZM239.362 49.1051C239.885 49.1051 240.316 48.9709 240.654 48.7024C240.992 48.4339 241.243 48.081 241.405 47.6435C241.567 47.206 241.649 46.732 241.649 46.2216C241.649 45.7112 241.567 45.2356 241.405 44.7947C241.243 44.3539 240.992 43.9976 240.654 43.7259C240.316 43.4541 239.885 43.3182 239.362 43.3182C238.838 43.3182 238.407 43.4541 238.069 43.7259C237.731 43.9976 237.481 44.3539 237.318 44.7947C237.156 45.2356 237.075 45.7112 237.075 46.2216C237.075 46.732 237.156 47.206 237.318 47.6435C237.481 48.081 237.731 48.4339 238.069 48.7024C238.407 48.9709 238.838 49.1051 239.362 49.1051ZM245.786 45.4062V50H244.613V42.3636H245.746V43.5568H245.846C246.025 43.169 246.297 42.8575 246.661 42.6222C247.026 42.3835 247.496 42.2642 248.073 42.2642C248.59 42.2642 249.043 42.3703 249.43 42.5824C249.818 42.7912 250.12 43.1094 250.335 43.5369C250.551 43.9612 250.658 44.4981 250.658 45.1477V50H249.485V45.2273C249.485 44.6274 249.329 44.16 249.018 43.8253C248.706 43.4872 248.279 43.3182 247.735 43.3182C247.361 43.3182 247.026 43.3994 246.731 43.5618C246.439 43.7242 246.209 43.9612 246.04 44.2727C245.871 44.5843 245.786 44.9621 245.786 45.4062ZM258.211 44.0739L257.157 44.3722C257.091 44.1965 256.993 44.0258 256.864 43.8601C256.738 43.6911 256.566 43.5518 256.347 43.4425C256.128 43.3331 255.848 43.2784 255.507 43.2784C255.04 43.2784 254.65 43.3861 254.339 43.6016C254.03 43.8137 253.876 44.0838 253.876 44.4119C253.876 44.7036 253.982 44.9339 254.194 45.103C254.407 45.272 254.738 45.4129 255.189 45.5256L256.322 45.804C257.005 45.9697 257.514 46.2232 257.849 46.5646C258.183 46.9027 258.351 47.3385 258.351 47.8722C258.351 48.3097 258.225 48.7008 257.973 49.0455C257.724 49.3902 257.376 49.6619 256.929 49.8608C256.481 50.0597 255.961 50.1591 255.368 50.1591C254.589 50.1591 253.944 49.9901 253.434 49.652C252.923 49.3139 252.6 48.8201 252.464 48.1705L253.578 47.892C253.684 48.303 253.885 48.6113 254.18 48.8168C254.478 49.0223 254.867 49.125 255.348 49.125C255.895 49.125 256.329 49.009 256.65 48.777C256.975 48.5417 257.138 48.2599 257.138 47.9318C257.138 47.6667 257.045 47.4446 256.859 47.2656C256.674 47.0833 256.389 46.9474 256.004 46.858L254.731 46.5597C254.032 46.3939 253.518 46.1371 253.19 45.7891C252.865 45.4377 252.703 44.9986 252.703 44.4716C252.703 44.0407 252.824 43.6596 253.066 43.3281C253.311 42.9967 253.644 42.7365 254.065 42.5476C254.489 42.3587 254.97 42.2642 255.507 42.2642C256.263 42.2642 256.856 42.4299 257.287 42.7614C257.721 43.0928 258.029 43.5303 258.211 44.0739ZM260.117 50V42.3636H261.29V50H260.117ZM260.713 41.0909C260.485 41.0909 260.288 41.013 260.122 40.8572C259.959 40.7015 259.878 40.5142 259.878 40.2955C259.878 40.0767 259.959 39.8894 260.122 39.7337C260.288 39.5779 260.485 39.5 260.713 39.5C260.942 39.5 261.138 39.5779 261.3 39.7337C261.466 39.8894 261.549 40.0767 261.549 40.2955C261.549 40.5142 261.466 40.7015 261.3 40.8572C261.138 41.013 260.942 41.0909 260.713 41.0909ZM266.323 50.1591C265.686 50.1591 265.124 49.9983 264.637 49.6768C264.15 49.352 263.769 48.8946 263.494 48.3047C263.219 47.7114 263.081 47.0104 263.081 46.2017C263.081 45.3996 263.219 44.7036 263.494 44.1136C263.769 43.5237 264.152 43.0679 264.642 42.7464C265.133 42.425 265.7 42.2642 266.343 42.2642C266.84 42.2642 267.232 42.3471 267.521 42.5128C267.812 42.6752 268.035 42.8608 268.187 43.0696C268.343 43.2751 268.464 43.4441 268.55 43.5767H268.649V39.8182H269.823V50H268.689V48.8267H268.55C268.464 48.9659 268.341 49.1416 268.182 49.3537C268.023 49.5625 267.796 49.7498 267.501 49.9155C267.206 50.0779 266.813 50.1591 266.323 50.1591ZM266.482 49.1051C266.952 49.1051 267.35 48.9825 267.675 48.7372C268 48.4886 268.247 48.1456 268.416 47.7081C268.585 47.2673 268.669 46.7585 268.669 46.1818C268.669 45.6117 268.586 45.1129 268.421 44.6854C268.255 44.2545 268.01 43.9197 267.685 43.6811C267.36 43.4392 266.959 43.3182 266.482 43.3182C265.985 43.3182 265.57 43.4458 265.239 43.701C264.911 43.9529 264.664 44.2959 264.498 44.7301C264.336 45.161 264.254 45.6449 264.254 46.1818C264.254 46.7254 264.337 47.2192 264.503 47.6634C264.672 48.1042 264.921 48.4555 265.249 48.7173C265.58 48.9759 265.991 49.1051 266.482 49.1051ZM275.336 50.1591C274.6 50.1591 273.966 49.9967 273.432 49.6719C272.902 49.3438 272.492 48.8864 272.204 48.2997C271.919 47.7098 271.776 47.0237 271.776 46.2415C271.776 45.4593 271.919 44.7699 272.204 44.1733C272.492 43.5734 272.893 43.1061 273.407 42.7713C273.924 42.4332 274.527 42.2642 275.217 42.2642C275.615 42.2642 276.007 42.3305 276.395 42.4631C276.783 42.5956 277.136 42.8111 277.454 43.1094C277.772 43.4044 278.026 43.7955 278.215 44.2827C278.404 44.7699 278.498 45.3698 278.498 46.0824V46.5795H272.612V45.5653H277.305C277.305 45.1345 277.219 44.75 277.046 44.4119C276.877 44.0739 276.635 43.8071 276.32 43.6115C276.009 43.416 275.641 43.3182 275.217 43.3182C274.749 43.3182 274.345 43.4342 274.004 43.6662C273.666 43.8949 273.405 44.1932 273.223 44.5611C273.041 44.929 272.95 45.3234 272.95 45.7443V46.4205C272.95 46.9972 273.049 47.486 273.248 47.8871C273.45 48.2848 273.73 48.5881 274.088 48.7969C274.446 49.0024 274.862 49.1051 275.336 49.1051C275.644 49.1051 275.923 49.062 276.171 48.9759C276.423 48.8864 276.64 48.7538 276.823 48.5781C277.005 48.3991 277.146 48.1771 277.245 47.9119L278.379 48.2301C278.259 48.6146 278.059 48.9527 277.777 49.2443C277.495 49.5327 277.147 49.758 276.733 49.9205C276.319 50.0795 275.853 50.1591 275.336 50.1591ZM280.283 50V42.3636H281.416V43.517H281.496C281.635 43.1392 281.887 42.8326 282.252 42.5973C282.616 42.362 283.027 42.2443 283.485 42.2443C283.571 42.2443 283.678 42.246 283.808 42.2493C283.937 42.2526 284.035 42.2576 284.101 42.2642V43.4574C284.061 43.4474 283.97 43.4325 283.828 43.4126C283.688 43.3894 283.541 43.3778 283.385 43.3778C283.014 43.3778 282.682 43.4557 282.391 43.6115C282.102 43.764 281.874 43.9761 281.705 44.2479C281.539 44.5163 281.456 44.8229 281.456 45.1676V50H280.283ZM290.603 39.8182V50H289.429V39.8182H290.603ZM292.752 50V42.3636H293.925V50H292.752ZM293.348 41.0909C293.119 41.0909 292.922 41.013 292.757 40.8572C292.594 40.7015 292.513 40.5142 292.513 40.2955C292.513 40.0767 292.594 39.8894 292.757 39.7337C292.922 39.5779 293.119 39.5 293.348 39.5C293.577 39.5 293.772 39.5779 293.935 39.7337C294.101 39.8894 294.183 40.0767 294.183 40.2955C294.183 40.5142 294.101 40.7015 293.935 40.8572C293.772 41.013 293.577 41.0909 293.348 41.0909ZM299.474 42.3636V43.358H295.358V42.3636H299.474ZM296.591 50V41.3097C296.591 40.8722 296.694 40.5076 296.899 40.2159C297.105 39.9242 297.371 39.7055 297.7 39.5597C298.028 39.4138 298.374 39.3409 298.739 39.3409C299.027 39.3409 299.262 39.3641 299.445 39.4105C299.627 39.4569 299.763 39.5 299.852 39.5398L299.514 40.554C299.455 40.5341 299.372 40.5092 299.266 40.4794C299.163 40.4496 299.027 40.4347 298.858 40.4347C298.47 40.4347 298.19 40.5324 298.018 40.728C297.849 40.9235 297.764 41.2102 297.764 41.5881V50H296.591ZM304.006 50.1591C303.27 50.1591 302.636 49.9967 302.102 49.6719C301.572 49.3438 301.162 48.8864 300.874 48.2997C300.589 47.7098 300.446 47.0237 300.446 46.2415C300.446 45.4593 300.589 44.7699 300.874 44.1733C301.162 43.5734 301.563 43.1061 302.077 42.7713C302.594 42.4332 303.197 42.2642 303.887 42.2642C304.284 42.2642 304.677 42.3305 305.065 42.4631C305.453 42.5956 305.806 42.8111 306.124 43.1094C306.442 43.4044 306.696 43.7955 306.885 44.2827C307.074 44.7699 307.168 45.3698 307.168 46.0824V46.5795H301.282V45.5653H305.975C305.975 45.1345 305.889 44.75 305.716 44.4119C305.547 44.0739 305.305 43.8071 304.99 43.6115C304.679 43.416 304.311 43.3182 303.887 43.3182C303.419 43.3182 303.015 43.4342 302.674 43.6662C302.336 43.8949 302.075 44.1932 301.893 44.5611C301.711 44.929 301.62 45.3234 301.62 45.7443V46.4205C301.62 46.9972 301.719 47.486 301.918 47.8871C302.12 48.2848 302.4 48.5881 302.758 48.7969C303.116 49.0024 303.532 49.1051 304.006 49.1051C304.314 49.1051 304.593 49.062 304.841 48.9759C305.093 48.8864 305.31 48.7538 305.493 48.5781C305.675 48.3991 305.816 48.1771 305.915 47.9119L307.049 48.2301C306.929 48.6146 306.729 48.9527 306.447 49.2443C306.165 49.5327 305.817 49.758 305.403 49.9205C304.989 50.0795 304.523 50.1591 304.006 50.1591ZM315.993 50.1591C315.277 50.1591 314.66 49.9901 314.143 49.652C313.626 49.3139 313.228 48.8482 312.95 48.255C312.672 47.6617 312.532 46.9839 312.532 46.2216C312.532 45.446 312.675 44.7616 312.96 44.1683C313.248 43.5717 313.649 43.1061 314.163 42.7713C314.68 42.4332 315.283 42.2642 315.973 42.2642C316.51 42.2642 316.993 42.3636 317.424 42.5625C317.855 42.7614 318.208 43.0398 318.483 43.3977C318.758 43.7557 318.929 44.1733 318.995 44.6506H317.822C317.733 44.3026 317.534 43.9943 317.225 43.7259C316.921 43.4541 316.51 43.3182 315.993 43.3182C315.535 43.3182 315.134 43.4375 314.789 43.6761C314.448 43.9115 314.181 44.2446 313.989 44.6754C313.8 45.103 313.706 45.6051 313.706 46.1818C313.706 46.7718 313.798 47.2855 313.984 47.723C314.173 48.1605 314.438 48.5002 314.779 48.7422C315.124 48.9841 315.529 49.1051 315.993 49.1051C316.297 49.1051 316.574 49.0521 316.823 48.946C317.071 48.84 317.282 48.6875 317.454 48.4886C317.627 48.2898 317.749 48.0511 317.822 47.7727H318.995C318.929 48.2235 318.765 48.6295 318.503 48.9908C318.245 49.3487 317.902 49.6338 317.474 49.8459C317.05 50.0547 316.556 50.1591 315.993 50.1591ZM323.813 50.1591C323.123 50.1591 322.519 49.995 321.998 49.6669C321.481 49.3388 321.077 48.8797 320.785 48.2898C320.497 47.6998 320.353 47.0104 320.353 46.2216C320.353 45.4261 320.497 44.7318 320.785 44.1385C321.077 43.5452 321.481 43.0845 321.998 42.7564C322.519 42.4283 323.123 42.2642 323.813 42.2642C324.502 42.2642 325.105 42.4283 325.623 42.7564C326.143 43.0845 326.547 43.5452 326.836 44.1385C327.127 44.7318 327.273 45.4261 327.273 46.2216C327.273 47.0104 327.127 47.6998 326.836 48.2898C326.547 48.8797 326.143 49.3388 325.623 49.6669C325.105 49.995 324.502 50.1591 323.813 50.1591ZM323.813 49.1051C324.337 49.1051 324.767 48.9709 325.105 48.7024C325.444 48.4339 325.694 48.081 325.856 47.6435C326.019 47.206 326.1 46.732 326.1 46.2216C326.1 45.7112 326.019 45.2356 325.856 44.7947C325.694 44.3539 325.444 43.9976 325.105 43.7259C324.767 43.4541 324.337 43.3182 323.813 43.3182C323.289 43.3182 322.858 43.4541 322.52 43.7259C322.182 43.9976 321.932 44.3539 321.77 44.7947C321.607 45.2356 321.526 45.7112 321.526 46.2216C321.526 46.732 321.607 47.206 321.77 47.6435C321.932 48.081 322.182 48.4339 322.52 48.7024C322.858 48.9709 323.289 49.1051 323.813 49.1051ZM329.064 50V42.3636H330.198V43.5568H330.297C330.456 43.1491 330.713 42.8326 331.068 42.6072C331.422 42.3786 331.848 42.2642 332.345 42.2642C332.849 42.2642 333.268 42.3786 333.603 42.6072C333.941 42.8326 334.205 43.1491 334.394 43.5568H334.473C334.669 43.1624 334.962 42.8492 335.353 42.6172C335.744 42.3819 336.213 42.2642 336.76 42.2642C337.443 42.2642 338.001 42.478 338.436 42.9055C338.87 43.3298 339.087 43.991 339.087 44.8892V50H337.914V44.8892C337.914 44.3258 337.759 43.9231 337.451 43.6811C337.143 43.4392 336.78 43.3182 336.362 43.3182C335.825 43.3182 335.41 43.4806 335.115 43.8054C334.82 44.1269 334.672 44.5346 334.672 45.0284V50H333.479V44.7699C333.479 44.3357 333.338 43.986 333.056 43.7209C332.775 43.4524 332.412 43.3182 331.968 43.3182C331.663 43.3182 331.378 43.3994 331.112 43.5618C330.851 43.7242 330.638 43.9496 330.476 44.2379C330.317 44.523 330.237 44.8527 330.237 45.2273V50H329.064ZM341.232 52.8636V42.3636H342.366V43.5767H342.505C342.591 43.4441 342.71 43.2751 342.863 43.0696C343.019 42.8608 343.241 42.6752 343.529 42.5128C343.821 42.3471 344.215 42.2642 344.712 42.2642C345.355 42.2642 345.922 42.425 346.412 42.7464C346.903 43.0679 347.286 43.5237 347.561 44.1136C347.836 44.7036 347.974 45.3996 347.974 46.2017C347.974 47.0104 347.836 47.7114 347.561 48.3047C347.286 48.8946 346.905 49.352 346.417 49.6768C345.93 49.9983 345.368 50.1591 344.732 50.1591C344.242 50.1591 343.849 50.0779 343.554 49.9155C343.259 49.7498 343.032 49.5625 342.873 49.3537C342.714 49.1416 342.591 48.9659 342.505 48.8267H342.405V52.8636H341.232ZM342.385 46.1818C342.385 46.7585 342.47 47.2673 342.639 47.7081C342.808 48.1456 343.055 48.4886 343.38 48.7372C343.705 48.9825 344.102 49.1051 344.573 49.1051C345.064 49.1051 345.473 48.9759 345.801 48.7173C346.132 48.4555 346.381 48.1042 346.547 47.6634C346.716 47.2192 346.8 46.7254 346.8 46.1818C346.8 45.6449 346.717 45.161 346.552 44.7301C346.389 44.2959 346.142 43.9529 345.811 43.701C345.483 43.4458 345.07 43.3182 344.573 43.3182C344.096 43.3182 343.695 43.4392 343.37 43.6811C343.045 43.9197 342.8 44.2545 342.634 44.6854C342.468 45.1129 342.385 45.6117 342.385 46.1818ZM350.937 39.8182V50H349.763V39.8182H350.937ZM356.287 50.1591C355.551 50.1591 354.917 49.9967 354.383 49.6719C353.853 49.3438 353.444 48.8864 353.155 48.2997C352.87 47.7098 352.728 47.0237 352.728 46.2415C352.728 45.4593 352.87 44.7699 353.155 44.1733C353.444 43.5734 353.845 43.1061 354.358 42.7713C354.875 42.4332 355.479 42.2642 356.168 42.2642C356.566 42.2642 356.958 42.3305 357.346 42.4631C357.734 42.5956 358.087 42.8111 358.405 43.1094C358.723 43.4044 358.977 43.7955 359.166 44.2827C359.355 44.7699 359.449 45.3698 359.449 46.0824V46.5795H353.563V45.5653H358.256C358.256 45.1345 358.17 44.75 357.998 44.4119C357.828 44.0739 357.587 43.8071 357.272 43.6115C356.96 43.416 356.592 43.3182 356.168 43.3182C355.701 43.3182 355.296 43.4342 354.955 43.6662C354.617 43.8949 354.357 44.1932 354.174 44.5611C353.992 44.929 353.901 45.3234 353.901 45.7443V46.4205C353.901 46.9972 354 47.486 354.199 47.8871C354.401 48.2848 354.681 48.5881 355.039 48.7969C355.397 49.0024 355.813 49.1051 356.287 49.1051C356.596 49.1051 356.874 49.062 357.123 48.9759C357.374 48.8864 357.592 48.7538 357.774 48.5781C357.956 48.3991 358.097 48.1771 358.196 47.9119L359.33 48.2301C359.211 48.6146 359.01 48.9527 358.728 49.2443C358.447 49.5327 358.099 49.758 357.684 49.9205C357.27 50.0795 356.804 50.1591 356.287 50.1591ZM364.555 42.3636V43.358H360.598V42.3636H364.555ZM361.751 40.5341H362.924V47.8125C362.924 48.1439 362.972 48.3925 363.069 48.5582C363.168 48.7206 363.294 48.83 363.446 48.8864C363.602 48.9394 363.766 48.9659 363.939 48.9659C364.068 48.9659 364.174 48.9593 364.257 48.946C364.34 48.9295 364.406 48.9162 364.456 48.9062L364.694 49.9602C364.615 49.9901 364.504 50.0199 364.361 50.0497C364.219 50.0829 364.038 50.0994 363.819 50.0994C363.488 50.0994 363.163 50.0282 362.845 49.8857C362.53 49.7431 362.268 49.526 362.059 49.2344C361.854 48.9427 361.751 48.5748 361.751 48.1307V40.5341ZM369.44 50.1591C368.704 50.1591 368.069 49.9967 367.536 49.6719C367.005 49.3438 366.596 48.8864 366.308 48.2997C366.022 47.7098 365.88 47.0237 365.88 46.2415C365.88 45.4593 366.022 44.7699 366.308 44.1733C366.596 43.5734 366.997 43.1061 367.511 42.7713C368.028 42.4332 368.631 42.2642 369.32 42.2642C369.718 42.2642 370.111 42.3305 370.499 42.4631C370.886 42.5956 371.239 42.8111 371.558 43.1094C371.876 43.4044 372.129 43.7955 372.318 44.2827C372.507 44.7699 372.602 45.3698 372.602 46.0824V46.5795H366.715V45.5653H371.408C371.408 45.1345 371.322 44.75 371.15 44.4119C370.981 44.0739 370.739 43.8071 370.424 43.6115C370.112 43.416 369.745 43.3182 369.32 43.3182C368.853 43.3182 368.449 43.4342 368.107 43.6662C367.769 43.8949 367.509 44.1932 367.327 44.5611C367.144 44.929 367.053 45.3234 367.053 45.7443V46.4205C367.053 46.9972 367.153 47.486 367.352 47.8871C367.554 48.2848 367.834 48.5881 368.192 48.7969C368.55 49.0024 368.966 49.1051 369.44 49.1051C369.748 49.1051 370.026 49.062 370.275 48.9759C370.527 48.8864 370.744 48.7538 370.926 48.5781C371.108 48.3991 371.249 48.1771 371.349 47.9119L372.482 48.2301C372.363 48.6146 372.162 48.9527 371.881 49.2443C371.599 49.5327 371.251 49.758 370.837 49.9205C370.422 50.0795 369.957 50.1591 369.44 50.1591Z" fill="white"/>
<path d="M213 12C213 10.8954 213.895 10 215 10H267C268.105 10 269 10.8954 269 12V30H213V12Z" fill="#253244"/>
<path d="M224.83 17.4545C224.778 17.0227 224.571 16.6875 224.207 16.4489C223.844 16.2102 223.398 16.0909 222.869 16.0909C222.483 16.0909 222.145 16.1534 221.855 16.2784C221.568 16.4034 221.344 16.5753 221.182 16.794C221.023 17.0128 220.943 17.2614 220.943 17.5398C220.943 17.7727 220.999 17.973 221.109 18.1406C221.223 18.3054 221.368 18.4432 221.544 18.554C221.72 18.6619 221.905 18.7514 222.098 18.8224C222.291 18.8906 222.469 18.946 222.631 18.9886L223.517 19.2273C223.744 19.2869 223.997 19.3693 224.276 19.4744C224.557 19.5795 224.825 19.723 225.081 19.9048C225.339 20.0838 225.553 20.3139 225.72 20.5952C225.888 20.8764 225.972 21.2216 225.972 21.6307C225.972 22.1023 225.848 22.5284 225.601 22.9091C225.357 23.2898 224.999 23.5923 224.527 23.8168C224.058 24.0412 223.489 24.1534 222.818 24.1534C222.193 24.1534 221.652 24.0526 221.195 23.8509C220.74 23.6491 220.382 23.3679 220.121 23.0071C219.862 22.6463 219.716 22.2273 219.682 21.75H220.773C220.801 22.0795 220.912 22.3523 221.105 22.5682C221.301 22.7812 221.548 22.9403 221.847 23.0455C222.148 23.1477 222.472 23.1989 222.818 23.1989C223.222 23.1989 223.584 23.1335 223.905 23.0028C224.226 22.8693 224.48 22.6847 224.668 22.4489C224.855 22.2102 224.949 21.9318 224.949 21.6136C224.949 21.3239 224.868 21.0881 224.706 20.9062C224.544 20.7244 224.331 20.5767 224.067 20.4631C223.803 20.3494 223.517 20.25 223.21 20.1648L222.136 19.858C221.455 19.6619 220.915 19.3821 220.517 19.0185C220.119 18.6548 219.92 18.179 219.92 17.5909C219.92 17.1023 220.053 16.6761 220.317 16.3125C220.584 15.946 220.942 15.6619 221.391 15.4602C221.842 15.2557 222.347 15.1534 222.903 15.1534C223.466 15.1534 223.966 15.2543 224.403 15.456C224.841 15.6548 225.188 15.9276 225.443 16.2741C225.702 16.6207 225.838 17.0142 225.852 17.4545H224.83ZM227.832 16.2102V15.2727H234.377V16.2102H231.633V24H230.576V16.2102H227.832ZM236.608 24V15.2727H241.875V16.2102H237.665V19.1591H241.603V20.0966H237.665V23.0625H241.944V24H236.608ZM244.38 24V15.2727H247.329C248.014 15.2727 248.573 15.3963 249.008 15.6435C249.446 15.8878 249.769 16.2188 249.98 16.6364C250.19 17.054 250.295 17.5199 250.295 18.0341C250.295 18.5483 250.19 19.0156 249.98 19.4361C249.772 19.8565 249.451 20.1918 249.017 20.4418C248.582 20.6889 248.025 20.8125 247.346 20.8125H245.233V19.875H247.312C247.781 19.875 248.157 19.794 248.441 19.6321C248.725 19.4702 248.931 19.2514 249.059 18.9759C249.19 18.6974 249.255 18.3835 249.255 18.0341C249.255 17.6847 249.19 17.3722 249.059 17.0966C248.931 16.821 248.724 16.6051 248.437 16.4489C248.15 16.2898 247.769 16.2102 247.295 16.2102H245.437V24H244.38ZM256.419 24V23.233L259.3 20.0795C259.638 19.7102 259.916 19.3892 260.135 19.1165C260.354 18.8409 260.516 18.5824 260.621 18.3409C260.729 18.0966 260.783 17.8409 260.783 17.5739C260.783 17.267 260.709 17.0014 260.561 16.777C260.416 16.5526 260.217 16.3793 259.964 16.2571C259.712 16.1349 259.428 16.0739 259.112 16.0739C258.777 16.0739 258.484 16.1435 258.234 16.2827C257.987 16.419 257.795 16.6108 257.659 16.858C257.526 17.1051 257.459 17.3949 257.459 17.7273H256.453C256.453 17.2159 256.571 16.767 256.807 16.3807C257.043 15.9943 257.364 15.6932 257.77 15.4773C258.179 15.2614 258.638 15.1534 259.146 15.1534C259.658 15.1534 260.111 15.2614 260.506 15.4773C260.901 15.6932 261.21 15.9844 261.435 16.3509C261.659 16.7173 261.771 17.125 261.771 17.5739C261.771 17.8949 261.713 18.2088 261.597 18.5156C261.483 18.8196 261.284 19.1591 261 19.5341C260.719 19.9062 260.328 20.3608 259.828 20.8977L257.868 22.9943V23.0625H261.925V24H256.419Z" fill="white" fill-opacity="0.4"/>
<g opacity="0.5">
<path d="M237.5 121C237.5 119.067 239.067 117.5 241 117.5H518C521.59 117.5 524.5 120.41 524.5 124V161C524.5 162.933 522.933 164.5 521 164.5H241C239.067 164.5 237.5 162.933 237.5 161V121Z" fill="#334155"/>
<path d="M237.5 121C237.5 119.067 239.067 117.5 241 117.5H518C521.59 117.5 524.5 120.41 524.5 124V161C524.5 162.933 522.933 164.5 521 164.5H241C239.067 164.5 237.5 162.933 237.5 161V121Z" stroke="url(#paint4_linear_2041_13214)"/>
</g>
<path d="M245.5 126.5H368C369.933 126.5 371.5 128.067 371.5 130V152C371.5 153.933 369.933 155.5 368 155.5H249C247.067 155.5 245.5 153.933 245.5 152V126.5Z" fill="#334155"/>
<path d="M245.5 126.5H368C369.933 126.5 371.5 128.067 371.5 130V152C371.5 153.933 369.933 155.5 368 155.5H249C247.067 155.5 245.5 153.933 245.5 152V126.5Z" stroke="url(#paint5_linear_2041_13214)"/>
<path d="M258.233 146V135.818H261.793C262.502 135.818 263.087 135.941 263.548 136.186C264.008 136.428 264.351 136.754 264.577 137.165C264.802 137.573 264.915 138.026 264.915 138.523C264.915 138.96 264.837 139.321 264.681 139.607C264.529 139.892 264.326 140.117 264.075 140.283C263.826 140.448 263.556 140.571 263.264 140.651V140.75C263.576 140.77 263.889 140.879 264.204 141.078C264.519 141.277 264.782 141.562 264.994 141.933C265.206 142.304 265.312 142.759 265.312 143.295C265.312 143.806 265.196 144.265 264.964 144.673C264.732 145.08 264.366 145.403 263.866 145.642C263.365 145.881 262.714 146 261.912 146H258.233ZM259.466 144.906H261.912C262.717 144.906 263.289 144.75 263.627 144.439C263.969 144.124 264.139 143.743 264.139 143.295C264.139 142.951 264.051 142.633 263.876 142.341C263.7 142.046 263.45 141.811 263.125 141.635C262.8 141.456 262.416 141.366 261.972 141.366H259.466V144.906ZM259.466 140.293H261.753C262.124 140.293 262.459 140.22 262.757 140.074C263.059 139.928 263.297 139.723 263.473 139.457C263.652 139.192 263.741 138.881 263.741 138.523C263.741 138.075 263.586 137.696 263.274 137.384C262.963 137.069 262.469 136.912 261.793 136.912H259.466V140.293ZM270.381 146.159C269.645 146.159 269.011 145.997 268.477 145.672C267.947 145.344 267.537 144.886 267.249 144.3C266.964 143.71 266.821 143.024 266.821 142.241C266.821 141.459 266.964 140.77 267.249 140.173C267.537 139.573 267.938 139.106 268.452 138.771C268.969 138.433 269.572 138.264 270.262 138.264C270.659 138.264 271.052 138.33 271.44 138.463C271.828 138.596 272.181 138.811 272.499 139.109C272.817 139.404 273.071 139.795 273.26 140.283C273.449 140.77 273.543 141.37 273.543 142.082V142.58H267.657V141.565H272.35C272.35 141.134 272.264 140.75 272.091 140.412C271.922 140.074 271.68 139.807 271.365 139.612C271.054 139.416 270.686 139.318 270.262 139.318C269.794 139.318 269.39 139.434 269.049 139.666C268.711 139.895 268.45 140.193 268.268 140.561C268.086 140.929 267.995 141.323 267.995 141.744V142.42C267.995 142.997 268.094 143.486 268.293 143.887C268.495 144.285 268.775 144.588 269.133 144.797C269.491 145.002 269.907 145.105 270.381 145.105C270.689 145.105 270.968 145.062 271.216 144.976C271.468 144.886 271.685 144.754 271.868 144.578C272.05 144.399 272.191 144.177 272.29 143.912L273.424 144.23C273.304 144.615 273.104 144.953 272.822 145.244C272.54 145.533 272.192 145.758 271.778 145.92C271.364 146.08 270.898 146.159 270.381 146.159ZM281.512 146.179C281.029 146.179 280.589 146.088 280.195 145.906C279.801 145.72 279.487 145.453 279.255 145.105C279.023 144.754 278.907 144.33 278.907 143.832C278.907 143.395 278.993 143.04 279.166 142.768C279.338 142.493 279.569 142.278 279.857 142.122C280.145 141.966 280.463 141.85 280.811 141.774C281.163 141.695 281.516 141.632 281.87 141.585C282.334 141.526 282.711 141.481 282.999 141.451C283.291 141.418 283.503 141.363 283.635 141.287C283.771 141.211 283.839 141.078 283.839 140.889V140.849C283.839 140.359 283.705 139.978 283.436 139.706C283.171 139.434 282.769 139.298 282.228 139.298C281.668 139.298 281.229 139.421 280.911 139.666C280.593 139.911 280.369 140.173 280.24 140.452L279.126 140.054C279.325 139.59 279.59 139.229 279.922 138.97C280.256 138.708 280.621 138.526 281.015 138.423C281.413 138.317 281.804 138.264 282.189 138.264C282.434 138.264 282.716 138.294 283.034 138.354C283.355 138.41 283.665 138.528 283.963 138.707C284.265 138.886 284.515 139.156 284.714 139.517C284.913 139.878 285.012 140.362 285.012 140.969V146H283.839V144.966H283.779C283.7 145.132 283.567 145.309 283.382 145.498C283.196 145.687 282.949 145.848 282.641 145.98C282.333 146.113 281.957 146.179 281.512 146.179ZM281.691 145.125C282.155 145.125 282.547 145.034 282.865 144.852C283.186 144.669 283.428 144.434 283.591 144.146C283.756 143.857 283.839 143.554 283.839 143.236V142.162C283.789 142.222 283.68 142.276 283.511 142.326C283.345 142.372 283.153 142.414 282.934 142.45C282.719 142.483 282.508 142.513 282.303 142.54C282.101 142.563 281.937 142.583 281.811 142.599C281.506 142.639 281.221 142.704 280.956 142.793C280.694 142.879 280.482 143.01 280.319 143.186C280.16 143.358 280.081 143.594 280.081 143.892C280.081 144.3 280.231 144.608 280.533 144.817C280.838 145.022 281.224 145.125 281.691 145.125ZM292.265 141.406V146H291.091V135.818H292.265V139.557H292.364C292.543 139.162 292.812 138.849 293.17 138.617C293.531 138.382 294.011 138.264 294.611 138.264C295.132 138.264 295.587 138.369 295.979 138.577C296.37 138.783 296.673 139.099 296.888 139.527C297.107 139.951 297.216 140.491 297.216 141.148V146H296.043V141.227C296.043 140.621 295.886 140.152 295.571 139.82C295.259 139.486 294.827 139.318 294.273 139.318C293.889 139.318 293.544 139.399 293.239 139.562C292.938 139.724 292.699 139.961 292.523 140.273C292.351 140.584 292.265 140.962 292.265 141.406ZM301.61 146.179C301.126 146.179 300.687 146.088 300.293 145.906C299.898 145.72 299.585 145.453 299.353 145.105C299.121 144.754 299.005 144.33 299.005 143.832C299.005 143.395 299.091 143.04 299.263 142.768C299.436 142.493 299.666 142.278 299.955 142.122C300.243 141.966 300.561 141.85 300.909 141.774C301.26 141.695 301.613 141.632 301.968 141.585C302.432 141.526 302.808 141.481 303.097 141.451C303.388 141.418 303.6 141.363 303.733 141.287C303.869 141.211 303.937 141.078 303.937 140.889V140.849C303.937 140.359 303.803 139.978 303.534 139.706C303.269 139.434 302.866 139.298 302.326 139.298C301.766 139.298 301.327 139.421 301.009 139.666C300.69 139.911 300.467 140.173 300.337 140.452L299.224 140.054C299.423 139.59 299.688 139.229 300.019 138.97C300.354 138.708 300.719 138.526 301.113 138.423C301.511 138.317 301.902 138.264 302.286 138.264C302.531 138.264 302.813 138.294 303.131 138.354C303.453 138.41 303.763 138.528 304.061 138.707C304.363 138.886 304.613 139.156 304.812 139.517C305.011 139.878 305.11 140.362 305.11 140.969V146H303.937V144.966H303.877C303.798 145.132 303.665 145.309 303.479 145.498C303.294 145.687 303.047 145.848 302.739 145.98C302.43 146.113 302.054 146.179 301.61 146.179ZM301.789 145.125C302.253 145.125 302.644 145.034 302.962 144.852C303.284 144.669 303.526 144.434 303.688 144.146C303.854 143.857 303.937 143.554 303.937 143.236V142.162C303.887 142.222 303.778 142.276 303.609 142.326C303.443 142.372 303.251 142.414 303.032 142.45C302.817 142.483 302.606 142.513 302.401 142.54C302.198 142.563 302.034 142.583 301.908 142.599C301.603 142.639 301.318 142.704 301.053 142.793C300.791 142.879 300.579 143.01 300.417 143.186C300.258 143.358 300.178 143.594 300.178 143.892C300.178 144.3 300.329 144.608 300.631 144.817C300.936 145.022 301.322 145.125 301.789 145.125ZM307.252 148.864V138.364H308.385V139.577H308.524C308.61 139.444 308.73 139.275 308.882 139.07C309.038 138.861 309.26 138.675 309.548 138.513C309.84 138.347 310.235 138.264 310.732 138.264C311.375 138.264 311.941 138.425 312.432 138.746C312.923 139.068 313.305 139.524 313.58 140.114C313.856 140.704 313.993 141.4 313.993 142.202C313.993 143.01 313.856 143.711 313.58 144.305C313.305 144.895 312.924 145.352 312.437 145.677C311.95 145.998 311.388 146.159 310.752 146.159C310.261 146.159 309.868 146.078 309.573 145.915C309.278 145.75 309.051 145.562 308.892 145.354C308.733 145.142 308.61 144.966 308.524 144.827H308.425V148.864H307.252ZM308.405 142.182C308.405 142.759 308.49 143.267 308.659 143.708C308.828 144.146 309.075 144.489 309.399 144.737C309.724 144.982 310.122 145.105 310.593 145.105C311.083 145.105 311.492 144.976 311.82 144.717C312.152 144.455 312.401 144.104 312.566 143.663C312.735 143.219 312.82 142.725 312.82 142.182C312.82 141.645 312.737 141.161 312.571 140.73C312.409 140.296 312.162 139.953 311.83 139.701C311.502 139.446 311.09 139.318 310.593 139.318C310.115 139.318 309.714 139.439 309.389 139.681C309.065 139.92 308.819 140.254 308.654 140.685C308.488 141.113 308.405 141.612 308.405 142.182ZM315.783 148.864V138.364H316.916V139.577H317.056C317.142 139.444 317.261 139.275 317.414 139.07C317.569 138.861 317.791 138.675 318.08 138.513C318.371 138.347 318.766 138.264 319.263 138.264C319.906 138.264 320.473 138.425 320.963 138.746C321.454 139.068 321.837 139.524 322.112 140.114C322.387 140.704 322.524 141.4 322.524 142.202C322.524 143.01 322.387 143.711 322.112 144.305C321.837 144.895 321.455 145.352 320.968 145.677C320.481 145.998 319.919 146.159 319.283 146.159C318.792 146.159 318.4 146.078 318.105 145.915C317.81 145.75 317.583 145.562 317.423 145.354C317.264 145.142 317.142 144.966 317.056 144.827H316.956V148.864H315.783ZM316.936 142.182C316.936 142.759 317.021 143.267 317.19 143.708C317.359 144.146 317.606 144.489 317.931 144.737C318.255 144.982 318.653 145.105 319.124 145.105C319.614 145.105 320.024 144.976 320.352 144.717C320.683 144.455 320.932 144.104 321.097 143.663C321.267 143.219 321.351 142.725 321.351 142.182C321.351 141.645 321.268 141.161 321.102 140.73C320.94 140.296 320.693 139.953 320.362 139.701C320.034 139.446 319.621 139.318 319.124 139.318C318.646 139.318 318.245 139.439 317.921 139.681C317.596 139.92 317.351 140.254 317.185 140.685C317.019 141.113 316.936 141.612 316.936 142.182ZM324.796 148.864C324.597 148.864 324.42 148.847 324.264 148.814C324.109 148.784 324.001 148.754 323.941 148.724L324.24 147.69C324.525 147.763 324.776 147.79 324.995 147.77C325.214 147.75 325.408 147.652 325.577 147.477C325.749 147.304 325.907 147.024 326.049 146.636L326.268 146.04L323.444 138.364H324.717L326.825 144.449H326.904L329.012 138.364H330.285L327.044 147.114C326.898 147.508 326.717 147.835 326.502 148.093C326.286 148.355 326.036 148.549 325.751 148.675C325.469 148.801 325.151 148.864 324.796 148.864ZM338.854 149.023C338.287 149.023 337.8 148.95 337.392 148.804C336.984 148.661 336.644 148.473 336.373 148.237C336.104 148.005 335.89 147.757 335.731 147.491L336.666 146.835C336.772 146.974 336.906 147.134 337.069 147.312C337.231 147.495 337.453 147.652 337.735 147.785C338.02 147.921 338.393 147.989 338.854 147.989C339.47 147.989 339.979 147.839 340.38 147.541C340.781 147.243 340.981 146.776 340.981 146.139V144.588H340.882C340.796 144.727 340.673 144.9 340.514 145.105C340.358 145.307 340.133 145.488 339.838 145.647C339.546 145.803 339.152 145.881 338.655 145.881C338.038 145.881 337.485 145.735 336.994 145.443C336.507 145.152 336.121 144.727 335.836 144.17C335.554 143.614 335.413 142.937 335.413 142.142C335.413 141.36 335.551 140.679 335.826 140.099C336.101 139.515 336.484 139.065 336.974 138.746C337.465 138.425 338.032 138.264 338.675 138.264C339.172 138.264 339.566 138.347 339.858 138.513C340.153 138.675 340.378 138.861 340.534 139.07C340.693 139.275 340.816 139.444 340.902 139.577H341.021V138.364H342.155V146.219C342.155 146.875 342.006 147.409 341.707 147.82C341.412 148.234 341.015 148.537 340.514 148.729C340.017 148.925 339.463 149.023 338.854 149.023ZM338.814 144.827C339.284 144.827 339.682 144.719 340.007 144.504C340.332 144.288 340.579 143.978 340.748 143.574C340.917 143.17 341.001 142.686 341.001 142.122C341.001 141.572 340.918 141.086 340.753 140.665C340.587 140.245 340.342 139.915 340.017 139.676C339.692 139.437 339.291 139.318 338.814 139.318C338.317 139.318 337.902 139.444 337.571 139.696C337.243 139.948 336.996 140.286 336.83 140.71C336.668 141.134 336.586 141.605 336.586 142.122C336.586 142.652 336.669 143.121 336.835 143.529C337.004 143.933 337.253 144.252 337.581 144.484C337.912 144.712 338.323 144.827 338.814 144.827ZM349.115 142.878V138.364H350.288V146H349.115V144.707H349.035C348.856 145.095 348.578 145.425 348.2 145.697C347.822 145.965 347.345 146.099 346.768 146.099C346.291 146.099 345.867 145.995 345.496 145.786C345.124 145.574 344.833 145.256 344.621 144.832C344.408 144.404 344.302 143.866 344.302 143.216V138.364H345.476V143.136C345.476 143.693 345.631 144.137 345.943 144.469C346.258 144.8 346.659 144.966 347.146 144.966C347.438 144.966 347.734 144.891 348.036 144.742C348.341 144.593 348.596 144.364 348.802 144.056C349.01 143.748 349.115 143.355 349.115 142.878ZM353.193 148.864C352.994 148.864 352.817 148.847 352.661 148.814C352.505 148.784 352.397 148.754 352.338 148.724L352.636 147.69C352.921 147.763 353.173 147.79 353.392 147.77C353.61 147.75 353.804 147.652 353.973 147.477C354.146 147.304 354.303 147.024 354.446 146.636L354.664 146.04L351.841 138.364H353.113L355.221 144.449H355.301L357.409 138.364H358.681L355.44 147.114C355.294 147.508 355.114 147.835 354.898 148.093C354.683 148.355 354.432 148.549 354.147 148.675C353.866 148.801 353.547 148.864 353.193 148.864Z" fill="white"/>
<path d="M245 108C245 106.895 245.895 106 247 106H300C301.105 106 302 106.895 302 108V126H245V108Z" fill="#253244"/>
<path d="M256.83 113.455C256.778 113.023 256.571 112.688 256.207 112.449C255.844 112.21 255.398 112.091 254.869 112.091C254.483 112.091 254.145 112.153 253.855 112.278C253.568 112.403 253.344 112.575 253.182 112.794C253.023 113.013 252.943 113.261 252.943 113.54C252.943 113.773 252.999 113.973 253.109 114.141C253.223 114.305 253.368 114.443 253.544 114.554C253.72 114.662 253.905 114.751 254.098 114.822C254.291 114.891 254.469 114.946 254.631 114.989L255.517 115.227C255.744 115.287 255.997 115.369 256.276 115.474C256.557 115.58 256.825 115.723 257.081 115.905C257.339 116.084 257.553 116.314 257.72 116.595C257.888 116.876 257.972 117.222 257.972 117.631C257.972 118.102 257.848 118.528 257.601 118.909C257.357 119.29 256.999 119.592 256.527 119.817C256.058 120.041 255.489 120.153 254.818 120.153C254.193 120.153 253.652 120.053 253.195 119.851C252.74 119.649 252.382 119.368 252.121 119.007C251.862 118.646 251.716 118.227 251.682 117.75H252.773C252.801 118.08 252.912 118.352 253.105 118.568C253.301 118.781 253.548 118.94 253.847 119.045C254.148 119.148 254.472 119.199 254.818 119.199C255.222 119.199 255.584 119.134 255.905 119.003C256.226 118.869 256.48 118.685 256.668 118.449C256.855 118.21 256.949 117.932 256.949 117.614C256.949 117.324 256.868 117.088 256.706 116.906C256.544 116.724 256.331 116.577 256.067 116.463C255.803 116.349 255.517 116.25 255.21 116.165L254.136 115.858C253.455 115.662 252.915 115.382 252.517 115.018C252.119 114.655 251.92 114.179 251.92 113.591C251.92 113.102 252.053 112.676 252.317 112.312C252.584 111.946 252.942 111.662 253.391 111.46C253.842 111.256 254.347 111.153 254.903 111.153C255.466 111.153 255.966 111.254 256.403 111.456C256.841 111.655 257.188 111.928 257.443 112.274C257.702 112.621 257.838 113.014 257.852 113.455H256.83ZM259.832 112.21V111.273H266.377V112.21H263.633V120H262.576V112.21H259.832ZM268.608 120V111.273H273.875V112.21H269.665V115.159H273.603V116.097H269.665V119.062H273.944V120H268.608ZM276.38 120V111.273H279.329C280.014 111.273 280.573 111.396 281.008 111.643C281.446 111.888 281.769 112.219 281.98 112.636C282.19 113.054 282.295 113.52 282.295 114.034C282.295 114.548 282.19 115.016 281.98 115.436C281.772 115.857 281.451 116.192 281.017 116.442C280.582 116.689 280.025 116.812 279.346 116.812H277.233V115.875H279.312C279.781 115.875 280.157 115.794 280.441 115.632C280.725 115.47 280.931 115.251 281.059 114.976C281.19 114.697 281.255 114.384 281.255 114.034C281.255 113.685 281.19 113.372 281.059 113.097C280.931 112.821 280.724 112.605 280.437 112.449C280.15 112.29 279.769 112.21 279.295 112.21H277.437V120H276.38ZM291.368 120.119C290.805 120.119 290.304 120.023 289.864 119.83C289.426 119.636 289.078 119.368 288.82 119.024C288.564 118.678 288.425 118.276 288.402 117.818H289.476C289.499 118.099 289.595 118.342 289.766 118.547C289.936 118.749 290.159 118.905 290.435 119.016C290.71 119.126 291.016 119.182 291.351 119.182C291.726 119.182 292.058 119.116 292.348 118.986C292.638 118.855 292.865 118.673 293.03 118.44C293.195 118.207 293.277 117.938 293.277 117.631C293.277 117.31 293.197 117.027 293.038 116.783C292.879 116.536 292.646 116.342 292.339 116.203C292.033 116.064 291.658 115.994 291.214 115.994H290.516V115.057H291.214C291.561 115.057 291.865 114.994 292.126 114.869C292.391 114.744 292.597 114.568 292.744 114.341C292.895 114.114 292.97 113.847 292.97 113.54C292.97 113.244 292.905 112.987 292.774 112.768C292.643 112.55 292.459 112.379 292.22 112.257C291.984 112.135 291.706 112.074 291.385 112.074C291.084 112.074 290.8 112.129 290.533 112.24C290.268 112.348 290.053 112.506 289.885 112.713C289.717 112.918 289.626 113.165 289.612 113.455H288.589C288.607 112.997 288.744 112.597 289.003 112.253C289.261 111.906 289.599 111.636 290.017 111.443C290.438 111.25 290.899 111.153 291.402 111.153C291.942 111.153 292.405 111.263 292.791 111.482C293.178 111.697 293.474 111.983 293.682 112.338C293.889 112.693 293.993 113.077 293.993 113.489C293.993 113.98 293.864 114.399 293.605 114.746C293.349 115.092 293.001 115.332 292.561 115.466V115.534C293.112 115.625 293.543 115.859 293.852 116.237C294.162 116.612 294.317 117.077 294.317 117.631C294.317 118.105 294.188 118.531 293.929 118.909C293.673 119.284 293.324 119.58 292.881 119.795C292.438 120.011 291.933 120.119 291.368 120.119Z" fill="white" fill-opacity="0.4"/>
<g opacity="0.5">
<path d="M-115.5 71.5H168C169.933 71.5 171.5 73.067 171.5 75V115C171.5 116.933 169.933 118.5 168 118.5H-112C-113.933 118.5 -115.5 116.933 -115.5 115V71.5Z" fill="#334155"/>
<path d="M-115.5 71.5H168C169.933 71.5 171.5 73.067 171.5 75V115C171.5 116.933 169.933 118.5 168 118.5H-112C-113.933 118.5 -115.5 116.933 -115.5 115V71.5Z" stroke="url(#paint6_linear_2041_13214)"/>
</g>
<path d="M-15.5 80.5H160C161.933 80.5 163.5 82.067 163.5 84V106C163.5 107.933 161.933 109.5 160 109.5H-12C-13.933 109.5 -15.5 107.933 -15.5 106V80.5Z" fill="#334155"/>
<path d="M-15.5 80.5H160C161.933 80.5 163.5 82.067 163.5 84V106C163.5 107.933 161.933 109.5 160 109.5H-12C-13.933 109.5 -15.5 107.933 -15.5 106V80.5Z" stroke="url(#paint7_linear_2041_13214)"/>
<path d="M-1.53409 89.8182V100H-2.76705V89.8182H-1.53409ZM4.17951 92.3636V93.358H0.0630327V92.3636H4.17951ZM1.29599 100V91.3097C1.29599 90.8722 1.39873 90.5076 1.60423 90.2159C1.80972 89.9242 2.07653 89.7055 2.40465 89.5597C2.73278 89.4138 3.07913 89.3409 3.44371 89.3409C3.73207 89.3409 3.96739 89.3641 4.14968 89.4105C4.33197 89.4569 4.46786 89.5 4.55735 89.5398L4.21928 90.554C4.15962 90.5341 4.07676 90.5092 3.9707 90.4794C3.86796 90.4496 3.73207 90.4347 3.56303 90.4347C3.17525 90.4347 2.89518 90.5324 2.72283 90.728C2.5538 90.9235 2.46928 91.2102 2.46928 91.5881V100H1.29599ZM11.1534 89.8182V100H9.92045V89.8182H11.1534ZM20.5062 100.159C19.7903 100.159 19.1738 99.9901 18.6568 99.652C18.1397 99.3139 17.742 98.8482 17.4636 98.255C17.1852 97.6617 17.046 96.9839 17.046 96.2216C17.046 95.446 17.1885 94.7616 17.4735 94.1683C17.7619 93.5717 18.1629 93.1061 18.6767 92.7713C19.1937 92.4332 19.7969 92.2642 20.4863 92.2642C21.0233 92.2642 21.5072 92.3636 21.938 92.5625C22.3689 92.7614 22.7219 93.0398 22.997 93.3977C23.2721 93.7557 23.4428 94.1733 23.5091 94.6506H22.3358C22.2463 94.3026 22.0474 93.9943 21.7392 93.7259C21.4342 93.4541 21.0233 93.3182 20.5062 93.3182C20.0488 93.3182 19.6478 93.4375 19.3031 93.6761C18.9617 93.9115 18.6949 94.2446 18.5027 94.6754C18.3137 95.103 18.2193 95.6051 18.2193 96.1818C18.2193 96.7718 18.3121 97.2855 18.4977 97.723C18.6866 98.1605 18.9518 98.5002 19.2931 98.7422C19.6378 98.9841 20.0422 99.1051 20.5062 99.1051C20.8111 99.1051 21.0879 99.0521 21.3365 98.946C21.585 98.84 21.7955 98.6875 21.9679 98.4886C22.1402 98.2898 22.2628 98.0511 22.3358 97.7727H23.5091C23.4428 98.2235 23.2787 98.6295 23.0169 98.9908C22.7583 99.3487 22.4153 99.6338 21.9877 99.8459C21.5635 100.055 21.0697 100.159 20.5062 100.159ZM27.4714 100.179C26.9875 100.179 26.5484 100.088 26.1539 99.9055C25.7595 99.7199 25.4463 99.4531 25.2143 99.1051C24.9823 98.7538 24.8663 98.3295 24.8663 97.8324C24.8663 97.3949 24.9525 97.0402 25.1248 96.7685C25.2972 96.4934 25.5275 96.2779 25.8159 96.1222C26.1042 95.9664 26.4224 95.8504 26.7704 95.7741C27.1217 95.6946 27.4747 95.6316 27.8294 95.5852C28.2934 95.5256 28.6696 95.4808 28.9579 95.451C29.2496 95.4179 29.4617 95.3632 29.5943 95.2869C29.7302 95.2107 29.7981 95.0781 29.7981 94.8892V94.8494C29.7981 94.3589 29.6639 93.9777 29.3954 93.706C29.1303 93.4342 28.7276 93.2983 28.1873 93.2983C27.6272 93.2983 27.188 93.4209 26.8699 93.6662C26.5517 93.9115 26.3279 94.1733 26.1987 94.4517L25.085 94.054C25.2839 93.59 25.5491 93.2287 25.8805 92.9702C26.2153 92.7083 26.5798 92.526 26.9743 92.4233C27.372 92.3172 27.7631 92.2642 28.1475 92.2642C28.3928 92.2642 28.6745 92.294 28.9927 92.3537C29.3142 92.41 29.6241 92.5277 29.9224 92.7067C30.224 92.8857 30.4743 93.1558 30.6731 93.517C30.872 93.8783 30.9714 94.3622 30.9714 94.9688V100H29.7981V98.9659H29.7385C29.6589 99.1316 29.5263 99.3089 29.3407 99.4979C29.1551 99.6868 28.9082 99.8475 28.6 99.9801C28.2917 100.113 27.9155 100.179 27.4714 100.179ZM27.6504 99.125C28.1144 99.125 28.5055 99.0339 28.8237 98.8516C29.1452 98.6693 29.3871 98.4339 29.5495 98.1456C29.7153 97.8572 29.7981 97.554 29.7981 97.2358V96.1619C29.7484 96.2216 29.639 96.2763 29.47 96.326C29.3043 96.3724 29.112 96.4138 28.8933 96.4503C28.6779 96.4834 28.4674 96.5133 28.2619 96.5398C28.0597 96.563 27.8957 96.5829 27.7697 96.5994C27.4648 96.6392 27.1797 96.7038 26.9146 96.7933C26.6528 96.8795 26.4406 97.0104 26.2782 97.1861C26.1191 97.3584 26.0396 97.5937 26.0396 97.892C26.0396 98.2997 26.1904 98.608 26.492 98.8168C26.7969 99.0223 27.1831 99.125 27.6504 99.125ZM34.2862 95.4062V100H33.1129V92.3636H34.2464V93.5568H34.3459C34.5249 93.169 34.7966 92.8575 35.1612 92.6222C35.5258 92.3835 35.9964 92.2642 36.5732 92.2642C37.0902 92.2642 37.5426 92.3703 37.9304 92.5824C38.3182 92.7912 38.6198 93.1094 38.8352 93.5369C39.0507 93.9612 39.1584 94.4981 39.1584 95.1477V100H37.9851V95.2273C37.9851 94.6274 37.8293 94.16 37.5178 93.8253C37.2062 93.4872 36.7786 93.3182 36.2351 93.3182C35.8606 93.3182 35.5258 93.3994 35.2308 93.5618C34.9392 93.7242 34.7088 93.9612 34.5398 94.2727C34.3707 94.5843 34.2862 94.9621 34.2862 95.4062ZM45.2399 102.864V92.3636H46.3734V93.5767H46.5126C46.5988 93.4441 46.7181 93.2751 46.8706 93.0696C47.0263 92.8608 47.2484 92.6752 47.5368 92.5128C47.8284 92.3471 48.2228 92.2642 48.72 92.2642C49.363 92.2642 49.9297 92.425 50.4203 92.7464C50.9108 93.0679 51.2936 93.5237 51.5687 94.1136C51.8438 94.7036 51.9814 95.3996 51.9814 96.2017C51.9814 97.0104 51.8438 97.7114 51.5687 98.3047C51.2936 98.8946 50.9125 99.352 50.4252 99.6768C49.938 99.9983 49.3762 100.159 48.7399 100.159C48.2493 100.159 47.8566 100.078 47.5616 99.9155C47.2666 99.7498 47.0396 99.5625 46.8805 99.3537C46.7214 99.1416 46.5988 98.9659 46.5126 98.8267H46.4132V102.864H45.2399ZM46.3933 96.1818C46.3933 96.7585 46.4778 97.2673 46.6468 97.7081C46.8159 98.1456 47.0628 98.4886 47.3876 98.7372C47.7124 98.9825 48.1101 99.1051 48.5808 99.1051C49.0713 99.1051 49.4806 98.9759 49.8088 98.7173C50.1402 98.4555 50.3888 98.1042 50.5545 97.6634C50.7235 97.2192 50.8081 96.7254 50.8081 96.1818C50.8081 95.6449 50.7252 95.161 50.5595 94.7301C50.3971 94.2959 50.1502 93.9529 49.8187 93.701C49.4906 93.4458 49.0779 93.3182 48.5808 93.3182C48.1035 93.3182 47.7025 93.4392 47.3777 93.6811C47.0529 93.9197 46.8076 94.2545 46.6419 94.6854C46.4761 95.1129 46.3933 95.6117 46.3933 96.1818ZM54.9444 89.8182V100H53.7711V89.8182H54.9444ZM59.3406 100.179C58.8567 100.179 58.4175 100.088 58.0231 99.9055C57.6287 99.7199 57.3155 99.4531 57.0835 99.1051C56.8514 98.7538 56.7354 98.3295 56.7354 97.8324C56.7354 97.3949 56.8216 97.0402 56.994 96.7685C57.1663 96.4934 57.3967 96.2779 57.685 96.1222C57.9734 95.9664 58.2915 95.8504 58.6396 95.7741C58.9909 95.6946 59.3439 95.6316 59.6985 95.5852C60.1625 95.5256 60.5387 95.4808 60.8271 95.451C61.1187 95.4179 61.3308 95.3632 61.4634 95.2869C61.5993 95.2107 61.6673 95.0781 61.6673 94.8892V94.8494C61.6673 94.3589 61.533 93.9777 61.2646 93.706C60.9994 93.4342 60.5967 93.2983 60.0565 93.2983C59.4963 93.2983 59.0572 93.4209 58.739 93.6662C58.4208 93.9115 58.1971 94.1733 58.0678 94.4517L56.9542 94.054C57.1531 93.59 57.4182 93.2287 57.7496 92.9702C58.0844 92.7083 58.449 92.526 58.8434 92.4233C59.2411 92.3172 59.6322 92.2642 60.0167 92.2642C60.262 92.2642 60.5437 92.294 60.8619 92.3537C61.1834 92.41 61.4933 92.5277 61.7915 92.7067C62.0932 92.8857 62.3434 93.1558 62.5423 93.517C62.7411 93.8783 62.8406 94.3622 62.8406 94.9688V100H61.6673V98.9659H61.6076C61.5281 99.1316 61.3955 99.3089 61.2099 99.4979C61.0243 99.6868 60.7773 99.8475 60.4691 99.9801C60.1609 100.113 59.7847 100.179 59.3406 100.179ZM59.5195 99.125C59.9835 99.125 60.3746 99.0339 60.6928 98.8516C61.0143 98.6693 61.2563 98.4339 61.4187 98.1456C61.5844 97.8572 61.6673 97.554 61.6673 97.2358V96.1619C61.6175 96.2216 61.5082 96.2763 61.3391 96.326C61.1734 96.3724 60.9812 96.4138 60.7624 96.4503C60.547 96.4834 60.3365 96.5133 60.131 96.5398C59.9289 96.563 59.7648 96.5829 59.6388 96.5994C59.3339 96.6392 59.0489 96.7038 58.7837 96.7933C58.5219 96.8795 58.3098 97.0104 58.1474 97.1861C57.9883 97.3584 57.9087 97.5937 57.9087 97.892C57.9087 98.2997 58.0595 98.608 58.3612 98.8168C58.6661 99.0223 59.0522 99.125 59.5195 99.125ZM65.4643 102.864C65.2654 102.864 65.0881 102.847 64.9324 102.814C64.7766 102.784 64.6689 102.754 64.6092 102.724L64.9075 101.69C65.1925 101.763 65.4444 101.79 65.6632 101.77C65.8819 101.75 66.0758 101.652 66.2449 101.477C66.4172 101.304 66.5746 101.024 66.7172 100.636L66.9359 100.04L64.112 92.3636H65.3848L67.4927 98.4489H67.5723L69.6802 92.3636H70.9529L67.7115 101.114C67.5656 101.508 67.385 101.835 67.1696 102.093C66.9541 102.355 66.7039 102.549 66.4189 102.675C66.1371 102.801 65.819 102.864 65.4643 102.864ZM79.3226 100.159C78.6863 100.159 78.1245 99.9983 77.6373 99.6768C77.15 99.352 76.7689 98.8946 76.4938 98.3047C76.2187 97.7114 76.0811 97.0104 76.0811 96.2017C76.0811 95.3996 76.2187 94.7036 76.4938 94.1136C76.7689 93.5237 77.1517 93.0679 77.6422 92.7464C78.1328 92.425 78.6995 92.2642 79.3425 92.2642C79.8397 92.2642 80.2324 92.3471 80.5208 92.5128C80.8124 92.6752 81.0345 92.8608 81.187 93.0696C81.3427 93.2751 81.4637 93.4441 81.5499 93.5767H81.6493V89.8182H82.8226V100H81.6891V98.8267H81.5499C81.4637 98.9659 81.3411 99.1416 81.182 99.3537C81.0229 99.5625 80.7959 99.7498 80.5009 99.9155C80.2059 100.078 79.8132 100.159 79.3226 100.159ZM79.4817 99.1051C79.9524 99.1051 80.3501 98.9825 80.6749 98.7372C80.9997 98.4886 81.2466 98.1456 81.4157 97.7081C81.5847 97.2673 81.6692 96.7585 81.6692 96.1818C81.6692 95.6117 81.5864 95.1129 81.4206 94.6854C81.2549 94.2545 81.0096 93.9197 80.6848 93.6811C80.36 93.4392 79.959 93.3182 79.4817 93.3182C78.9846 93.3182 78.5703 93.4458 78.2388 93.701C77.9107 93.9529 77.6638 94.2959 77.498 94.7301C77.3356 95.161 77.2544 95.6449 77.2544 96.1818C77.2544 96.7254 77.3373 97.2192 77.503 97.6634C77.6721 98.1042 77.9206 98.4555 78.2488 98.7173C78.5802 98.9759 78.9912 99.1051 79.4817 99.1051ZM85.1344 100V92.3636H86.2679V93.517H86.3475C86.4867 93.1392 86.7386 92.8326 87.1032 92.5973C87.4677 92.362 87.8787 92.2443 88.3361 92.2443C88.4223 92.2443 88.53 92.246 88.6593 92.2493C88.7885 92.2526 88.8863 92.2576 88.9526 92.2642V93.4574C88.9128 93.4474 88.8217 93.4325 88.6792 93.4126C88.54 93.3894 88.3925 93.3778 88.2367 93.3778C87.8655 93.3778 87.534 93.4557 87.2424 93.6115C86.954 93.764 86.7253 93.9761 86.5563 94.2479C86.3906 94.5163 86.3077 94.8229 86.3077 95.1676V100H85.1344ZM95.1559 96.8778V92.3636H96.3292V100H95.1559V98.7074H95.0763C94.8974 99.0952 94.619 99.425 94.2411 99.6967C93.8633 99.9652 93.386 100.099 92.8093 100.099C92.332 100.099 91.9078 99.995 91.5366 99.7862C91.1654 99.5741 90.8737 99.2559 90.6616 98.8317C90.4495 98.4041 90.3434 97.8655 90.3434 97.2159V92.3636H91.5167V97.1364C91.5167 97.6932 91.6725 98.1373 91.984 98.4688C92.2989 98.8002 92.6999 98.9659 93.1871 98.9659C93.4788 98.9659 93.7755 98.8913 94.0771 98.7422C94.382 98.593 94.6372 98.3643 94.8427 98.0561C95.0515 97.7479 95.1559 97.3551 95.1559 96.8778ZM98.4782 100V92.3636H99.6117V93.5568H99.7111C99.8702 93.1491 100.127 92.8326 100.482 92.6072C100.836 92.3786 101.262 92.2642 101.759 92.2642C102.263 92.2642 102.682 92.3786 103.017 92.6072C103.355 92.8326 103.619 93.1491 103.808 93.5568H103.887C104.083 93.1624 104.376 92.8492 104.767 92.6172C105.158 92.3819 105.627 92.2642 106.174 92.2642C106.857 92.2642 107.415 92.478 107.85 92.9055C108.284 93.3298 108.501 93.991 108.501 94.8892V100H107.328V94.8892C107.328 94.3258 107.173 93.9231 106.865 93.6811C106.557 93.4392 106.194 93.3182 105.776 93.3182C105.24 93.3182 104.824 93.4806 104.529 93.8054C104.234 94.1269 104.086 94.5346 104.086 95.0284V100H102.893V94.7699C102.893 94.3357 102.752 93.986 102.47 93.7209C102.189 93.4524 101.826 93.3182 101.382 93.3182C101.077 93.3182 100.792 93.3994 100.526 93.5618C100.265 93.7242 100.052 93.9496 99.8901 94.2379C99.731 94.523 99.6515 94.8527 99.6515 95.2273V100H98.4782ZM116.055 94.0739L115.001 94.3722C114.935 94.1965 114.837 94.0258 114.708 93.8601C114.582 93.6911 114.41 93.5518 114.191 93.4425C113.972 93.3331 113.692 93.2784 113.351 93.2784C112.883 93.2784 112.494 93.3861 112.182 93.6016C111.874 93.8137 111.72 94.0838 111.72 94.4119C111.72 94.7036 111.826 94.9339 112.038 95.103C112.25 95.272 112.582 95.4129 113.032 95.5256L114.166 95.804C114.849 95.9697 115.358 96.2232 115.692 96.5646C116.027 96.9027 116.194 97.3385 116.194 97.8722C116.194 98.3097 116.068 98.7008 115.817 99.0455C115.568 99.3902 115.22 99.6619 114.773 99.8608C114.325 100.06 113.805 100.159 113.211 100.159C112.433 100.159 111.788 99.9901 111.278 99.652C110.767 99.3139 110.444 98.8201 110.308 98.1705L111.422 97.892C111.528 98.303 111.728 98.6113 112.023 98.8168C112.322 99.0223 112.711 99.125 113.192 99.125C113.738 99.125 114.173 99.009 114.494 98.777C114.819 98.5417 114.981 98.2599 114.981 97.9318C114.981 97.6667 114.889 97.4446 114.703 97.2656C114.517 97.0833 114.232 96.9474 113.848 96.858L112.575 96.5597C111.876 96.3939 111.362 96.1371 111.034 95.7891C110.709 95.4377 110.547 94.9986 110.547 94.4716C110.547 94.0407 110.668 93.6596 110.91 93.3281C111.155 92.9967 111.488 92.7365 111.909 92.5476C112.333 92.3587 112.814 92.2642 113.351 92.2642C114.106 92.2642 114.7 92.4299 115.131 92.7614C115.565 93.0928 115.873 93.5303 116.055 94.0739ZM123.549 95.5256V100H121.749V89.8182H123.509V93.6612H123.598C123.777 93.2304 124.054 92.8906 124.429 92.642C124.806 92.3902 125.287 92.2642 125.87 92.2642C126.401 92.2642 126.863 92.3752 127.257 92.5973C127.652 92.8194 127.957 93.1442 128.172 93.5717C128.391 93.9993 128.5 94.5213 128.5 95.1378V100H126.701V95.4162C126.701 94.9025 126.568 94.5031 126.303 94.218C126.041 93.9297 125.673 93.7855 125.199 93.7855C124.881 93.7855 124.596 93.8551 124.344 93.9943C124.096 94.1302 123.9 94.3274 123.757 94.5859C123.618 94.8445 123.549 95.1577 123.549 95.5256ZM132.532 100.154C132.048 100.154 131.613 100.068 131.225 99.8956C130.84 99.7199 130.535 99.4614 130.31 99.12C130.088 98.7786 129.977 98.3577 129.977 97.8572C129.977 97.4264 130.056 97.0701 130.216 96.7884C130.375 96.5066 130.592 96.2812 130.867 96.1122C131.142 95.9432 131.452 95.8156 131.797 95.7294C132.145 95.6399 132.504 95.5753 132.875 95.5355C133.323 95.4891 133.686 95.4477 133.964 95.4112C134.243 95.3714 134.445 95.3118 134.571 95.2322C134.7 95.1494 134.765 95.0218 134.765 94.8494V94.8196C134.765 94.4451 134.654 94.1551 134.431 93.9496C134.209 93.7441 133.89 93.6413 133.472 93.6413C133.031 93.6413 132.681 93.7375 132.423 93.9297C132.168 94.1219 131.995 94.349 131.906 94.6108L130.225 94.3722C130.358 93.9081 130.577 93.5204 130.882 93.2088C131.187 92.8939 131.56 92.6586 132 92.5028C132.441 92.3438 132.928 92.2642 133.462 92.2642C133.83 92.2642 134.196 92.3073 134.561 92.3935C134.925 92.4796 135.258 92.6222 135.56 92.821C135.862 93.0166 136.104 93.2834 136.286 93.6214C136.471 93.9595 136.564 94.3821 136.564 94.8892V100H134.834V98.951H134.775C134.665 99.1631 134.511 99.362 134.312 99.5476C134.117 99.7299 133.87 99.8774 133.571 99.9901C133.276 100.099 132.93 100.154 132.532 100.154ZM133 98.8317C133.361 98.8317 133.674 98.7604 133.939 98.6179C134.204 98.4721 134.408 98.2798 134.551 98.0412C134.697 97.8026 134.77 97.5424 134.77 97.2607V96.3608C134.713 96.4072 134.617 96.4503 134.481 96.4901C134.349 96.5298 134.199 96.5646 134.034 96.5945C133.868 96.6243 133.704 96.6508 133.542 96.674C133.379 96.6972 133.238 96.7171 133.119 96.7337C132.85 96.7701 132.61 96.8298 132.398 96.9126C132.186 96.9955 132.019 97.1115 131.896 97.2607C131.773 97.4065 131.712 97.5954 131.712 97.8274C131.712 98.1589 131.833 98.4091 132.075 98.5781C132.317 98.7472 132.625 98.8317 133 98.8317ZM138.374 100V92.3636H140.119V93.6364H140.199C140.338 93.1955 140.576 92.8558 140.914 92.6172C141.256 92.3752 141.645 92.2543 142.083 92.2543C142.182 92.2543 142.293 92.2592 142.416 92.2692C142.542 92.2758 142.646 92.2874 142.729 92.304V93.9595C142.653 93.933 142.532 93.9098 142.366 93.8899C142.204 93.8667 142.046 93.8551 141.894 93.8551C141.566 93.8551 141.271 93.9264 141.009 94.0689C140.75 94.2081 140.547 94.402 140.397 94.6506C140.248 94.8991 140.174 95.1858 140.174 95.5107V100H138.374ZM146.444 100.134C145.844 100.134 145.307 99.9801 144.833 99.6719C144.359 99.3636 143.985 98.9162 143.71 98.3295C143.435 97.7429 143.297 97.0303 143.297 96.1918C143.297 95.3433 143.436 94.6274 143.715 94.044C143.996 93.4574 144.376 93.0149 144.853 92.7166C145.33 92.415 145.862 92.2642 146.449 92.2642C146.896 92.2642 147.264 92.3404 147.553 92.4929C147.841 92.642 148.07 92.8227 148.239 93.0348C148.408 93.2436 148.539 93.4408 148.632 93.6264H148.706V89.8182H150.511V100H148.741V98.7969H148.632C148.539 98.9825 148.405 99.1797 148.229 99.3885C148.053 99.594 147.821 99.7696 147.533 99.9155C147.244 100.061 146.882 100.134 146.444 100.134ZM146.946 98.6577C147.327 98.6577 147.652 98.5549 147.921 98.3494C148.189 98.1406 148.393 97.8506 148.532 97.4794C148.671 97.1082 148.741 96.6757 148.741 96.1818C148.741 95.688 148.671 95.2588 148.532 94.8942C148.396 94.5296 148.194 94.2462 147.926 94.044C147.66 93.8419 147.334 93.7408 146.946 93.7408C146.545 93.7408 146.21 93.8452 145.942 94.054C145.673 94.2628 145.471 94.5511 145.335 94.919C145.2 95.2869 145.132 95.7079 145.132 96.1818C145.132 96.6591 145.2 97.085 145.335 97.4595C145.475 97.8307 145.678 98.1241 145.947 98.3395C146.219 98.5516 146.552 98.6577 146.946 98.6577Z" fill="white"/>
<path d="M-17 62C-17 60.8954 -16.1046 60 -15 60H36C37.1046 60 38 60.8954 38 62V80H-17V62Z" fill="#253244"/>
<path d="M-5.17045 67.4545C-5.22159 67.0227 -5.42898 66.6875 -5.79261 66.4489C-6.15625 66.2102 -6.60227 66.0909 -7.13068 66.0909C-7.51705 66.0909 -7.85511 66.1534 -8.14489 66.2784C-8.43182 66.4034 -8.65625 66.5753 -8.81818 66.794C-8.97727 67.0128 -9.05682 67.2614 -9.05682 67.5398C-9.05682 67.7727 -9.00142 67.973 -8.89062 68.1406C-8.77699 68.3054 -8.6321 68.4432 -8.45597 68.554C-8.27983 68.6619 -8.09517 68.7514 -7.90199 68.8224C-7.70881 68.8906 -7.53125 68.946 -7.36932 68.9886L-6.48295 69.2273C-6.25568 69.2869 -6.00284 69.3693 -5.72443 69.4744C-5.44318 69.5795 -5.17472 69.723 -4.91903 69.9048C-4.66051 70.0838 -4.44744 70.3139 -4.27983 70.5952C-4.11222 70.8764 -4.02841 71.2216 -4.02841 71.6307C-4.02841 72.1023 -4.15199 72.5284 -4.39915 72.9091C-4.64347 73.2898 -5.00142 73.5923 -5.47301 73.8168C-5.94176 74.0412 -6.51136 74.1534 -7.18182 74.1534C-7.80682 74.1534 -8.34801 74.0526 -8.8054 73.8509C-9.25994 73.6491 -9.6179 73.3679 -9.87926 73.0071C-10.1378 72.6463 -10.2841 72.2273 -10.3182 71.75H-9.22727C-9.19886 72.0795 -9.08807 72.3523 -8.89489 72.5682C-8.69886 72.7812 -8.4517 72.9403 -8.15341 73.0455C-7.85227 73.1477 -7.52841 73.1989 -7.18182 73.1989C-6.77841 73.1989 -6.41619 73.1335 -6.09517 73.0028C-5.77415 72.8693 -5.51989 72.6847 -5.33239 72.4489C-5.14489 72.2102 -5.05114 71.9318 -5.05114 71.6136C-5.05114 71.3239 -5.1321 71.0881 -5.29403 70.9062C-5.45597 70.7244 -5.66903 70.5767 -5.93324 70.4631C-6.19744 70.3494 -6.48295 70.25 -6.78977 70.1648L-7.86364 69.858C-8.54545 69.6619 -9.08523 69.3821 -9.48295 69.0185C-9.88068 68.6548 -10.0795 68.179 -10.0795 67.5909C-10.0795 67.1023 -9.94744 66.6761 -9.68324 66.3125C-9.41619 65.946 -9.05824 65.6619 -8.60938 65.4602C-8.15767 65.2557 -7.65341 65.1534 -7.09659 65.1534C-6.53409 65.1534 -6.03409 65.2543 -5.59659 65.456C-5.15909 65.6548 -4.8125 65.9276 -4.55682 66.2741C-4.2983 66.6207 -4.16193 67.0142 -4.14773 67.4545H-5.17045ZM-2.16811 66.2102V65.2727H4.37734V66.2102H1.63303V74H0.576208V66.2102H-2.16811ZM6.60838 74V65.2727H11.8754V66.2102H7.6652V69.1591H11.6027V70.0966H7.6652V73.0625H11.9436V74H6.60838ZM14.3803 74V65.2727H17.3291C18.0138 65.2727 18.5734 65.3963 19.0081 65.6435C19.4456 65.8878 19.7695 66.2188 19.9797 66.6364C20.1899 67.054 20.295 67.5199 20.295 68.0341C20.295 68.5483 20.1899 69.0156 19.9797 69.4361C19.7723 69.8565 19.4513 70.1918 19.0166 70.4418C18.582 70.6889 18.0251 70.8125 17.3462 70.8125H15.2325V69.875H17.3121C17.7808 69.875 18.1572 69.794 18.4413 69.6321C18.7254 69.4702 18.9314 69.2514 19.0592 68.9759C19.1899 68.6974 19.2553 68.3835 19.2553 68.0341C19.2553 67.6847 19.1899 67.3722 19.0592 67.0966C18.9314 66.821 18.724 66.6051 18.4371 66.4489C18.1501 66.2898 17.7695 66.2102 17.295 66.2102H15.4371V74H14.3803ZM29.4872 65.2727V74H28.4304V66.3807H28.3793L26.2486 67.7955V66.7216L28.4304 65.2727H29.4872Z" fill="white" fill-opacity="0.4"/>
<path d="M178 95H437" stroke="url(#paint8_linear_2041_13214)"/>
</g>
<defs>
<linearGradient id="paint0_linear_2041_13214" x1="170" y1="0" x2="170" y2="163" gradientUnits="userSpaceOnUse">
<stop stop-color="#1E293B"/>
<stop offset="1" stop-color="#1E293B" stop-opacity="0"/>
</linearGradient>
<linearGradient id="paint1_linear_2041_13214" x1="111.5" y1="44.9999" x2="68.25" y2="45.9999" gradientUnits="userSpaceOnUse">
<stop stop-color="#BDBDDA" stop-opacity="0.18"/>
<stop offset="1" stop-color="#404047" stop-opacity="0"/>
</linearGradient>
<linearGradient id="paint2_linear_2041_13214" x1="239.56" y1="22.9459" x2="264.828" y2="122.294" gradientUnits="userSpaceOnUse">
<stop stop-color="#404047" stop-opacity="0.53"/>
<stop offset="0.470485" stop-color="white" stop-opacity="0.21"/>
<stop offset="1" stop-color="#27272A" stop-opacity="0"/>
</linearGradient>
<linearGradient id="paint3_linear_2041_13214" x1="233.76" y1="31.2162" x2="250.11" y2="92.9988" gradientUnits="userSpaceOnUse">
<stop stop-color="#404047" stop-opacity="0.53"/>
<stop offset="0.470485" stop-color="white" stop-opacity="0.21"/>
<stop offset="1" stop-color="#27272A" stop-opacity="0"/>
</linearGradient>
<linearGradient id="paint4_linear_2041_13214" x1="271.56" y1="118.946" x2="296.828" y2="218.294" gradientUnits="userSpaceOnUse">
<stop stop-color="#404047" stop-opacity="0.53"/>
<stop offset="0.470485" stop-color="white" stop-opacity="0.21"/>
<stop offset="1" stop-color="#27272A" stop-opacity="0"/>
</linearGradient>
<linearGradient id="paint5_linear_2041_13214" x1="260.24" y1="127.216" x2="281.331" y2="185.723" gradientUnits="userSpaceOnUse">
<stop stop-color="#404047" stop-opacity="0.53"/>
<stop offset="0.470485" stop-color="white" stop-opacity="0.21"/>
<stop offset="1" stop-color="#27272A" stop-opacity="0"/>
</linearGradient>
<linearGradient id="paint6_linear_2041_13214" x1="-81.44" y1="72.9459" x2="-56.1716" y2="172.294" gradientUnits="userSpaceOnUse">
<stop stop-color="#404047" stop-opacity="0.53"/>
<stop offset="0.470485" stop-color="white" stop-opacity="0.21"/>
<stop offset="1" stop-color="#27272A" stop-opacity="0"/>
</linearGradient>
<linearGradient id="paint7_linear_2041_13214" x1="5.59999" y1="81.2162" x2="21.3928" y2="143.309" gradientUnits="userSpaceOnUse">
<stop stop-color="#404047" stop-opacity="0.53"/>
<stop offset="0.470485" stop-color="white" stop-opacity="0.21"/>
<stop offset="1" stop-color="#27272A" stop-opacity="0"/>
</linearGradient>
<linearGradient id="paint8_linear_2041_13214" x1="209.08" y1="95.0405" x2="209.093" y2="97.2441" gradientUnits="userSpaceOnUse">
<stop stop-color="#404047" stop-opacity="0.53"/>
<stop offset="0.470485" stop-color="white" stop-opacity="0.21"/>
<stop offset="1" stop-color="#27272A" stop-opacity="0"/>
</linearGradient>
</defs>
</svg>
