<svg width="340" height="163" viewBox="0 0 340 163" fill="none" xmlns="http://www.w3.org/2000/svg">
<mask id="mask0_2041_10662" style="mask-type:alpha" maskUnits="userSpaceOnUse" x="0" y="0" width="340" height="163">
<rect width="340" height="163" fill="url(#paint0_linear_2041_10662)"/>
</mask>
<g mask="url(#mask0_2041_10662)">
<path d="M21.5 33C21.5 26.6487 26.6487 21.5 33 21.5H307C313.351 21.5 318.5 26.6487 318.5 33V162.5H21.5V33Z" fill="#334155" stroke="url(#paint1_linear_2041_10662)"/>
<line x1="21" y1="72.5" x2="319" y2="72.5" stroke="#475569"/>
<path d="M71.6761 42.9119V41.8182H79.3125V42.9119H76.1108V52H74.8778V42.9119H71.6761ZM80.937 54.8636C80.7381 54.8636 80.5608 54.8471 80.405 54.8139C80.2492 54.7841 80.1415 54.7543 80.0819 54.7244L80.3801 53.6903C80.6652 53.7633 80.9171 53.7898 81.1358 53.7699C81.3546 53.75 81.5485 53.6522 81.7175 53.4766C81.8899 53.3042 82.0473 53.0241 82.1898 52.6364L82.4086 52.0398L79.5847 44.3636H80.8574L82.9654 50.4489H83.0449L85.1529 44.3636H86.4256L83.1841 53.1136C83.0383 53.508 82.8577 53.8345 82.6422 54.093C82.4268 54.3549 82.1766 54.5488 81.8915 54.6747C81.6098 54.8007 81.2916 54.8636 80.937 54.8636ZM87.9743 54.8636V44.3636H89.1078V45.5767H89.247C89.3332 45.4441 89.4525 45.2751 89.6049 45.0696C89.7607 44.8608 89.9828 44.6752 90.2711 44.5128C90.5628 44.3471 90.9572 44.2642 91.4544 44.2642C92.0974 44.2642 92.6641 44.425 93.1547 44.7464C93.6452 45.0679 94.028 45.5237 94.3031 46.1136C94.5782 46.7036 94.7157 47.3996 94.7157 48.2017C94.7157 49.0104 94.5782 49.7114 94.3031 50.3047C94.028 50.8946 93.6468 51.352 93.1596 51.6768C92.6724 51.9983 92.1106 52.1591 91.4743 52.1591C90.9837 52.1591 90.591 52.0779 90.296 51.9155C90.001 51.7498 89.774 51.5625 89.6149 51.3537C89.4558 51.1416 89.3332 50.9659 89.247 50.8267H89.1475V54.8636H87.9743ZM89.1277 48.1818C89.1277 48.7585 89.2122 49.2673 89.3812 49.7081C89.5502 50.1456 89.7972 50.4886 90.122 50.7372C90.4468 50.9825 90.8445 51.1051 91.3152 51.1051C91.8057 51.1051 92.215 50.9759 92.5431 50.7173C92.8746 50.4555 93.1232 50.1042 93.2889 49.6634C93.4579 49.2192 93.5424 48.7254 93.5424 48.1818C93.5424 47.6449 93.4596 47.161 93.2939 46.7301C93.1315 46.2959 92.8845 45.9529 92.5531 45.701C92.225 45.4458 91.8123 45.3182 91.3152 45.3182C90.8379 45.3182 90.4368 45.4392 90.112 45.6811C89.7872 45.9197 89.542 46.2545 89.3762 46.6854C89.2105 47.1129 89.1277 47.6117 89.1277 48.1818ZM99.7072 52.1591C98.9714 52.1591 98.3367 51.9967 97.8031 51.6719C97.2728 51.3438 96.8635 50.8864 96.5751 50.2997C96.2901 49.7098 96.1475 49.0237 96.1475 48.2415C96.1475 47.4593 96.2901 46.7699 96.5751 46.1733C96.8635 45.5734 97.2645 45.1061 97.7782 44.7713C98.2953 44.4332 98.8985 44.2642 99.5879 44.2642C99.9856 44.2642 100.378 44.3305 100.766 44.4631C101.154 44.5956 101.507 44.8111 101.825 45.1094C102.143 45.4044 102.397 45.7955 102.586 46.2827C102.775 46.7699 102.869 47.3698 102.869 48.0824V48.5795H96.9828V47.5653H101.676C101.676 47.1345 101.59 46.75 101.417 46.4119C101.248 46.0739 101.006 45.8071 100.692 45.6115C100.38 45.416 100.012 45.3182 99.5879 45.3182C99.1206 45.3182 98.7162 45.4342 98.3748 45.6662C98.0368 45.8949 97.7766 46.1932 97.5943 46.5611C97.412 46.929 97.3208 47.3234 97.3208 47.7443V48.4205C97.3208 48.9972 97.4203 49.486 97.6191 49.8871C97.8213 50.2848 98.1014 50.5881 98.4593 50.7969C98.8173 51.0024 99.2333 51.1051 99.7072 51.1051C100.015 51.1051 100.294 51.062 100.542 50.9759C100.794 50.8864 101.011 50.7538 101.194 50.5781C101.376 50.3991 101.517 50.1771 101.616 49.9119L102.75 50.2301C102.631 50.6146 102.43 50.9527 102.148 51.2443C101.867 51.5327 101.519 51.758 101.104 51.9205C100.69 52.0795 100.224 52.1591 99.7072 52.1591ZM114.001 46.0739L112.947 46.3722C112.88 46.1965 112.782 46.0258 112.653 45.8601C112.527 45.6911 112.355 45.5518 112.136 45.4425C111.917 45.3331 111.637 45.2784 111.296 45.2784C110.829 45.2784 110.439 45.3861 110.128 45.6016C109.819 45.8137 109.665 46.0838 109.665 46.4119C109.665 46.7036 109.771 46.9339 109.983 47.103C110.196 47.272 110.527 47.4129 110.978 47.5256L112.111 47.804C112.794 47.9697 113.303 48.2232 113.638 48.5646C113.972 48.9027 114.14 49.3385 114.14 49.8722C114.14 50.3097 114.014 50.7008 113.762 51.0455C113.513 51.3902 113.165 51.6619 112.718 51.8608C112.27 52.0597 111.75 52.1591 111.157 52.1591C110.378 52.1591 109.733 51.9901 109.223 51.652C108.712 51.3139 108.389 50.8201 108.253 50.1705L109.367 49.892C109.473 50.303 109.674 50.6113 109.969 50.8168C110.267 51.0223 110.656 51.125 111.137 51.125C111.684 51.125 112.118 51.009 112.439 50.777C112.764 50.5417 112.927 50.2599 112.927 49.9318C112.927 49.6667 112.834 49.4446 112.648 49.2656C112.463 49.0833 112.178 48.9474 111.793 48.858L110.52 48.5597C109.821 48.3939 109.307 48.1371 108.979 47.7891C108.654 47.4377 108.492 46.9986 108.492 46.4716C108.492 46.0407 108.613 45.6596 108.855 45.3281C109.1 44.9967 109.433 44.7365 109.854 44.5476C110.278 44.3587 110.759 44.2642 111.296 44.2642C112.052 44.2642 112.645 44.4299 113.076 44.7614C113.51 45.0928 113.818 45.5303 114.001 46.0739ZM119.108 52.1591C118.372 52.1591 117.737 51.9967 117.203 51.6719C116.673 51.3438 116.264 50.8864 115.975 50.2997C115.69 49.7098 115.548 49.0237 115.548 48.2415C115.548 47.4593 115.69 46.7699 115.975 46.1733C116.264 45.5734 116.665 45.1061 117.179 44.7713C117.696 44.4332 118.299 44.2642 118.988 44.2642C119.386 44.2642 119.779 44.3305 120.167 44.4631C120.554 44.5956 120.907 44.8111 121.225 45.1094C121.544 45.4044 121.797 45.7955 121.986 46.2827C122.175 46.7699 122.27 47.3698 122.27 48.0824V48.5795H116.383V47.5653H121.076C121.076 47.1345 120.99 46.75 120.818 46.4119C120.649 46.0739 120.407 45.8071 120.092 45.6115C119.78 45.416 119.413 45.3182 118.988 45.3182C118.521 45.3182 118.117 45.4342 117.775 45.6662C117.437 45.8949 117.177 46.1932 116.995 46.5611C116.812 46.929 116.721 47.3234 116.721 47.7443V48.4205C116.721 48.9972 116.821 49.486 117.02 49.8871C117.222 50.2848 117.502 50.5881 117.86 50.7969C118.218 51.0024 118.634 51.1051 119.108 51.1051C119.416 51.1051 119.694 51.062 119.943 50.9759C120.195 50.8864 120.412 50.7538 120.594 50.5781C120.776 50.3991 120.917 50.1771 121.017 49.9119L122.15 50.2301C122.031 50.6146 121.83 50.9527 121.549 51.2443C121.267 51.5327 120.919 51.758 120.505 51.9205C120.09 52.0795 119.625 52.1591 119.108 52.1591ZM126.301 52.179C125.818 52.179 125.378 52.0878 124.984 51.9055C124.59 51.7199 124.276 51.4531 124.044 51.1051C123.812 50.7538 123.696 50.3295 123.696 49.8324C123.696 49.3949 123.783 49.0402 123.955 48.7685C124.127 48.4934 124.358 48.2779 124.646 48.1222C124.934 47.9664 125.252 47.8504 125.6 47.7741C125.952 47.6946 126.305 47.6316 126.659 47.5852C127.123 47.5256 127.5 47.4808 127.788 47.451C128.08 47.4179 128.292 47.3632 128.424 47.2869C128.56 47.2107 128.628 47.0781 128.628 46.8892V46.8494C128.628 46.3589 128.494 45.9777 128.225 45.706C127.96 45.4342 127.558 45.2983 127.017 45.2983C126.457 45.2983 126.018 45.4209 125.7 45.6662C125.382 45.9115 125.158 46.1733 125.029 46.4517L123.915 46.054C124.114 45.59 124.379 45.2287 124.711 44.9702C125.045 44.7083 125.41 44.526 125.804 44.4233C126.202 44.3172 126.593 44.2642 126.978 44.2642C127.223 44.2642 127.505 44.294 127.823 44.3537C128.144 44.41 128.454 44.5277 128.752 44.7067C129.054 44.8857 129.304 45.1558 129.503 45.517C129.702 45.8783 129.801 46.3622 129.801 46.9688V52H128.628V50.9659H128.569C128.489 51.1316 128.356 51.3089 128.171 51.4979C127.985 51.6868 127.738 51.8475 127.43 51.9801C127.122 52.1127 126.746 52.179 126.301 52.179ZM126.48 51.125C126.944 51.125 127.336 51.0339 127.654 50.8516C127.975 50.6693 128.217 50.4339 128.38 50.1456C128.545 49.8572 128.628 49.554 128.628 49.2358V48.1619C128.578 48.2216 128.469 48.2763 128.3 48.326C128.134 48.3724 127.942 48.4138 127.723 48.4503C127.508 48.4834 127.297 48.5133 127.092 48.5398C126.89 48.563 126.726 48.5829 126.6 48.5994C126.295 48.6392 126.01 48.7038 125.745 48.7933C125.483 48.8795 125.271 49.0104 125.108 49.1861C124.949 49.3584 124.87 49.5937 124.87 49.892C124.87 50.2997 125.02 50.608 125.322 50.8168C125.627 51.0223 126.013 51.125 126.48 51.125ZM131.943 52V44.3636H133.077V45.517H133.156C133.295 45.1392 133.547 44.8326 133.912 44.5973C134.276 44.362 134.687 44.2443 135.145 44.2443C135.231 44.2443 135.339 44.246 135.468 44.2493C135.597 44.2526 135.695 44.2576 135.761 44.2642V45.4574C135.721 45.4474 135.63 45.4325 135.488 45.4126C135.349 45.3894 135.201 45.3778 135.045 45.3778C134.674 45.3778 134.343 45.4557 134.051 45.6115C133.763 45.764 133.534 45.9761 133.365 46.2479C133.199 46.5163 133.116 46.8229 133.116 47.1676V52H131.943ZM140.022 52.1591C139.306 52.1591 138.689 51.9901 138.172 51.652C137.655 51.3139 137.258 50.8482 136.979 50.255C136.701 49.6617 136.562 48.9839 136.562 48.2216C136.562 47.446 136.704 46.7616 136.989 46.1683C137.278 45.5717 137.679 45.1061 138.192 44.7713C138.709 44.4332 139.313 44.2642 140.002 44.2642C140.539 44.2642 141.023 44.3636 141.454 44.5625C141.885 44.7614 142.238 45.0398 142.513 45.3977C142.788 45.7557 142.958 46.1733 143.025 46.6506H141.851C141.762 46.3026 141.563 45.9943 141.255 45.7259C140.95 45.4541 140.539 45.3182 140.022 45.3182C139.564 45.3182 139.163 45.4375 138.819 45.6761C138.477 45.9115 138.211 46.2446 138.018 46.6754C137.829 47.103 137.735 47.6051 137.735 48.1818C137.735 48.7718 137.828 49.2855 138.013 49.723C138.202 50.1605 138.467 50.5002 138.809 50.7422C139.153 50.9841 139.558 51.1051 140.022 51.1051C140.327 51.1051 140.604 51.0521 140.852 50.946C141.101 50.84 141.311 50.6875 141.483 50.4886C141.656 50.2898 141.778 50.0511 141.851 49.7727H143.025C142.958 50.2235 142.794 50.6295 142.532 50.9908C142.274 51.3487 141.931 51.6338 141.503 51.8459C141.079 52.0547 140.585 52.1591 140.022 52.1591ZM145.913 47.4062V52H144.74V41.8182H145.913V45.5568H146.013C146.192 45.1624 146.46 44.8492 146.818 44.6172C147.179 44.3819 147.66 44.2642 148.26 44.2642C148.78 44.2642 149.236 44.3686 149.627 44.5774C150.018 44.7829 150.321 45.0994 150.537 45.527C150.756 45.9512 150.865 46.4915 150.865 47.1477V52H149.692V47.2273C149.692 46.6207 149.534 46.1518 149.219 45.8203C148.908 45.4856 148.475 45.3182 147.922 45.3182C147.537 45.3182 147.193 45.3994 146.888 45.5618C146.586 45.7242 146.347 45.9612 146.172 46.2727C145.999 46.5843 145.913 46.9621 145.913 47.4062ZM153.866 52.0795C153.621 52.0795 153.411 51.9917 153.235 51.8161C153.059 51.6404 152.972 51.4299 152.972 51.1847C152.972 50.9394 153.059 50.7289 153.235 50.5533C153.411 50.3776 153.621 50.2898 153.866 50.2898C154.112 50.2898 154.322 50.3776 154.498 50.5533C154.674 50.7289 154.761 50.9394 154.761 51.1847C154.761 51.3471 154.72 51.4962 154.637 51.6321C154.558 51.768 154.45 51.8774 154.314 51.9602C154.181 52.0398 154.032 52.0795 153.866 52.0795ZM157.722 52.0795C157.477 52.0795 157.266 51.9917 157.091 51.8161C156.915 51.6404 156.827 51.4299 156.827 51.1847C156.827 50.9394 156.915 50.7289 157.091 50.5533C157.266 50.3776 157.477 50.2898 157.722 50.2898C157.967 50.2898 158.178 50.3776 158.353 50.5533C158.529 50.7289 158.617 50.9394 158.617 51.1847C158.617 51.3471 158.575 51.4962 158.493 51.6321C158.413 51.768 158.305 51.8774 158.169 51.9602C158.037 52.0398 157.888 52.0795 157.722 52.0795ZM161.577 52.0795C161.332 52.0795 161.122 51.9917 160.946 51.8161C160.77 51.6404 160.683 51.4299 160.683 51.1847C160.683 50.9394 160.77 50.7289 160.946 50.5533C161.122 50.3776 161.332 50.2898 161.577 50.2898C161.823 50.2898 162.033 50.3776 162.209 50.5533C162.384 50.7289 162.472 50.9394 162.472 51.1847C162.472 51.3471 162.431 51.4962 162.348 51.6321C162.268 51.768 162.161 51.8774 162.025 51.9602C161.892 52.0398 161.743 52.0795 161.577 52.0795Z" fill="#CBD5E1"/>
<path fill-rule="evenodd" clip-rule="evenodd" d="M48 40.5004C46.5413 40.5004 45.1424 41.0799 44.1109 42.1113C43.0795 43.1428 42.5 44.5417 42.5 46.0004C42.5 47.4591 43.0795 48.858 44.1109 49.8895C45.1424 50.9209 46.5413 51.5004 48 51.5004C49.4587 51.5004 50.8576 50.9209 51.8891 49.8895C52.9205 48.858 53.5 47.4591 53.5 46.0004C53.5 44.5417 52.9205 43.1428 51.8891 42.1113C50.8576 41.0799 49.4587 40.5004 48 40.5004ZM41 46.0004C41.0001 44.8811 41.2686 43.7781 41.783 42.7839C42.2974 41.7898 43.0428 40.9336 43.9565 40.287C44.8701 39.6404 45.9256 39.2224 47.0342 39.0679C48.1428 38.9135 49.2723 39.0272 50.3279 39.3994C51.3836 39.7717 52.3345 40.3916 53.101 41.2073C53.8676 42.023 54.4273 43.0106 54.7333 44.0873C55.0393 45.164 55.0827 46.2983 54.8597 47.3952C54.6368 48.4921 54.154 49.5196 53.452 50.3914L56.78 53.7204C56.8537 53.789 56.9128 53.8718 56.9538 53.9638C56.9948 54.0558 57.0168 54.1552 57.0186 54.2559C57.0204 54.3566 57.0018 54.4566 56.9641 54.55C56.9264 54.6434 56.8703 54.7282 56.799 54.7994C56.7278 54.8706 56.643 54.9268 56.5496 54.9645C56.4562 55.0022 56.3562 55.0208 56.2555 55.019C56.1548 55.0172 56.0555 54.9952 55.9635 54.9542C55.8715 54.9132 55.7887 54.8541 55.72 54.7804L52.391 51.4524C51.3625 52.2808 50.1207 52.8013 48.809 52.954C47.4973 53.1066 46.1691 52.885 44.9779 52.3149C43.7868 51.7448 42.7812 50.8493 42.0773 49.732C41.3734 48.6146 40.9999 47.321 41 46.0004Z" fill="#64748B"/>
<path d="M43.233 103V92.8182H49.3778V93.9119H44.4659V97.3523H49.0597V98.446H44.4659V101.906H49.4574V103H43.233ZM53.6882 103.179C53.2043 103.179 52.7652 103.088 52.3707 102.906C51.9763 102.72 51.6631 102.453 51.4311 102.105C51.1991 101.754 51.0831 101.33 51.0831 100.832C51.0831 100.395 51.1693 100.04 51.3416 99.7685C51.514 99.4934 51.7443 99.2779 52.0327 99.1222C52.321 98.9664 52.6392 98.8504 52.9872 98.7741C53.3385 98.6946 53.6915 98.6316 54.0462 98.5852C54.5102 98.5256 54.8864 98.4808 55.1747 98.451C55.4664 98.4179 55.6785 98.3632 55.8111 98.2869C55.947 98.2107 56.0149 98.0781 56.0149 97.8892V97.8494C56.0149 97.3589 55.8807 96.9777 55.6122 96.706C55.3471 96.4342 54.9444 96.2983 54.4041 96.2983C53.844 96.2983 53.4048 96.4209 53.0866 96.6662C52.7685 96.9115 52.5447 97.1733 52.4155 97.4517L51.3018 97.054C51.5007 96.59 51.7659 96.2287 52.0973 95.9702C52.4321 95.7083 52.7966 95.526 53.1911 95.4233C53.5888 95.3172 53.9799 95.2642 54.3643 95.2642C54.6096 95.2642 54.8913 95.294 55.2095 95.3537C55.531 95.41 55.8409 95.5277 56.1392 95.7067C56.4408 95.8857 56.6911 96.1558 56.8899 96.517C57.0888 96.8783 57.1882 97.3622 57.1882 97.9688V103H56.0149V101.966H55.9553C55.8757 102.132 55.7431 102.309 55.5575 102.498C55.3719 102.687 55.125 102.848 54.8168 102.98C54.5085 103.113 54.1323 103.179 53.6882 103.179ZM53.8672 102.125C54.3312 102.125 54.7223 102.034 55.0405 101.852C55.362 101.669 55.6039 101.434 55.7663 101.146C55.9321 100.857 56.0149 100.554 56.0149 100.236V99.1619C55.9652 99.2216 55.8558 99.2763 55.6868 99.326C55.5211 99.3724 55.3288 99.4138 55.1101 99.4503C54.8946 99.4834 54.6842 99.5133 54.4787 99.5398C54.2765 99.563 54.1125 99.5829 53.9865 99.5994C53.6816 99.6392 53.3965 99.7038 53.1314 99.7933C52.8696 99.8795 52.6574 100.01 52.495 100.186C52.3359 100.358 52.2564 100.594 52.2564 100.892C52.2564 101.3 52.4072 101.608 52.7088 101.817C53.0137 102.022 53.3999 102.125 53.8672 102.125ZM64.7388 97.0739L63.6848 97.3722C63.6185 97.1965 63.5208 97.0258 63.3915 96.8601C63.2656 96.6911 63.0932 96.5518 62.8745 96.4425C62.6557 96.3331 62.3757 96.2784 62.0343 96.2784C61.5669 96.2784 61.1775 96.3861 60.8659 96.6016C60.5577 96.8137 60.4036 97.0838 60.4036 97.4119C60.4036 97.7036 60.5096 97.9339 60.7218 98.103C60.9339 98.272 61.2653 98.4129 61.7161 98.5256L62.8496 98.804C63.5324 98.9697 64.0411 99.2232 64.3759 99.5646C64.7106 99.9027 64.878 100.339 64.878 100.872C64.878 101.31 64.7521 101.701 64.5002 102.045C64.2516 102.39 63.9036 102.662 63.4561 102.861C63.0087 103.06 62.4883 103.159 61.8951 103.159C61.1162 103.159 60.4715 102.99 59.9611 102.652C59.4507 102.314 59.1275 101.82 58.9917 101.17L60.1053 100.892C60.2114 101.303 60.4119 101.611 60.7069 101.817C61.0051 102.022 61.3946 102.125 61.8752 102.125C62.4221 102.125 62.8562 102.009 63.1777 101.777C63.5025 101.542 63.665 101.26 63.665 100.932C63.665 100.667 63.5721 100.445 63.3865 100.266C63.2009 100.083 62.9159 99.9474 62.5314 99.858L61.2587 99.5597C60.5594 99.3939 60.0456 99.1371 59.7175 98.7891C59.3927 98.4377 59.2303 97.9986 59.2303 97.4716C59.2303 97.0407 59.3513 96.6596 59.5932 96.3281C59.8385 95.9967 60.1716 95.7365 60.5925 95.5476C61.0167 95.3587 61.4973 95.2642 62.0343 95.2642C62.79 95.2642 63.3832 95.4299 63.8141 95.7614C64.2483 96.0928 64.5565 96.5303 64.7388 97.0739ZM67.3999 105.864C67.201 105.864 67.0237 105.847 66.8679 105.814C66.7121 105.784 66.6044 105.754 66.5447 105.724L66.843 104.69C67.1281 104.763 67.38 104.79 67.5987 104.77C67.8175 104.75 68.0114 104.652 68.1804 104.477C68.3527 104.304 68.5102 104.024 68.6527 103.636L68.8714 103.04L66.0476 95.3636H67.3203L69.4283 101.449H69.5078L71.6158 95.3636H72.8885L69.647 104.114C69.5012 104.508 69.3205 104.835 69.1051 105.093C68.8897 105.355 68.6394 105.549 68.3544 105.675C68.0727 105.801 67.7545 105.864 67.3999 105.864ZM81.6957 95.3636V96.358H77.7383V95.3636H81.6957ZM78.8917 93.5341H80.065V100.812C80.065 101.144 80.113 101.393 80.2092 101.558C80.3086 101.721 80.4345 101.83 80.587 101.886C80.7428 101.939 80.9068 101.966 81.0792 101.966C81.2085 101.966 81.3145 101.959 81.3974 101.946C81.4802 101.929 81.5465 101.916 81.5962 101.906L81.8349 102.96C81.7553 102.99 81.6443 103.02 81.5018 103.05C81.3593 103.083 81.1786 103.099 80.9599 103.099C80.6284 103.099 80.3036 103.028 79.9854 102.886C79.6706 102.743 79.4087 102.526 79.1999 102.234C78.9944 101.943 78.8917 101.575 78.8917 101.131V93.5341ZM86.4808 103.159C85.7914 103.159 85.1866 102.995 84.6662 102.667C84.1491 102.339 83.7448 101.88 83.4531 101.29C83.1648 100.7 83.0206 100.01 83.0206 99.2216C83.0206 98.4261 83.1648 97.7318 83.4531 97.1385C83.7448 96.5452 84.1491 96.0845 84.6662 95.7564C85.1866 95.4283 85.7914 95.2642 86.4808 95.2642C87.1702 95.2642 87.7734 95.4283 88.2905 95.7564C88.8108 96.0845 89.2152 96.5452 89.5036 97.1385C89.7952 97.7318 89.9411 98.4261 89.9411 99.2216C89.9411 100.01 89.7952 100.7 89.5036 101.29C89.2152 101.88 88.8108 102.339 88.2905 102.667C87.7734 102.995 87.1702 103.159 86.4808 103.159ZM86.4808 102.105C87.0045 102.105 87.4354 101.971 87.7734 101.702C88.1115 101.434 88.3617 101.081 88.5241 100.643C88.6866 100.206 88.7678 99.732 88.7678 99.2216C88.7678 98.7112 88.6866 98.2356 88.5241 97.7947C88.3617 97.3539 88.1115 96.9976 87.7734 96.7259C87.4354 96.4541 87.0045 96.3182 86.4808 96.3182C85.9571 96.3182 85.5263 96.4541 85.1882 96.7259C84.8501 96.9976 84.5999 97.3539 84.4375 97.7947C84.2751 98.2356 84.1939 98.7112 84.1939 99.2216C84.1939 99.732 84.2751 100.206 84.4375 100.643C84.5999 101.081 84.8501 101.434 85.1882 101.702C85.5263 101.971 85.9571 102.105 86.4808 102.105ZM96.8429 92.8182V103H95.6696V92.8182H96.8429ZM102.194 103.159C101.458 103.159 100.823 102.997 100.289 102.672C99.7591 102.344 99.3498 101.886 99.0614 101.3C98.7764 100.71 98.6339 100.024 98.6339 99.2415C98.6339 98.4593 98.7764 97.7699 99.0614 97.1733C99.3498 96.5734 99.7508 96.1061 100.265 95.7713C100.782 95.4332 101.385 95.2642 102.074 95.2642C102.472 95.2642 102.865 95.3305 103.252 95.4631C103.64 95.5956 103.993 95.8111 104.311 96.1094C104.63 96.4044 104.883 96.7955 105.072 97.2827C105.261 97.7699 105.355 98.3698 105.355 99.0824V99.5795H99.4691V98.5653H104.162C104.162 98.1345 104.076 97.75 103.904 97.4119C103.735 97.0739 103.493 96.8071 103.178 96.6115C102.866 96.416 102.498 96.3182 102.074 96.3182C101.607 96.3182 101.203 96.4342 100.861 96.6662C100.523 96.8949 100.263 97.1932 100.081 97.5611C99.8983 97.929 99.8072 98.3234 99.8072 98.7443V99.4205C99.8072 99.9972 99.9066 100.486 100.105 100.887C100.308 101.285 100.588 101.588 100.946 101.797C101.304 102.002 101.72 102.105 102.194 102.105C102.502 102.105 102.78 102.062 103.029 101.976C103.281 101.886 103.498 101.754 103.68 101.578C103.862 101.399 104.003 101.177 104.103 100.912L105.236 101.23C105.117 101.615 104.916 101.953 104.635 102.244C104.353 102.533 104.005 102.758 103.591 102.92C103.176 103.08 102.711 103.159 102.194 103.159ZM109.387 103.179C108.904 103.179 108.464 103.088 108.07 102.906C107.676 102.72 107.362 102.453 107.13 102.105C106.898 101.754 106.782 101.33 106.782 100.832C106.782 100.395 106.868 100.04 107.041 99.7685C107.213 99.4934 107.444 99.2779 107.732 99.1222C108.02 98.9664 108.338 98.8504 108.686 98.7741C109.038 98.6946 109.391 98.6316 109.745 98.5852C110.209 98.5256 110.586 98.4808 110.874 98.451C111.166 98.4179 111.378 98.3632 111.51 98.2869C111.646 98.2107 111.714 98.0781 111.714 97.8892V97.8494C111.714 97.3589 111.58 96.9777 111.311 96.706C111.046 96.4342 110.644 96.2983 110.103 96.2983C109.543 96.2983 109.104 96.4209 108.786 96.6662C108.468 96.9115 108.244 97.1733 108.115 97.4517L107.001 97.054C107.2 96.59 107.465 96.2287 107.797 95.9702C108.131 95.7083 108.496 95.526 108.89 95.4233C109.288 95.3172 109.679 95.2642 110.064 95.2642C110.309 95.2642 110.591 95.294 110.909 95.3537C111.23 95.41 111.54 95.5277 111.838 95.7067C112.14 95.8857 112.39 96.1558 112.589 96.517C112.788 96.8783 112.887 97.3622 112.887 97.9688V103H111.714V101.966H111.654C111.575 102.132 111.442 102.309 111.257 102.498C111.071 102.687 110.824 102.848 110.516 102.98C110.208 103.113 109.832 103.179 109.387 103.179ZM109.566 102.125C110.03 102.125 110.422 102.034 110.74 101.852C111.061 101.669 111.303 101.434 111.466 101.146C111.631 100.857 111.714 100.554 111.714 100.236V99.1619C111.664 99.2216 111.555 99.2763 111.386 99.326C111.22 99.3724 111.028 99.4138 110.809 99.4503C110.594 99.4834 110.383 99.5133 110.178 99.5398C109.976 99.563 109.812 99.5829 109.686 99.5994C109.381 99.6392 109.096 99.7038 108.831 99.7933C108.569 99.8795 108.357 100.01 108.194 100.186C108.035 100.358 107.956 100.594 107.956 100.892C107.956 101.3 108.106 101.608 108.408 101.817C108.713 102.022 109.099 102.125 109.566 102.125ZM115.029 103V95.3636H116.162V96.517H116.242C116.381 96.1392 116.633 95.8326 116.998 95.5973C117.362 95.362 117.773 95.2443 118.231 95.2443C118.317 95.2443 118.425 95.246 118.554 95.2493C118.683 95.2526 118.781 95.2576 118.847 95.2642V96.4574C118.807 96.4474 118.716 96.4325 118.574 96.4126C118.434 96.3894 118.287 96.3778 118.131 96.3778C117.76 96.3778 117.429 96.4557 117.137 96.6115C116.849 96.764 116.62 96.9761 116.451 97.2479C116.285 97.5163 116.202 97.8229 116.202 98.1676V103H115.029ZM121.411 98.4062V103H120.238V95.3636H121.371V96.5568H121.471C121.65 96.169 121.922 95.8575 122.286 95.6222C122.651 95.3835 123.121 95.2642 123.698 95.2642C124.215 95.2642 124.668 95.3703 125.055 95.5824C125.443 95.7912 125.745 96.1094 125.96 96.5369C126.176 96.9612 126.283 97.4981 126.283 98.1477V103H125.11V98.2273C125.11 97.6274 124.954 97.16 124.643 96.8253C124.331 96.4872 123.904 96.3182 123.36 96.3182C122.986 96.3182 122.651 96.3994 122.356 96.5618C122.064 96.7242 121.834 96.9612 121.665 97.2727C121.496 97.5843 121.411 97.9621 121.411 98.4062Z" fill="#94A3B8"/>
<path d="M43.6506 133H42.358L46.0966 122.818H47.3693L51.108 133H49.8153L46.7727 124.429H46.6932L43.6506 133ZM44.1278 129.023H49.3381V130.116H44.1278V129.023ZM57.9439 127.074L56.8899 127.372C56.8236 127.196 56.7259 127.026 56.5966 126.86C56.4706 126.691 56.2983 126.552 56.0795 126.442C55.8608 126.333 55.5807 126.278 55.2393 126.278C54.772 126.278 54.3826 126.386 54.071 126.602C53.7628 126.814 53.6087 127.084 53.6087 127.412C53.6087 127.704 53.7147 127.934 53.9268 128.103C54.139 128.272 54.4704 128.413 54.9212 128.526L56.0547 128.804C56.7375 128.97 57.2462 129.223 57.581 129.565C57.9157 129.903 58.0831 130.339 58.0831 130.872C58.0831 131.31 57.9571 131.701 57.7053 132.045C57.4567 132.39 57.1087 132.662 56.6612 132.861C56.2138 133.06 55.6934 133.159 55.1001 133.159C54.3213 133.159 53.6766 132.99 53.1662 132.652C52.6558 132.314 52.3326 131.82 52.1967 131.17L53.3104 130.892C53.4164 131.303 53.617 131.611 53.9119 131.817C54.2102 132.022 54.5997 132.125 55.0803 132.125C55.6271 132.125 56.0613 132.009 56.3828 131.777C56.7076 131.542 56.87 131.26 56.87 130.932C56.87 130.667 56.7772 130.445 56.5916 130.266C56.406 130.083 56.121 129.947 55.7365 129.858L54.4638 129.56C53.7644 129.394 53.2507 129.137 52.9226 128.789C52.5978 128.438 52.4354 127.999 52.4354 127.472C52.4354 127.041 52.5563 126.66 52.7983 126.328C53.0436 125.997 53.3767 125.737 53.7976 125.548C54.2218 125.359 54.7024 125.264 55.2393 125.264C55.995 125.264 56.5883 125.43 57.0192 125.761C57.4534 126.093 57.7616 126.53 57.9439 127.074ZM65.2583 127.074L64.2044 127.372C64.1381 127.196 64.0403 127.026 63.911 126.86C63.7851 126.691 63.6127 126.552 63.394 126.442C63.1752 126.333 62.8952 126.278 62.5538 126.278C62.0865 126.278 61.697 126.386 61.3855 126.602C61.0772 126.814 60.9231 127.084 60.9231 127.412C60.9231 127.704 61.0292 127.934 61.2413 128.103C61.4534 128.272 61.7849 128.413 62.2356 128.526L63.3691 128.804C64.0519 128.97 64.5607 129.223 64.8954 129.565C65.2302 129.903 65.3975 130.339 65.3975 130.872C65.3975 131.31 65.2716 131.701 65.0197 132.045C64.7711 132.39 64.4231 132.662 63.9757 132.861C63.5282 133.06 63.0079 133.159 62.4146 133.159C61.6357 133.159 60.9911 132.99 60.4806 132.652C59.9702 132.314 59.6471 131.82 59.5112 131.17L60.6248 130.892C60.7309 131.303 60.9314 131.611 61.2264 131.817C61.5247 132.022 61.9141 132.125 62.3947 132.125C62.9416 132.125 63.3758 132.009 63.6973 131.777C64.0221 131.542 64.1845 131.26 64.1845 130.932C64.1845 130.667 64.0917 130.445 63.9061 130.266C63.7205 130.083 63.4354 129.947 63.051 129.858L61.7782 129.56C61.0789 129.394 60.5652 129.137 60.237 128.789C59.9122 128.438 59.7498 127.999 59.7498 127.472C59.7498 127.041 59.8708 126.66 60.1127 126.328C60.358 125.997 60.6911 125.737 61.112 125.548C61.5363 125.359 62.0169 125.264 62.5538 125.264C63.3095 125.264 63.9028 125.43 64.3336 125.761C64.7678 126.093 65.0761 126.53 65.2583 127.074ZM67.1637 133V125.364H68.337V133H67.1637ZM67.7603 124.091C67.5316 124.091 67.3344 124.013 67.1687 123.857C67.0063 123.701 66.9251 123.514 66.9251 123.295C66.9251 123.077 67.0063 122.889 67.1687 122.734C67.3344 122.578 67.5316 122.5 67.7603 122.5C67.989 122.5 68.1845 122.578 68.3469 122.734C68.5127 122.889 68.5955 123.077 68.5955 123.295C68.5955 123.514 68.5127 123.701 68.3469 123.857C68.1845 124.013 67.989 124.091 67.7603 124.091ZM73.5684 136.023C73.0016 136.023 72.5144 135.95 72.1067 135.804C71.699 135.661 71.3593 135.473 71.0875 135.237C70.8191 135.005 70.6053 134.757 70.4462 134.491L71.3809 133.835C71.4869 133.974 71.6212 134.134 71.7836 134.312C71.946 134.495 72.168 134.652 72.4498 134.785C72.7348 134.921 73.1077 134.989 73.5684 134.989C74.1848 134.989 74.6936 134.839 75.0946 134.541C75.4957 134.243 75.6962 133.776 75.6962 133.139V131.588H75.5968C75.5106 131.727 75.388 131.9 75.2289 132.105C75.0731 132.307 74.8477 132.488 74.5527 132.647C74.2611 132.803 73.8667 132.881 73.3695 132.881C72.753 132.881 72.1995 132.735 71.709 132.443C71.2218 132.152 70.8356 131.727 70.5506 131.17C70.2689 130.614 70.128 129.937 70.128 129.142C70.128 128.36 70.2656 127.679 70.5407 127.099C70.8158 126.515 71.1986 126.065 71.6891 125.746C72.1796 125.425 72.7464 125.264 73.3894 125.264C73.8865 125.264 74.281 125.347 74.5726 125.513C74.8676 125.675 75.093 125.861 75.2488 126.07C75.4078 126.275 75.5305 126.444 75.6167 126.577H75.736V125.364H76.8695V133.219C76.8695 133.875 76.7203 134.409 76.4221 134.82C76.1271 135.234 75.7293 135.537 75.2289 135.729C74.7317 135.925 74.1782 136.023 73.5684 136.023ZM73.5286 131.827C73.9992 131.827 74.397 131.719 74.7218 131.504C75.0466 131.288 75.2935 130.978 75.4625 130.574C75.6316 130.17 75.7161 129.686 75.7161 129.122C75.7161 128.572 75.6332 128.086 75.4675 127.665C75.3018 127.245 75.0565 126.915 74.7317 126.676C74.4069 126.437 74.0059 126.318 73.5286 126.318C73.0314 126.318 72.6171 126.444 72.2857 126.696C71.9576 126.948 71.7106 127.286 71.5449 127.71C71.3825 128.134 71.3013 128.605 71.3013 129.122C71.3013 129.652 71.3842 130.121 71.5499 130.529C71.7189 130.933 71.9675 131.252 72.2956 131.484C72.6271 131.712 73.0381 131.827 73.5286 131.827ZM80.1905 128.406V133H79.0172V125.364H80.1507V126.557H80.2502C80.4292 126.169 80.7009 125.857 81.0655 125.622C81.4301 125.384 81.9007 125.264 82.4775 125.264C82.9945 125.264 83.4469 125.37 83.8347 125.582C84.2225 125.791 84.5241 126.109 84.7395 126.537C84.955 126.961 85.0627 127.498 85.0627 128.148V133H83.8894V128.227C83.8894 127.627 83.7336 127.16 83.4221 126.825C83.1105 126.487 82.6829 126.318 82.1394 126.318C81.7649 126.318 81.4301 126.399 81.1351 126.562C80.8435 126.724 80.6131 126.961 80.4441 127.273C80.275 127.584 80.1905 127.962 80.1905 128.406ZM94.4652 125.364V126.358H90.5078V125.364H94.4652ZM91.6612 123.534H92.8345V130.812C92.8345 131.144 92.8826 131.393 92.9787 131.558C93.0781 131.721 93.2041 131.83 93.3565 131.886C93.5123 131.939 93.6764 131.966 93.8487 131.966C93.978 131.966 94.084 131.959 94.1669 131.946C94.2498 131.929 94.3161 131.916 94.3658 131.906L94.6044 132.96C94.5249 132.99 94.4138 133.02 94.2713 133.05C94.1288 133.083 93.9482 133.099 93.7294 133.099C93.398 133.099 93.0732 133.028 92.755 132.886C92.4401 132.743 92.1783 132.526 91.9695 132.234C91.764 131.943 91.6612 131.575 91.6612 131.131V123.534ZM99.2504 133.159C98.561 133.159 97.9561 132.995 97.4357 132.667C96.9187 132.339 96.5143 131.88 96.2227 131.29C95.9343 130.7 95.7901 130.01 95.7901 129.222C95.7901 128.426 95.9343 127.732 96.2227 127.138C96.5143 126.545 96.9187 126.085 97.4357 125.756C97.9561 125.428 98.561 125.264 99.2504 125.264C99.9397 125.264 100.543 125.428 101.06 125.756C101.58 126.085 101.985 126.545 102.273 127.138C102.565 127.732 102.711 128.426 102.711 129.222C102.711 130.01 102.565 130.7 102.273 131.29C101.985 131.88 101.58 132.339 101.06 132.667C100.543 132.995 99.9397 133.159 99.2504 133.159ZM99.2504 132.105C99.774 132.105 100.205 131.971 100.543 131.702C100.881 131.434 101.131 131.081 101.294 130.643C101.456 130.206 101.537 129.732 101.537 129.222C101.537 128.711 101.456 128.236 101.294 127.795C101.131 127.354 100.881 126.998 100.543 126.726C100.205 126.454 99.774 126.318 99.2504 126.318C98.7267 126.318 98.2958 126.454 97.9577 126.726C97.6197 126.998 97.3694 127.354 97.207 127.795C97.0446 128.236 96.9634 128.711 96.9634 129.222C96.9634 129.732 97.0446 130.206 97.207 130.643C97.3694 131.081 97.6197 131.434 97.9577 131.702C98.2958 131.971 98.7267 132.105 99.2504 132.105ZM109.195 135.864C108.996 135.864 108.819 135.847 108.663 135.814C108.507 135.784 108.399 135.754 108.34 135.724L108.638 134.69C108.923 134.763 109.175 134.79 109.394 134.77C109.612 134.75 109.806 134.652 109.975 134.477C110.148 134.304 110.305 134.024 110.448 133.636L110.666 133.04L107.843 125.364H109.115L111.223 131.449H111.303L113.411 125.364H114.683L111.442 134.114C111.296 134.508 111.115 134.835 110.9 135.093C110.685 135.355 110.434 135.549 110.149 135.675C109.868 135.801 109.549 135.864 109.195 135.864ZM119.061 133.159C118.372 133.159 117.767 132.995 117.246 132.667C116.729 132.339 116.325 131.88 116.033 131.29C115.745 130.7 115.601 130.01 115.601 129.222C115.601 128.426 115.745 127.732 116.033 127.138C116.325 126.545 116.729 126.085 117.246 125.756C117.767 125.428 118.372 125.264 119.061 125.264C119.75 125.264 120.354 125.428 120.871 125.756C121.391 126.085 121.795 126.545 122.084 127.138C122.375 127.732 122.521 128.426 122.521 129.222C122.521 130.01 122.375 130.7 122.084 131.29C121.795 131.88 121.391 132.339 120.871 132.667C120.354 132.995 119.75 133.159 119.061 133.159ZM119.061 132.105C119.585 132.105 120.015 131.971 120.354 131.702C120.692 131.434 120.942 131.081 121.104 130.643C121.267 130.206 121.348 129.732 121.348 129.222C121.348 128.711 121.267 128.236 121.104 127.795C120.942 127.354 120.692 126.998 120.354 126.726C120.015 126.454 119.585 126.318 119.061 126.318C118.537 126.318 118.106 126.454 117.768 126.726C117.43 126.998 117.18 127.354 117.018 127.795C116.855 128.236 116.774 128.711 116.774 129.222C116.774 129.732 116.855 130.206 117.018 130.643C117.18 131.081 117.43 131.434 117.768 131.702C118.106 131.971 118.537 132.105 119.061 132.105ZM129.125 129.878V125.364H130.298V133H129.125V131.707H129.045C128.866 132.095 128.588 132.425 128.21 132.697C127.832 132.965 127.355 133.099 126.778 133.099C126.301 133.099 125.877 132.995 125.505 132.786C125.134 132.574 124.842 132.256 124.63 131.832C124.418 131.404 124.312 130.866 124.312 130.216V125.364H125.485V130.136C125.485 130.693 125.641 131.137 125.953 131.469C126.268 131.8 126.669 131.966 127.156 131.966C127.448 131.966 127.744 131.891 128.046 131.742C128.351 131.593 128.606 131.364 128.811 131.056C129.02 130.748 129.125 130.355 129.125 129.878ZM132.447 133V125.364H133.58V126.517H133.66C133.799 126.139 134.051 125.833 134.416 125.597C134.78 125.362 135.191 125.244 135.649 125.244C135.735 125.244 135.843 125.246 135.972 125.249C136.101 125.253 136.199 125.258 136.265 125.264V126.457C136.225 126.447 136.134 126.433 135.992 126.413C135.852 126.389 135.705 126.378 135.549 126.378C135.178 126.378 134.847 126.456 134.555 126.612C134.267 126.764 134.038 126.976 133.869 127.248C133.703 127.516 133.62 127.823 133.62 128.168V133H132.447ZM142.767 122.818V133H141.593V122.818H142.767ZM148.117 133.159C147.382 133.159 146.747 132.997 146.213 132.672C145.683 132.344 145.274 131.886 144.985 131.3C144.7 130.71 144.558 130.024 144.558 129.241C144.558 128.459 144.7 127.77 144.985 127.173C145.274 126.573 145.675 126.106 146.188 125.771C146.705 125.433 147.309 125.264 147.998 125.264C148.396 125.264 148.789 125.33 149.176 125.463C149.564 125.596 149.917 125.811 150.235 126.109C150.553 126.404 150.807 126.795 150.996 127.283C151.185 127.77 151.279 128.37 151.279 129.082V129.58H145.393V128.565H150.086C150.086 128.134 150 127.75 149.828 127.412C149.659 127.074 149.417 126.807 149.102 126.612C148.79 126.416 148.422 126.318 147.998 126.318C147.531 126.318 147.126 126.434 146.785 126.666C146.447 126.895 146.187 127.193 146.004 127.561C145.822 127.929 145.731 128.323 145.731 128.744V129.42C145.731 129.997 145.83 130.486 146.029 130.887C146.231 131.285 146.512 131.588 146.869 131.797C147.227 132.002 147.643 132.105 148.117 132.105C148.426 132.105 148.704 132.062 148.953 131.976C149.204 131.886 149.422 131.754 149.604 131.578C149.786 131.399 149.927 131.177 150.026 130.912L151.16 131.23C151.041 131.615 150.84 131.953 150.558 132.244C150.277 132.533 149.929 132.758 149.514 132.92C149.1 133.08 148.634 133.159 148.117 133.159ZM155.311 133.179C154.827 133.179 154.388 133.088 153.994 132.906C153.599 132.72 153.286 132.453 153.054 132.105C152.822 131.754 152.706 131.33 152.706 130.832C152.706 130.395 152.792 130.04 152.965 129.768C153.137 129.493 153.367 129.278 153.656 129.122C153.944 128.966 154.262 128.85 154.61 128.774C154.962 128.695 155.315 128.632 155.669 128.585C156.133 128.526 156.509 128.481 156.798 128.451C157.089 128.418 157.302 128.363 157.434 128.287C157.57 128.211 157.638 128.078 157.638 127.889V127.849C157.638 127.359 157.504 126.978 157.235 126.706C156.97 126.434 156.567 126.298 156.027 126.298C155.467 126.298 155.028 126.421 154.71 126.666C154.392 126.911 154.168 127.173 154.039 127.452L152.925 127.054C153.124 126.59 153.389 126.229 153.72 125.97C154.055 125.708 154.42 125.526 154.814 125.423C155.212 125.317 155.603 125.264 155.987 125.264C156.233 125.264 156.514 125.294 156.833 125.354C157.154 125.41 157.464 125.528 157.762 125.707C158.064 125.886 158.314 126.156 158.513 126.517C158.712 126.878 158.811 127.362 158.811 127.969V133H157.638V131.966H157.578C157.499 132.132 157.366 132.309 157.181 132.498C156.995 132.687 156.748 132.848 156.44 132.98C156.132 133.113 155.755 133.179 155.311 133.179ZM155.49 132.125C155.954 132.125 156.345 132.034 156.664 131.852C156.985 131.669 157.227 131.434 157.389 131.146C157.555 130.857 157.638 130.554 157.638 130.236V129.162C157.588 129.222 157.479 129.276 157.31 129.326C157.144 129.372 156.952 129.414 156.733 129.45C156.518 129.483 156.307 129.513 156.102 129.54C155.9 129.563 155.735 129.583 155.61 129.599C155.305 129.639 155.02 129.704 154.754 129.793C154.493 129.879 154.28 130.01 154.118 130.186C153.959 130.358 153.879 130.594 153.879 130.892C153.879 131.3 154.03 131.608 154.332 131.817C154.637 132.022 155.023 132.125 155.49 132.125ZM166.362 127.074L165.308 127.372C165.242 127.196 165.144 127.026 165.015 126.86C164.889 126.691 164.716 126.552 164.498 126.442C164.279 126.333 163.999 126.278 163.657 126.278C163.19 126.278 162.801 126.386 162.489 126.602C162.181 126.814 162.027 127.084 162.027 127.412C162.027 127.704 162.133 127.934 162.345 128.103C162.557 128.272 162.888 128.413 163.339 128.526L164.473 128.804C165.155 128.97 165.664 129.223 165.999 129.565C166.334 129.903 166.501 130.339 166.501 130.872C166.501 131.31 166.375 131.701 166.123 132.045C165.875 132.39 165.527 132.662 165.079 132.861C164.632 133.06 164.111 133.159 163.518 133.159C162.739 133.159 162.095 132.99 161.584 132.652C161.074 132.314 160.751 131.82 160.615 131.17L161.728 130.892C161.834 131.303 162.035 131.611 162.33 131.817C162.628 132.022 163.018 132.125 163.498 132.125C164.045 132.125 164.479 132.009 164.801 131.777C165.126 131.542 165.288 131.26 165.288 130.932C165.288 130.667 165.195 130.445 165.01 130.266C164.824 130.083 164.539 129.947 164.154 129.858L162.882 129.56C162.182 129.394 161.669 129.137 161.341 128.789C161.016 128.438 160.853 127.999 160.853 127.472C160.853 127.041 160.974 126.66 161.216 126.328C161.462 125.997 161.795 125.737 162.216 125.548C162.64 125.359 163.12 125.264 163.657 125.264C164.413 125.264 165.006 125.43 165.437 125.761C165.871 126.093 166.18 126.53 166.362 127.074ZM171.588 125.364V126.358H167.631V125.364H171.588ZM168.784 123.534H169.958V130.812C169.958 131.144 170.006 131.393 170.102 131.558C170.201 131.721 170.327 131.83 170.48 131.886C170.635 131.939 170.799 131.966 170.972 131.966C171.101 131.966 171.207 131.959 171.29 131.946C171.373 131.929 171.439 131.916 171.489 131.906L171.727 132.96C171.648 132.99 171.537 133.02 171.394 133.05C171.252 133.083 171.071 133.099 170.852 133.099C170.521 133.099 170.196 133.028 169.878 132.886C169.563 132.743 169.301 132.526 169.093 132.234C168.887 131.943 168.784 131.575 168.784 131.131V123.534ZM180.691 125.364V126.358H176.575V125.364H180.691ZM177.808 133V124.31C177.808 123.872 177.91 123.508 178.116 123.216C178.321 122.924 178.588 122.705 178.916 122.56C179.244 122.414 179.591 122.341 179.955 122.341C180.244 122.341 180.479 122.364 180.661 122.411C180.844 122.457 180.98 122.5 181.069 122.54L180.731 123.554C180.671 123.534 180.588 123.509 180.482 123.479C180.38 123.45 180.244 123.435 180.075 123.435C179.687 123.435 179.407 123.532 179.235 123.728C179.066 123.924 178.981 124.21 178.981 124.588V133H177.808ZM184.364 133.179C183.88 133.179 183.441 133.088 183.047 132.906C182.652 132.72 182.339 132.453 182.107 132.105C181.875 131.754 181.759 131.33 181.759 130.832C181.759 130.395 181.845 130.04 182.017 129.768C182.19 129.493 182.42 129.278 182.708 129.122C182.997 128.966 183.315 128.85 183.663 128.774C184.014 128.695 184.367 128.632 184.722 128.585C185.186 128.526 185.562 128.481 185.85 128.451C186.142 128.418 186.354 128.363 186.487 128.287C186.623 128.211 186.691 128.078 186.691 127.889V127.849C186.691 127.359 186.556 126.978 186.288 126.706C186.023 126.434 185.62 126.298 185.08 126.298C184.52 126.298 184.081 126.421 183.762 126.666C183.444 126.911 183.221 127.173 183.091 127.452L181.978 127.054C182.176 126.59 182.442 126.229 182.773 125.97C183.108 125.708 183.472 125.526 183.867 125.423C184.265 125.317 184.656 125.264 185.04 125.264C185.285 125.264 185.567 125.294 185.885 125.354C186.207 125.41 186.517 125.528 186.815 125.707C187.117 125.886 187.367 126.156 187.566 126.517C187.765 126.878 187.864 127.362 187.864 127.969V133H186.691V131.966H186.631C186.551 132.132 186.419 132.309 186.233 132.498C186.048 132.687 185.801 132.848 185.493 132.98C185.184 133.113 184.808 133.179 184.364 133.179ZM184.543 132.125C185.007 132.125 185.398 132.034 185.716 131.852C186.038 131.669 186.28 131.434 186.442 131.146C186.608 130.857 186.691 130.554 186.691 130.236V129.162C186.641 129.222 186.532 129.276 186.363 129.326C186.197 129.372 186.005 129.414 185.786 129.45C185.57 129.483 185.36 129.513 185.154 129.54C184.952 129.563 184.788 129.583 184.662 129.599C184.357 129.639 184.072 129.704 183.807 129.793C183.545 129.879 183.333 130.01 183.171 130.186C183.012 130.358 182.932 130.594 182.932 130.892C182.932 131.3 183.083 131.608 183.385 131.817C183.69 132.022 184.076 132.125 184.543 132.125ZM195.976 125.364L193.153 133H191.959L189.135 125.364H190.408L192.516 131.449H192.596L194.704 125.364H195.976ZM200.354 133.159C199.664 133.159 199.06 132.995 198.539 132.667C198.022 132.339 197.618 131.88 197.326 131.29C197.038 130.7 196.894 130.01 196.894 129.222C196.894 128.426 197.038 127.732 197.326 127.138C197.618 126.545 198.022 126.085 198.539 125.756C199.06 125.428 199.664 125.264 200.354 125.264C201.043 125.264 201.646 125.428 202.164 125.756C202.684 126.085 203.088 126.545 203.377 127.138C203.668 127.732 203.814 128.426 203.814 129.222C203.814 130.01 203.668 130.7 203.377 131.29C203.088 131.88 202.684 132.339 202.164 132.667C201.646 132.995 201.043 133.159 200.354 133.159ZM200.354 132.105C200.878 132.105 201.308 131.971 201.646 131.702C201.985 131.434 202.235 131.081 202.397 130.643C202.56 130.206 202.641 129.732 202.641 129.222C202.641 128.711 202.56 128.236 202.397 127.795C202.235 127.354 201.985 126.998 201.646 126.726C201.308 126.454 200.878 126.318 200.354 126.318C199.83 126.318 199.399 126.454 199.061 126.726C198.723 126.998 198.473 127.354 198.311 127.795C198.148 128.236 198.067 128.711 198.067 129.222C198.067 129.732 198.148 130.206 198.311 130.643C198.473 131.081 198.723 131.434 199.061 131.702C199.399 131.971 199.83 132.105 200.354 132.105ZM210.418 129.878V125.364H211.591V133H210.418V131.707H210.338C210.159 132.095 209.881 132.425 209.503 132.697C209.125 132.965 208.648 133.099 208.071 133.099C207.594 133.099 207.17 132.995 206.798 132.786C206.427 132.574 206.135 132.256 205.923 131.832C205.711 131.404 205.605 130.866 205.605 130.216V125.364H206.778V130.136C206.778 130.693 206.934 131.137 207.246 131.469C207.561 131.8 207.962 131.966 208.449 131.966C208.741 131.966 209.037 131.891 209.339 131.742C209.644 131.593 209.899 131.364 210.104 131.056C210.313 130.748 210.418 130.355 210.418 129.878ZM213.74 133V125.364H214.873V126.517H214.953C215.092 126.139 215.344 125.833 215.709 125.597C216.073 125.362 216.484 125.244 216.942 125.244C217.028 125.244 217.135 125.246 217.265 125.249C217.394 125.253 217.492 125.258 217.558 125.264V126.457C217.518 126.447 217.427 126.433 217.285 126.413C217.145 126.389 216.998 126.378 216.842 126.378C216.471 126.378 216.14 126.456 215.848 126.612C215.559 126.764 215.331 126.976 215.162 127.248C214.996 127.516 214.913 127.823 214.913 128.168V133H213.74ZM218.949 133V125.364H220.122V133H218.949ZM219.545 124.091C219.317 124.091 219.12 124.013 218.954 123.857C218.791 123.701 218.71 123.514 218.71 123.295C218.71 123.077 218.791 122.889 218.954 122.734C219.12 122.578 219.317 122.5 219.545 122.5C219.774 122.5 219.97 122.578 220.132 122.734C220.298 122.889 220.381 123.077 220.381 123.295C220.381 123.514 220.298 123.701 220.132 123.857C219.97 124.013 219.774 124.091 219.545 124.091ZM225.592 125.364V126.358H221.635V125.364H225.592ZM222.788 123.534H223.961V130.812C223.961 131.144 224.01 131.393 224.106 131.558C224.205 131.721 224.331 131.83 224.483 131.886C224.639 131.939 224.803 131.966 224.976 131.966C225.105 131.966 225.211 131.959 225.294 131.946C225.377 131.929 225.443 131.916 225.493 131.906L225.731 132.96C225.652 132.99 225.541 133.02 225.398 133.05C225.256 133.083 225.075 133.099 224.856 133.099C224.525 133.099 224.2 133.028 223.882 132.886C223.567 132.743 223.305 132.526 223.096 132.234C222.891 131.943 222.788 131.575 222.788 131.131V123.534ZM230.477 133.159C229.741 133.159 229.106 132.997 228.573 132.672C228.042 132.344 227.633 131.886 227.345 131.3C227.06 130.71 226.917 130.024 226.917 129.241C226.917 128.459 227.06 127.77 227.345 127.173C227.633 126.573 228.034 126.106 228.548 125.771C229.065 125.433 229.668 125.264 230.357 125.264C230.755 125.264 231.148 125.33 231.536 125.463C231.923 125.596 232.276 125.811 232.595 126.109C232.913 126.404 233.166 126.795 233.355 127.283C233.544 127.77 233.639 128.37 233.639 129.082V129.58H227.752V128.565H232.445C232.445 128.134 232.359 127.75 232.187 127.412C232.018 127.074 231.776 126.807 231.461 126.612C231.15 126.416 230.782 126.318 230.357 126.318C229.89 126.318 229.486 126.434 229.144 126.666C228.806 126.895 228.546 127.193 228.364 127.561C228.182 127.929 228.09 128.323 228.09 128.744V129.42C228.09 129.997 228.19 130.486 228.389 130.887C228.591 131.285 228.871 131.588 229.229 131.797C229.587 132.002 230.003 132.105 230.477 132.105C230.785 132.105 231.063 132.062 231.312 131.976C231.564 131.886 231.781 131.754 231.963 131.578C232.146 131.399 232.286 131.177 232.386 130.912L233.519 131.23C233.4 131.615 233.2 131.953 232.918 132.244C232.636 132.533 232.288 132.758 231.874 132.92C231.459 133.08 230.994 133.159 230.477 133.159ZM242.244 133.159C241.608 133.159 241.046 132.998 240.559 132.677C240.072 132.352 239.691 131.895 239.416 131.305C239.141 130.711 239.003 130.01 239.003 129.202C239.003 128.4 239.141 127.704 239.416 127.114C239.691 126.524 240.074 126.068 240.564 125.746C241.055 125.425 241.621 125.264 242.264 125.264C242.762 125.264 243.154 125.347 243.443 125.513C243.734 125.675 243.956 125.861 244.109 126.07C244.265 126.275 244.386 126.444 244.472 126.577H244.571V122.818H245.744V133H244.611V131.827H244.472C244.386 131.966 244.263 132.142 244.104 132.354C243.945 132.562 243.718 132.75 243.423 132.915C243.128 133.078 242.735 133.159 242.244 133.159ZM242.404 132.105C242.874 132.105 243.272 131.982 243.597 131.737C243.922 131.489 244.169 131.146 244.338 130.708C244.507 130.267 244.591 129.759 244.591 129.182C244.591 128.612 244.508 128.113 244.343 127.685C244.177 127.254 243.932 126.92 243.607 126.681C243.282 126.439 242.881 126.318 242.404 126.318C241.906 126.318 241.492 126.446 241.161 126.701C240.833 126.953 240.586 127.296 240.42 127.73C240.258 128.161 240.176 128.645 240.176 129.182C240.176 129.725 240.259 130.219 240.425 130.663C240.594 131.104 240.843 131.455 241.171 131.717C241.502 131.976 241.913 132.105 242.404 132.105ZM251.258 133.159C250.522 133.159 249.887 132.997 249.354 132.672C248.824 132.344 248.414 131.886 248.126 131.3C247.841 130.71 247.698 130.024 247.698 129.241C247.698 128.459 247.841 127.77 248.126 127.173C248.414 126.573 248.815 126.106 249.329 125.771C249.846 125.433 250.449 125.264 251.139 125.264C251.536 125.264 251.929 125.33 252.317 125.463C252.705 125.596 253.058 125.811 253.376 126.109C253.694 126.404 253.948 126.795 254.137 127.283C254.325 127.77 254.42 128.37 254.42 129.082V129.58H248.534V128.565H253.227C253.227 128.134 253.141 127.75 252.968 127.412C252.799 127.074 252.557 126.807 252.242 126.612C251.931 126.416 251.563 126.318 251.139 126.318C250.671 126.318 250.267 126.434 249.926 126.666C249.588 126.895 249.327 127.193 249.145 127.561C248.963 127.929 248.872 128.323 248.872 128.744V129.42C248.872 129.997 248.971 130.486 249.17 130.887C249.372 131.285 249.652 131.588 250.01 131.797C250.368 132.002 250.784 132.105 251.258 132.105C251.566 132.105 251.845 132.062 252.093 131.976C252.345 131.886 252.562 131.754 252.744 131.578C252.927 131.399 253.068 131.177 253.167 130.912L254.301 131.23C254.181 131.615 253.981 131.953 253.699 132.244C253.417 132.533 253.069 132.758 252.655 132.92C252.241 133.08 251.775 133.159 251.258 133.159ZM262.217 125.364L259.393 133H258.2L255.376 125.364H256.648L258.756 131.449H258.836L260.944 125.364H262.217Z" fill="#94A3B8"/>
<path d="M43.6506 163H42.358L46.0966 152.818H47.3693L51.108 163H49.8153L46.7727 154.429H46.6932L43.6506 163ZM44.1278 159.023H49.3381V160.116H44.1278V159.023ZM57.9439 157.074L56.8899 157.372C56.8236 157.196 56.7259 157.026 56.5966 156.86C56.4706 156.691 56.2983 156.552 56.0795 156.442C55.8608 156.333 55.5807 156.278 55.2393 156.278C54.772 156.278 54.3826 156.386 54.071 156.602C53.7628 156.814 53.6087 157.084 53.6087 157.412C53.6087 157.704 53.7147 157.934 53.9268 158.103C54.139 158.272 54.4704 158.413 54.9212 158.526L56.0547 158.804C56.7375 158.97 57.2462 159.223 57.581 159.565C57.9157 159.903 58.0831 160.339 58.0831 160.872C58.0831 161.31 57.9571 161.701 57.7053 162.045C57.4567 162.39 57.1087 162.662 56.6612 162.861C56.2138 163.06 55.6934 163.159 55.1001 163.159C54.3213 163.159 53.6766 162.99 53.1662 162.652C52.6558 162.314 52.3326 161.82 52.1967 161.17L53.3104 160.892C53.4164 161.303 53.617 161.611 53.9119 161.817C54.2102 162.022 54.5997 162.125 55.0803 162.125C55.6271 162.125 56.0613 162.009 56.3828 161.777C56.7076 161.542 56.87 161.26 56.87 160.932C56.87 160.667 56.7772 160.445 56.5916 160.266C56.406 160.083 56.121 159.947 55.7365 159.858L54.4638 159.56C53.7644 159.394 53.2507 159.137 52.9226 158.789C52.5978 158.438 52.4354 157.999 52.4354 157.472C52.4354 157.041 52.5563 156.66 52.7983 156.328C53.0436 155.997 53.3767 155.737 53.7976 155.548C54.2218 155.359 54.7024 155.264 55.2393 155.264C55.995 155.264 56.5883 155.43 57.0192 155.761C57.4534 156.093 57.7616 156.53 57.9439 157.074ZM65.2583 157.074L64.2044 157.372C64.1381 157.196 64.0403 157.026 63.911 156.86C63.7851 156.691 63.6127 156.552 63.394 156.442C63.1752 156.333 62.8952 156.278 62.5538 156.278C62.0865 156.278 61.697 156.386 61.3855 156.602C61.0772 156.814 60.9231 157.084 60.9231 157.412C60.9231 157.704 61.0292 157.934 61.2413 158.103C61.4534 158.272 61.7849 158.413 62.2356 158.526L63.3691 158.804C64.0519 158.97 64.5607 159.223 64.8954 159.565C65.2302 159.903 65.3975 160.339 65.3975 160.872C65.3975 161.31 65.2716 161.701 65.0197 162.045C64.7711 162.39 64.4231 162.662 63.9757 162.861C63.5282 163.06 63.0079 163.159 62.4146 163.159C61.6357 163.159 60.9911 162.99 60.4806 162.652C59.9702 162.314 59.6471 161.82 59.5112 161.17L60.6248 160.892C60.7309 161.303 60.9314 161.611 61.2264 161.817C61.5247 162.022 61.9141 162.125 62.3947 162.125C62.9416 162.125 63.3758 162.009 63.6973 161.777C64.0221 161.542 64.1845 161.26 64.1845 160.932C64.1845 160.667 64.0917 160.445 63.9061 160.266C63.7205 160.083 63.4354 159.947 63.051 159.858L61.7782 159.56C61.0789 159.394 60.5652 159.137 60.237 158.789C59.9122 158.438 59.7498 157.999 59.7498 157.472C59.7498 157.041 59.8708 156.66 60.1127 156.328C60.358 155.997 60.6911 155.737 61.112 155.548C61.5363 155.359 62.0169 155.264 62.5538 155.264C63.3095 155.264 63.9028 155.43 64.3336 155.761C64.7678 156.093 65.0761 156.53 65.2583 157.074ZM67.1637 163V155.364H68.337V163H67.1637ZM67.7603 154.091C67.5316 154.091 67.3344 154.013 67.1687 153.857C67.0063 153.701 66.9251 153.514 66.9251 153.295C66.9251 153.077 67.0063 152.889 67.1687 152.734C67.3344 152.578 67.5316 152.5 67.7603 152.5C67.989 152.5 68.1845 152.578 68.3469 152.734C68.5127 152.889 68.5955 153.077 68.5955 153.295C68.5955 153.514 68.5127 153.701 68.3469 153.857C68.1845 154.013 67.989 154.091 67.7603 154.091ZM73.5684 166.023C73.0016 166.023 72.5144 165.95 72.1067 165.804C71.699 165.661 71.3593 165.473 71.0875 165.237C70.8191 165.005 70.6053 164.757 70.4462 164.491L71.3809 163.835C71.4869 163.974 71.6212 164.134 71.7836 164.312C71.946 164.495 72.168 164.652 72.4498 164.785C72.7348 164.921 73.1077 164.989 73.5684 164.989C74.1848 164.989 74.6936 164.839 75.0946 164.541C75.4957 164.243 75.6962 163.776 75.6962 163.139V161.588H75.5968C75.5106 161.727 75.388 161.9 75.2289 162.105C75.0731 162.307 74.8477 162.488 74.5527 162.647C74.2611 162.803 73.8667 162.881 73.3695 162.881C72.753 162.881 72.1995 162.735 71.709 162.443C71.2218 162.152 70.8356 161.727 70.5506 161.17C70.2689 160.614 70.128 159.937 70.128 159.142C70.128 158.36 70.2656 157.679 70.5407 157.099C70.8158 156.515 71.1986 156.065 71.6891 155.746C72.1796 155.425 72.7464 155.264 73.3894 155.264C73.8865 155.264 74.281 155.347 74.5726 155.513C74.8676 155.675 75.093 155.861 75.2488 156.07C75.4078 156.275 75.5305 156.444 75.6167 156.577H75.736V155.364H76.8695V163.219C76.8695 163.875 76.7203 164.409 76.4221 164.82C76.1271 165.234 75.7293 165.537 75.2289 165.729C74.7317 165.925 74.1782 166.023 73.5684 166.023ZM73.5286 161.827C73.9992 161.827 74.397 161.719 74.7218 161.504C75.0466 161.288 75.2935 160.978 75.4625 160.574C75.6316 160.17 75.7161 159.686 75.7161 159.122C75.7161 158.572 75.6332 158.086 75.4675 157.665C75.3018 157.245 75.0565 156.915 74.7317 156.676C74.4069 156.437 74.0059 156.318 73.5286 156.318C73.0314 156.318 72.6171 156.444 72.2857 156.696C71.9576 156.948 71.7106 157.286 71.5449 157.71C71.3825 158.134 71.3013 158.605 71.3013 159.122C71.3013 159.652 71.3842 160.121 71.5499 160.529C71.7189 160.933 71.9675 161.252 72.2956 161.484C72.6271 161.712 73.0381 161.827 73.5286 161.827ZM80.1905 158.406V163H79.0172V155.364H80.1507V156.557H80.2502C80.4292 156.169 80.7009 155.857 81.0655 155.622C81.4301 155.384 81.9007 155.264 82.4775 155.264C82.9945 155.264 83.4469 155.37 83.8347 155.582C84.2225 155.791 84.5241 156.109 84.7395 156.537C84.955 156.961 85.0627 157.498 85.0627 158.148V163H83.8894V158.227C83.8894 157.627 83.7336 157.16 83.4221 156.825C83.1105 156.487 82.6829 156.318 82.1394 156.318C81.7649 156.318 81.4301 156.399 81.1351 156.562C80.8435 156.724 80.6131 156.961 80.4441 157.273C80.275 157.584 80.1905 157.962 80.1905 158.406ZM94.4652 155.364V156.358H90.5078V155.364H94.4652ZM91.6612 153.534H92.8345V160.812C92.8345 161.144 92.8826 161.393 92.9787 161.558C93.0781 161.721 93.2041 161.83 93.3565 161.886C93.5123 161.939 93.6764 161.966 93.8487 161.966C93.978 161.966 94.084 161.959 94.1669 161.946C94.2498 161.929 94.3161 161.916 94.3658 161.906L94.6044 162.96C94.5249 162.99 94.4138 163.02 94.2713 163.05C94.1288 163.083 93.9482 163.099 93.7294 163.099C93.398 163.099 93.0732 163.028 92.755 162.886C92.4401 162.743 92.1783 162.526 91.9695 162.234C91.764 161.943 91.6612 161.575 91.6612 161.131V153.534ZM99.2504 163.159C98.561 163.159 97.9561 162.995 97.4357 162.667C96.9187 162.339 96.5143 161.88 96.2227 161.29C95.9343 160.7 95.7901 160.01 95.7901 159.222C95.7901 158.426 95.9343 157.732 96.2227 157.138C96.5143 156.545 96.9187 156.085 97.4357 155.756C97.9561 155.428 98.561 155.264 99.2504 155.264C99.9397 155.264 100.543 155.428 101.06 155.756C101.58 156.085 101.985 156.545 102.273 157.138C102.565 157.732 102.711 158.426 102.711 159.222C102.711 160.01 102.565 160.7 102.273 161.29C101.985 161.88 101.58 162.339 101.06 162.667C100.543 162.995 99.9397 163.159 99.2504 163.159ZM99.2504 162.105C99.774 162.105 100.205 161.971 100.543 161.702C100.881 161.434 101.131 161.081 101.294 160.643C101.456 160.206 101.537 159.732 101.537 159.222C101.537 158.711 101.456 158.236 101.294 157.795C101.131 157.354 100.881 156.998 100.543 156.726C100.205 156.454 99.774 156.318 99.2504 156.318C98.7267 156.318 98.2958 156.454 97.9577 156.726C97.6197 156.998 97.3694 157.354 97.207 157.795C97.0446 158.236 96.9634 158.711 96.9634 159.222C96.9634 159.732 97.0446 160.206 97.207 160.643C97.3694 161.081 97.6197 161.434 97.9577 161.702C98.2958 161.971 98.7267 162.105 99.2504 162.105ZM111.76 155.364V156.358H107.803V155.364H111.76ZM108.956 153.534H110.129V160.812C110.129 161.144 110.177 161.393 110.274 161.558C110.373 161.721 110.499 161.83 110.651 161.886C110.807 161.939 110.971 161.966 111.144 161.966C111.273 161.966 111.379 161.959 111.462 161.946C111.545 161.929 111.611 161.916 111.661 161.906L111.899 162.96C111.82 162.99 111.709 163.02 111.566 163.05C111.424 163.083 111.243 163.099 111.024 163.099C110.693 163.099 110.368 163.028 110.05 162.886C109.735 162.743 109.473 162.526 109.264 162.234C109.059 161.943 108.956 161.575 108.956 161.131V153.534ZM114.862 158.406V163H113.689V152.818H114.862V156.557H114.962C115.141 156.162 115.409 155.849 115.767 155.617C116.128 155.382 116.609 155.264 117.209 155.264C117.729 155.264 118.185 155.369 118.576 155.577C118.967 155.783 119.271 156.099 119.486 156.527C119.705 156.951 119.814 157.491 119.814 158.148V163H118.641V158.227C118.641 157.621 118.483 157.152 118.169 156.82C117.857 156.486 117.424 156.318 116.871 156.318C116.486 156.318 116.142 156.399 115.837 156.562C115.535 156.724 115.297 156.961 115.121 157.273C114.949 157.584 114.862 157.962 114.862 158.406ZM125.162 163.159C124.426 163.159 123.792 162.997 123.258 162.672C122.728 162.344 122.319 161.886 122.03 161.3C121.745 160.71 121.603 160.024 121.603 159.241C121.603 158.459 121.745 157.77 122.03 157.173C122.319 156.573 122.72 156.106 123.233 155.771C123.75 155.433 124.354 155.264 125.043 155.264C125.441 155.264 125.833 155.33 126.221 155.463C126.609 155.596 126.962 155.811 127.28 156.109C127.598 156.404 127.852 156.795 128.041 157.283C128.23 157.77 128.324 158.37 128.324 159.082V159.58H122.438V158.565H127.131C127.131 158.134 127.045 157.75 126.873 157.412C126.703 157.074 126.462 156.807 126.147 156.612C125.835 156.416 125.467 156.318 125.043 156.318C124.576 156.318 124.171 156.434 123.83 156.666C123.492 156.895 123.232 157.193 123.049 157.561C122.867 157.929 122.776 158.323 122.776 158.744V159.42C122.776 159.997 122.875 160.486 123.074 160.887C123.276 161.285 123.556 161.588 123.914 161.797C124.272 162.002 124.688 162.105 125.162 162.105C125.471 162.105 125.749 162.062 125.998 161.976C126.249 161.886 126.467 161.754 126.649 161.578C126.831 161.399 126.972 161.177 127.071 160.912L128.205 161.23C128.086 161.615 127.885 161.953 127.603 162.244C127.322 162.533 126.974 162.758 126.559 162.92C126.145 163.08 125.679 163.159 125.162 163.159ZM134.047 155.364H135.22V163.557C135.22 164.027 135.139 164.435 134.976 164.78C134.817 165.125 134.575 165.391 134.25 165.58C133.929 165.769 133.523 165.864 133.032 165.864C132.993 165.864 132.953 165.864 132.913 165.864C132.873 165.864 132.833 165.864 132.794 165.864V164.77C132.833 164.77 132.87 164.77 132.903 164.77C132.936 164.77 132.973 164.77 133.012 164.77C133.37 164.77 133.632 164.664 133.798 164.452C133.964 164.243 134.047 163.945 134.047 163.557V155.364ZM134.623 154.091C134.395 154.091 134.197 154.013 134.032 153.857C133.869 153.701 133.788 153.514 133.788 153.295C133.788 153.077 133.869 152.889 134.032 152.734C134.197 152.578 134.395 152.5 134.623 152.5C134.852 152.5 135.047 152.578 135.21 152.734C135.376 152.889 135.458 153.077 135.458 153.295C135.458 153.514 135.376 153.701 135.21 153.857C135.047 154.013 134.852 154.091 134.623 154.091ZM142.181 159.878V155.364H143.355V163H142.181V161.707H142.102C141.923 162.095 141.644 162.425 141.267 162.697C140.889 162.965 140.411 163.099 139.835 163.099C139.357 163.099 138.933 162.995 138.562 162.786C138.191 162.574 137.899 162.256 137.687 161.832C137.475 161.404 137.369 160.866 137.369 160.216V155.364H138.542V160.136C138.542 160.693 138.698 161.137 139.009 161.469C139.324 161.8 139.725 161.966 140.213 161.966C140.504 161.966 140.801 161.891 141.102 161.742C141.407 161.593 141.663 161.364 141.868 161.056C142.077 160.748 142.181 160.355 142.181 159.878ZM146.677 158.406V163H145.504V155.364H146.637V156.557H146.737C146.915 156.169 147.187 155.857 147.552 155.622C147.916 155.384 148.387 155.264 148.964 155.264C149.481 155.264 149.933 155.37 150.321 155.582C150.709 155.791 151.01 156.109 151.226 156.537C151.441 156.961 151.549 157.498 151.549 158.148V163H150.376V158.227C150.376 157.627 150.22 157.16 149.908 156.825C149.597 156.487 149.169 156.318 148.626 156.318C148.251 156.318 147.916 156.399 147.621 156.562C147.33 156.724 147.099 156.961 146.93 157.273C146.761 157.584 146.677 157.962 146.677 158.406ZM153.693 163V155.364H154.866V163H153.693ZM154.29 154.091C154.061 154.091 153.864 154.013 153.698 153.857C153.536 153.701 153.454 153.514 153.454 153.295C153.454 153.077 153.536 152.889 153.698 152.734C153.864 152.578 154.061 152.5 154.29 152.5C154.518 152.5 154.714 152.578 154.876 152.734C155.042 152.889 155.125 153.077 155.125 153.295C155.125 153.514 155.042 153.701 154.876 153.857C154.714 154.013 154.518 154.091 154.29 154.091ZM160.118 163.159C159.428 163.159 158.823 162.995 158.303 162.667C157.786 162.339 157.382 161.88 157.09 161.29C156.801 160.7 156.657 160.01 156.657 159.222C156.657 158.426 156.801 157.732 157.09 157.138C157.382 156.545 157.786 156.085 158.303 155.756C158.823 155.428 159.428 155.264 160.118 155.264C160.807 155.264 161.41 155.428 161.927 155.756C162.448 156.085 162.852 156.545 163.14 157.138C163.432 157.732 163.578 158.426 163.578 159.222C163.578 160.01 163.432 160.7 163.14 161.29C162.852 161.88 162.448 162.339 161.927 162.667C161.41 162.995 160.807 163.159 160.118 163.159ZM160.118 162.105C160.641 162.105 161.072 161.971 161.41 161.702C161.748 161.434 161.998 161.081 162.161 160.643C162.323 160.206 162.404 159.732 162.404 159.222C162.404 158.711 162.323 158.236 162.161 157.795C161.998 157.354 161.748 156.998 161.41 156.726C161.072 156.454 160.641 156.318 160.118 156.318C159.594 156.318 159.163 156.454 158.825 156.726C158.487 156.998 158.237 157.354 158.074 157.795C157.912 158.236 157.831 158.711 157.831 159.222C157.831 159.732 157.912 160.206 158.074 160.643C158.237 161.081 158.487 161.434 158.825 161.702C159.163 161.971 159.594 162.105 160.118 162.105ZM165.369 163V155.364H166.502V156.517H166.582C166.721 156.139 166.973 155.833 167.338 155.597C167.702 155.362 168.113 155.244 168.57 155.244C168.657 155.244 168.764 155.246 168.894 155.249C169.023 155.253 169.121 155.258 169.187 155.264V156.457C169.147 156.447 169.056 156.433 168.914 156.413C168.774 156.389 168.627 156.378 168.471 156.378C168.1 156.378 167.768 156.456 167.477 156.612C167.188 156.764 166.96 156.976 166.791 157.248C166.625 157.516 166.542 157.823 166.542 158.168V163H165.369ZM177.399 163.159C176.762 163.159 176.201 162.998 175.713 162.677C175.226 162.352 174.845 161.895 174.57 161.305C174.295 160.711 174.157 160.01 174.157 159.202C174.157 158.4 174.295 157.704 174.57 157.114C174.845 156.524 175.228 156.068 175.718 155.746C176.209 155.425 176.776 155.264 177.419 155.264C177.916 155.264 178.309 155.347 178.597 155.513C178.889 155.675 179.111 155.861 179.263 156.07C179.419 156.275 179.54 156.444 179.626 156.577H179.725V152.818H180.899V163H179.765V161.827H179.626C179.54 161.966 179.417 162.142 179.258 162.354C179.099 162.562 178.872 162.75 178.577 162.915C178.282 163.078 177.889 163.159 177.399 163.159ZM177.558 162.105C178.029 162.105 178.426 161.982 178.751 161.737C179.076 161.489 179.323 161.146 179.492 160.708C179.661 160.267 179.745 159.759 179.745 159.182C179.745 158.612 179.663 158.113 179.497 157.685C179.331 157.254 179.086 156.92 178.761 156.681C178.436 156.439 178.035 156.318 177.558 156.318C177.061 156.318 176.646 156.446 176.315 156.701C175.987 156.953 175.74 157.296 175.574 157.73C175.412 158.161 175.331 158.645 175.331 159.182C175.331 159.725 175.413 160.219 175.579 160.663C175.748 161.104 175.997 161.455 176.325 161.717C176.656 161.976 177.067 162.105 177.558 162.105ZM186.412 163.159C185.676 163.159 185.042 162.997 184.508 162.672C183.978 162.344 183.569 161.886 183.28 161.3C182.995 160.71 182.853 160.024 182.853 159.241C182.853 158.459 182.995 157.77 183.28 157.173C183.569 156.573 183.97 156.106 184.483 155.771C185 155.433 185.604 155.264 186.293 155.264C186.691 155.264 187.083 155.33 187.471 155.463C187.859 155.596 188.212 155.811 188.53 156.109C188.848 156.404 189.102 156.795 189.291 157.283C189.48 157.77 189.574 158.37 189.574 159.082V159.58H183.688V158.565H188.381C188.381 158.134 188.295 157.75 188.123 157.412C187.953 157.074 187.712 156.807 187.397 156.612C187.085 156.416 186.717 156.318 186.293 156.318C185.826 156.318 185.421 156.434 185.08 156.666C184.742 156.895 184.482 157.193 184.299 157.561C184.117 157.929 184.026 158.323 184.026 158.744V159.42C184.026 159.997 184.125 160.486 184.324 160.887C184.526 161.285 184.806 161.588 185.164 161.797C185.522 162.002 185.938 162.105 186.412 162.105C186.721 162.105 186.999 162.062 187.248 161.976C187.499 161.886 187.717 161.754 187.899 161.578C188.081 161.399 188.222 161.177 188.321 160.912L189.455 161.23C189.336 161.615 189.135 161.953 188.853 162.244C188.572 162.533 188.224 162.758 187.809 162.92C187.395 163.08 186.929 163.159 186.412 163.159ZM197.371 155.364L194.547 163H193.354L190.53 155.364H191.803L193.911 161.449H193.99L196.098 155.364H197.371ZM201.848 163.159C201.112 163.159 200.477 162.997 199.944 162.672C199.413 162.344 199.004 161.886 198.716 161.3C198.431 160.71 198.288 160.024 198.288 159.241C198.288 158.459 198.431 157.77 198.716 157.173C199.004 156.573 199.405 156.106 199.919 155.771C200.436 155.433 201.039 155.264 201.729 155.264C202.126 155.264 202.519 155.33 202.907 155.463C203.295 155.596 203.648 155.811 203.966 156.109C204.284 156.404 204.537 156.795 204.726 157.283C204.915 157.77 205.01 158.37 205.01 159.082V159.58H199.123V158.565H203.817C203.817 158.134 203.73 157.75 203.558 157.412C203.389 157.074 203.147 156.807 202.832 156.612C202.521 156.416 202.153 156.318 201.729 156.318C201.261 156.318 200.857 156.434 200.515 156.666C200.177 156.895 199.917 157.193 199.735 157.561C199.553 157.929 199.461 158.323 199.461 158.744V159.42C199.461 159.997 199.561 160.486 199.76 160.887C199.962 161.285 200.242 161.588 200.6 161.797C200.958 162.002 201.374 162.105 201.848 162.105C202.156 162.105 202.434 162.062 202.683 161.976C202.935 161.886 203.152 161.754 203.334 161.578C203.517 161.399 203.657 161.177 203.757 160.912L204.89 161.23C204.771 161.615 204.571 161.953 204.289 162.244C204.007 162.533 203.659 162.758 203.245 162.92C202.831 163.08 202.365 163.159 201.848 163.159ZM207.968 152.818V163H206.795V152.818H207.968ZM213.219 163.159C212.53 163.159 211.925 162.995 211.404 162.667C210.887 162.339 210.483 161.88 210.191 161.29C209.903 160.7 209.759 160.01 209.759 159.222C209.759 158.426 209.903 157.732 210.191 157.138C210.483 156.545 210.887 156.085 211.404 155.756C211.925 155.428 212.53 155.264 213.219 155.264C213.908 155.264 214.512 155.428 215.029 155.756C215.549 156.085 215.953 156.545 216.242 157.138C216.533 157.732 216.679 158.426 216.679 159.222C216.679 160.01 216.533 160.7 216.242 161.29C215.953 161.88 215.549 162.339 215.029 162.667C214.512 162.995 213.908 163.159 213.219 163.159ZM213.219 162.105C213.743 162.105 214.174 161.971 214.512 161.702C214.85 161.434 215.1 161.081 215.262 160.643C215.425 160.206 215.506 159.732 215.506 159.222C215.506 158.711 215.425 158.236 215.262 157.795C215.1 157.354 214.85 156.998 214.512 156.726C214.174 156.454 213.743 156.318 213.219 156.318C212.695 156.318 212.265 156.454 211.926 156.726C211.588 156.998 211.338 157.354 211.176 157.795C211.013 158.236 210.932 158.711 210.932 159.222C210.932 159.732 211.013 160.206 211.176 160.643C211.338 161.081 211.588 161.434 211.926 161.702C212.265 161.971 212.695 162.105 213.219 162.105ZM218.47 165.864V155.364H219.604V156.577H219.743C219.829 156.444 219.949 156.275 220.101 156.07C220.257 155.861 220.479 155.675 220.767 155.513C221.059 155.347 221.453 155.264 221.95 155.264C222.593 155.264 223.16 155.425 223.651 155.746C224.141 156.068 224.524 156.524 224.799 157.114C225.074 157.704 225.212 158.4 225.212 159.202C225.212 160.01 225.074 160.711 224.799 161.305C224.524 161.895 224.143 162.352 223.656 162.677C223.169 162.998 222.607 163.159 221.97 163.159C221.48 163.159 221.087 163.078 220.792 162.915C220.497 162.75 220.27 162.562 220.111 162.354C219.952 162.142 219.829 161.966 219.743 161.827H219.644V165.864H218.47ZM219.624 159.182C219.624 159.759 219.708 160.267 219.877 160.708C220.046 161.146 220.293 161.489 220.618 161.737C220.943 161.982 221.341 162.105 221.811 162.105C222.302 162.105 222.711 161.976 223.039 161.717C223.371 161.455 223.619 161.104 223.785 160.663C223.954 160.219 224.039 159.725 224.039 159.182C224.039 158.645 223.956 158.161 223.79 157.73C223.628 157.296 223.381 156.953 223.049 156.701C222.721 156.446 222.308 156.318 221.811 156.318C221.334 156.318 220.933 156.439 220.608 156.681C220.283 156.92 220.038 157.254 219.872 157.685C219.707 158.113 219.624 158.612 219.624 159.182ZM230.203 163.159C229.468 163.159 228.833 162.997 228.299 162.672C227.769 162.344 227.36 161.886 227.071 161.3C226.786 160.71 226.644 160.024 226.644 159.241C226.644 158.459 226.786 157.77 227.071 157.173C227.36 156.573 227.761 156.106 228.274 155.771C228.791 155.433 229.395 155.264 230.084 155.264C230.482 155.264 230.874 155.33 231.262 155.463C231.65 155.596 232.003 155.811 232.321 156.109C232.639 156.404 232.893 156.795 233.082 157.283C233.271 157.77 233.365 158.37 233.365 159.082V159.58H227.479V158.565H232.172C232.172 158.134 232.086 157.75 231.914 157.412C231.744 157.074 231.503 156.807 231.188 156.612C230.876 156.416 230.508 156.318 230.084 156.318C229.617 156.318 229.212 156.434 228.871 156.666C228.533 156.895 228.273 157.193 228.09 157.561C227.908 157.929 227.817 158.323 227.817 158.744V159.42C227.817 159.997 227.916 160.486 228.115 160.887C228.317 161.285 228.597 161.588 228.955 161.797C229.313 162.002 229.729 162.105 230.203 162.105C230.512 162.105 230.79 162.062 231.039 161.976C231.29 161.886 231.508 161.754 231.69 161.578C231.872 161.399 232.013 161.177 232.112 160.912L233.246 161.23C233.127 161.615 232.926 161.953 232.644 162.244C232.363 162.533 232.015 162.758 231.6 162.92C231.186 163.08 230.72 163.159 230.203 163.159ZM235.15 163V155.364H236.284V156.517H236.363C236.502 156.139 236.754 155.833 237.119 155.597C237.483 155.362 237.894 155.244 238.352 155.244C238.438 155.244 238.546 155.246 238.675 155.249C238.804 155.253 238.902 155.258 238.968 155.264V156.457C238.928 156.447 238.837 156.433 238.695 156.413C238.556 156.389 238.408 156.378 238.252 156.378C237.881 156.378 237.55 156.456 237.258 156.612C236.97 156.764 236.741 156.976 236.572 157.248C236.406 157.516 236.323 157.823 236.323 158.168V163H235.15Z" fill="#94A3B8"/>
</g>
<defs>
<linearGradient id="paint0_linear_2041_10662" x1="170" y1="0" x2="170" y2="163" gradientUnits="userSpaceOnUse">
<stop stop-color="#1E293B"/>
<stop offset="1" stop-color="#1E293B" stop-opacity="0"/>
</linearGradient>
<linearGradient id="paint1_linear_2041_10662" x1="56.76" y1="26.7568" x2="205.601" y2="231.44" gradientUnits="userSpaceOnUse">
<stop stop-color="#404047" stop-opacity="0.53"/>
<stop offset="0.470485" stop-color="white" stop-opacity="0.21"/>
<stop offset="1" stop-color="#27272A" stop-opacity="0"/>
</linearGradient>
</defs>
</svg>
