<svg width="213" height="41" viewBox="0 0 213 41" fill="none" xmlns="http://www.w3.org/2000/svg">
<g id="Group 12">
<g id="MONGOLIAN UNIVERSITY OF SCIENCE AND TECHNOLOGY">
<path d="M0.915386 0.617784H2.82426L5.38063 6.86031H5.48154L8.03792 0.617784H9.94679V9.2328H8.44996V3.31418H8.37008L5.99029 9.20756H4.87188L2.4921 3.30156H2.41221V9.2328H0.915386V0.617784Z" fill="#94A3B8"/>
<path d="M19.3398 4.92529C19.3398 5.85354 19.166 6.64858 18.8184 7.31041C18.4736 7.96944 18.0027 8.47422 17.4057 8.82477C16.8114 9.17531 16.1373 9.35059 15.3833 9.35059C14.6293 9.35059 13.9537 9.17531 13.3567 8.82477C12.7624 8.47142 12.2915 7.96523 11.944 7.3062C11.5992 6.64437 11.4268 5.85074 11.4268 4.92529C11.4268 3.99705 11.5992 3.20341 11.944 2.54438C12.2915 1.88255 12.7624 1.37637 13.3567 1.02582C13.9537 0.675273 14.6293 0.5 15.3833 0.5C16.1373 0.5 16.8114 0.675273 17.4057 1.02582C18.0027 1.37637 18.4736 1.88255 18.8184 2.54438C19.166 3.20341 19.3398 3.99705 19.3398 4.92529ZM17.7715 4.92529C17.7715 4.27188 17.6692 3.72082 17.4645 3.27212C17.2627 2.82062 16.9824 2.47988 16.6236 2.24993C16.2648 2.01716 15.8514 1.90078 15.3833 1.90078C14.9152 1.90078 14.5017 2.01716 14.1429 2.24993C13.7842 2.47988 13.5024 2.82062 13.2978 3.27212C13.096 3.72082 12.9951 4.27188 12.9951 4.92529C12.9951 5.57871 13.096 6.13117 13.2978 6.58268C13.5024 7.03137 13.7842 7.3721 14.1429 7.60487C14.5017 7.83483 14.9152 7.94981 15.3833 7.94981C15.8514 7.94981 16.2648 7.83483 16.6236 7.60487C16.9824 7.3721 17.2627 7.03137 17.4645 6.58268C17.6692 6.13117 17.7715 5.57871 17.7715 4.92529Z" fill="#94A3B8"/>
<path d="M27.8908 0.617784V9.2328H26.5033L22.4459 3.36466H22.3744V9.2328H20.8145V0.617784H22.2104L26.2636 6.49013H26.3393V0.617784H27.8908Z" fill="#94A3B8"/>
<path d="M35.3592 3.36887C35.2891 3.14172 35.1924 2.9384 35.0691 2.75892C34.9485 2.57663 34.8028 2.42099 34.6318 2.29199C34.4636 2.16299 34.2702 2.06624 34.0515 2.00174C33.8329 1.93443 33.5947 1.90078 33.3368 1.90078C32.8743 1.90078 32.4622 2.01716 32.1006 2.24993C31.739 2.48269 31.4545 2.82482 31.2471 3.27632C31.0425 3.72502 30.9402 4.27188 30.9402 4.91688C30.9402 5.56749 31.0425 6.11855 31.2471 6.57006C31.4517 7.02156 31.7362 7.36509 32.1006 7.60066C32.465 7.83342 32.8883 7.94981 33.3704 7.94981C33.8077 7.94981 34.1861 7.86567 34.5056 7.69741C34.828 7.52915 35.0761 7.29078 35.2499 6.9823C35.4236 6.67101 35.5105 6.30645 35.5105 5.88859L35.8637 5.94328H33.526V4.72338H37.02V5.75819C37.02 6.49574 36.863 7.13373 36.5491 7.67217C36.2351 8.21061 35.8035 8.62566 35.2541 8.91731C34.7047 9.20616 34.074 9.35059 33.362 9.35059C32.5687 9.35059 31.8722 9.17251 31.2723 8.81635C30.6753 8.4574 30.2086 7.9484 29.8722 7.28938C29.5387 6.62755 29.3719 5.84232 29.3719 4.93371C29.3719 4.23822 29.47 3.61706 29.6662 3.0702C29.8652 2.52335 30.1427 2.05923 30.4987 1.67783C30.8547 1.29364 31.2723 1.00198 31.7517 0.802872C32.231 0.600957 32.7523 0.5 33.3158 0.5C33.7923 0.5 34.2365 0.570109 34.6486 0.710328C35.0606 0.847742 35.4264 1.04405 35.746 1.29925C36.0683 1.55444 36.3332 1.85731 36.5406 2.20786C36.7481 2.55841 36.884 2.94541 36.9485 3.36887H35.3592Z" fill="#94A3B8"/>
<path d="M46.2227 4.92529C46.2227 5.85354 46.0489 6.64858 45.7013 7.31041C45.3566 7.96944 44.8857 8.47422 44.2886 8.82477C43.6944 9.17531 43.0202 9.35059 42.2662 9.35059C41.5122 9.35059 40.8367 9.17531 40.2396 8.82477C39.6454 8.47142 39.1745 7.96523 38.8269 7.3062C38.4821 6.64437 38.3097 5.85074 38.3097 4.92529C38.3097 3.99705 38.4821 3.20341 38.8269 2.54438C39.1745 1.88255 39.6454 1.37637 40.2396 1.02582C40.8367 0.675273 41.5122 0.5 42.2662 0.5C43.0202 0.5 43.6944 0.675273 44.2886 1.02582C44.8857 1.37637 45.3566 1.88255 45.7013 2.54438C46.0489 3.20341 46.2227 3.99705 46.2227 4.92529ZM44.6544 4.92529C44.6544 4.27188 44.5521 3.72082 44.3475 3.27212C44.1457 2.82062 43.8653 2.47988 43.5066 2.24993C43.1478 2.01716 42.7343 1.90078 42.2662 1.90078C41.7981 1.90078 41.3847 2.01716 41.0259 2.24993C40.6671 2.47988 40.3854 2.82062 40.1808 3.27212C39.9789 3.72082 39.878 4.27188 39.878 4.92529C39.878 5.57871 39.9789 6.13117 40.1808 6.58268C40.3854 7.03137 40.6671 7.3721 41.0259 7.60487C41.3847 7.83483 41.7981 7.94981 42.2662 7.94981C42.7343 7.94981 43.1478 7.83483 43.5066 7.60487C43.8653 7.3721 44.1457 7.03137 44.3475 6.58268C44.5521 6.13117 44.6544 5.57871 44.6544 4.92529Z" fill="#94A3B8"/>
<path d="M47.6975 9.2328V0.617784H49.2574V7.92457H53.0499V9.2328H47.6975Z" fill="#94A3B8"/>
<path d="M55.9636 0.617784V9.2328H54.4037V0.617784H55.9636Z" fill="#94A3B8"/>
<path d="M58.7586 9.2328H57.0936L60.1251 0.617784H62.0508L65.0865 9.2328H63.4215L61.1216 2.38454H61.0543L58.7586 9.2328ZM58.8133 5.85494H63.3542V7.10849H58.8133V5.85494Z" fill="#94A3B8"/>
<path d="M73.2969 0.617784V9.2328H71.9094L67.852 3.36466H67.7806V9.2328H66.2207V0.617784H67.6166L71.6698 6.49013H71.7455V0.617784H73.2969Z" fill="#94A3B8"/>
<path d="M83.3616 0.617784H84.9215V6.24615C84.9215 6.86311 84.7757 7.40576 84.4842 7.87409C84.1955 8.34242 83.7891 8.70839 83.2649 8.972C82.7407 9.2328 82.1283 9.36321 81.4275 9.36321C80.724 9.36321 80.1101 9.2328 79.5859 8.972C79.0618 8.70839 78.6553 8.34242 78.3666 7.87409C78.0779 7.40576 77.9335 6.86311 77.9335 6.24615V0.617784H79.4934V6.11575C79.4934 6.47471 79.5719 6.79441 79.7289 7.07484C79.8886 7.35528 80.1129 7.57542 80.4016 7.73527C80.6903 7.89232 81.0323 7.97084 81.4275 7.97084C81.8227 7.97084 82.1647 7.89232 82.4534 7.73527C82.7449 7.57542 82.9692 7.35528 83.1262 7.07484C83.2831 6.79441 83.3616 6.47471 83.3616 6.11575V0.617784Z" fill="#94A3B8"/>
<path d="M93.6933 0.617784V9.2328H92.3058L88.2484 3.36466H88.1769V9.2328H86.617V0.617784H88.0129L92.0661 6.49013H92.1418V0.617784H93.6933Z" fill="#94A3B8"/>
<path d="M96.9529 0.617784V9.2328H95.393V0.617784H96.9529Z" fill="#94A3B8"/>
<path d="M99.7941 0.617784L102.035 7.39875H102.123L104.36 0.617784H106.076L103.04 9.2328H101.114L98.0828 0.617784H99.7941Z" fill="#94A3B8"/>
<path d="M107.21 9.2328V0.617784H112.81V1.92602H108.77V4.26486H112.52V5.5731H108.77V7.92457H112.844V9.2328H107.21Z" fill="#94A3B8"/>
<path d="M114.402 9.2328V0.617784H117.631C118.292 0.617784 118.847 0.732763 119.296 0.962721C119.747 1.19268 120.088 1.51518 120.318 1.93023C120.55 2.34247 120.667 2.82342 120.667 3.37308C120.667 3.92554 120.549 4.40508 120.313 4.81172C120.081 5.21555 119.737 5.52823 119.283 5.74978C118.829 5.96852 118.271 6.07789 117.61 6.07789H115.31V4.78227H117.4C117.786 4.78227 118.103 4.72899 118.35 4.62242C118.597 4.51305 118.779 4.3546 118.896 4.14708C119.017 3.93675 119.077 3.67875 119.077 3.37308C119.077 3.0674 119.017 2.80659 118.896 2.59066C118.776 2.37192 118.592 2.20646 118.346 2.09428C118.099 1.9793 117.781 1.92182 117.391 1.92182H115.962V9.2328H114.402ZM118.85 5.32912L120.982 9.2328H119.241L117.147 5.32912H118.85Z" fill="#94A3B8"/>
<path d="M126.782 2.98607C126.743 2.6187 126.578 2.33266 126.286 2.12794C125.997 1.92322 125.622 1.82086 125.159 1.82086C124.834 1.82086 124.555 1.86993 124.322 1.96809C124.09 2.06624 123.912 2.19945 123.788 2.36771C123.665 2.53597 123.602 2.72807 123.599 2.94401C123.599 3.12349 123.64 3.27913 123.721 3.41093C123.805 3.54274 123.919 3.65491 124.062 3.74746C124.205 3.8372 124.363 3.91292 124.537 3.97461C124.711 4.03631 124.886 4.08819 125.062 4.13026L125.87 4.33217C126.195 4.40789 126.507 4.51025 126.807 4.63925C127.11 4.76825 127.381 4.9309 127.619 5.12721C127.86 5.32351 128.051 5.56048 128.191 5.83812C128.331 6.11575 128.401 6.44105 128.401 6.81404C128.401 7.31882 128.272 7.76331 128.014 8.14751C127.756 8.52891 127.383 8.82757 126.896 9.04351C126.411 9.25664 125.824 9.36321 125.134 9.36321C124.464 9.36321 123.882 9.25945 123.389 9.05192C122.899 8.8444 122.515 8.54153 122.237 8.14331C121.962 7.74509 121.814 7.25993 121.791 6.68784H123.326C123.348 6.98791 123.441 7.23749 123.603 7.43661C123.766 7.63572 123.978 7.78435 124.238 7.8825C124.502 7.98065 124.796 8.02973 125.121 8.02973C125.461 8.02973 125.758 7.97925 126.013 7.87829C126.271 7.77453 126.472 7.63151 126.618 7.44922C126.764 7.26414 126.838 7.0482 126.841 6.80142C126.838 6.57707 126.772 6.39198 126.643 6.24615C126.514 6.09752 126.334 5.97413 126.101 5.87597C125.871 5.77502 125.602 5.68528 125.294 5.60675L124.314 5.35436C123.605 5.17208 123.044 4.89585 122.632 4.52567C122.223 4.15269 122.018 3.65772 122.018 3.04076C122.018 2.53317 122.156 2.08867 122.43 1.70728C122.708 1.32589 123.085 1.03003 123.561 0.819698C124.038 0.606566 124.578 0.5 125.18 0.5C125.791 0.5 126.327 0.606566 126.786 0.819698C127.249 1.03003 127.612 1.32308 127.875 1.69887C128.139 2.07185 128.275 2.50092 128.283 2.98607H126.782Z" fill="#94A3B8"/>
<path d="M131.351 0.617784V9.2328H129.792V0.617784H131.351Z" fill="#94A3B8"/>
<path d="M132.662 1.92602V0.617784H139.532V1.92602H136.871V9.2328H135.324V1.92602H132.662Z" fill="#94A3B8"/>
<path d="M140.268 0.617784H142.03L144.136 4.42892H144.221L146.327 0.617784H148.089L144.956 6.019V9.2328H143.401V6.019L140.268 0.617784Z" fill="#94A3B8"/>
<path d="M159.825 4.92529C159.825 5.85354 159.651 6.64858 159.303 7.31041C158.959 7.96944 158.488 8.47422 157.891 8.82477C157.296 9.17531 156.622 9.35059 155.868 9.35059C155.114 9.35059 154.439 9.17531 153.842 8.82477C153.247 8.47142 152.777 7.96523 152.429 7.3062C152.084 6.64437 151.912 5.85074 151.912 4.92529C151.912 3.99705 152.084 3.20341 152.429 2.54438C152.777 1.88255 153.247 1.37637 153.842 1.02582C154.439 0.675273 155.114 0.5 155.868 0.5C156.622 0.5 157.296 0.675273 157.891 1.02582C158.488 1.37637 158.959 1.88255 159.303 2.54438C159.651 3.20341 159.825 3.99705 159.825 4.92529ZM158.256 4.92529C158.256 4.27188 158.154 3.72082 157.95 3.27212C157.748 2.82062 157.467 2.47988 157.109 2.24993C156.75 2.01716 156.336 1.90078 155.868 1.90078C155.4 1.90078 154.987 2.01716 154.628 2.24993C154.269 2.47988 153.987 2.82062 153.783 3.27212C153.581 3.72082 153.48 4.27188 153.48 4.92529C153.48 5.57871 153.581 6.13117 153.783 6.58268C153.987 7.03137 154.269 7.3721 154.628 7.60487C154.987 7.83483 155.4 7.94981 155.868 7.94981C156.336 7.94981 156.75 7.83483 157.109 7.60487C157.467 7.3721 157.748 7.03137 157.95 6.58268C158.154 6.13117 158.256 5.57871 158.256 4.92529Z" fill="#94A3B8"/>
<path d="M161.299 9.2328V0.617784H166.816V1.92602H162.859V4.26486H166.437V5.5731H162.859V9.2328H161.299Z" fill="#94A3B8"/>
<path d="M5.59506 17.3893C5.55582 17.0219 5.39044 16.7359 5.09893 16.5312C4.81021 16.3265 4.43461 16.2241 3.9721 16.2241C3.64695 16.2241 3.36805 16.2732 3.1354 16.3713C2.90274 16.4695 2.72475 16.6027 2.60142 16.7709C2.47808 16.9392 2.41501 17.1313 2.41221 17.3472C2.41221 17.5267 2.45285 17.6824 2.53414 17.8142C2.61823 17.946 2.73176 18.0582 2.87471 18.1507C3.01767 18.2404 3.17604 18.3162 3.34983 18.3778C3.52362 18.4395 3.69881 18.4914 3.8754 18.5335L4.68267 18.7354C5.00783 18.8111 5.32037 18.9135 5.62029 19.0425C5.92302 19.1715 6.19351 19.3341 6.43177 19.5304C6.67283 19.7267 6.86344 19.9637 7.00359 20.2414C7.14375 20.519 7.21382 20.8443 7.21382 21.2173C7.21382 21.7221 7.08488 22.1665 6.827 22.5507C6.56912 22.9321 6.19632 23.2308 5.70859 23.4467C5.22366 23.6599 4.63642 23.7664 3.94688 23.7664C3.27695 23.7664 2.69532 23.6627 2.20198 23.4552C1.71145 23.2476 1.32743 22.9448 1.04993 22.5465C0.775234 22.1483 0.626672 21.6632 0.604248 21.0911H2.13891C2.16134 21.3911 2.25384 21.6407 2.41641 21.8398C2.57899 22.039 2.79062 22.1876 3.0513 22.2857C3.31479 22.3839 3.60911 22.433 3.93426 22.433C4.27343 22.433 4.57055 22.3825 4.82563 22.2815C5.08351 22.1778 5.28533 22.0347 5.43109 21.8525C5.57685 21.6674 5.65113 21.4514 5.65393 21.2047C5.65113 20.9803 5.58525 20.7952 5.45631 20.6494C5.32737 20.5008 5.14658 20.3774 4.91393 20.2792C4.68408 20.1783 4.41498 20.0885 4.10665 20.01L3.12699 19.7576C2.41782 19.5753 1.85721 19.2991 1.44516 18.9289C1.03592 18.5559 0.831295 18.061 0.831295 17.444C0.831295 16.9364 0.968644 16.4919 1.24334 16.1105C1.52084 15.7291 1.89785 15.4333 2.37437 15.2229C2.85089 15.0098 3.39047 14.9032 3.99313 14.9032C4.60419 14.9032 5.13957 15.0098 5.59927 15.2229C6.06177 15.4333 6.42477 15.7263 6.68825 16.1021C6.95174 16.4751 7.08769 16.9042 7.09609 17.3893H5.59506Z" fill="#94A3B8"/>
<path d="M15.9751 17.9277H14.4026C14.3577 17.6697 14.275 17.4412 14.1545 17.2421C14.034 17.0402 13.884 16.8691 13.7046 16.7289C13.5252 16.5887 13.3206 16.4835 13.0907 16.4134C12.8637 16.3405 12.6184 16.304 12.355 16.304C11.8868 16.304 11.472 16.4218 11.1104 16.6574C10.7488 16.8901 10.4657 17.2323 10.2611 17.6838C10.0565 18.1325 9.95415 18.6807 9.95415 19.3285C9.95415 19.9876 10.0565 20.5428 10.2611 20.9943C10.4685 21.443 10.7516 21.7824 11.1104 22.0123C11.472 22.2395 11.8854 22.353 12.3507 22.353C12.6086 22.353 12.8497 22.3194 13.0739 22.2521C13.301 22.182 13.5042 22.0796 13.6836 21.945C13.8658 21.8104 14.0186 21.6449 14.1419 21.4486C14.268 21.2523 14.3549 21.028 14.4026 20.7756L15.9751 20.784C15.9162 21.1934 15.7887 21.5776 15.5925 21.9366C15.3991 22.2956 15.1454 22.6124 14.8314 22.8873C14.5175 23.1593 14.1503 23.3724 13.7298 23.5267C13.3094 23.6781 12.8427 23.7538 12.3297 23.7538C11.5729 23.7538 10.8974 23.5786 10.3031 23.228C9.70888 22.8775 9.24077 22.3713 8.8988 21.7094C8.55683 21.0476 8.38584 20.254 8.38584 19.3285C8.38584 18.4003 8.55823 17.6066 8.903 16.9476C9.24778 16.2858 9.71729 15.7796 10.3115 15.4291C10.9058 15.0785 11.5785 14.9032 12.3297 14.9032C12.809 14.9032 13.2547 14.9705 13.6668 15.1052C14.0788 15.2398 14.446 15.4375 14.7684 15.6983C15.0907 15.9563 15.3556 16.2732 15.563 16.649C15.7733 17.0219 15.9106 17.4482 15.9751 17.9277Z" fill="#94A3B8"/>
<path d="M18.9635 15.021V23.636H17.4036V15.021H18.9635Z" fill="#94A3B8"/>
<path d="M20.6527 23.636V15.021H26.2531V16.3293H22.2125V18.6681H25.963V19.9763H22.2125V22.3278H26.2868V23.636H20.6527Z" fill="#94A3B8"/>
<path d="M34.9208 15.021V23.636H33.5333L29.4759 17.7679H29.4045V23.636H27.8446V15.021H29.2405L33.2937 20.8934H33.3694V15.021H34.9208Z" fill="#94A3B8"/>
<path d="M43.9911 17.9277H42.4186C42.3738 17.6697 42.2911 17.4412 42.1706 17.2421C42.05 17.0402 41.9001 16.8691 41.7207 16.7289C41.5413 16.5887 41.3367 16.4835 41.1068 16.4134C40.8798 16.3405 40.6345 16.304 40.371 16.304C39.9029 16.304 39.488 16.4218 39.1265 16.6574C38.7649 16.8901 38.4818 17.2323 38.2771 17.6838C38.0725 18.1325 37.9702 18.6807 37.9702 19.3285C37.9702 19.9876 38.0725 20.5428 38.2771 20.9943C38.4846 21.443 38.7677 21.7824 39.1265 22.0123C39.488 22.2395 39.9015 22.353 40.3668 22.353C40.6247 22.353 40.8657 22.3194 41.09 22.2521C41.317 22.182 41.5203 22.0796 41.6996 21.945C41.8818 21.8104 42.0346 21.6449 42.1579 21.4486C42.2841 21.2523 42.371 21.028 42.4186 20.7756L43.9911 20.784C43.9323 21.1934 43.8047 21.5776 43.6085 21.9366C43.4151 22.2956 43.1614 22.6124 42.8475 22.8873C42.5336 23.1593 42.1664 23.3724 41.7459 23.5267C41.3254 23.6781 40.8587 23.7538 40.3458 23.7538C39.589 23.7538 38.9134 23.5786 38.3192 23.228C37.7249 22.8775 37.2568 22.3713 36.9149 21.7094C36.5729 21.0476 36.4019 20.254 36.4019 19.3285C36.4019 18.4003 36.5743 17.6066 36.9191 16.9476C37.2638 16.2858 37.7333 15.7796 38.3276 15.4291C38.9218 15.0785 39.5946 14.9032 40.3458 14.9032C40.8251 14.9032 41.2708 14.9705 41.6828 15.1052C42.0949 15.2398 42.4621 15.4375 42.7844 15.6983C43.1068 15.9563 43.3717 16.2732 43.5791 16.649C43.7893 17.0219 43.9267 17.4482 43.9911 17.9277Z" fill="#94A3B8"/>
<path d="M45.4196 23.636V15.021H51.0201V16.3293H46.9795V18.6681H50.73V19.9763H46.9795V22.3278H51.0538V23.636H45.4196Z" fill="#94A3B8"/>
<path d="M56.6542 23.636H54.9892L58.0207 15.021H59.9464L62.9821 23.636H61.3171L59.0172 16.7878H58.9499L56.6542 23.636ZM56.7089 20.2582H61.2498V21.5117H56.7089V20.2582Z" fill="#94A3B8"/>
<path d="M71.1926 15.021V23.636H69.8051L65.7477 17.7679H65.6762V23.636H64.1163V15.021H65.5122L69.5654 20.8934H69.6411V15.021H71.1926Z" fill="#94A3B8"/>
<path d="M75.8102 23.636H72.8923V15.021H75.8691C76.724 15.021 77.4584 15.1935 78.0723 15.5384C78.6889 15.8806 79.1627 16.3727 79.4934 17.0149C79.8242 17.6571 79.9896 18.4255 79.9896 19.3201C79.9896 20.2175 79.8228 20.9887 79.4892 21.6337C79.1585 22.2787 78.6805 22.7737 78.0555 23.1186C77.4332 23.4636 76.6848 23.636 75.8102 23.636ZM74.4521 22.2857H75.7345C76.3344 22.2857 76.8347 22.1764 77.2356 21.9576C77.6364 21.7361 77.9377 21.4066 78.1395 20.9691C78.3414 20.5288 78.4423 19.9791 78.4423 19.3201C78.4423 18.6611 78.3414 18.1142 78.1395 17.6796C77.9377 17.2421 77.6392 16.9154 77.244 16.6994C76.8516 16.4807 76.3638 16.3713 75.7808 16.3713H74.4521V22.2857Z" fill="#94A3B8"/>
<path d="M84.0301 16.3293V15.021H90.9004V16.3293H88.2389V23.636H86.6916V16.3293H84.0301Z" fill="#94A3B8"/>
<path d="M92.2248 23.636V15.021H97.8253V16.3293H93.7847V18.6681H97.5352V19.9763H93.7847V22.3278H97.8589V23.636H92.2248Z" fill="#94A3B8"/>
<path d="M106.787 17.9277H105.215C105.17 17.6697 105.087 17.4412 104.967 17.2421C104.846 17.0402 104.696 16.8691 104.517 16.7289C104.337 16.5887 104.133 16.4835 103.903 16.4134C103.676 16.3405 103.431 16.304 103.167 16.304C102.699 16.304 102.284 16.4218 101.923 16.6574C101.561 16.8901 101.278 17.2323 101.073 17.6838C100.869 18.1325 100.766 18.6807 100.766 19.3285C100.766 19.9876 100.869 20.5428 101.073 20.9943C101.281 21.443 101.564 21.7824 101.923 22.0123C102.284 22.2395 102.698 22.353 103.163 22.353C103.421 22.353 103.662 22.3194 103.886 22.2521C104.113 22.182 104.316 22.0796 104.496 21.945C104.678 21.8104 104.831 21.6449 104.954 21.4486C105.08 21.2523 105.167 21.028 105.215 20.7756L106.787 20.784C106.728 21.1934 106.601 21.5776 106.405 21.9366C106.211 22.2956 105.958 22.6124 105.644 22.8873C105.33 23.1593 104.963 23.3724 104.542 23.5267C104.122 23.6781 103.655 23.7538 103.142 23.7538C102.385 23.7538 101.71 23.5786 101.115 23.228C100.521 22.8775 100.053 22.3713 99.7111 21.7094C99.3691 21.0476 99.1981 20.254 99.1981 19.3285C99.1981 18.4003 99.3705 17.6066 99.7153 16.9476C100.06 16.2858 100.53 15.7796 101.124 15.4291C101.718 15.0785 102.391 14.9032 103.142 14.9032C103.621 14.9032 104.067 14.9705 104.479 15.1052C104.891 15.2398 105.258 15.4375 105.581 15.6983C105.903 15.9563 106.168 16.2732 106.375 16.649C106.586 17.0219 106.723 17.4482 106.787 17.9277Z" fill="#94A3B8"/>
<path d="M108.216 23.636V15.021H109.776V18.6681H113.766V15.021H115.33V23.636H113.766V19.9763H109.776V23.636H108.216Z" fill="#94A3B8"/>
<path d="M124.103 15.021V23.636H122.715L118.658 17.7679H118.586V23.636H117.027V15.021H118.422L122.476 20.8934H122.551V15.021H124.103Z" fill="#94A3B8"/>
<path d="M133.497 19.3285C133.497 20.2568 133.323 21.0518 132.975 21.7136C132.631 22.3727 132.16 22.8775 131.563 23.228C130.968 23.5786 130.294 23.7538 129.54 23.7538C128.786 23.7538 128.111 23.5786 127.514 23.228C126.919 22.8747 126.449 22.3685 126.101 21.7094C125.756 21.0476 125.584 20.254 125.584 19.3285C125.584 18.4003 125.756 17.6066 126.101 16.9476C126.449 16.2858 126.919 15.7796 127.514 15.4291C128.111 15.0785 128.786 14.9032 129.54 14.9032C130.294 14.9032 130.968 15.0785 131.563 15.4291C132.16 15.7796 132.631 16.2858 132.975 16.9476C133.323 17.6066 133.497 18.4003 133.497 19.3285ZM131.929 19.3285C131.929 18.6751 131.826 18.1241 131.622 17.6754C131.42 17.2239 131.139 16.8831 130.781 16.6532C130.422 16.4204 130.008 16.304 129.54 16.304C129.072 16.304 128.659 16.4204 128.3 16.6532C127.941 16.8831 127.659 17.2239 127.455 17.6754C127.253 18.1241 127.152 18.6751 127.152 19.3285C127.152 19.9819 127.253 20.5344 127.455 20.9859C127.659 21.4346 127.941 21.7753 128.3 22.0081C128.659 22.2381 129.072 22.353 129.54 22.353C130.008 22.353 130.422 22.2381 130.781 22.0081C131.139 21.7753 131.42 21.4346 131.622 20.9859C131.826 20.5344 131.929 19.9819 131.929 19.3285Z" fill="#94A3B8"/>
<path d="M134.972 23.636V15.021H136.531V22.3278H140.324V23.636H134.972Z" fill="#94A3B8"/>
<path d="M149.037 19.3285C149.037 20.2568 148.863 21.0518 148.516 21.7136C148.171 22.3727 147.7 22.8775 147.103 23.228C146.509 23.5786 145.834 23.7538 145.08 23.7538C144.326 23.7538 143.651 23.5786 143.054 23.228C142.46 22.8747 141.989 22.3685 141.641 21.7094C141.296 21.0476 141.124 20.254 141.124 19.3285C141.124 18.4003 141.296 17.6066 141.641 16.9476C141.989 16.2858 142.46 15.7796 143.054 15.4291C143.651 15.0785 144.326 14.9032 145.08 14.9032C145.834 14.9032 146.509 15.0785 147.103 15.4291C147.7 15.7796 148.171 16.2858 148.516 16.9476C148.863 17.6066 149.037 18.4003 149.037 19.3285ZM147.469 19.3285C147.469 18.6751 147.366 18.1241 147.162 17.6754C146.96 17.2239 146.68 16.8831 146.321 16.6532C145.962 16.4204 145.549 16.304 145.08 16.304C144.612 16.304 144.199 16.4204 143.84 16.6532C143.481 16.8831 143.2 17.2239 142.995 17.6754C142.793 18.1241 142.692 18.6751 142.692 19.3285C142.692 19.9819 142.793 20.5344 142.995 20.9859C143.2 21.4346 143.481 21.7753 143.84 22.0081C144.199 22.2381 144.612 22.353 145.08 22.353C145.549 22.353 145.962 22.2381 146.321 22.0081C146.68 21.7753 146.96 21.4346 147.162 20.9859C147.366 20.5344 147.469 19.9819 147.469 19.3285Z" fill="#94A3B8"/>
<path d="M156.28 17.7721C156.21 17.545 156.114 17.3416 155.99 17.1622C155.87 16.9799 155.724 16.8242 155.553 16.6952C155.385 16.5662 155.191 16.4695 154.973 16.405C154.754 16.3377 154.516 16.304 154.258 16.304C153.795 16.304 153.383 16.4204 153.022 16.6532C152.66 16.8859 152.376 17.2281 152.168 17.6796C151.964 18.1283 151.861 18.6751 151.861 19.3201C151.861 19.9707 151.964 20.5218 152.168 20.9733C152.373 21.4248 152.657 21.7683 153.022 22.0039C153.386 22.2367 153.809 22.353 154.292 22.353C154.729 22.353 155.107 22.2689 155.427 22.1006C155.749 21.9324 155.997 21.694 156.171 21.3855C156.345 21.0742 156.432 20.7097 156.432 20.2918L156.785 20.3465H154.447V19.1266H157.941V20.1614C157.941 20.899 157.784 21.537 157.47 22.0754C157.156 22.6138 156.725 23.0289 156.175 23.3205C155.626 23.6094 154.995 23.7538 154.283 23.7538C153.49 23.7538 152.793 23.5757 152.193 23.2196C151.596 22.8606 151.13 22.3516 150.793 21.6926C150.46 21.0308 150.293 20.2456 150.293 19.3369C150.293 18.6415 150.391 18.0203 150.587 17.4734C150.786 16.9266 151.064 16.4625 151.42 16.0811C151.776 15.6969 152.193 15.4052 152.673 15.2061C153.152 15.0042 153.673 14.9032 154.237 14.9032C154.713 14.9032 155.158 14.9733 155.57 15.1136C155.982 15.251 156.348 15.4473 156.667 15.7025C156.989 15.9577 157.254 16.2606 157.462 16.6111C157.669 16.9616 157.805 17.3486 157.87 17.7721H156.28Z" fill="#94A3B8"/>
<path d="M158.537 15.021H160.299L162.405 18.8322H162.489L164.596 15.021H166.358L163.225 20.4222V23.636H161.67V20.4222L158.537 15.021Z" fill="#94A3B8"/>
</g>
<g id="Group 10">
<rect id="Rectangle 24" x="0.604004" y="28.8672" width="70.7555" height="1.59359" fill="#94A3B8"/>
<rect id="Rectangle 26" x="142.115" y="28.8672" width="70.7555" height="1.59359" fill="#94A3B8"/>
<rect id="Rectangle 25" x="71.3596" y="28.8672" width="70.7555" height="1.59359" fill="#64748B"/>
</g>
<g id="SCHOOL OF INFORMATION AND COMMUNICATION TECHNOLOGY">
<path d="M3.40843 36.9452C3.38638 36.7405 3.29346 36.581 3.12966 36.4669C2.96744 36.3528 2.7564 36.2958 2.49654 36.2958C2.31384 36.2958 2.15714 36.3231 2.02642 36.3778C1.8957 36.4326 1.79569 36.5068 1.72639 36.6006C1.65709 36.6944 1.62166 36.8014 1.62008 36.9218C1.62008 37.0218 1.64292 37.1086 1.68859 37.1821C1.73584 37.2555 1.79963 37.318 1.87995 37.3696C1.96027 37.4196 2.04925 37.4618 2.1469 37.4962C2.24455 37.5306 2.34298 37.5595 2.4422 37.583L2.89578 37.6955C3.07848 37.7377 3.25408 37.7948 3.4226 37.8667C3.59269 37.9386 3.74467 38.0292 3.87854 38.1387C4.01399 38.2481 4.12109 38.3802 4.19983 38.5349C4.27858 38.6897 4.31795 38.871 4.31795 39.0789C4.31795 39.3602 4.24551 39.608 4.10061 39.8221C3.95572 40.0347 3.74625 40.2012 3.47221 40.3215C3.19975 40.4403 2.8698 40.4997 2.48236 40.4997C2.10595 40.4997 1.77915 40.4419 1.50196 40.3262C1.22635 40.2105 1.01058 40.0417 0.854663 39.8198C0.700319 39.5978 0.616848 39.3274 0.604248 39.0085H1.46653C1.47913 39.1758 1.5311 39.3149 1.62245 39.4259C1.71379 39.5368 1.8327 39.6197 1.97917 39.6744C2.12721 39.7291 2.29258 39.7565 2.47527 39.7565C2.66584 39.7565 2.83279 39.7283 2.97611 39.6721C3.121 39.6142 3.2344 39.5345 3.31629 39.4329C3.39819 39.3297 3.43992 39.2094 3.4415 39.0718C3.43992 38.9468 3.40291 38.8436 3.33047 38.7623C3.25802 38.6795 3.15644 38.6107 3.02572 38.556C2.89657 38.4997 2.74538 38.4497 2.57213 38.406L2.02169 38.2653C1.62323 38.1637 1.30825 38.0097 1.07673 37.8034C0.846789 37.5955 0.731818 37.3196 0.731818 36.9757C0.731818 36.6928 0.80899 36.4451 0.963334 36.2325C1.11925 36.0199 1.33108 35.855 1.59882 35.7378C1.86656 35.619 2.16974 35.5596 2.50835 35.5596C2.85169 35.5596 3.1525 35.619 3.41079 35.7378C3.67065 35.855 3.87461 36.0183 4.02265 36.2278C4.1707 36.4357 4.24708 36.6748 4.25181 36.9452H3.40843Z" fill="#94A3B8"/>
<path d="M9.24062 37.2454H8.35708C8.33188 37.1016 8.28542 36.9742 8.2177 36.8632C8.14997 36.7506 8.06572 36.6553 7.96492 36.5771C7.86412 36.499 7.74915 36.4404 7.62001 36.4013C7.49244 36.3607 7.35463 36.3403 7.20659 36.3403C6.94357 36.3403 6.71048 36.406 6.50731 36.5373C6.30415 36.667 6.14508 36.8577 6.03011 37.1094C5.91514 37.3595 5.85765 37.665 5.85765 38.0261C5.85765 38.3934 5.91514 38.7029 6.03011 38.9546C6.14665 39.2047 6.30572 39.3938 6.50731 39.522C6.71048 39.6486 6.94278 39.7119 7.20422 39.7119C7.34912 39.7119 7.48456 39.6932 7.61056 39.6556C7.73813 39.6166 7.85231 39.5595 7.95311 39.4845C8.05548 39.4095 8.14131 39.3172 8.21061 39.2078C8.28148 39.0984 8.33031 38.9734 8.35708 38.8327L9.24062 38.8374C9.20755 39.0656 9.13589 39.2797 9.02564 39.4798C8.91697 39.6799 8.77444 39.8565 8.59804 40.0097C8.42165 40.1613 8.21533 40.2801 7.97909 40.3661C7.74285 40.4505 7.48063 40.4927 7.19241 40.4927C6.76718 40.4927 6.38762 40.395 6.05373 40.1996C5.71984 40.0042 5.45683 39.7221 5.26469 39.3532C5.07255 38.9843 4.97647 38.5419 4.97647 38.0261C4.97647 37.5087 5.07333 37.0664 5.26705 36.6991C5.46077 36.3302 5.72457 36.048 6.05846 35.8526C6.39234 35.6573 6.77033 35.5596 7.19241 35.5596C7.46173 35.5596 7.71214 35.5971 7.94366 35.6721C8.17517 35.7471 8.38149 35.8573 8.56261 36.0027C8.74373 36.1465 8.89256 36.3231 9.0091 36.5326C9.12722 36.7405 9.2044 36.9781 9.24062 37.2454Z" fill="#94A3B8"/>
<path d="M10.0432 40.427V35.6252H10.9197V37.658H13.1616V35.6252H14.0404V40.427H13.1616V38.3872H10.9197V40.427H10.0432Z" fill="#94A3B8"/>
<path d="M19.3169 38.0261C19.3169 38.5435 19.2192 38.9866 19.0239 39.3555C18.8302 39.7229 18.5656 40.0042 18.2302 40.1996C17.8963 40.395 17.5175 40.4927 17.0939 40.4927C16.6702 40.4927 16.2906 40.395 15.9552 40.1996C15.6213 40.0026 15.3567 39.7205 15.1614 39.3532C14.9677 38.9843 14.8708 38.5419 14.8708 38.0261C14.8708 37.5087 14.9677 37.0664 15.1614 36.6991C15.3567 36.3302 15.6213 36.048 15.9552 35.8526C16.2906 35.6573 16.6702 35.5596 17.0939 35.5596C17.5175 35.5596 17.8963 35.6573 18.2302 35.8526C18.5656 36.048 18.8302 36.3302 19.0239 36.6991C19.2192 37.0664 19.3169 37.5087 19.3169 38.0261ZM18.4357 38.0261C18.4357 37.6619 18.3782 37.3548 18.2632 37.1047C18.1498 36.853 17.9924 36.6631 17.7908 36.5349C17.5892 36.4052 17.3569 36.3403 17.0939 36.3403C16.8308 36.3403 16.5985 36.4052 16.3969 36.5349C16.1953 36.6631 16.0371 36.853 15.9221 37.1047C15.8087 37.3548 15.752 37.6619 15.752 38.0261C15.752 38.3903 15.8087 38.6982 15.9221 38.9499C16.0371 39.2 16.1953 39.3899 16.3969 39.5196C16.5985 39.6478 16.8308 39.7119 17.0939 39.7119C17.3569 39.7119 17.5892 39.6478 17.7908 39.5196C17.9924 39.3899 18.1498 39.2 18.2632 38.9499C18.3782 38.6982 18.4357 38.3903 18.4357 38.0261Z" fill="#94A3B8"/>
<path d="M24.4687 38.0261C24.4687 38.5435 24.3711 38.9866 24.1758 39.3555C23.982 39.7229 23.7175 40.0042 23.382 40.1996C23.0481 40.395 22.6693 40.4927 22.2457 40.4927C21.822 40.4927 21.4425 40.395 21.107 40.1996C20.7731 40.0026 20.5085 39.7205 20.3132 39.3532C20.1195 38.9843 20.0226 38.5419 20.0226 38.0261C20.0226 37.5087 20.1195 37.0664 20.3132 36.6991C20.5085 36.3302 20.7731 36.048 21.107 35.8526C21.4425 35.6573 21.822 35.5596 22.2457 35.5596C22.6693 35.5596 23.0481 35.6573 23.382 35.8526C23.7175 36.048 23.982 36.3302 24.1758 36.6991C24.3711 37.0664 24.4687 37.5087 24.4687 38.0261ZM23.5875 38.0261C23.5875 37.6619 23.53 37.3548 23.4151 37.1047C23.3017 36.853 23.1442 36.6631 22.9426 36.5349C22.741 36.4052 22.5087 36.3403 22.2457 36.3403C21.9827 36.3403 21.7504 36.4052 21.5488 36.5349C21.3472 36.6631 21.1889 36.853 21.0739 37.1047C20.9605 37.3548 20.9038 37.6619 20.9038 38.0261C20.9038 38.3903 20.9605 38.6982 21.0739 38.9499C21.1889 39.2 21.3472 39.3899 21.5488 39.5196C21.7504 39.6478 21.9827 39.7119 22.2457 39.7119C22.5087 39.7119 22.741 39.6478 22.9426 39.5196C23.1442 39.3899 23.3017 39.2 23.4151 38.9499C23.53 38.6982 23.5875 38.3903 23.5875 38.0261Z" fill="#94A3B8"/>
<path d="M25.2973 40.427V35.6252H26.1738V39.6978H28.3047V40.427H25.2973Z" fill="#94A3B8"/>
<path d="M35.0387 38.0261C35.0387 38.5435 34.9411 38.9866 34.7458 39.3555C34.552 39.7229 34.2875 40.0042 33.952 40.1996C33.6181 40.395 33.2393 40.4927 32.8157 40.4927C32.392 40.4927 32.0125 40.395 31.677 40.1996C31.3431 40.0026 31.0785 39.7205 30.8832 39.3532C30.6895 38.9843 30.5926 38.5419 30.5926 38.0261C30.5926 37.5087 30.6895 37.0664 30.8832 36.6991C31.0785 36.3302 31.3431 36.048 31.677 35.8526C32.0125 35.6573 32.392 35.5596 32.8157 35.5596C33.2393 35.5596 33.6181 35.6573 33.952 35.8526C34.2875 36.048 34.552 36.3302 34.7458 36.6991C34.9411 37.0664 35.0387 37.5087 35.0387 38.0261ZM34.1575 38.0261C34.1575 37.6619 34.1 37.3548 33.9851 37.1047C33.8717 36.853 33.7142 36.6631 33.5126 36.5349C33.311 36.4052 33.0787 36.3403 32.8157 36.3403C32.5527 36.3403 32.3204 36.4052 32.1188 36.5349C31.9172 36.6631 31.7589 36.853 31.6439 37.1047C31.5305 37.3548 31.4738 37.6619 31.4738 38.0261C31.4738 38.3903 31.5305 38.6982 31.6439 38.9499C31.7589 39.2 31.9172 39.3899 32.1188 39.5196C32.3204 39.6478 32.5527 39.7119 32.8157 39.7119C33.0787 39.7119 33.311 39.6478 33.5126 39.5196C33.7142 39.3899 33.8717 39.2 33.9851 38.9499C34.1 38.6982 34.1575 38.3903 34.1575 38.0261Z" fill="#94A3B8"/>
<path d="M35.8673 40.427V35.6252H38.9668V36.3544H36.7438V37.658H38.7542V38.3872H36.7438V40.427H35.8673Z" fill="#94A3B8"/>
<path d="M42.2919 35.6252V40.427H41.4154V35.6252H42.2919Z" fill="#94A3B8"/>
<path d="M47.2169 35.6252V40.427H46.4373L44.1576 37.1563H44.1174V40.427H43.241V35.6252H44.0253L46.3027 38.8983H46.3452V35.6252H47.2169Z" fill="#94A3B8"/>
<path d="M48.1719 40.427V35.6252H51.2714V36.3544H49.0484V37.658H51.0588V38.3872H49.0484V40.427H48.1719Z" fill="#94A3B8"/>
<path d="M56.3931 38.0261C56.3931 38.5435 56.2954 38.9866 56.1002 39.3555C55.9064 39.7229 55.6418 40.0042 55.3064 40.1996C54.9725 40.395 54.5937 40.4927 54.1701 40.4927C53.7464 40.4927 53.3668 40.395 53.0314 40.1996C52.6975 40.0026 52.4329 39.7205 52.2376 39.3532C52.0439 38.9843 51.947 38.5419 51.947 38.0261C51.947 37.5087 52.0439 37.0664 52.2376 36.6991C52.4329 36.3302 52.6975 36.048 53.0314 35.8526C53.3668 35.6573 53.7464 35.5596 54.1701 35.5596C54.5937 35.5596 54.9725 35.6573 55.3064 35.8526C55.6418 36.048 55.9064 36.3302 56.1002 36.6991C56.2954 37.0664 56.3931 37.5087 56.3931 38.0261ZM55.5119 38.0261C55.5119 37.6619 55.4544 37.3548 55.3395 37.1047C55.2261 36.853 55.0686 36.6631 54.867 36.5349C54.6654 36.4052 54.4331 36.3403 54.1701 36.3403C53.9071 36.3403 53.6747 36.4052 53.4732 36.5349C53.2716 36.6631 53.1133 36.853 52.9983 37.1047C52.8849 37.3548 52.8282 37.6619 52.8282 38.0261C52.8282 38.3903 52.8849 38.6982 52.9983 38.9499C53.1133 39.2 53.2716 39.3899 53.4732 39.5196C53.6747 39.6478 53.9071 39.7119 54.1701 39.7119C54.4331 39.7119 54.6654 39.6478 54.867 39.5196C55.0686 39.3899 55.2261 39.2 55.3395 38.9499C55.4544 38.6982 55.5119 38.3903 55.5119 38.0261Z" fill="#94A3B8"/>
<path d="M57.2217 40.427V35.6252H59.036C59.4077 35.6252 59.7196 35.6893 59.9715 35.8175C60.2251 35.9457 60.4165 36.1254 60.5456 36.3567C60.6763 36.5865 60.7417 36.8546 60.7417 37.161C60.7417 37.4689 60.6755 37.7362 60.5433 37.9628C60.4125 38.1879 60.2196 38.3622 59.9645 38.4857C59.7093 38.6076 59.3959 38.6685 59.0242 38.6685H57.732V37.9464H58.9061C59.1234 37.9464 59.3014 37.9167 59.44 37.8573C59.5786 37.7963 59.681 37.708 59.7471 37.5924C59.8148 37.4751 59.8487 37.3313 59.8487 37.161C59.8487 36.9906 59.8148 36.8452 59.7471 36.7249C59.6794 36.6029 59.5762 36.5107 59.4376 36.4482C59.299 36.3841 59.1203 36.3521 58.9014 36.3521H58.0982V40.427H57.2217ZM59.7211 38.2512L60.9189 40.427H59.9408L58.7644 38.2512H59.7211Z" fill="#94A3B8"/>
<path d="M61.5485 35.6252H62.621L64.0573 39.1047H64.114L65.5504 35.6252H66.6229V40.427H65.7819V37.1281H65.737L64.3999 40.413H63.7715L62.4344 37.1211H62.3895V40.427H61.5485V35.6252Z" fill="#94A3B8"/>
<path d="M68.1986 40.427H67.2631L68.9664 35.6252H70.0484L71.7541 40.427H70.8185L69.5263 36.61H69.4885L68.1986 40.427ZM68.2293 38.5443H70.7807V39.243H68.2293V38.5443Z" fill="#94A3B8"/>
<path d="M71.594 36.3544V35.6252H75.4542V36.3544H73.9588V40.427H73.0894V36.3544H71.594Z" fill="#94A3B8"/>
<path d="M77.0748 35.6252V40.427H76.1983V35.6252H77.0748Z" fill="#94A3B8"/>
<path d="M82.3471 38.0261C82.3471 38.5435 82.2494 38.9866 82.0542 39.3555C81.8604 39.7229 81.5958 40.0042 81.2604 40.1996C80.9265 40.395 80.5477 40.4927 80.1241 40.4927C79.7004 40.4927 79.3208 40.395 78.9854 40.1996C78.6515 40.0026 78.3869 39.7205 78.1916 39.3532C77.9979 38.9843 77.901 38.5419 77.901 38.0261C77.901 37.5087 77.9979 37.0664 78.1916 36.6991C78.3869 36.3302 78.6515 36.048 78.9854 35.8526C79.3208 35.6573 79.7004 35.5596 80.1241 35.5596C80.5477 35.5596 80.9265 35.6573 81.2604 35.8526C81.5958 36.048 81.8604 36.3302 82.0542 36.6991C82.2494 37.0664 82.3471 37.5087 82.3471 38.0261ZM81.4659 38.0261C81.4659 37.6619 81.4084 37.3548 81.2935 37.1047C81.1801 36.853 81.0226 36.6631 80.821 36.5349C80.6194 36.4052 80.3871 36.3403 80.1241 36.3403C79.8611 36.3403 79.6287 36.4052 79.4272 36.5349C79.2256 36.6631 79.0673 36.853 78.9523 37.1047C78.8389 37.3548 78.7822 37.6619 78.7822 38.0261C78.7822 38.3903 78.8389 38.6982 78.9523 38.9499C79.0673 39.2 79.2256 39.3899 79.4272 39.5196C79.6287 39.6478 79.8611 39.7119 80.1241 39.7119C80.3871 39.7119 80.6194 39.6478 80.821 39.5196C81.0226 39.3899 81.1801 39.2 81.2935 38.9499C81.4084 38.6982 81.4659 38.3903 81.4659 38.0261Z" fill="#94A3B8"/>
<path d="M87.1516 35.6252V40.427H86.372L84.0923 37.1563H84.0522V40.427H83.1757V35.6252H83.96L86.2374 38.8983H86.2799V35.6252H87.1516Z" fill="#94A3B8"/>
<path d="M90.3781 40.427H89.4426L91.1459 35.6252H92.2279L93.9335 40.427H92.998L91.7058 36.61H91.668L90.3781 40.427ZM90.4088 38.5443H92.9602V39.243H90.4088V38.5443Z" fill="#94A3B8"/>
<path d="M98.5467 35.6252V40.427H97.7671L95.4874 37.1563H95.4472V40.427H94.5708V35.6252H95.3551L97.6325 38.8983H97.675V35.6252H98.5467Z" fill="#94A3B8"/>
<path d="M101.141 40.427H99.5017V35.6252H101.174C101.655 35.6252 102.067 35.7213 102.412 35.9136C102.759 36.1043 103.025 36.3786 103.211 36.7366C103.397 37.0945 103.489 37.5228 103.489 38.0214C103.489 38.5216 103.396 38.9515 103.208 39.311C103.022 39.6705 102.754 39.9464 102.403 40.1386C102.053 40.3309 101.633 40.427 101.141 40.427ZM100.378 39.6744H101.099C101.436 39.6744 101.717 39.6134 101.942 39.4915C102.167 39.368 102.337 39.1844 102.45 38.9405C102.563 38.6951 102.62 38.3888 102.62 38.0214C102.62 37.6541 102.563 37.3493 102.45 37.107C102.337 36.8632 102.169 36.6811 101.947 36.5607C101.726 36.4388 101.452 36.3778 101.125 36.3778H100.378V39.6744Z" fill="#94A3B8"/>
<path d="M110.114 37.2454H109.23C109.205 37.1016 109.158 36.9742 109.091 36.8632C109.023 36.7506 108.939 36.6553 108.838 36.5771C108.737 36.499 108.622 36.4404 108.493 36.4013C108.365 36.3607 108.228 36.3403 108.08 36.3403C107.817 36.3403 107.584 36.406 107.38 36.5373C107.177 36.667 107.018 36.8577 106.903 37.1094C106.788 37.3595 106.731 37.665 106.731 38.0261C106.731 38.3934 106.788 38.7029 106.903 38.9546C107.02 39.2047 107.179 39.3938 107.38 39.522C107.584 39.6486 107.816 39.7119 108.077 39.7119C108.222 39.7119 108.358 39.6932 108.484 39.6556C108.611 39.6166 108.725 39.5595 108.826 39.4845C108.929 39.4095 109.014 39.3172 109.084 39.2078C109.155 39.0984 109.203 38.9734 109.23 38.8327L110.114 38.8374C110.081 39.0656 110.009 39.2797 109.899 39.4798C109.79 39.6799 109.647 39.8565 109.471 40.0097C109.295 40.1613 109.088 40.2801 108.852 40.3661C108.616 40.4505 108.354 40.4927 108.065 40.4927C107.64 40.4927 107.261 40.395 106.927 40.1996C106.593 40.0042 106.33 39.7221 106.138 39.3532C105.946 38.9843 105.85 38.5419 105.85 38.0261C105.85 37.5087 105.946 37.0664 106.14 36.6991C106.334 36.3302 106.598 36.048 106.931 35.8526C107.265 35.6573 107.643 35.5596 108.065 35.5596C108.335 35.5596 108.585 35.5971 108.817 35.6721C109.048 35.7471 109.255 35.8573 109.436 36.0027C109.617 36.1465 109.766 36.3231 109.882 36.5326C110 36.7405 110.077 36.9781 110.114 37.2454Z" fill="#94A3B8"/>
<path d="M115.239 38.0261C115.239 38.5435 115.142 38.9866 114.947 39.3555C114.753 39.7229 114.488 40.0042 114.153 40.1996C113.819 40.395 113.44 40.4927 113.016 40.4927C112.593 40.4927 112.213 40.395 111.878 40.1996C111.544 40.0026 111.279 39.7205 111.084 39.3532C110.89 38.9843 110.793 38.5419 110.793 38.0261C110.793 37.5087 110.89 37.0664 111.084 36.6991C111.279 36.3302 111.544 36.048 111.878 35.8526C112.213 35.6573 112.593 35.5596 113.016 35.5596C113.44 35.5596 113.819 35.6573 114.153 35.8526C114.488 36.048 114.753 36.3302 114.947 36.6991C115.142 37.0664 115.239 37.5087 115.239 38.0261ZM114.358 38.0261C114.358 37.6619 114.301 37.3548 114.186 37.1047C114.072 36.853 113.915 36.6631 113.713 36.5349C113.512 36.4052 113.279 36.3403 113.016 36.3403C112.753 36.3403 112.521 36.4052 112.32 36.5349C112.118 36.6631 111.96 36.853 111.845 37.1047C111.731 37.3548 111.675 37.6619 111.675 38.0261C111.675 38.3903 111.731 38.6982 111.845 38.9499C111.96 39.2 112.118 39.3899 112.32 39.5196C112.521 39.6478 112.753 39.7119 113.016 39.7119C113.279 39.7119 113.512 39.6478 113.713 39.5196C113.915 39.3899 114.072 39.2 114.186 38.9499C114.301 38.6982 114.358 38.3903 114.358 38.0261Z" fill="#94A3B8"/>
<path d="M116.068 35.6252H117.141L118.577 39.1047H118.634L120.07 35.6252H121.143V40.427H120.302V37.1281H120.257L118.92 40.413H118.291L116.954 37.1211H116.909V40.427H116.068V35.6252Z" fill="#94A3B8"/>
<path d="M122.097 35.6252H123.169L124.606 39.1047H124.663L126.099 35.6252H127.171V40.427H126.33V37.1281H126.286L124.948 40.413H124.32L122.983 37.1211H122.938V40.427H122.097V35.6252Z" fill="#94A3B8"/>
<path d="M131.176 35.6252H132.052V38.7623C132.052 39.1062 131.97 39.4087 131.806 39.6697C131.644 39.9307 131.416 40.1347 131.121 40.2817C130.827 40.427 130.483 40.4997 130.089 40.4997C129.694 40.4997 129.349 40.427 129.054 40.2817C128.76 40.1347 128.531 39.9307 128.369 39.6697C128.207 39.4087 128.126 39.1062 128.126 38.7623V35.6252H129.002V38.6897C129.002 38.8897 129.046 39.0679 129.135 39.2242C129.224 39.3805 129.35 39.5032 129.513 39.5923C129.675 39.6799 129.867 39.7236 130.089 39.7236C130.311 39.7236 130.503 39.6799 130.665 39.5923C130.829 39.5032 130.955 39.3805 131.043 39.2242C131.132 39.0679 131.176 38.8897 131.176 38.6897V35.6252Z" fill="#94A3B8"/>
<path d="M136.981 35.6252V40.427H136.201L133.921 37.1563H133.881V40.427H133.005V35.6252H133.789L136.066 38.8983H136.109V35.6252H136.981Z" fill="#94A3B8"/>
<path d="M138.812 35.6252V40.427H137.936V35.6252H138.812Z" fill="#94A3B8"/>
<path d="M143.903 37.2454H143.019C142.994 37.1016 142.947 36.9742 142.88 36.8632C142.812 36.7506 142.728 36.6553 142.627 36.5771C142.526 36.499 142.411 36.4404 142.282 36.4013C142.154 36.3607 142.017 36.3403 141.869 36.3403C141.606 36.3403 141.372 36.406 141.169 36.5373C140.966 36.667 140.807 36.8577 140.692 37.1094C140.577 37.3595 140.52 37.665 140.52 38.0261C140.52 38.3934 140.577 38.7029 140.692 38.9546C140.809 39.2047 140.968 39.3938 141.169 39.522C141.372 39.6486 141.605 39.7119 141.866 39.7119C142.011 39.7119 142.147 39.6932 142.273 39.6556C142.4 39.6166 142.514 39.5595 142.615 39.4845C142.717 39.4095 142.803 39.3172 142.873 39.2078C142.943 39.0984 142.992 38.9734 143.019 38.8327L143.903 38.8374C143.869 39.0656 143.798 39.2797 143.688 39.4798C143.579 39.6799 143.436 39.8565 143.26 40.0097C143.084 40.1613 142.877 40.2801 142.641 40.3661C142.405 40.4505 142.143 40.4927 141.854 40.4927C141.429 40.4927 141.05 40.395 140.716 40.1996C140.382 40.0042 140.119 39.7221 139.927 39.3532C139.734 38.9843 139.638 38.5419 139.638 38.0261C139.638 37.5087 139.735 37.0664 139.929 36.6991C140.123 36.3302 140.387 36.048 140.72 35.8526C141.054 35.6573 141.432 35.5596 141.854 35.5596C142.124 35.5596 142.374 35.5971 142.606 35.6721C142.837 35.7471 143.043 35.8573 143.225 36.0027C143.406 36.1465 143.555 36.3231 143.671 36.5326C143.789 36.7405 143.866 36.9781 143.903 37.2454Z" fill="#94A3B8"/>
<path d="M145.268 40.427H144.333L146.036 35.6252H147.118L148.823 40.427H147.888L146.596 36.61H146.558L145.268 40.427ZM145.299 38.5443H147.85V39.243H145.299V38.5443Z" fill="#94A3B8"/>
<path d="M148.663 36.3544V35.6252H152.524V36.3544H151.028V40.427H150.159V36.3544H148.663Z" fill="#94A3B8"/>
<path d="M154.144 35.6252V40.427H153.268V35.6252H154.144Z" fill="#94A3B8"/>
<path d="M159.417 38.0261C159.417 38.5435 159.319 38.9866 159.124 39.3555C158.93 39.7229 158.665 40.0042 158.33 40.1996C157.996 40.395 157.617 40.4927 157.193 40.4927C156.77 40.4927 156.39 40.395 156.055 40.1996C155.721 40.0026 155.456 39.7205 155.261 39.3532C155.067 38.9843 154.97 38.5419 154.97 38.0261C154.97 37.5087 155.067 37.0664 155.261 36.6991C155.456 36.3302 155.721 36.048 156.055 35.8526C156.39 35.6573 156.77 35.5596 157.193 35.5596C157.617 35.5596 157.996 35.6573 158.33 35.8526C158.665 36.048 158.93 36.3302 159.124 36.6991C159.319 37.0664 159.417 37.5087 159.417 38.0261ZM158.535 38.0261C158.535 37.6619 158.478 37.3548 158.363 37.1047C158.249 36.853 158.092 36.6631 157.89 36.5349C157.689 36.4052 157.456 36.3403 157.193 36.3403C156.93 36.3403 156.698 36.4052 156.497 36.5349C156.295 36.6631 156.137 36.853 156.022 37.1047C155.908 37.3548 155.852 37.6619 155.852 38.0261C155.852 38.3903 155.908 38.6982 156.022 38.9499C156.137 39.2 156.295 39.3899 156.497 39.5196C156.698 39.6478 156.93 39.7119 157.193 39.7119C157.456 39.7119 157.689 39.6478 157.89 39.5196C158.092 39.3899 158.249 39.2 158.363 38.9499C158.478 38.6982 158.535 38.3903 158.535 38.0261Z" fill="#94A3B8"/>
<path d="M164.221 35.6252V40.427H163.441L161.162 37.1563H161.122V40.427H160.245V35.6252H161.029L163.307 38.8983H163.349V35.6252H164.221Z" fill="#94A3B8"/>
<path d="M166.614 36.3544V35.6252H170.474V36.3544H168.978V40.427H168.109V36.3544H166.614Z" fill="#94A3B8"/>
<path d="M171.218 40.427V35.6252H174.365V36.3544H172.094V37.658H174.202V38.3872H172.094V39.6978H174.384V40.427H171.218Z" fill="#94A3B8"/>
<path d="M179.4 37.2454H178.517C178.491 37.1016 178.445 36.9742 178.377 36.8632C178.309 36.7506 178.225 36.6553 178.124 36.5771C178.024 36.499 177.909 36.4404 177.779 36.4013C177.652 36.3607 177.514 36.3403 177.366 36.3403C177.103 36.3403 176.87 36.406 176.667 36.5373C176.464 36.667 176.305 36.8577 176.19 37.1094C176.075 37.3595 176.017 37.665 176.017 38.0261C176.017 38.3934 176.075 38.7029 176.19 38.9546C176.306 39.2047 176.465 39.3938 176.667 39.522C176.87 39.6486 177.102 39.7119 177.364 39.7119C177.509 39.7119 177.644 39.6932 177.77 39.6556C177.898 39.6166 178.012 39.5595 178.113 39.4845C178.215 39.4095 178.301 39.3172 178.37 39.2078C178.441 39.0984 178.49 38.9734 178.517 38.8327L179.4 38.8374C179.367 39.0656 179.295 39.2797 179.185 39.4798C179.076 39.6799 178.934 39.8565 178.758 40.0097C178.581 40.1613 178.375 40.2801 178.139 40.3661C177.902 40.4505 177.64 40.4927 177.352 40.4927C176.927 40.4927 176.547 40.395 176.213 40.1996C175.879 40.0042 175.616 39.7221 175.424 39.3532C175.232 38.9843 175.136 38.5419 175.136 38.0261C175.136 37.5087 175.233 37.0664 175.427 36.6991C175.62 36.3302 175.884 36.048 176.218 35.8526C176.552 35.6573 176.93 35.5596 177.352 35.5596C177.621 35.5596 177.872 35.5971 178.103 35.6721C178.335 35.7471 178.541 35.8573 178.722 36.0027C178.903 36.1465 179.052 36.3231 179.169 36.5326C179.287 36.7405 179.364 36.9781 179.4 37.2454Z" fill="#94A3B8"/>
<path d="M180.203 40.427V35.6252H181.079V37.658H183.321V35.6252H184.2V40.427H183.321V38.3872H181.079V40.427H180.203Z" fill="#94A3B8"/>
<path d="M189.129 35.6252V40.427H188.35L186.07 37.1563H186.03V40.427H185.153V35.6252H185.937L188.215 38.8983H188.257V35.6252H189.129Z" fill="#94A3B8"/>
<path d="M194.407 38.0261C194.407 38.5435 194.31 38.9866 194.114 39.3555C193.921 39.7229 193.656 40.0042 193.321 40.1996C192.987 40.395 192.608 40.4927 192.184 40.4927C191.761 40.4927 191.381 40.395 191.046 40.1996C190.712 40.0026 190.447 39.7205 190.252 39.3532C190.058 38.9843 189.961 38.5419 189.961 38.0261C189.961 37.5087 190.058 37.0664 190.252 36.6991C190.447 36.3302 190.712 36.048 191.046 35.8526C191.381 35.6573 191.761 35.5596 192.184 35.5596C192.608 35.5596 192.987 35.6573 193.321 35.8526C193.656 36.048 193.921 36.3302 194.114 36.6991C194.31 37.0664 194.407 37.5087 194.407 38.0261ZM193.526 38.0261C193.526 37.6619 193.469 37.3548 193.354 37.1047C193.24 36.853 193.083 36.6631 192.881 36.5349C192.68 36.4052 192.447 36.3403 192.184 36.3403C191.921 36.3403 191.689 36.4052 191.487 36.5349C191.286 36.6631 191.127 36.853 191.013 37.1047C190.899 37.3548 190.842 37.6619 190.842 38.0261C190.842 38.3903 190.899 38.6982 191.013 38.9499C191.127 39.2 191.286 39.3899 191.487 39.5196C191.689 39.6478 191.921 39.7119 192.184 39.7119C192.447 39.7119 192.68 39.6478 192.881 39.5196C193.083 39.3899 193.24 39.2 193.354 38.9499C193.469 38.6982 193.526 38.3903 193.526 38.0261Z" fill="#94A3B8"/>
<path d="M195.236 40.427V35.6252H196.112V39.6978H198.243V40.427H195.236Z" fill="#94A3B8"/>
<path d="M203.139 38.0261C203.139 38.5435 203.041 38.9866 202.846 39.3555C202.652 39.7229 202.388 40.0042 202.052 40.1996C201.718 40.395 201.339 40.4927 200.916 40.4927C200.492 40.4927 200.113 40.395 199.777 40.1996C199.443 40.0026 199.179 39.7205 198.983 39.3532C198.79 38.9843 198.693 38.5419 198.693 38.0261C198.693 37.5087 198.79 37.0664 198.983 36.6991C199.179 36.3302 199.443 36.048 199.777 35.8526C200.113 35.6573 200.492 35.5596 200.916 35.5596C201.339 35.5596 201.718 35.6573 202.052 35.8526C202.388 36.048 202.652 36.3302 202.846 36.6991C203.041 37.0664 203.139 37.5087 203.139 38.0261ZM202.258 38.0261C202.258 37.6619 202.2 37.3548 202.085 37.1047C201.972 36.853 201.814 36.6631 201.613 36.5349C201.411 36.4052 201.179 36.3403 200.916 36.3403C200.653 36.3403 200.42 36.4052 200.219 36.5349C200.017 36.6631 199.859 36.853 199.744 37.1047C199.631 37.3548 199.574 37.6619 199.574 38.0261C199.574 38.3903 199.631 38.6982 199.744 38.9499C199.859 39.2 200.017 39.3899 200.219 39.5196C200.42 39.6478 200.653 39.7119 200.916 39.7119C201.179 39.7119 201.411 39.6478 201.613 39.5196C201.814 39.3899 201.972 39.2 202.085 38.9499C202.2 38.6982 202.258 38.3903 202.258 38.0261Z" fill="#94A3B8"/>
<path d="M207.209 37.1586C207.169 37.032 207.115 36.9187 207.046 36.8186C206.978 36.717 206.896 36.6303 206.8 36.5584C206.705 36.4865 206.597 36.4326 206.474 36.3966C206.351 36.3591 206.217 36.3403 206.072 36.3403C205.812 36.3403 205.581 36.4052 205.378 36.5349C205.175 36.6647 205.015 36.8554 204.898 37.107C204.783 37.3571 204.726 37.6619 204.726 38.0214C204.726 38.3841 204.783 38.6912 204.898 38.9429C205.013 39.1945 205.173 39.386 205.378 39.5173C205.582 39.647 205.82 39.7119 206.091 39.7119C206.337 39.7119 206.549 39.665 206.729 39.5712C206.91 39.4774 207.05 39.3446 207.147 39.1726C207.245 38.9991 207.294 38.7959 207.294 38.563L207.492 38.5935H206.179V37.9136H208.142V38.4904C208.142 38.9014 208.054 39.2571 207.877 39.5572C207.701 39.8573 207.458 40.0886 207.15 40.2512C206.841 40.4122 206.486 40.4927 206.086 40.4927C205.641 40.4927 205.249 40.3934 204.912 40.1949C204.577 39.9948 204.315 39.7111 204.126 39.3438C203.938 38.9749 203.845 38.5372 203.845 38.0308C203.845 37.6432 203.9 37.2969 204.01 36.9921C204.122 36.6873 204.278 36.4286 204.478 36.2161C204.678 36.0019 204.912 35.8394 205.182 35.7284C205.451 35.6158 205.744 35.5596 206.06 35.5596C206.328 35.5596 206.578 35.5986 206.809 35.6768C207.041 35.7534 207.246 35.8628 207.426 36.0051C207.607 36.1473 207.756 36.3161 207.872 36.5115C207.989 36.7069 208.065 36.9226 208.102 37.1586H207.209Z" fill="#94A3B8"/>
<path d="M208.477 35.6252H209.466L210.65 37.7495H210.697L211.881 35.6252H212.871L211.111 38.6357V40.427H210.237V38.6357L208.477 35.6252Z" fill="#94A3B8"/>
</g>
</g>
</svg>
