<svg width="1449" height="776" viewBox="0 0 1449 776" fill="none" xmlns="http://www.w3.org/2000/svg">
<path opacity="0.5" d="M1364.4 1055.1C1360.4 1058.4 1356.6 1061.4 1352.6 1064.1C1346.3 1069.1 1340.1 1073.4 1333.8 1077.9C1324.8 1083.9 1315.8 1089.4 1306.3 1094.9C1081.7 1224.7 794.5 1147.7 664.9 923.1L641.6 882.6L595.6 803.3L559.3 740.5C555.5 733.7 551.5 726.7 547.5 720L144.4 21.6001L76.0999 -96.9999L-256.3 -672.6C-385.9 -897 -309.1 -1184.1 -84.5 -1314C-15 -1353.8 60.0999 -1374.3 134.6 -1376.5C137.8 -1376.5 141.1 -1376.8 144.4 -1376.8H149.7C151.2 -1376.8 152.7 -1376.8 154.2 -1376.5C315 -1375.2 470.6 -1291.2 556.9 -1142.1L1478.2 453.5C1595.8 657.7 1543.2 913.1 1364.4 1055.1Z" fill="url(#paint0_linear_4007_277)" stroke="#00FF9D" stroke-miterlimit="10"/>
<defs>
<linearGradient id="paint0_linear_4007_277" x1="493.609" y1="-980.871" x2="740.116" y2="850.285" gradientUnits="userSpaceOnUse">
<stop stop-color="#5078EA"/>
<stop offset="1" stop-opacity="0"/>
</linearGradient>
</defs>
</svg>
