<svg width="60" height="80" viewBox="0 0 60 80" fill="none" xmlns="http://www.w3.org/2000/svg">
<path d="M29.9 10.9996C40.6 10.9996 49.4 19.6996 49.4 30.4996C49.4 41.1996 40.7 49.9996 29.9 49.9996C19.2 49.9996 10.4 41.2996 10.4 30.4996C10.4 19.7996 19.2 10.9996 29.9 10.9996ZM29.9 0.599609C13.4 0.599609 0 13.9996 0 30.4996C0 46.9996 13.4 60.3996 29.9 60.3996C46.4 60.3996 59.8 46.9996 59.8 30.4996C59.8 13.9996 46.4 0.599609 29.9 0.599609Z" fill="#D4D1E9"/>
<path d="M35.2002 54.3994H24.7002V74.1995H35.2002V54.3994Z" fill="#D4D1E9"/>
<path d="M58.3004 69.1992H1.40039V79.0992H58.3004V69.1992Z" fill="#D4D1E9"/>
</svg>
