<svg width="82" height="81" viewBox="0 0 82 81" fill="none" xmlns="http://www.w3.org/2000/svg">
<path d="M40.9001 80.4C18.8001 80.4 0.700195 62.4 0.700195 40.2C0.700195 18.1 18.7001 0 40.9001 0C63.0001 0 81.1002 18 81.1002 40.2C81.1002 62.4 63.1001 80.4 40.9001 80.4ZM40.9001 6.79999C22.4001 6.79999 7.40015 21.8 7.40015 40.3C7.40015 58.8 22.4001 73.8 40.9001 73.8C59.4001 73.8 74.4001 58.8 74.4001 40.3C74.5001 21.8 59.4001 6.79999 40.9001 6.79999Z" fill="#F6851F"/>
<path d="M77.8006 37H4.10059V43.6H77.8006V37Z" fill="#F6851F"/>
<path d="M24.4047 52.1529L12.5254 64.0322L17.1923 68.6991L29.0716 56.8198L24.4047 52.1529Z" fill="#F6851F"/>
<path d="M64.6898 11.8893L52.8105 23.7686L57.4774 28.4354L69.3567 16.5562L64.6898 11.8893Z" fill="#F6851F"/>
<path d="M17.2723 11.9624L12.6055 16.6299L24.4864 28.5092L29.1533 23.8417L17.2723 11.9624Z" fill="#F6851F"/>
<path d="M57.4361 52.0255L52.7686 56.6924L64.6479 68.5734L69.3154 63.9065L57.4361 52.0255Z" fill="#F6851F"/>
<path d="M44.2006 3.5H37.6006V77.2H44.2006V3.5Z" fill="#F6851F"/>
<path d="M40.9001 60.9996C29.5001 60.9996 20.2002 51.6996 20.2002 40.2996C20.2002 28.8996 29.5001 19.5996 40.9001 19.5996C52.3001 19.5996 61.6002 28.8996 61.6002 40.2996C61.6002 51.6996 52.3001 60.9996 40.9001 60.9996ZM40.9001 26.2996C33.2001 26.2996 26.9001 32.5996 26.9001 40.2996C26.9001 47.9996 33.2001 54.2996 40.9001 54.2996C48.6001 54.2996 54.9001 47.9996 54.9001 40.2996C55.0001 32.5996 48.7001 26.2996 40.9001 26.2996Z" fill="#F6851F"/>
</svg>
