<svg width="1849" height="776" viewBox="0 0 1849 776" fill="none" xmlns="http://www.w3.org/2000/svg">
<path opacity="0.5" d="M1684.4 1055.1C1680.4 1058.4 1676.6 1061.4 1672.6 1064.1C1666.3 1069.1 1660.1 1073.4 1653.8 1077.9C1644.8 1083.9 1635.8 1089.4 1626.3 1094.9C1401.7 1224.7 1114.5 1147.7 984.9 923.1L961.6 882.6L915.6 803.3L879.3 740.5C875.5 733.7 871.5 726.7 867.5 720L464.4 21.6001L396.1 -96.9999L63.7 -672.6C-65.9 -897 10.9 -1184.1 235.5 -1314C305 -1353.8 380.1 -1374.3 454.6 -1376.5C457.8 -1376.5 461.1 -1376.8 464.4 -1376.8H469.7C471.2 -1376.8 472.7 -1376.8 474.2 -1376.5C635 -1375.2 790.6 -1291.2 876.9 -1142.1L1798.2 453.5C1915.8 657.7 1863.2 913.1 1684.4 1055.1Z" fill="url(#paint0_linear_869_1241)" stroke="#00FF9D" stroke-miterlimit="10"/>
<defs>
<linearGradient id="paint0_linear_869_1241" x1="813.609" y1="-980.871" x2="1060.12" y2="850.285" gradientUnits="userSpaceOnUse">
<stop stop-color="#5078EA"/>
<stop offset="1" stop-opacity="0"/>
</linearGradient>
</defs>
</svg>
