<svg width="16" height="16" viewBox="0 0 16 16" fill="none" xmlns="http://www.w3.org/2000/svg">
<g id="dashboard-square-01">
<path id="Vector" fill-rule="evenodd" clip-rule="evenodd" d="M0.833496 2.00016C0.833496 1.35583 1.35583 0.833496 2.00016 0.833496H6.00016C6.6445 0.833496 7.16683 1.35583 7.16683 2.00016V6.00016C7.16683 6.6445 6.6445 7.16683 6.00016 7.16683H2.00016C1.35583 7.16683 0.833496 6.6445 0.833496 6.00016V2.00016Z" fill="#FFFFFF"/>
<path id="Vector_2" fill-rule="evenodd" clip-rule="evenodd" d="M8.8335 2.00016C8.8335 1.35583 9.35583 0.833496 10.0002 0.833496H14.0002C14.6445 0.833496 15.1668 1.35583 15.1668 2.00016V6.00016C15.1668 6.6445 14.6445 7.16683 14.0002 7.16683H10.0002C9.35583 7.16683 8.8335 6.6445 8.8335 6.00016V2.00016Z" fill="#FFFFFF"/>
<path id="Vector_3" fill-rule="evenodd" clip-rule="evenodd" d="M0.833496 10.0002C0.833496 9.35583 1.35583 8.8335 2.00016 8.8335H6.00016C6.6445 8.8335 7.16683 9.35583 7.16683 10.0002V14.0002C7.16683 14.6445 6.6445 15.1668 6.00016 15.1668H2.00016C1.35583 15.1668 0.833496 14.6445 0.833496 14.0002V10.0002Z" fill="#FFFFFF"/>
<path id="Vector_4" fill-rule="evenodd" clip-rule="evenodd" d="M8.8335 10.0002C8.8335 9.35583 9.35583 8.8335 10.0002 8.8335H14.0002C14.6445 8.8335 15.1668 9.35583 15.1668 10.0002V14.0002C15.1668 14.6445 14.6445 15.1668 14.0002 15.1668H10.0002C9.35583 15.1668 8.8335 14.6445 8.8335 14.0002V10.0002Z" fill="#FFFFFF"/>
</g>
</svg>
