<svg width="16" height="16" viewBox="0 0 16 16" fill="none" xmlns="http://www.w3.org/2000/svg">
<g id="license">
<path id="Vector" d="M13.6668 9.3335V6.66683C13.6668 4.15267 13.6668 2.8956 12.8858 2.11454C12.1047 1.3335 10.8476 1.3335 8.33343 1.3335H7.66683C5.15272 1.3335 3.89565 1.3335 3.1146 2.11454C2.33355 2.89558 2.33354 4.15264 2.33352 6.66678L2.3335 9.33343C2.33348 11.8476 2.33346 13.1047 3.11452 13.8858C3.89556 14.6668 5.15265 14.6668 7.66683 14.6668H8.33343C10.8476 14.6668 12.1047 14.6668 12.8858 13.8858C13.6668 13.1048 13.6668 11.8476 13.6668 9.3335Z" stroke="#00FF9D" stroke-width="1.5" stroke-linecap="round" stroke-linejoin="round"/>
<path id="Vector_2" d="M5.3335 4.6665H10.6668M5.3335 7.99984H10.6668M5.3335 11.3332H8.00016" stroke="#00FF9D" stroke-width="1.5" stroke-linecap="round" stroke-linejoin="round"/>
</g>
</svg>
