<svg width="16" height="16" viewBox="0 0 16 16" fill="none" xmlns="http://www.w3.org/2000/svg">
<g id="quiz-02">
<path id="Vector" d="M8 1.3335C5.23857 1.3335 3 3.57207 3 6.3335C3 7.8775 3.69982 9.25796 4.79956 10.1752C5.46012 10.7261 6 11.4734 6 12.3335H10C10 11.4734 10.5399 10.7261 11.2005 10.1752C12.3002 9.25796 13 7.8775 13 6.3335C13 3.57207 10.7614 1.3335 8 1.3335Z" stroke="#00FF9D" stroke-width="1.5"/>
<path id="Vector_2" d="M10 12.3335H6V14.6668H10V12.3335Z" stroke="#00FF9D" stroke-width="1.5" stroke-linejoin="round"/>
<path id="Vector_3" d="M6.6665 5.33333C6.6665 4.59695 7.26344 4 7.99984 4C8.73624 4 9.33317 4.59695 9.33317 5.33333C9.33317 5.59877 9.25564 5.84609 9.1219 6.05386C8.72344 6.67313 7.99984 7 7.99984 7V7.66667" stroke="#00FF9D" stroke-width="1.5" stroke-linecap="square"/>
<path id="Vector_4" d="M7.99463 9.3335H8.00063" stroke="#00FF9D" stroke-width="1.5" stroke-linecap="square" stroke-linejoin="round"/>
</g>
</svg>
