<svg width="16" height="16" viewBox="0 0 16 16" fill="none" xmlns="http://www.w3.org/2000/svg">
<g id="user-multiple">
<path id="Vector" d="M12.4109 13.3335H12.7377C13.5042 13.3335 14.114 12.9842 14.6614 12.4959C16.0522 11.2552 12.7829 10.0002 11.6668 10.0002M10.3335 3.37934C10.4849 3.34932 10.6421 3.3335 10.8034 3.3335C12.0166 3.3335 13.0002 4.22893 13.0002 5.3335C13.0002 6.43806 12.0166 7.3335 10.8034 7.3335C10.6421 7.3335 10.4849 7.3177 10.3335 7.28763" stroke="#00FF9D" stroke-width="1.5" stroke-linecap="round"/>
<path id="Vector_2" d="M2.98754 10.7408C2.20156 11.162 0.140759 12.0221 1.39592 13.0983C2.00906 13.624 2.69194 14 3.55048 14H8.44953C9.30807 14 9.99094 13.624 10.6041 13.0983C11.8593 12.0221 9.79847 11.162 9.01247 10.7408C7.16933 9.75307 4.83066 9.75307 2.98754 10.7408Z" stroke="#00FF9D" stroke-width="1.5"/>
<path id="Vector_3" d="M8.66683 5.00016C8.66683 6.47292 7.4729 7.66683 6.00016 7.66683C4.5274 7.66683 3.3335 6.47292 3.3335 5.00016C3.3335 3.5274 4.5274 2.3335 6.00016 2.3335C7.4729 2.3335 8.66683 3.5274 8.66683 5.00016Z" stroke="#00FF9D" stroke-width="1.5"/>
</g>
</svg>
